<svg width="129" height="34" viewBox="0 0 129 34" fill="none" xmlns="http://www.w3.org/2000/svg">
<path d="M20.5395 15.8342C20.5055 12.1914 23.6281 10.4192 23.7709 10.3366C22.0024 7.84668 19.2615 7.50647 18.2982 7.47935C15.9961 7.24538 13.7631 8.80966 12.5904 8.80966C11.3943 8.80966 9.58842 7.50195 7.64211 7.54038C5.13754 7.57768 2.79448 8.97807 1.50942 11.1527C-1.14262 15.5867 0.835293 22.1026 3.37615 25.6867C4.64716 27.442 6.13235 29.4018 8.07632 29.3329C9.97815 29.2572 10.6886 28.162 12.9836 28.162C15.2577 28.162 15.9248 29.3329 17.9073 29.2888C19.9485 29.2572 21.2335 27.5256 22.4601 25.7545C23.9289 23.7426 24.5187 21.7613 24.5421 21.6596C24.4941 21.6438 20.5781 20.2004 20.5395 15.8342Z" fill="white"/>
<path d="M16.7943 5.12163C17.8172 3.88626 18.5171 2.20556 18.3228 0.5C16.8423 0.563294 14.9908 1.48898 13.9246 2.69722C12.9813 3.76193 12.1386 5.50705 12.3563 7.14818C14.0194 7.26799 15.727 6.33779 16.7943 5.12163Z" fill="white"/>
<path d="M48.0675 29.0805H45.4096L43.9536 24.6624H38.893L37.5061 29.0805H34.9185L39.9323 14.0391H43.0291L48.0675 29.0805ZM43.5148 22.8087L42.1981 18.8811C42.0588 18.4799 41.7978 17.535 41.4128 16.0475H41.366C41.2127 16.6873 40.9657 17.6322 40.6263 18.8811L39.3331 22.8087H43.5148Z" fill="white"/>
<path d="M60.9589 23.5244C60.9589 25.3689 60.4427 26.827 59.4105 27.8973C58.4859 28.8501 57.3378 29.326 55.9673 29.326C54.4879 29.326 53.4252 28.8128 52.778 27.7866H52.7312V33.5H50.236V21.8052C50.236 20.6456 50.2044 19.4554 50.1436 18.2347H52.338L52.4773 19.9539H52.5241C53.3562 18.6586 54.619 18.0121 56.3137 18.0121C57.6385 18.0121 58.7445 18.5173 59.6293 19.5289C60.5165 20.5416 60.9589 21.873 60.9589 23.5244ZM58.4168 23.6125C58.4168 22.5569 58.1711 21.6866 57.6772 21.0016C57.1376 20.2873 56.4132 19.9301 55.505 19.9301C54.8894 19.9301 54.3299 20.1291 53.8302 20.5213C53.3293 20.9168 53.0016 21.4334 52.8483 22.0731C52.771 22.3715 52.7324 22.6156 52.7324 22.8078V24.6162C52.7324 25.4051 52.9829 26.0708 53.4838 26.6145C53.9847 27.1581 54.6354 27.4294 55.4359 27.4294C56.3757 27.4294 57.1072 27.079 57.6304 26.3805C58.1547 25.6809 58.4168 24.7586 58.4168 23.6125Z" fill="white"/>
<path d="M73.8781 23.5244C73.8781 25.3689 73.362 26.827 72.3285 27.8973C71.4051 28.8501 70.257 29.326 68.8865 29.326C67.4072 29.326 66.3445 28.8128 65.6984 27.7866H65.6516V33.5H63.1564V21.8052C63.1564 20.6456 63.1248 19.4554 63.064 18.2347H65.2584L65.3977 19.9539H65.4445C66.2754 18.6586 67.5383 18.0121 69.2341 18.0121C70.5578 18.0121 71.6638 18.5173 72.5509 19.5289C73.4345 20.5416 73.8781 21.873 73.8781 23.5244ZM71.3361 23.6125C71.3361 22.5569 71.0891 21.6866 70.5952 21.0016C70.0557 20.2873 69.3336 19.9301 68.4242 19.9301C67.8074 19.9301 67.2492 20.1291 66.7483 20.5213C66.2474 20.9168 65.9208 21.4334 65.7675 22.0731C65.6914 22.3715 65.6516 22.6156 65.6516 22.8078V24.6162C65.6516 25.4051 65.9021 26.0708 66.4007 26.6145C66.9016 27.157 67.5523 27.4294 68.3552 27.4294C69.295 27.4294 70.0264 27.079 70.5496 26.3805C71.0739 25.6809 71.3361 24.7586 71.3361 23.6125Z" fill="white"/>
<path d="M88.3212 24.8626C88.3212 26.1421 87.8612 27.183 86.9378 27.9866C85.9231 28.8649 84.5105 29.3034 82.6953 29.3034C81.0193 29.3034 79.6757 28.9914 78.6587 28.3664L79.2369 26.3579C80.3323 26.9977 81.5343 27.3187 82.8439 27.3187C83.7837 27.3187 84.5152 27.113 85.0407 26.7038C85.5638 26.2946 85.8248 25.7453 85.8248 25.0604C85.8248 24.4501 85.6095 23.9358 85.1776 23.5187C84.7481 23.1017 84.0306 22.714 83.0288 22.3557C80.3019 21.3735 78.9396 19.9347 78.9396 18.0426C78.9396 16.8061 79.4171 15.7923 80.3733 15.0034C81.3259 14.2133 82.597 13.8188 84.1863 13.8188C85.6036 13.8188 86.781 14.0573 87.7208 14.5332L87.097 16.4976C86.2192 16.0364 85.2268 15.8058 84.1161 15.8058C83.2383 15.8058 82.5525 16.0149 82.0609 16.4309C81.6455 16.8027 81.4371 17.256 81.4371 17.7928C81.4371 18.3874 81.6747 18.879 82.1522 19.2656C82.5677 19.6227 83.3226 20.0093 84.418 20.4263C85.7581 20.9474 86.7424 21.5566 87.3755 22.2551C88.0064 22.9513 88.3212 23.8228 88.3212 24.8626Z" fill="white"/>
<path d="M96.5681 20.0433H93.8178V25.3092C93.8178 26.6486 94.3023 27.3177 95.2737 27.3177C95.7196 27.3177 96.0894 27.2804 96.382 27.2058L96.4511 29.0357C95.9595 29.2131 95.3123 29.3024 94.5106 29.3024C93.5252 29.3024 92.7551 29.0119 92.1991 28.4321C91.6456 27.8512 91.367 26.8769 91.367 25.5081V20.0411H89.7285V18.2327H91.367V16.2468L93.8178 15.5325V18.2327H96.5681V20.0433Z" fill="white"/>
<path d="M108.981 23.5685C108.981 25.2357 108.487 26.6044 107.501 27.6748C106.468 28.7768 105.096 29.3261 103.386 29.3261C101.738 29.3261 100.427 28.7982 99.4481 27.7426C98.4697 26.6869 97.9805 25.3543 97.9805 23.7482C97.9805 22.0675 98.4837 20.6909 99.4937 19.6205C100.501 18.549 101.861 18.0133 103.571 18.0133C105.219 18.0133 106.545 18.5411 107.546 19.5979C108.503 20.6231 108.981 21.9466 108.981 23.5685ZM106.392 23.6465C106.392 22.6462 106.171 21.7884 105.722 21.0729C105.199 20.2071 104.451 19.7754 103.482 19.7754C102.479 19.7754 101.717 20.2083 101.194 21.0729C100.746 21.7895 100.525 22.6609 100.525 23.6917C100.525 24.692 100.746 25.5499 101.194 26.2642C101.734 27.13 102.488 27.5617 103.46 27.5617C104.413 27.5617 105.161 27.1209 105.7 26.2416C106.16 25.5126 106.392 24.6457 106.392 23.6465Z" fill="white"/>
<path d="M117.09 20.354C116.843 20.3099 116.58 20.2873 116.304 20.2873C115.426 20.2873 114.747 20.6072 114.27 21.248C113.854 21.8131 113.646 22.5275 113.646 23.3899V29.0807H111.152L111.175 21.6504C111.175 20.4003 111.144 19.2622 111.082 18.2359H113.255L113.346 20.311H113.415C113.679 19.5978 114.094 19.0237 114.663 18.593C115.219 18.2054 115.819 18.0121 116.466 18.0121C116.697 18.0121 116.905 18.0279 117.09 18.0562V20.354Z" fill="white"/>
<path d="M128.25 23.1447C128.25 23.5764 128.221 23.9404 128.159 24.2376H120.673C120.703 25.3091 121.064 26.1286 121.76 26.6937C122.39 27.1989 123.206 27.4521 124.208 27.4521C125.316 27.4521 126.327 27.2814 127.237 26.9389L127.628 28.6117C126.565 29.0593 125.31 29.282 123.863 29.282C122.121 29.282 120.754 28.7869 119.759 27.7979C118.767 26.809 118.27 25.4809 118.27 23.8149C118.27 22.1794 118.732 20.8175 119.658 19.7313C120.627 18.5716 121.936 17.9918 123.584 17.9918C125.203 17.9918 126.428 18.5716 127.26 19.7313C127.919 20.6525 128.25 21.7918 128.25 23.1447ZM125.871 22.5196C125.887 21.8053 125.725 21.1882 125.386 20.6671C124.955 19.9969 124.291 19.6623 123.398 19.6623C122.582 19.6623 121.919 19.989 121.412 20.6445C120.996 21.1656 120.75 21.7906 120.673 22.5185H125.871V22.5196Z" fill="white"/>
<path d="M42.6841 4.7857C42.6841 6.11602 42.2709 7.11743 41.4458 7.78993C40.6816 8.41044 39.5955 8.72126 38.1887 8.72126C37.4912 8.72126 36.8943 8.69188 36.3945 8.6331V1.36441C37.0464 1.26268 37.7486 1.21069 38.507 1.21069C39.8471 1.21069 40.8571 1.49213 41.5383 2.055C42.3013 2.69133 42.6841 3.60119 42.6841 4.7857ZM41.3908 4.81848C41.3908 3.95609 41.1544 3.29489 40.6816 2.83374C40.2087 2.37373 39.5182 2.14316 38.6089 2.14316C38.2226 2.14316 37.8938 2.16802 37.6211 2.22001V7.74585C37.772 7.76846 38.0483 7.77863 38.4497 7.77863C39.3883 7.77863 40.1128 7.52658 40.6231 7.02248C41.1333 6.51839 41.3908 5.78372 41.3908 4.81848Z" fill="white"/>
<path d="M49.5403 5.94768C49.5403 6.76712 49.298 7.43849 48.8135 7.96519C48.3055 8.50659 47.6326 8.77672 46.7923 8.77672C45.9824 8.77672 45.3375 8.51789 44.8565 7.99797C44.3766 7.47918 44.1367 6.82476 44.1367 6.03584C44.1367 5.21075 44.3837 4.53373 44.8799 4.00816C45.3761 3.48259 46.0432 3.21924 46.8836 3.21924C47.6934 3.21924 48.3442 3.47807 48.8369 3.99686C49.305 4.50095 49.5403 5.15198 49.5403 5.94768ZM48.2681 5.98611C48.2681 5.49445 48.1581 5.07286 47.9392 4.72135C47.6817 4.29637 47.3154 4.08389 46.8391 4.08389C46.3464 4.08389 45.9718 4.29637 45.7144 4.72135C45.4943 5.07286 45.3855 5.50123 45.3855 6.00759C45.3855 6.49925 45.4955 6.92083 45.7144 7.27235C45.98 7.69732 46.3499 7.90981 46.8274 7.90981C47.2955 7.90981 47.663 7.69393 47.9275 7.26104C48.1546 6.90275 48.2681 6.47777 48.2681 5.98611Z" fill="white"/>
<path d="M58.7348 3.32776L57.0085 8.6558H55.8849L55.1699 6.34216C54.9884 5.7646 54.841 5.19043 54.7263 4.62078H54.704C54.5975 5.20625 54.4501 5.77929 54.2605 6.34216L53.5009 8.6558H52.3645L50.7412 3.32776H52.0017L52.6255 5.86067C52.7765 6.45971 52.9005 7.03049 53 7.57075H53.0222C53.1135 7.12543 53.2645 6.55804 53.4775 5.87197L54.2605 3.32889H55.26L56.0102 5.81772C56.1916 6.42467 56.339 7.00901 56.4526 7.57188H56.4865C56.5696 7.02371 56.6948 6.43936 56.861 5.81772L57.5305 3.32889H58.7348V3.32776Z" fill="white"/>
<path d="M65.0928 8.656H63.8662V5.6043C63.8662 4.66393 63.4964 4.19374 62.7544 4.19374C62.3904 4.19374 62.0966 4.32259 61.8684 4.58142C61.6425 4.84025 61.5278 5.14542 61.5278 5.49467V8.65487H60.3013V4.85042C60.3013 4.38249 60.2861 3.87501 60.2568 3.3257H61.3347L61.3921 4.1587H61.426C61.5688 3.89987 61.7818 3.68625 62.0615 3.51558C62.3939 3.31666 62.7661 3.21606 63.1734 3.21606C63.6883 3.21606 64.1167 3.37656 64.4572 3.69869C64.8809 4.09315 65.0928 4.68201 65.0928 5.46415V8.656Z" fill="white"/>
<path d="M68.4783 8.65585H67.2529V0.883057H68.4783V8.65585Z" fill="white"/>
<path d="M75.6951 5.94768C75.6951 6.76712 75.4528 7.43849 74.9683 7.96519C74.4603 8.50659 73.7862 8.77672 72.9471 8.77672C72.136 8.77672 71.4911 8.51789 71.0113 7.99797C70.5314 7.47918 70.2915 6.82476 70.2915 6.03584C70.2915 5.21075 70.5385 4.53373 71.0347 4.00816C71.5309 3.48259 72.198 3.21924 73.0372 3.21924C73.8482 3.21924 74.4978 3.47807 74.9917 3.99686C75.4598 4.50095 75.6951 5.15198 75.6951 5.94768ZM74.4217 5.98611C74.4217 5.49445 74.3117 5.07286 74.0928 4.72135C73.8365 4.29637 73.469 4.08389 72.9939 4.08389C72.5 4.08389 72.1255 4.29637 71.8691 4.72135C71.6491 5.07286 71.5403 5.50123 71.5403 6.00759C71.5403 6.49925 71.6503 6.92083 71.8691 7.27235C72.1348 7.69732 72.5047 7.90981 72.9822 7.90981C73.4503 7.90981 73.8166 7.69393 74.0811 7.26104C74.3094 6.90275 74.4217 6.47777 74.4217 5.98611Z" fill="white"/>
<path d="M81.6328 8.65578H80.5315L80.4402 8.04205H80.4063C80.0294 8.53145 79.4922 8.77672 78.7947 8.77672C78.2739 8.77672 77.8525 8.61509 77.5354 8.2941C77.2475 8.00249 77.1035 7.63968 77.1035 7.20905C77.1035 6.55802 77.3844 6.06184 77.9497 5.71824C78.5138 5.37464 79.3073 5.20623 80.329 5.21414V5.11468C80.329 4.41279 79.9475 4.06241 79.1832 4.06241C78.639 4.06241 78.1592 4.19465 77.7449 4.45687L77.4956 3.67925C78.0082 3.37295 78.6414 3.21924 79.3881 3.21924C80.8299 3.21924 81.5532 3.95391 81.5532 5.42324V7.38537C81.5532 7.91772 81.5801 8.34157 81.6328 8.65578ZM80.3595 6.82476V6.00307C79.0065 5.98046 78.3301 6.33875 78.3301 7.07681C78.3301 7.35486 78.4073 7.56282 78.5653 7.70184C78.7233 7.84087 78.9246 7.90981 79.1645 7.90981C79.4337 7.90981 79.6853 7.8273 79.9147 7.66342C80.1453 7.4984 80.2869 7.2893 80.3396 7.03273C80.3524 6.97509 80.3595 6.90501 80.3595 6.82476Z" fill="white"/>
<path d="M88.6011 8.65585H87.5127L87.4553 7.80024H87.4214C87.0738 8.45127 86.4816 8.77678 85.6494 8.77678C84.9847 8.77678 84.4311 8.52474 83.9922 8.02064C83.5533 7.51655 83.3345 6.86213 83.3345 6.05851C83.3345 5.19612 83.5721 4.49762 84.0496 3.96414C84.5119 3.46683 85.0783 3.21817 85.7524 3.21817C86.4933 3.21817 87.0117 3.45892 87.3067 3.94154H87.3301V0.883057H88.5578V7.22042C88.5578 7.73921 88.5718 8.21731 88.6011 8.65585ZM87.3301 6.40889V5.52051C87.3301 5.36679 87.3184 5.24247 87.2961 5.14752C87.2271 4.8627 87.0784 4.62308 86.8526 4.42981C86.6243 4.23653 86.3493 4.13933 86.0321 4.13933C85.5745 4.13933 85.2164 4.31452 84.9531 4.66603C84.6921 5.01754 84.5598 5.46626 84.5598 6.01443C84.5598 6.54113 84.6851 6.96837 84.9367 7.29728C85.2024 7.64766 85.5605 7.82285 86.0087 7.82285C86.4113 7.82285 86.7332 7.67704 86.9778 7.38431C87.2142 7.11417 87.3301 6.78866 87.3301 6.40889Z" fill="white"/>
<path d="M99.0945 5.94768C99.0945 6.76712 98.8522 7.43849 98.3677 7.96519C97.8597 8.50659 97.188 8.77672 96.3465 8.77672C95.5378 8.77672 94.8929 8.51789 94.4107 7.99797C93.9308 7.47918 93.6909 6.82476 93.6909 6.03584C93.6909 5.21075 93.9379 4.53373 94.4341 4.00816C94.9303 3.48259 95.5974 3.21924 96.4389 3.21924C97.2476 3.21924 97.8995 3.47807 98.3911 3.99686C98.8592 4.50095 99.0945 5.15198 99.0945 5.94768ZM97.8235 5.98611C97.8235 5.49445 97.7134 5.07286 97.4946 4.72135C97.2359 4.29637 96.8708 4.08389 96.3933 4.08389C95.9017 4.08389 95.5272 4.29637 95.2686 4.72135C95.0485 5.07286 94.9397 5.50123 94.9397 6.00759C94.9397 6.49925 95.0497 6.92083 95.2686 7.27235C95.5342 7.69732 95.9041 7.90981 96.3816 7.90981C96.8497 7.90981 97.2184 7.69393 97.4829 7.26104C97.7088 6.90275 97.8235 6.47777 97.8235 5.98611Z" fill="white"/>
<path d="M105.688 8.656H104.463V5.6043C104.463 4.66393 104.093 4.19374 103.35 4.19374C102.986 4.19374 102.692 4.32259 102.465 4.58142C102.238 4.84025 102.125 5.14542 102.125 5.49467V8.65487H100.897V4.85042C100.897 4.38249 100.883 3.87501 100.854 3.3257H101.93L101.988 4.1587H102.022C102.165 3.89987 102.378 3.68625 102.657 3.51558C102.991 3.31666 103.362 3.21606 103.77 3.21606C104.284 3.21606 104.712 3.37656 105.053 3.69869C105.478 4.09315 105.688 4.68201 105.688 5.46415V8.656Z" fill="white"/>
<path d="M113.943 4.21503H112.592V6.80333C112.592 7.46114 112.832 7.79004 113.307 7.79004C113.527 7.79004 113.71 7.77196 113.854 7.73466L113.885 8.63322C113.643 8.72138 113.325 8.76546 112.933 8.76546C112.448 8.76546 112.071 8.62304 111.799 8.33822C111.525 8.05339 111.389 7.57416 111.389 6.90166V4.21503H110.583V3.32778H111.389V2.35123L112.591 2.00085V3.32665H113.941V4.21503H113.943Z" fill="white"/>
<path d="M120.438 8.65585H119.21V5.62675C119.21 4.67168 118.84 4.19358 118.1 4.19358C117.531 4.19358 117.142 4.4705 116.929 5.02433C116.893 5.14074 116.872 5.28315 116.872 5.45043V8.65472H115.646V0.883057H116.872V4.09412H116.895C117.281 3.50978 117.835 3.21817 118.553 3.21817C119.06 3.21817 119.481 3.37867 119.814 3.70079C120.23 4.10203 120.438 4.69881 120.438 5.48773V8.65585Z" fill="white"/>
<path d="M127.133 5.73988C127.133 5.95237 127.116 6.13095 127.087 6.27675H123.408C123.425 6.80345 123.6 7.20469 123.941 7.48274C124.252 7.73139 124.654 7.85572 125.145 7.85572C125.689 7.85572 126.186 7.77208 126.633 7.60367L126.825 8.4265C126.302 8.64577 125.686 8.75541 124.973 8.75541C124.119 8.75541 123.446 8.5124 122.959 8.02639C122.47 7.54038 122.228 6.88822 122.228 6.06991C122.228 5.2663 122.453 4.59719 122.909 4.0637C123.384 3.49405 124.026 3.20923 124.837 3.20923C125.631 3.20923 126.234 3.49405 126.641 4.0637C126.97 4.51581 127.133 5.07528 127.133 5.73988ZM125.962 5.43358C125.972 5.08207 125.891 4.77916 125.725 4.52372C125.512 4.19481 125.187 4.0298 124.748 4.0298C124.348 4.0298 124.022 4.19029 123.772 4.51242C123.569 4.76899 123.448 5.07528 123.408 5.43358H125.962Z" fill="white"/>
</svg>
