<svg width="24" height="24" viewBox="0 0 24 24" fill="none" xmlns="http://www.w3.org/2000/svg">
<path d="M1.18968 12.75L10.5 3.43969C10.6388 3.2998 10.804 3.18889 10.986 3.11341C11.168 3.03792 11.3632 2.99938 11.5603 3.00001H20.25C20.4489 3.00001 20.6397 3.07903 20.7803 3.21968C20.921 3.36033 21 3.5511 21 3.75001V12.4397C21.0006 12.6368 20.9621 12.832 20.8866 13.014C20.8111 13.196 20.7002 13.3612 20.5603 13.5L11.25 22.8103C11.1107 22.9496 10.9453 23.0602 10.7633 23.1356C10.5813 23.211 10.3862 23.2498 10.1892 23.2498C9.9922 23.2498 9.79712 23.211 9.61511 23.1356C9.4331 23.0602 9.26772 22.9496 9.12843 22.8103L1.18968 14.8716C1.05036 14.7323 0.939837 14.5669 0.864433 14.3849C0.789028 14.2029 0.750219 14.0078 0.750219 13.8108C0.750219 13.6138 0.789028 13.4187 0.864433 13.2367C0.939837 13.0547 1.05036 12.8893 1.18968 12.75ZM10.1897 21.75L19.5 12.4397V4.50001H11.5603L2.24999 13.8103L10.1897 21.75ZM15 7.87501C15 8.09751 15.066 8.31502 15.1896 8.50002C15.3132 8.68503 15.4889 8.82922 15.6945 8.91437C15.9 8.99952 16.1262 9.0218 16.3445 8.97839C16.5627 8.93498 16.7632 8.82784 16.9205 8.6705C17.0778 8.51317 17.185 8.31271 17.2284 8.09448C17.2718 7.87626 17.2495 7.65006 17.1644 7.44449C17.0792 7.23892 16.935 7.06322 16.75 6.9396C16.565 6.81599 16.3475 6.75001 16.125 6.75001C15.8266 6.75001 15.5405 6.86853 15.3295 7.07951C15.1185 7.29049 15 7.57664 15 7.87501Z" fill="#ffffff"/>
</svg>
