<svg width="24" height="24" viewBox="0 0 24 24" fill="none" xmlns="http://www.w3.org/2000/svg">
<path d="M22.1991 17.6335L14.0006 3.39569C13.7957 3.04687 13.5033 2.75764 13.1522 2.55668C12.8011 2.35572 12.4036 2.25 11.9991 2.25C11.5945 2.25 11.197 2.35572 10.8459 2.55668C10.4948 2.75764 10.2024 3.04687 9.99749 3.39569L1.79905 17.6335C1.60193 17.9709 1.49805 18.3546 1.49805 18.7454C1.49805 19.1361 1.60193 19.5199 1.79905 19.8572C2.0013 20.2082 2.29327 20.499 2.64502 20.6998C2.99676 20.9006 3.3956 21.0043 3.80061 21.0001H20.1975C20.6022 21.0039 21.0006 20.9001 21.352 20.6993C21.7034 20.4985 21.9951 20.2079 22.1972 19.8572C22.3946 19.52 22.4988 19.1364 22.4991 18.7456C22.4995 18.3549 22.3959 17.9711 22.1991 17.6335ZM20.8987 19.1063C20.8273 19.2282 20.7247 19.3289 20.6014 19.3981C20.4782 19.4673 20.3388 19.5025 20.1975 19.5001H3.80061C3.65931 19.5025 3.5199 19.4673 3.39667 19.3981C3.27345 19.3289 3.17084 19.2282 3.09936 19.1063C3.03463 18.9967 3.00048 18.8717 3.00048 18.7444C3.00048 18.6171 3.03463 18.4922 3.09936 18.3826L11.2978 4.14475C11.3707 4.02341 11.4738 3.92301 11.597 3.8533C11.7202 3.7836 11.8594 3.74696 12.0009 3.74696C12.1425 3.74696 12.2816 3.7836 12.4049 3.8533C12.5281 3.92301 12.6311 4.02341 12.7041 4.14475L20.9025 18.3826C20.9667 18.4925 21.0002 18.6176 20.9995 18.7449C20.9988 18.8722 20.964 18.997 20.8987 19.1063ZM11.2491 13.5001V9.75006C11.2491 9.55115 11.3281 9.36038 11.4687 9.21973C11.6094 9.07908 11.8001 9.00006 11.9991 9.00006C12.198 9.00006 12.3887 9.07908 12.5294 9.21973C12.67 9.36038 12.7491 9.55115 12.7491 9.75006V13.5001C12.7491 13.699 12.67 13.8897 12.5294 14.0304C12.3887 14.171 12.198 14.2501 11.9991 14.2501C11.8001 14.2501 11.6094 14.171 11.4687 14.0304C11.3281 13.8897 11.2491 13.699 11.2491 13.5001ZM13.1241 16.8751C13.1241 17.0976 13.0581 17.3151 12.9345 17.5001C12.8108 17.6851 12.6351 17.8293 12.4296 17.9144C12.224 17.9996 11.9978 18.0219 11.7796 17.9784C11.5613 17.935 11.3609 17.8279 11.2036 17.6706C11.0462 17.5132 10.9391 17.3128 10.8957 17.0945C10.8523 16.8763 10.8745 16.6501 10.9597 16.4445C11.0448 16.239 11.189 16.0633 11.374 15.9397C11.559 15.816 11.7765 15.7501 11.9991 15.7501C12.2974 15.7501 12.5836 15.8686 12.7945 16.0796C13.0055 16.2905 13.1241 16.5767 13.1241 16.8751Z" fill="#ffffff"/>
</svg>
