<svg width="24" height="24" viewBox="0 0 24 24" fill="none" xmlns="http://www.w3.org/2000/svg">
<path fill-rule="evenodd" clip-rule="evenodd" d="M21 12C21 16.9703 16.9703 21 12 21C7.02975 21 3 16.9703 3 12C3 7.02975 7.02975 3 12 3C16.9703 3 21 7.02975 21 12ZM13 13.0093C13 13.2749 12.8947 13.5297 12.7072 13.7175C12.5197 13.9053 12.2654 14.0109 12.0002 14.0109C11.7351 14.0109 11.4808 13.9053 11.2933 13.7175C11.1058 13.5297 11.0005 13.2749 11.0005 13.0093V8.00155C11.0005 7.73592 11.1058 7.48118 11.2933 7.29335C11.4808 7.10552 11.7351 7 12.0002 7C12.2654 7 12.5197 7.10552 12.7072 7.29335C12.8947 7.48118 13 7.73592 13 8.00155V13.0093ZM12.0002 14.9964C12.1316 14.9964 12.2616 15.0224 12.3829 15.0727C12.5042 15.1231 12.6144 15.1969 12.7073 15.29C12.8001 15.383 12.8738 15.4935 12.924 15.6151C12.9742 15.7366 13 15.8669 13 15.9984C13 16.13 12.9741 16.2603 12.9238 16.3818C12.8735 16.5033 12.7998 16.6138 12.7069 16.7068C12.614 16.7998 12.5038 16.8735 12.3825 16.9238C12.2611 16.9742 12.1311 17 11.9998 17C11.7345 16.9999 11.4802 16.8943 11.2927 16.7064C11.1052 16.5185 10.9999 16.2636 11 15.9979C11.0001 15.7323 11.1055 15.4775 11.2931 15.2896C11.4807 15.1018 11.735 14.9963 12.0002 14.9964Z" fill="#F35E2F"/>
</svg>
