<svg width="130" height="30" viewBox="0 0 130 30" fill="none" xmlns="http://www.w3.org/2000/svg">
<path d="M42.0224 3.72497C42.0224 4.6455 41.7449 5.38276 41.1982 5.93259C40.5696 6.58441 39.751 6.91238 38.7478 6.91238C37.789 6.91238 36.9703 6.57889 36.2988 5.92157C35.6258 5.2546 35.29 4.43604 35.29 3.45625C35.29 2.47646 35.6258 1.65791 36.2988 0.996447C36.9703 0.333609 37.789 0.00012207 38.7478 0.00012207C39.2251 0.00012207 39.6802 0.0979631 40.1145 0.279865C40.5474 0.463144 40.8999 0.711192 41.1552 1.01712L40.5752 1.59865C40.1298 1.07637 39.5234 0.81868 38.7478 0.81868C38.0485 0.81868 37.4421 1.06121 36.9273 1.55042C36.4181 2.041 36.1628 2.67628 36.1628 3.45625C36.1628 4.23622 36.4181 4.87701 36.9273 5.36759C37.4421 5.85129 38.0485 6.09934 38.7478 6.09934C39.4901 6.09934 40.1145 5.85129 40.6071 5.36208C40.9318 5.03824 41.1163 4.59176 41.1649 4.02125H38.7478V3.22474H41.9724C42.0113 3.397 42.0224 3.56374 42.0224 3.72497Z" fill="white"/>
<path d="M47.1404 0.963278H44.1114V3.0579H46.8421V3.85441H44.1114V5.94903H47.1404V6.7607H43.2539V0.151611H47.1404V0.963278Z" fill="white"/>
<path d="M50.7462 6.7607H49.8887V0.963278H48.0308V0.151611H52.6055V0.963278H50.7462V6.7607Z" fill="white"/>
<path d="M55.9189 6.7607V0.151611H56.7762V6.7607H55.9189Z" fill="white"/>
<path d="M60.5714 6.7607H59.7208V0.963278H57.856V0.151611H62.4362V0.963278H60.5714V6.7607Z" fill="white"/>
<path d="M71.0966 5.91067C70.4403 6.57902 69.6272 6.9125 68.6573 6.9125C67.6818 6.9125 66.8687 6.57902 66.2124 5.91067C65.5575 5.24369 65.2314 4.42514 65.2314 3.45637C65.2314 2.48761 65.5575 1.66905 66.2124 1.00208C66.8687 0.333731 67.6818 0.000244141 68.6573 0.000244141C69.6216 0.000244141 70.4347 0.33373 71.091 1.00759C71.7515 1.68008 72.0776 2.49312 72.0776 3.45637C72.0776 4.42514 71.7515 5.24369 71.0966 5.91067ZM66.8465 5.35669C67.3405 5.85141 67.9413 6.09946 68.6573 6.09946C69.3677 6.09946 69.9741 5.85141 70.4625 5.35669C70.955 4.86198 71.2048 4.2267 71.2048 3.45637C71.2048 2.68605 70.955 2.05077 70.4625 1.55605C69.9741 1.06134 69.3677 0.813289 68.6573 0.813289C67.9413 0.813289 67.3405 1.06134 66.8465 1.55605C66.354 2.05077 66.1042 2.68605 66.1042 3.45637C66.1042 4.2267 66.354 4.86198 66.8465 5.35669Z" fill="white"/>
<path d="M73.2822 6.7607V0.151611H74.3229L77.5586 5.29171H77.5961L77.5586 4.02115V0.151611H78.4147V6.7607H77.5212L74.1328 1.36704H74.0953L74.1328 2.64311V6.7607H73.2822Z" fill="white"/>
<path d="M65.0162 16.4125C62.4091 16.4125 60.2792 18.3831 60.2792 21.102C60.2792 23.7988 62.4091 25.7901 65.0162 25.7901C67.629 25.7901 69.7588 23.7988 69.7588 21.102C69.7588 18.3831 67.629 16.4125 65.0162 16.4125ZM65.0162 23.9435C63.5857 23.9435 62.3549 22.7708 62.3549 21.102C62.3549 19.4111 63.5857 18.2591 65.0162 18.2591C66.4468 18.2591 67.6831 19.4111 67.6831 21.102C67.6831 22.7708 66.4468 23.9435 65.0162 23.9435ZM54.6805 16.4125C52.0677 16.4125 49.9434 18.3831 49.9434 21.102C49.9434 23.7988 52.0677 25.7901 54.6805 25.7901C57.2918 25.7901 59.4175 23.7988 59.4175 21.102C59.4175 18.3831 57.2918 16.4125 54.6805 16.4125ZM54.6805 23.9435C53.2485 23.9435 52.0136 22.7708 52.0136 21.102C52.0136 19.4111 53.2485 18.2591 54.6805 18.2591C56.111 18.2591 57.3418 19.4111 57.3418 21.102C57.3418 22.7708 56.111 23.9435 54.6805 23.9435ZM42.3813 17.8498V19.8425H47.1725C47.0323 20.9559 46.6577 21.7745 46.0833 22.345C45.3839 23.034 44.2947 23.7988 42.3813 23.7988C39.4328 23.7988 37.1239 21.4355 37.1239 18.5071C37.1239 15.5788 39.4328 13.2155 42.3813 13.2155C43.9756 13.2155 45.1356 13.8342 45.9917 14.6362L47.4056 13.232C46.2081 12.0965 44.6152 11.2242 42.3813 11.2242C38.338 11.2242 34.9399 14.4915 34.9399 18.5071C34.9399 22.5227 38.338 25.7901 42.3813 25.7901C44.5667 25.7901 46.2081 25.079 47.4986 23.7451C48.8209 22.4318 49.233 20.5852 49.233 19.0942C49.233 18.6312 49.1941 18.2053 49.1248 17.8498H42.3813ZM92.6741 19.3946C92.2842 18.3459 91.0812 16.4125 88.6308 16.4125C86.2026 16.4125 84.1809 18.3128 84.1809 21.102C84.1809 23.7285 86.1818 25.7901 88.8639 25.7901C91.0326 25.7901 92.2842 24.4768 92.7989 23.712L91.1894 22.6468C90.6524 23.4267 89.9212 23.9435 88.8639 23.9435C87.8135 23.9435 87.0601 23.4653 86.5772 22.5227L92.8919 19.9279L92.6741 19.3946ZM86.2359 20.9559C86.1818 19.1479 87.6498 18.2219 88.7015 18.2219C89.5257 18.2219 90.225 18.6312 90.4582 19.2168L86.2359 20.9559ZM81.1034 25.5048H83.1791V11.7244H81.1034V25.5048ZM77.7039 17.4571H77.6345C77.1683 16.9086 76.2789 16.4125 75.1522 16.4125C72.7878 16.4125 70.6261 18.4741 70.6261 21.1171C70.6261 23.7451 72.7878 25.7901 75.1522 25.7901C76.2789 25.7901 77.1683 25.2899 77.6345 24.7249H77.7039V25.3973C77.7039 27.1902 76.7396 28.1534 75.1841 28.1534C73.9159 28.1534 73.1292 27.2439 72.8045 26.4791L70.9993 27.2274C71.5196 28.4704 72.8975 30 75.1841 30C77.6179 30 79.6714 28.5779 79.6714 25.1176V16.6978H77.7039V17.4571ZM75.3298 23.9435C73.8993 23.9435 72.7018 22.7543 72.7018 21.1171C72.7018 19.4649 73.8993 18.2591 75.3298 18.2591C76.7396 18.2591 77.851 19.4649 77.851 21.1171C77.851 22.7543 76.7396 23.9435 75.3298 23.9435ZM102.392 11.7244H97.4278V25.5048H99.498V20.2834H102.392C104.692 20.2834 106.946 18.6312 106.946 16.0032C106.946 13.3767 104.686 11.7244 102.392 11.7244ZM102.446 18.3666H99.498V13.6413H102.446C103.992 13.6413 104.875 14.916 104.875 16.0032C104.875 17.0698 103.992 18.3666 102.446 18.3666ZM115.244 16.3863C113.748 16.3863 112.193 17.0423 111.553 18.4961L113.39 19.2609C113.785 18.4961 114.513 18.2481 115.281 18.2481C116.355 18.2481 117.444 18.8889 117.461 20.0202V20.1649C117.086 19.9499 116.284 19.6316 115.298 19.6316C113.319 19.6316 111.303 20.7134 111.303 22.7322C111.303 24.5788 112.924 25.768 114.746 25.768C116.139 25.768 116.907 25.1438 117.39 24.4176H117.461V25.4828H119.46V20.1966C119.46 17.7533 117.623 16.3863 115.244 16.3863ZM114.994 23.938C114.317 23.938 113.373 23.6045 113.373 22.7708C113.373 21.7042 114.55 21.2949 115.568 21.2949C116.48 21.2949 116.907 21.4947 117.461 21.7579C117.299 23.034 116.193 23.938 114.994 23.938ZM126.745 16.6881L124.365 22.6619H124.295L121.835 16.6881H119.602L123.298 25.0363L121.189 29.6817H123.353L129.048 16.6881H126.745ZM108.084 25.5048H110.16V11.7244H108.084V25.5048Z" fill="white"/>
<path d="M0.966924 0.742879C0.640853 1.08188 0.452148 1.60967 0.452148 2.29318V26.6735C0.452148 27.357 0.640853 27.8848 0.966924 28.2238L1.0474 28.2982L14.8035 14.6418V14.3194L1.0474 0.662953L0.966924 0.742879Z" fill="url(#paint0_linear_429_538)"/>
<path d="M19.382 19.1962L14.8018 14.6417V14.3193L19.3876 9.76485L19.4903 9.8241L24.9211 12.893C26.471 13.7639 26.471 15.1971 24.9211 16.0735L19.4903 19.1369L19.382 19.1962Z" fill="url(#paint1_linear_429_538)"/>
<path d="M19.4913 19.1372L14.8028 14.4808L0.966309 28.224C1.48109 28.7614 2.32055 28.8262 3.27517 28.2887L19.4913 19.1372Z" fill="url(#paint2_linear_429_538)"/>
<path d="M19.4913 9.82419L3.27517 0.672609C2.32055 0.140685 1.48109 0.205451 0.966309 0.742888L14.8028 14.4806L19.4913 9.82419Z" fill="url(#paint3_linear_429_538)"/>
<defs>
<linearGradient id="paint0_linear_429_538" x1="13.5821" y1="26.9274" x2="-4.91896" y2="8.29885" gradientUnits="userSpaceOnUse">
<stop stop-color="#00A0FF"/>
<stop offset="0.0066" stop-color="#00A1FF"/>
<stop offset="0.2601" stop-color="#00BEFF"/>
<stop offset="0.5122" stop-color="#00D2FF"/>
<stop offset="0.7604" stop-color="#00DFFF"/>
<stop offset="1" stop-color="#00E3FF"/>
</linearGradient>
<linearGradient id="paint1_linear_429_538" x1="26.9393" y1="14.479" x2="0.0799678" y2="14.479" gradientUnits="userSpaceOnUse">
<stop stop-color="#FFE000"/>
<stop offset="0.4087" stop-color="#FFBD00"/>
<stop offset="0.7754" stop-color="#FFA500"/>
<stop offset="1" stop-color="#FF9C00"/>
</linearGradient>
<linearGradient id="paint2_linear_429_538" x1="16.9419" y1="11.9495" x2="-8.14705" y2="-13.3124" gradientUnits="userSpaceOnUse">
<stop stop-color="#FF3A44"/>
<stop offset="1" stop-color="#C31162"/>
</linearGradient>
<linearGradient id="paint3_linear_429_538" x1="-2.51664" y1="36.335" x2="8.68669" y2="25.0546" gradientUnits="userSpaceOnUse">
<stop stop-color="#32A071"/>
<stop offset="0.0685" stop-color="#2DA771"/>
<stop offset="0.4762" stop-color="#15CF74"/>
<stop offset="0.8009" stop-color="#06E775"/>
<stop offset="1" stop-color="#00F076"/>
</linearGradient>
</defs>
</svg>
