<svg width="120" height="120" viewBox="0 0 120 120" fill="none" xmlns="http://www.w3.org/2000/svg">
<g clip-path="url(#clip0_93_4331)">
<path d="M41.0342 10.0005H37.5859V13.4487H41.0342V10.0005Z" fill="#1E1C2C"/>
<path d="M44.4834 10.0005H41.0352V13.4487H44.4834V10.0005Z" fill="#1E1C2C"/>
<path d="M47.9307 10.0005H44.4824V13.4487H47.9307V10.0005Z" fill="#1E1C2C"/>
<path d="M58.2764 10.0005H54.8281V13.4487H58.2764V10.0005Z" fill="#1E1C2C"/>
<path d="M61.7236 10.0005H58.2754V13.4487H61.7236V10.0005Z" fill="#1E1C2C"/>
<path d="M65.1729 10H61.7246V13.4483H65.1729V10Z" fill="#1E1C2C"/>
<path d="M75.5166 10.0005H72.0684V13.4487H75.5166V10.0005Z" fill="#1E1C2C"/>
<path d="M41.0342 13.4487H37.5859V16.897H41.0342V13.4487Z" fill="#1E1C2C"/>
<path d="M44.4834 13.4487H41.0352V16.897H44.4834V13.4487Z" fill="#1E1C2C"/>
<path d="M47.9307 13.4487H44.4824V16.897H47.9307V13.4487Z" fill="#1E1C2C"/>
<path d="M51.3799 13.4482H47.9316V16.8965H51.3799V13.4482Z" fill="#1E1C2C"/>
<path d="M54.8272 13.4482H51.3789V16.8965H54.8272V13.4482Z" fill="#1E1C2C"/>
<path d="M58.2764 13.4487H54.8281V16.897H58.2764V13.4487Z" fill="#1E1C2C"/>
<path d="M61.7236 13.4487H58.2754V16.897H61.7236V13.4487Z" fill="#1E1C2C"/>
<path d="M65.1729 13.4487H61.7246V16.897H65.1729V13.4487Z" fill="#1E1C2C"/>
<path d="M72.0693 13.4487H68.6211V16.897H72.0693V13.4487Z" fill="#1E1C2C"/>
<path d="M75.5166 13.4487H72.0684V16.897H75.5166V13.4487Z" fill="#1E1C2C"/>
<path d="M78.9658 13.4487H75.5176V16.897H78.9658V13.4487Z" fill="#1E1C2C"/>
<path d="M82.4131 13.4482H78.9648V16.8965H82.4131V13.4482Z" fill="#1E1C2C"/>
<path d="M41.0342 16.8965H37.5859V20.3447H41.0342V16.8965Z" fill="#1E1C2C"/>
<path d="M44.4834 16.8965H41.0352V20.3447H44.4834V16.8965Z" fill="#1E1C2C"/>
<path d="M47.9307 16.8965H44.4824V20.3447H47.9307V16.8965Z" fill="#1E1C2C"/>
<path d="M51.3799 16.8965H47.9316V20.3447H51.3799V16.8965Z" fill="#1E1C2C"/>
<path d="M58.2764 16.8965H54.8281V20.3447H58.2764V16.8965Z" fill="#1E1C2C"/>
<path d="M61.7236 16.8965H58.2754V20.3447H61.7236V16.8965Z" fill="#1E1C2C"/>
<path d="M82.4131 16.8965H78.9648V20.3447H82.4131V16.8965Z" fill="#1E1C2C"/>
<path d="M44.4834 20.3452H41.0352V23.7935H44.4834V20.3452Z" fill="#1E1C2C"/>
<path d="M47.9307 20.3452H44.4824V23.7935H47.9307V20.3452Z" fill="#1E1C2C"/>
<path d="M51.3799 20.3452H47.9316V23.7935H51.3799V20.3452Z" fill="#1E1C2C"/>
<path d="M54.8272 20.3452H51.3789V23.7935H54.8272V20.3452Z" fill="#1E1C2C"/>
<path d="M61.7236 20.3452H58.2754V23.7935H61.7236V20.3452Z" fill="#1E1C2C"/>
<path d="M65.1729 20.3452H61.7246V23.7935H65.1729V20.3452Z" fill="#1E1C2C"/>
<path d="M72.0693 20.3452H68.6211V23.7935H72.0693V20.3452Z" fill="#1E1C2C"/>
<path d="M78.9658 20.3452H75.5176V23.7935H78.9658V20.3452Z" fill="#1E1C2C"/>
<path d="M82.4131 20.3452H78.9648V23.7935H82.4131V20.3452Z" fill="#1E1C2C"/>
<path d="M41.0342 23.7935H37.5859V27.2417H41.0342V23.7935Z" fill="#1E1C2C"/>
<path d="M44.4834 23.7935H41.0352V27.2417H44.4834V23.7935Z" fill="#1E1C2C"/>
<path d="M47.9307 23.7935H44.4824V27.2417H47.9307V23.7935Z" fill="#1E1C2C"/>
<path d="M54.8272 23.7939H51.3789V27.2422H54.8272V23.7939Z" fill="#1E1C2C"/>
<path d="M58.2744 23.7935H54.8262V27.2417H58.2744V23.7935Z" fill="#1E1C2C"/>
<path d="M65.1729 23.7935H61.7246V27.2417H65.1729V23.7935Z" fill="#1E1C2C"/>
<path d="M72.0693 23.7935H68.6211V27.2417H72.0693V23.7935Z" fill="#1E1C2C"/>
<path d="M75.5166 23.7935H72.0684V27.2417H75.5166V23.7935Z" fill="#1E1C2C"/>
<path d="M78.9658 23.7935H75.5176V27.2417H78.9658V23.7935Z" fill="#1E1C2C"/>
<path d="M44.4834 27.2412H41.0352V30.6895H44.4834V27.2412Z" fill="#1E1C2C"/>
<path d="M58.2764 27.2412H54.8281V30.6895H58.2764V27.2412Z" fill="#1E1C2C"/>
<path d="M61.7236 27.2412H58.2754V30.6895H61.7236V27.2412Z" fill="#1E1C2C"/>
<path d="M72.0693 27.2412H68.6211V30.6895H72.0693V27.2412Z" fill="#1E1C2C"/>
<path d="M82.4131 27.2417H78.9648V30.69H82.4131V27.2417Z" fill="#1E1C2C"/>
<path d="M41.0342 30.6904H37.5859V34.1387H41.0342V30.6904Z" fill="#1E1C2C"/>
<path d="M47.9307 30.6904H44.4824V34.1387H47.9307V30.6904Z" fill="#1E1C2C"/>
<path d="M54.8272 30.6904H51.3789V34.1387H54.8272V30.6904Z" fill="#1E1C2C"/>
<path d="M61.7236 30.6904H58.2754V34.1387H61.7236V30.6904Z" fill="#1E1C2C"/>
<path d="M68.6201 30.6904H65.1719V34.1387H68.6201V30.6904Z" fill="#1E1C2C"/>
<path d="M75.5166 30.6904H72.0684V34.1387H75.5166V30.6904Z" fill="#1E1C2C"/>
<path d="M82.4131 30.6904H78.9648V34.1387H82.4131V30.6904Z" fill="#1E1C2C"/>
<path d="M44.4834 34.1382H41.0352V37.5864H44.4834V34.1382Z" fill="#1E1C2C"/>
<path d="M54.8272 34.1382H51.3789V37.5864H54.8272V34.1382Z" fill="#1E1C2C"/>
<path d="M61.7236 34.1382H58.2754V37.5864H61.7236V34.1382Z" fill="#1E1C2C"/>
<path d="M13.4483 37.5864H10V41.0347H13.4483V37.5864Z" fill="#1E1C2C"/>
<path d="M23.794 37.5864H20.3457V41.0347H23.794V37.5864Z" fill="#1E1C2C"/>
<path d="M27.2412 37.5864H23.793V41.0347H27.2412V37.5864Z" fill="#1E1C2C"/>
<path d="M30.6904 37.5864H27.2422V41.0347H30.6904V37.5864Z" fill="#1E1C2C"/>
<path d="M34.1377 37.5864H30.6895V41.0347H34.1377V37.5864Z" fill="#1E1C2C"/>
<path d="M37.5869 37.5864H34.1387V41.0347H37.5869V37.5864Z" fill="#1E1C2C"/>
<path d="M41.0342 37.5864H37.5859V41.0347H41.0342V37.5864Z" fill="#1E1C2C"/>
<path d="M44.4834 37.5864H41.0352V41.0347H44.4834V37.5864Z" fill="#1E1C2C"/>
<path d="M54.8272 37.5864H51.3789V41.0347H54.8272V37.5864Z" fill="#1E1C2C"/>
<path d="M58.2764 37.5864H54.8281V41.0347H58.2764V37.5864Z" fill="#1E1C2C"/>
<path d="M61.7236 37.5864H58.2754V41.0347H61.7236V37.5864Z" fill="#1E1C2C"/>
<path d="M65.1729 37.5864H61.7246V41.0347H65.1729V37.5864Z" fill="#1E1C2C"/>
<path d="M68.6201 37.5864H65.1719V41.0347H68.6201V37.5864Z" fill="#1E1C2C"/>
<path d="M72.0693 37.5864H68.6211V41.0347H72.0693V37.5864Z" fill="#1E1C2C"/>
<path d="M85.8623 37.5864H82.4141V41.0347H85.8623V37.5864Z" fill="#1E1C2C"/>
<path d="M96.2061 37.5864H92.7578V41.0347H96.2061V37.5864Z" fill="#1E1C2C"/>
<path d="M103.103 37.5864H99.6543V41.0347H103.103V37.5864Z" fill="#1E1C2C"/>
<path d="M106.552 37.5864H103.104V41.0347H106.552V37.5864Z" fill="#1E1C2C"/>
<path d="M110.001 37.5864H106.553V41.0347H110.001V37.5864Z" fill="#1E1C2C"/>
<path d="M13.4483 41.0347H10V44.4829H13.4483V41.0347Z" fill="#1E1C2C"/>
<path d="M20.3447 41.0347H16.8965V44.4829H20.3447V41.0347Z" fill="#1E1C2C"/>
<path d="M41.0342 41.0347H37.5859V44.4829H41.0342V41.0347Z" fill="#1E1C2C"/>
<path d="M54.8272 41.0347H51.3789V44.4829H54.8272V41.0347Z" fill="#1E1C2C"/>
<path d="M61.7236 41.0347H58.2754V44.4829H61.7236V41.0347Z" fill="#1E1C2C"/>
<path d="M72.0693 41.0347H68.6211V44.4829H72.0693V41.0347Z" fill="#1E1C2C"/>
<path d="M78.9658 41.0342H75.5176V44.4824H78.9658V41.0342Z" fill="#1E1C2C"/>
<path d="M85.8623 41.0347H82.4141V44.4829H85.8623V41.0347Z" fill="#1E1C2C"/>
<path d="M92.7588 41.0347H89.3105V44.4829H92.7588V41.0347Z" fill="#1E1C2C"/>
<path d="M96.2061 41.0347H92.7578V44.4829H96.2061V41.0347Z" fill="#1E1C2C"/>
<path d="M103.103 41.0347H99.6543V44.4829H103.103V41.0347Z" fill="#1E1C2C"/>
<path d="M106.552 41.0347H103.104V44.4829H106.552V41.0347Z" fill="#1E1C2C"/>
<path d="M16.8975 44.4829H13.4492V47.9312H16.8975V44.4829Z" fill="#1E1C2C"/>
<path d="M20.3447 44.4829H16.8965V47.9312H20.3447V44.4829Z" fill="#1E1C2C"/>
<path d="M27.2412 44.4834H23.793V47.9317H27.2412V44.4834Z" fill="#1E1C2C"/>
<path d="M30.6885 44.4829H27.2402V47.9312H30.6885V44.4829Z" fill="#1E1C2C"/>
<path d="M34.1377 44.4829H30.6895V47.9312H34.1377V44.4829Z" fill="#1E1C2C"/>
<path d="M44.4834 44.4829H41.0352V47.9312H44.4834V44.4829Z" fill="#1E1C2C"/>
<path d="M47.9307 44.4829H44.4824V47.9312H47.9307V44.4829Z" fill="#1E1C2C"/>
<path d="M61.7236 44.4829H58.2754V47.9312H61.7236V44.4829Z" fill="#1E1C2C"/>
<path d="M72.0693 44.4829H68.6211V47.9312H72.0693V44.4829Z" fill="#1E1C2C"/>
<path d="M75.5166 44.4829H72.0684V47.9312H75.5166V44.4829Z" fill="#1E1C2C"/>
<path d="M85.8623 44.4829H82.4141V47.9312H85.8623V44.4829Z" fill="#1E1C2C"/>
<path d="M92.7588 44.4829H89.3105V47.9312H92.7588V44.4829Z" fill="#1E1C2C"/>
<path d="M103.103 44.4829H99.6543V47.9312H103.103V44.4829Z" fill="#1E1C2C"/>
<path d="M23.794 47.9307H20.3457V51.3789H23.794V47.9307Z" fill="#1E1C2C"/>
<path d="M27.2412 47.9307H23.793V51.3789H27.2412V47.9307Z" fill="#1E1C2C"/>
<path d="M41.0342 47.9307H37.5859V51.3789H41.0342V47.9307Z" fill="#1E1C2C"/>
<path d="M44.4834 47.9312H41.0352V51.3794H44.4834V47.9312Z" fill="#1E1C2C"/>
<path d="M47.9307 47.9307H44.4824V51.3789H47.9307V47.9307Z" fill="#1E1C2C"/>
<path d="M61.7236 47.9307H58.2754V51.3789H61.7236V47.9307Z" fill="#1E1C2C"/>
<path d="M65.1729 47.9307H61.7246V51.3789H65.1729V47.9307Z" fill="#1E1C2C"/>
<path d="M72.0693 47.9312H68.6211V51.3794H72.0693V47.9312Z" fill="#1E1C2C"/>
<path d="M82.4131 47.9307H78.9648V51.3789H82.4131V47.9307Z" fill="#1E1C2C"/>
<path d="M85.8623 47.9312H82.4141V51.3794H85.8623V47.9312Z" fill="#1E1C2C"/>
<path d="M89.3096 47.9312H85.8613V51.3794H89.3096V47.9312Z" fill="#1E1C2C"/>
<path d="M99.6553 47.9312H96.207V51.3794H99.6553V47.9312Z" fill="#1E1C2C"/>
<path d="M109.999 47.9307H106.551V51.3789H109.999V47.9307Z" fill="#1E1C2C"/>
<path d="M13.4483 51.3794H10V54.8276H13.4483V51.3794Z" fill="#1E1C2C"/>
<path d="M16.8955 51.3794H13.4473V54.8276H16.8955V51.3794Z" fill="#1E1C2C"/>
<path d="M20.3447 51.3794H16.8965V54.8276H20.3447V51.3794Z" fill="#1E1C2C"/>
<path d="M23.794 51.3794H20.3457V54.8276H23.794V51.3794Z" fill="#1E1C2C"/>
<path d="M34.1377 51.3794H30.6895V54.8276H34.1377V51.3794Z" fill="#1E1C2C"/>
<path d="M47.9307 51.3794H44.4824V54.8276H47.9307V51.3794Z" fill="#1E1C2C"/>
<path d="M54.8272 51.3794H51.3789V54.8276H54.8272V51.3794Z" fill="#1E1C2C"/>
<path d="M58.2764 51.3794H54.8281V54.8276H58.2764V51.3794Z" fill="#1E1C2C"/>
<path d="M61.7236 51.3794H58.2754V54.8276H61.7236V51.3794Z" fill="#1E1C2C"/>
<path d="M75.5166 51.3794H72.0684V54.8276H75.5166V51.3794Z" fill="#1E1C2C"/>
<path d="M82.4131 51.3794H78.9648V54.8276H82.4131V51.3794Z" fill="#1E1C2C"/>
<path d="M89.3096 51.3794H85.8613V54.8276H89.3096V51.3794Z" fill="#1E1C2C"/>
<path d="M92.7588 51.3794H89.3105V54.8276H92.7588V51.3794Z" fill="#1E1C2C"/>
<path d="M109.999 51.3794H106.551V54.8276H109.999V51.3794Z" fill="#1E1C2C"/>
<path d="M20.3447 54.8276H16.8965V58.2759H20.3447V54.8276Z" fill="#1E1C2C"/>
<path d="M51.3799 54.8276H47.9316V58.2759H51.3799V54.8276Z" fill="#1E1C2C"/>
<path d="M54.8272 54.8276H51.3789V58.2759H54.8272V54.8276Z" fill="#1E1C2C"/>
<path d="M72.0693 54.8276H68.6211V58.2759H72.0693V54.8276Z" fill="#1E1C2C"/>
<path d="M75.5166 54.8276H72.0684V58.2759H75.5166V54.8276Z" fill="#1E1C2C"/>
<path d="M85.8623 54.8276H82.4141V58.2759H85.8623V54.8276Z" fill="#1E1C2C"/>
<path d="M89.3096 54.8276H85.8613V58.2759H89.3096V54.8276Z" fill="#1E1C2C"/>
<path d="M96.2061 54.8276H92.7578V58.2759H96.2061V54.8276Z" fill="#1E1C2C"/>
<path d="M99.6553 54.8276H96.207V58.2759H99.6553V54.8276Z" fill="#1E1C2C"/>
<path d="M103.103 54.8276H99.6543V58.2759H103.103V54.8276Z" fill="#1E1C2C"/>
<path d="M106.552 54.8276H103.104V58.2759H106.552V54.8276Z" fill="#1E1C2C"/>
<path d="M109.999 54.8276H106.551V58.2759H109.999V54.8276Z" fill="#1E1C2C"/>
<path d="M16.8975 58.2759H13.4492V61.7241H16.8975V58.2759Z" fill="#1E1C2C"/>
<path d="M30.6885 58.2759H27.2402V61.7241H30.6885V58.2759Z" fill="#1E1C2C"/>
<path d="M34.1377 58.2759H30.6895V61.7241H34.1377V58.2759Z" fill="#1E1C2C"/>
<path d="M37.5869 58.2759H34.1387V61.7241H37.5869V58.2759Z" fill="#1E1C2C"/>
<path d="M41.0342 58.2759H37.5859V61.7241H41.0342V58.2759Z" fill="#1E1C2C"/>
<path d="M47.9307 58.2759H44.4824V61.7241H47.9307V58.2759Z" fill="#1E1C2C"/>
<path d="M61.7236 58.2759H58.2754V61.7241H61.7236V58.2759Z" fill="#1E1C2C"/>
<path d="M65.1729 58.2759H61.7246V61.7241H65.1729V58.2759Z" fill="#1E1C2C"/>
<path d="M72.0693 58.2759H68.6211V61.7241H72.0693V58.2759Z" fill="#1E1C2C"/>
<path d="M78.9658 58.2759H75.5176V61.7241H78.9658V58.2759Z" fill="#1E1C2C"/>
<path d="M82.4131 58.2759H78.9648V61.7241H82.4131V58.2759Z" fill="#1E1C2C"/>
<path d="M85.8623 58.2759H82.4141V61.7241H85.8623V58.2759Z" fill="#1E1C2C"/>
<path d="M89.3096 58.2759H85.8613V61.7241H89.3096V58.2759Z" fill="#1E1C2C"/>
<path d="M92.7588 58.2759H89.3105V61.7241H92.7588V58.2759Z" fill="#1E1C2C"/>
<path d="M103.103 58.2759H99.6543V61.7241H103.103V58.2759Z" fill="#1E1C2C"/>
<path d="M109.999 58.2759H106.551V61.7241H109.999V58.2759Z" fill="#1E1C2C"/>
<path d="M13.4483 61.7236H10V65.1719H13.4483V61.7236Z" fill="#1E1C2C"/>
<path d="M16.8975 61.7236H13.4492V65.1719H16.8975V61.7236Z" fill="#1E1C2C"/>
<path d="M27.2412 61.7241H23.793V65.1724H27.2412V61.7241Z" fill="#1E1C2C"/>
<path d="M37.5869 61.7236H34.1387V65.1719H37.5869V61.7236Z" fill="#1E1C2C"/>
<path d="M44.4834 61.7236H41.0352V65.1719H44.4834V61.7236Z" fill="#1E1C2C"/>
<path d="M47.9307 61.7236H44.4824V65.1719H47.9307V61.7236Z" fill="#1E1C2C"/>
<path d="M58.2764 61.7236H54.8281V65.1719H58.2764V61.7236Z" fill="#1E1C2C"/>
<path d="M61.7236 61.7236H58.2754V65.1719H61.7236V61.7236Z" fill="#1E1C2C"/>
<path d="M68.6201 61.7236H65.1719V65.1719H68.6201V61.7236Z" fill="#1E1C2C"/>
<path d="M75.5166 61.7236H72.0684V65.1719H75.5166V61.7236Z" fill="#1E1C2C"/>
<path d="M92.7588 61.7236H89.3105V65.1719H92.7588V61.7236Z" fill="#1E1C2C"/>
<path d="M96.2061 61.7236H92.7578V65.1719H96.2061V61.7236Z" fill="#1E1C2C"/>
<path d="M103.103 61.7236H99.6543V65.1719H103.103V61.7236Z" fill="#1E1C2C"/>
<path d="M109.999 61.7241H106.551V65.1724H109.999V61.7241Z" fill="#1E1C2C"/>
<path d="M27.2412 65.1724H23.793V68.6206H27.2412V65.1724Z" fill="#1E1C2C"/>
<path d="M34.1377 65.1724H30.6895V68.6206H34.1377V65.1724Z" fill="#1E1C2C"/>
<path d="M54.8272 65.1724H51.3789V68.6206H54.8272V65.1724Z" fill="#1E1C2C"/>
<path d="M65.1729 65.1724H61.7246V68.6206H65.1729V65.1724Z" fill="#1E1C2C"/>
<path d="M78.9658 65.1724H75.5176V68.6206H78.9658V65.1724Z" fill="#1E1C2C"/>
<path d="M82.4131 65.1724H78.9648V68.6206H82.4131V65.1724Z" fill="#1E1C2C"/>
<path d="M99.6553 65.1724H96.207V68.6206H99.6553V65.1724Z" fill="#1E1C2C"/>
<path d="M13.4483 68.6211H10V72.0693H13.4483V68.6211Z" fill="#1E1C2C"/>
<path d="M23.794 68.6206H20.3457V72.0689H23.794V68.6206Z" fill="#1E1C2C"/>
<path d="M41.0342 68.6211H37.5859V72.0693H41.0342V68.6211Z" fill="#1E1C2C"/>
<path d="M44.4834 68.6211H41.0352V72.0693H44.4834V68.6211Z" fill="#1E1C2C"/>
<path d="M72.0693 68.6211H68.6211V72.0693H72.0693V68.6211Z" fill="#1E1C2C"/>
<path d="M75.5166 68.6211H72.0684V72.0693H75.5166V68.6211Z" fill="#1E1C2C"/>
<path d="M78.9658 68.6206H75.5176V72.0689H78.9658V68.6206Z" fill="#1E1C2C"/>
<path d="M96.208 68.6211H92.7598V72.0693H96.208V68.6211Z" fill="#1E1C2C"/>
<path d="M103.103 68.6206H99.6543V72.0689H103.103V68.6206Z" fill="#1E1C2C"/>
<path d="M106.552 68.6211H103.104V72.0693H106.552V68.6211Z" fill="#1E1C2C"/>
<path d="M13.4483 72.0693H10V75.5176H13.4483V72.0693Z" fill="#1E1C2C"/>
<path d="M16.8975 72.0693H13.4492V75.5176H16.8975V72.0693Z" fill="#1E1C2C"/>
<path d="M20.3447 72.0693H16.8965V75.5176H20.3447V72.0693Z" fill="#1E1C2C"/>
<path d="M34.1377 72.0693H30.6895V75.5176H34.1377V72.0693Z" fill="#1E1C2C"/>
<path d="M37.5869 72.0693H34.1387V75.5176H37.5869V72.0693Z" fill="#1E1C2C"/>
<path d="M44.4834 72.0693H41.0352V75.5176H44.4834V72.0693Z" fill="#1E1C2C"/>
<path d="M47.9307 72.0693H44.4824V75.5176H47.9307V72.0693Z" fill="#1E1C2C"/>
<path d="M58.2764 72.0693H54.8281V75.5176H58.2764V72.0693Z" fill="#1E1C2C"/>
<path d="M61.7236 72.0693H58.2754V75.5176H61.7236V72.0693Z" fill="#1E1C2C"/>
<path d="M68.6201 72.0693H65.1719V75.5176H68.6201V72.0693Z" fill="#1E1C2C"/>
<path d="M75.5166 72.0693H72.0684V75.5176H75.5166V72.0693Z" fill="#1E1C2C"/>
<path d="M78.9658 72.0693H75.5176V75.5176H78.9658V72.0693Z" fill="#1E1C2C"/>
<path d="M85.8623 72.0693H82.4141V75.5176H85.8623V72.0693Z" fill="#1E1C2C"/>
<path d="M89.3096 72.0693H85.8613V75.5176H89.3096V72.0693Z" fill="#1E1C2C"/>
<path d="M99.6553 72.0693H96.207V75.5176H99.6553V72.0693Z" fill="#1E1C2C"/>
<path d="M109.999 72.0693H106.551V75.5176H109.999V72.0693Z" fill="#1E1C2C"/>
<path d="M13.4483 75.5171H10V78.9653H13.4483V75.5171Z" fill="#1E1C2C"/>
<path d="M16.8975 75.5171H13.4492V78.9653H16.8975V75.5171Z" fill="#1E1C2C"/>
<path d="M27.2412 75.5171H23.793V78.9653H27.2412V75.5171Z" fill="#1E1C2C"/>
<path d="M30.6885 75.5171H27.2402V78.9653H30.6885V75.5171Z" fill="#1E1C2C"/>
<path d="M37.5869 75.5171H34.1387V78.9653H37.5869V75.5171Z" fill="#1E1C2C"/>
<path d="M41.0342 75.5171H37.5859V78.9653H41.0342V75.5171Z" fill="#1E1C2C"/>
<path d="M44.4834 75.5171H41.0352V78.9653H44.4834V75.5171Z" fill="#1E1C2C"/>
<path d="M47.9307 75.5171H44.4824V78.9653H47.9307V75.5171Z" fill="#1E1C2C"/>
<path d="M51.3799 75.5171H47.9316V78.9653H51.3799V75.5171Z" fill="#1E1C2C"/>
<path d="M58.2744 75.5171H54.8262V78.9653H58.2744V75.5171Z" fill="#1E1C2C"/>
<path d="M65.1729 75.5171H61.7246V78.9653H65.1729V75.5171Z" fill="#1E1C2C"/>
<path d="M68.6201 75.5171H65.1719V78.9653H68.6201V75.5171Z" fill="#1E1C2C"/>
<path d="M78.9658 75.5171H75.5176V78.9653H78.9658V75.5171Z" fill="#1E1C2C"/>
<path d="M85.8623 75.5171H82.4141V78.9653H85.8623V75.5171Z" fill="#1E1C2C"/>
<path d="M89.3096 75.5171H85.8613V78.9653H89.3096V75.5171Z" fill="#1E1C2C"/>
<path d="M92.7588 75.5171H89.3105V78.9653H92.7588V75.5171Z" fill="#1E1C2C"/>
<path d="M96.2061 75.5171H92.7578V78.9653H96.2061V75.5171Z" fill="#1E1C2C"/>
<path d="M99.6553 75.5171H96.207V78.9653H99.6553V75.5171Z" fill="#1E1C2C"/>
<path d="M103.103 75.5171H99.6543V78.9653H103.103V75.5171Z" fill="#1E1C2C"/>
<path d="M13.4483 78.9658H10V82.4141H13.4483V78.9658Z" fill="#1E1C2C"/>
<path d="M16.8955 78.9653H13.4473V82.4136H16.8955V78.9653Z" fill="#1E1C2C"/>
<path d="M20.3447 78.9653H16.8965V82.4136H20.3447V78.9653Z" fill="#1E1C2C"/>
<path d="M30.6885 78.9658H27.2402V82.4141H30.6885V78.9658Z" fill="#1E1C2C"/>
<path d="M34.1377 78.9653H30.6895V82.4136H34.1377V78.9653Z" fill="#1E1C2C"/>
<path d="M44.4834 78.9658H41.0352V82.4141H44.4834V78.9658Z" fill="#1E1C2C"/>
<path d="M47.9307 78.9658H44.4824V82.4141H47.9307V78.9658Z" fill="#1E1C2C"/>
<path d="M54.8272 78.9658H51.3789V82.4141H54.8272V78.9658Z" fill="#1E1C2C"/>
<path d="M58.2744 78.9658H54.8262V82.4141H58.2744V78.9658Z" fill="#1E1C2C"/>
<path d="M72.0693 78.9658H68.6211V82.4141H72.0693V78.9658Z" fill="#1E1C2C"/>
<path d="M78.9658 78.9653H75.5176V82.4136H78.9658V78.9653Z" fill="#1E1C2C"/>
<path d="M82.4131 78.9653H78.9648V82.4136H82.4131V78.9653Z" fill="#1E1C2C"/>
<path d="M85.8604 78.9658H82.4121V82.4141H85.8604V78.9658Z" fill="#1E1C2C"/>
<path d="M89.3096 78.9653H85.8613V82.4136H89.3096V78.9653Z" fill="#1E1C2C"/>
<path d="M92.7588 78.9653H89.3105V82.4136H92.7588V78.9653Z" fill="#1E1C2C"/>
<path d="M96.2061 78.9653H92.7578V82.4136H96.2061V78.9653Z" fill="#1E1C2C"/>
<path d="M99.6553 78.9658H96.207V82.4141H99.6553V78.9658Z" fill="#1E1C2C"/>
<path d="M103.103 78.9653H99.6543V82.4136H103.103V78.9653Z" fill="#1E1C2C"/>
<path d="M106.552 78.9653H103.104V82.4136H106.552V78.9653Z" fill="#1E1C2C"/>
<path d="M41.0342 82.4136H37.5859V85.8618H41.0342V82.4136Z" fill="#1E1C2C"/>
<path d="M51.3799 82.4136H47.9316V85.8618H51.3799V82.4136Z" fill="#1E1C2C"/>
<path d="M58.2764 82.4136H54.8281V85.8618H58.2764V82.4136Z" fill="#1E1C2C"/>
<path d="M68.6201 82.4136H65.1719V85.8618H68.6201V82.4136Z" fill="#1E1C2C"/>
<path d="M72.0693 82.4136H68.6211V85.8618H72.0693V82.4136Z" fill="#1E1C2C"/>
<path d="M75.5166 82.4136H72.0684V85.8618H75.5166V82.4136Z" fill="#1E1C2C"/>
<path d="M82.4151 82.4136H78.9668V85.8618H82.4151V82.4136Z" fill="#1E1C2C"/>
<path d="M96.2061 82.4136H92.7578V85.8618H96.2061V82.4136Z" fill="#1E1C2C"/>
<path d="M99.6553 82.4136H96.207V85.8618H99.6553V82.4136Z" fill="#1E1C2C"/>
<path d="M41.0342 85.8623H37.5859V89.3106H41.0342V85.8623Z" fill="#1E1C2C"/>
<path d="M58.2764 85.8623H54.8281V89.3106H58.2764V85.8623Z" fill="#1E1C2C"/>
<path d="M65.1729 85.8618H61.7246V89.3101H65.1729V85.8618Z" fill="#1E1C2C"/>
<path d="M68.6201 85.8623H65.1719V89.3106H68.6201V85.8623Z" fill="#1E1C2C"/>
<path d="M78.9658 85.8618H75.5176V89.3101H78.9658V85.8618Z" fill="#1E1C2C"/>
<path d="M82.4131 85.8623H78.9648V89.3106H82.4131V85.8623Z" fill="#1E1C2C"/>
<path d="M89.3096 85.8623H85.8613V89.3106H89.3096V85.8623Z" fill="#1E1C2C"/>
<path d="M96.2061 85.8623H92.7578V89.3106H96.2061V85.8623Z" fill="#1E1C2C"/>
<path d="M99.6553 85.8623H96.207V89.3106H99.6553V85.8623Z" fill="#1E1C2C"/>
<path d="M41.0342 89.3105H37.5859V92.7588H41.0342V89.3105Z" fill="#1E1C2C"/>
<path d="M44.4834 89.3105H41.0352V92.7588H44.4834V89.3105Z" fill="#1E1C2C"/>
<path d="M47.9307 89.3105H44.4824V92.7588H47.9307V89.3105Z" fill="#1E1C2C"/>
<path d="M54.8272 89.3105H51.3789V92.7588H54.8272V89.3105Z" fill="#1E1C2C"/>
<path d="M58.2764 89.3105H54.8281V92.7588H58.2764V89.3105Z" fill="#1E1C2C"/>
<path d="M68.6201 89.3105H65.1719V92.7588H68.6201V89.3105Z" fill="#1E1C2C"/>
<path d="M72.0693 89.3101H68.6211V92.7583H72.0693V89.3101Z" fill="#1E1C2C"/>
<path d="M78.9658 89.3105H75.5176V92.7588H78.9658V89.3105Z" fill="#1E1C2C"/>
<path d="M82.4131 89.3105H78.9648V92.7588H82.4131V89.3105Z" fill="#1E1C2C"/>
<path d="M96.2061 89.3105H92.7578V92.7588H96.2061V89.3105Z" fill="#1E1C2C"/>
<path d="M106.552 89.3105H103.104V92.7588H106.552V89.3105Z" fill="#1E1C2C"/>
<path d="M109.999 89.3105H106.551V92.7588H109.999V89.3105Z" fill="#1E1C2C"/>
<path d="M41.0342 92.7583H37.5859V96.2066H41.0342V92.7583Z" fill="#1E1C2C"/>
<path d="M51.3799 92.7583H47.9316V96.2066H51.3799V92.7583Z" fill="#1E1C2C"/>
<path d="M54.8272 92.7583H51.3789V96.2066H54.8272V92.7583Z" fill="#1E1C2C"/>
<path d="M58.2764 92.7583H54.8281V96.2066H58.2764V92.7583Z" fill="#1E1C2C"/>
<path d="M65.1729 92.7583H61.7246V96.2066H65.1729V92.7583Z" fill="#1E1C2C"/>
<path d="M68.6201 92.7583H65.1719V96.2066H68.6201V92.7583Z" fill="#1E1C2C"/>
<path d="M78.9658 92.7583H75.5176V96.2066H78.9658V92.7583Z" fill="#1E1C2C"/>
<path d="M82.4131 92.7583H78.9648V96.2066H82.4131V92.7583Z" fill="#1E1C2C"/>
<path d="M85.8623 92.7583H82.4141V96.2066H85.8623V92.7583Z" fill="#1E1C2C"/>
<path d="M89.3096 92.7583H85.8613V96.2066H89.3096V92.7583Z" fill="#1E1C2C"/>
<path d="M92.7588 92.7583H89.3105V96.2066H92.7588V92.7583Z" fill="#1E1C2C"/>
<path d="M96.2061 92.7583H92.7578V96.2066H96.2061V92.7583Z" fill="#1E1C2C"/>
<path d="M99.6553 92.7583H96.207V96.2066H99.6553V92.7583Z" fill="#1E1C2C"/>
<path d="M41.0342 96.2065H37.5859V99.6548H41.0342V96.2065Z" fill="#1E1C2C"/>
<path d="M54.8272 96.207H51.3789V99.6553H54.8272V96.207Z" fill="#1E1C2C"/>
<path d="M58.2764 96.2065H54.8281V99.6548H58.2764V96.2065Z" fill="#1E1C2C"/>
<path d="M61.7236 96.2065H58.2754V99.6548H61.7236V96.2065Z" fill="#1E1C2C"/>
<path d="M68.6201 96.2065H65.1719V99.6548H68.6201V96.2065Z" fill="#1E1C2C"/>
<path d="M72.0693 96.2065H68.6211V99.6548H72.0693V96.2065Z" fill="#1E1C2C"/>
<path d="M75.5166 96.2065H72.0684V99.6548H75.5166V96.2065Z" fill="#1E1C2C"/>
<path d="M78.9658 96.207H75.5176V99.6553H78.9658V96.207Z" fill="#1E1C2C"/>
<path d="M82.4131 96.207H78.9648V99.6553H82.4131V96.207Z" fill="#1E1C2C"/>
<path d="M85.8623 96.2065H82.4141V99.6548H85.8623V96.2065Z" fill="#1E1C2C"/>
<path d="M92.7588 96.2065H89.3105V99.6548H92.7588V96.2065Z" fill="#1E1C2C"/>
<path d="M106.552 96.207H103.104V99.6553H106.552V96.207Z" fill="#1E1C2C"/>
<path d="M47.9307 99.6548H44.4824V103.103H47.9307V99.6548Z" fill="#1E1C2C"/>
<path d="M58.2764 99.6548H54.8281V103.103H58.2764V99.6548Z" fill="#1E1C2C"/>
<path d="M68.6201 99.6548H65.1719V103.103H68.6201V99.6548Z" fill="#1E1C2C"/>
<path d="M85.8623 99.6548H82.4141V103.103H85.8623V99.6548Z" fill="#1E1C2C"/>
<path d="M92.7588 99.6548H89.3105V103.103H92.7588V99.6548Z" fill="#1E1C2C"/>
<path d="M96.2061 99.6548H92.7578V103.103H96.2061V99.6548Z" fill="#1E1C2C"/>
<path d="M103.103 99.6548H99.6543V103.103H103.103V99.6548Z" fill="#1E1C2C"/>
<path d="M106.552 99.6553H103.104V103.104H106.552V99.6553Z" fill="#1E1C2C"/>
<path d="M109.999 99.6553H106.551V103.104H109.999V99.6553Z" fill="#1E1C2C"/>
<path d="M51.3799 103.104H47.9316V106.552H51.3799V103.104Z" fill="#1E1C2C"/>
<path d="M58.2744 103.104H54.8262V106.552H58.2744V103.104Z" fill="#1E1C2C"/>
<path d="M65.1729 103.104H61.7246V106.552H65.1729V103.104Z" fill="#1E1C2C"/>
<path d="M85.8604 103.104H82.4121V106.552H85.8604V103.104Z" fill="#1E1C2C"/>
<path d="M92.7588 103.104H89.3105V106.552H92.7588V103.104Z" fill="#1E1C2C"/>
<path d="M99.6553 103.103H96.207V106.551H99.6553V103.103Z" fill="#1E1C2C"/>
<path d="M103.103 103.104H99.6543V106.552H103.103V103.104Z" fill="#1E1C2C"/>
<path d="M109.999 103.104H106.551V106.552H109.999V103.104Z" fill="#1E1C2C"/>
<path d="M41.0342 106.552H37.5859V110H41.0342V106.552Z" fill="#1E1C2C"/>
<path d="M51.3799 106.551H47.9316V110H51.3799V106.551Z" fill="#1E1C2C"/>
<path d="M54.8272 106.551H51.3789V110H54.8272V106.551Z" fill="#1E1C2C"/>
<path d="M72.0693 106.551H68.6211V110H72.0693V106.551Z" fill="#1E1C2C"/>
<path d="M75.5166 106.552H72.0684V110H75.5166V106.552Z" fill="#1E1C2C"/>
<path d="M78.9658 106.552H75.5176V110H78.9658V106.552Z" fill="#1E1C2C"/>
<path d="M82.4131 106.552H78.9648V110H82.4131V106.552Z" fill="#1E1C2C"/>
<path d="M89.3096 106.552H85.8613V110H89.3096V106.552Z" fill="#1E1C2C"/>
<path d="M96.2061 106.552H92.7578V110H96.2061V106.552Z" fill="#1E1C2C"/>
<path d="M99.6553 106.551H96.207V110H99.6553V106.551Z" fill="#1E1C2C"/>
<path d="M30.5171 10.0005H13.6207H10V13.6212V30.5176V34.1383H13.6207H30.5171H34.1378V30.5176V13.6212V10.0005H30.5171ZM30.5171 30.5176H13.6207V13.6212H30.5171V30.5176Z" fill="#1E1C2C"/>
<path d="M106.378 10.0005H89.482H85.8613V13.6212V30.5176V34.1383H89.482H106.378H109.999V30.5176V13.6212V10.0005H106.378ZM106.378 30.5176H89.482V13.6212H106.378V30.5176Z" fill="#1E1C2C"/>
<path d="M30.5171 85.8623H13.6207H10V89.483V106.379V110H13.6207H30.5171H34.1378V106.379V89.483V85.8623H30.5171ZM30.5171 106.379H13.6207V89.483H30.5171V106.379Z" fill="#1E1C2C"/>
<path d="M27.2412 16.8965H16.8965V27.2412H27.2412V16.8965Z" fill="#1E1C2C"/>
<path d="M103.103 16.8965H92.7578V27.2412H103.103V16.8965Z" fill="#1E1C2C"/>
<path d="M27.2412 92.7583H16.8965V103.103H27.2412V92.7583Z" fill="#1E1C2C"/>
</g>
<rect x="0.5" y="0.5" width="119" height="119" rx="10.1667" stroke="#ECECEC"/>
<defs>
<clipPath id="clip0_93_4331">
<rect width="120" height="120" rx="10.6667" fill="white"/>
</clipPath>
</defs>
</svg>
