<svg width="220" height="220" viewBox="0 0 220 220" fill="none" xmlns="http://www.w3.org/2000/svg">
<rect width="220" height="220" rx="32" fill="#F35E2F"/>
<path d="M84.7168 43.334H80.1191V47.9317H84.7168V43.334Z" fill="white"/>
<path d="M89.3106 43.334H84.7129V47.9317H89.3106V43.334Z" fill="white"/>
<path d="M93.9082 43.334H89.3105V47.9317H93.9082V43.334Z" fill="white"/>
<path d="M107.707 43.334H103.109V47.9317H107.707V43.334Z" fill="white"/>
<path d="M112.295 43.3345H107.697V47.9321H112.295V43.3345Z" fill="white"/>
<path d="M116.896 43.3335H112.299V47.9312H116.896V43.3335Z" fill="white"/>
<path d="M130.689 43.334H126.092V47.9317H130.689V43.334Z" fill="white"/>
<path d="M84.7168 47.9312H80.1191V52.5288H84.7168V47.9312Z" fill="white"/>
<path d="M89.3106 47.9316H84.7129V52.5293H89.3106V47.9316Z" fill="white"/>
<path d="M93.9082 47.9312H89.3105V52.5288H93.9082V47.9312Z" fill="white"/>
<path d="M98.5039 47.9312H93.9062V52.5288H98.5039V47.9312Z" fill="white"/>
<path d="M103.1 47.9312H98.502V52.5288H103.1V47.9312Z" fill="white"/>
<path d="M107.707 47.9321H103.109V52.5298H107.707V47.9321Z" fill="white"/>
<path d="M112.295 47.9316H107.697V52.5293H112.295V47.9316Z" fill="white"/>
<path d="M116.896 47.9316H112.299V52.5293H116.896V47.9316Z" fill="white"/>
<path d="M126.094 47.9321H121.496V52.5298H126.094V47.9321Z" fill="white"/>
<path d="M130.689 47.9312H126.092V52.5288H130.689V47.9312Z" fill="white"/>
<path d="M135.285 47.9316H130.688V52.5293H135.285V47.9316Z" fill="white"/>
<path d="M139.883 47.9316H135.285V52.5293H139.883V47.9316Z" fill="white"/>
<path d="M84.7168 52.5288H80.1191V57.1265H84.7168V52.5288Z" fill="white"/>
<path d="M89.3106 52.5293H84.7129V57.127H89.3106V52.5293Z" fill="white"/>
<path d="M93.9082 52.5288H89.3105V57.1265H93.9082V52.5288Z" fill="white"/>
<path d="M98.5039 52.5288H93.9062V57.1265H98.5039V52.5288Z" fill="white"/>
<path d="M107.707 52.5288H103.109V57.1265H107.707V52.5288Z" fill="white"/>
<path d="M112.295 52.5288H107.697V57.1265H112.295V52.5288Z" fill="white"/>
<path d="M139.883 52.5288H135.285V57.1265H139.883V52.5288Z" fill="white"/>
<path d="M89.3106 57.127H84.7129V61.7246H89.3106V57.127Z" fill="white"/>
<path d="M93.9082 57.1274H89.3105V61.7251H93.9082V57.1274Z" fill="white"/>
<path d="M98.5039 57.127H93.9062V61.7246H98.5039V57.127Z" fill="white"/>
<path d="M103.1 57.127H98.502V61.7246H103.1V57.127Z" fill="white"/>
<path d="M112.295 57.127H107.697V61.7246H112.295V57.127Z" fill="white"/>
<path d="M116.896 57.1274H112.299V61.7251H116.896V57.1274Z" fill="white"/>
<path d="M126.094 57.127H121.496V61.7246H126.094V57.127Z" fill="white"/>
<path d="M135.285 57.127H130.688V61.7246H135.285V57.127Z" fill="white"/>
<path d="M139.883 57.127H135.285V61.7246H139.883V57.127Z" fill="white"/>
<path d="M84.7168 61.7246H80.1191V66.3223H84.7168V61.7246Z" fill="white"/>
<path d="M89.3106 61.7246H84.7129V66.3223H89.3106V61.7246Z" fill="white"/>
<path d="M93.9082 61.7246H89.3105V66.3223H93.9082V61.7246Z" fill="white"/>
<path d="M103.1 61.7256H98.502V66.3233H103.1V61.7256Z" fill="white"/>
<path d="M107.695 61.7251H103.098V66.3228H107.695V61.7251Z" fill="white"/>
<path d="M116.896 61.7246H112.299V66.3223H116.896V61.7246Z" fill="white"/>
<path d="M126.094 61.7251H121.496V66.3228H126.094V61.7251Z" fill="white"/>
<path d="M130.689 61.7246H126.092V66.3223H130.689V61.7246Z" fill="white"/>
<path d="M135.285 61.7246H130.688V66.3223H135.285V61.7246Z" fill="white"/>
<path d="M89.3106 66.3213H84.7129V70.919H89.3106V66.3213Z" fill="white"/>
<path d="M107.707 66.3213H103.109V70.919H107.707V66.3213Z" fill="white"/>
<path d="M112.295 66.3213H107.697V70.919H112.295V66.3213Z" fill="white"/>
<path d="M126.094 66.3213H121.496V70.919H126.094V66.3213Z" fill="white"/>
<path d="M139.883 66.3223H135.285V70.9199H139.883V66.3223Z" fill="white"/>
<path d="M84.7168 70.9199H80.1191V75.5176H84.7168V70.9199Z" fill="white"/>
<path d="M93.9082 70.9199H89.3105V75.5176H93.9082V70.9199Z" fill="white"/>
<path d="M103.1 70.9204H98.502V75.5181H103.1V70.9204Z" fill="white"/>
<path d="M112.295 70.9199H107.697V75.5176H112.295V70.9199Z" fill="white"/>
<path d="M121.492 70.9204H116.895V75.5181H121.492V70.9204Z" fill="white"/>
<path d="M130.689 70.9204H126.092V75.5181H130.689V70.9204Z" fill="white"/>
<path d="M139.883 70.9204H135.285V75.5181H139.883V70.9204Z" fill="white"/>
<path d="M89.3106 75.5181H84.7129V80.1157H89.3106V75.5181Z" fill="white"/>
<path d="M103.1 75.5181H98.502V80.1157H103.1V75.5181Z" fill="white"/>
<path d="M112.295 75.5176H107.697V80.1152H112.295V75.5176Z" fill="white"/>
<path d="M47.9297 80.1157H43.332V84.7134H47.9297V80.1157Z" fill="white"/>
<path d="M61.7227 80.1152H57.125V84.7129H61.7227V80.1152Z" fill="white"/>
<path d="M66.3184 80.1152H61.7207V84.7129H66.3184V80.1152Z" fill="white"/>
<path d="M70.9199 80.1157H66.3223V84.7134H70.9199V80.1157Z" fill="white"/>
<path d="M75.5156 80.1147H70.918V84.7124H75.5156V80.1147Z" fill="white"/>
<path d="M80.1152 80.1152H75.5176V84.7129H80.1152V80.1152Z" fill="white"/>
<path d="M84.7168 80.1152H80.1191V84.7129H84.7168V80.1152Z" fill="white"/>
<path d="M89.3106 80.1152H84.7129V84.7129H89.3106V80.1152Z" fill="white"/>
<path d="M103.1 80.1152H98.502V84.7129H103.1V80.1152Z" fill="white"/>
<path d="M107.707 80.1157H103.109V84.7134H107.707V80.1157Z" fill="white"/>
<path d="M112.295 80.1157H107.697V84.7134H112.295V80.1157Z" fill="white"/>
<path d="M116.896 80.1152H112.299V84.7129H116.896V80.1152Z" fill="white"/>
<path d="M121.492 80.1152H116.895V84.7129H121.492V80.1152Z" fill="white"/>
<path d="M126.094 80.1152H121.496V84.7129H126.094V80.1152Z" fill="white"/>
<path d="M144.482 80.1152H139.885V84.7129H144.482V80.1152Z" fill="white"/>
<path d="M158.271 80.1157H153.674V84.7134H158.271V80.1157Z" fill="white"/>
<path d="M167.469 80.1147H162.871V84.7124H167.469V80.1147Z" fill="white"/>
<path d="M172.068 80.1152H167.471V84.7129H172.068V80.1152Z" fill="white"/>
<path d="M176.67 80.1152H172.072V84.7129H176.67V80.1152Z" fill="white"/>
<path d="M47.9297 84.7129H43.332V89.3106H47.9297V84.7129Z" fill="white"/>
<path d="M57.1231 84.7129H52.5254V89.3106H57.1231V84.7129Z" fill="white"/>
<path d="M84.7168 84.7129H80.1191V89.3106H84.7168V84.7129Z" fill="white"/>
<path d="M103.1 84.7124H98.502V89.3101H103.1V84.7124Z" fill="white"/>
<path d="M112.295 84.7129H107.697V89.3106H112.295V84.7129Z" fill="white"/>
<path d="M126.094 84.7129H121.496V89.3106H126.094V84.7129Z" fill="white"/>
<path d="M135.285 84.7119H130.688V89.3096H135.285V84.7119Z" fill="white"/>
<path d="M144.482 84.7129H139.885V89.3106H144.482V84.7129Z" fill="white"/>
<path d="M153.676 84.7129H149.078V89.3106H153.676V84.7129Z" fill="white"/>
<path d="M158.271 84.7129H153.674V89.3106H158.271V84.7129Z" fill="white"/>
<path d="M167.469 84.7129H162.871V89.3106H167.469V84.7129Z" fill="white"/>
<path d="M172.068 84.7129H167.471V89.3106H172.068V84.7129Z" fill="white"/>
<path d="M52.5293 89.3105H47.9316V93.9082H52.5293V89.3105Z" fill="white"/>
<path d="M57.1231 89.3105H52.5254V93.9082H57.1231V89.3105Z" fill="white"/>
<path d="M66.3184 89.311H61.7207V93.9087H66.3184V89.311Z" fill="white"/>
<path d="M70.9121 89.3105H66.3145V93.9082H70.9121V89.3105Z" fill="white"/>
<path d="M75.5156 89.3101H70.918V93.9077H75.5156V89.3101Z" fill="white"/>
<path d="M89.3106 89.3105H84.7129V93.9082H89.3106V89.3105Z" fill="white"/>
<path d="M93.9082 89.3101H89.3105V93.9077H93.9082V89.3101Z" fill="white"/>
<path d="M112.295 89.3105H107.697V93.9082H112.295V89.3105Z" fill="white"/>
<path d="M126.094 89.3105H121.496V93.9082H126.094V89.3105Z" fill="white"/>
<path d="M130.689 89.3101H126.092V93.9077H130.689V89.3101Z" fill="white"/>
<path d="M144.482 89.3105H139.885V93.9082H144.482V89.3105Z" fill="white"/>
<path d="M153.676 89.3105H149.078V93.9082H153.676V89.3105Z" fill="white"/>
<path d="M167.469 89.3105H162.871V93.9082H167.469V89.3105Z" fill="white"/>
<path d="M61.7227 93.9077H57.125V98.5054H61.7227V93.9077Z" fill="white"/>
<path d="M66.3184 93.9082H61.7207V98.5059H66.3184V93.9082Z" fill="white"/>
<path d="M84.7168 93.9082H80.1191V98.5059H84.7168V93.9082Z" fill="white"/>
<path d="M89.3106 93.9087H84.7129V98.5064H89.3106V93.9087Z" fill="white"/>
<path d="M93.9082 93.9077H89.3105V98.5054H93.9082V93.9077Z" fill="white"/>
<path d="M112.295 93.9082H107.697V98.5059H112.295V93.9082Z" fill="white"/>
<path d="M116.896 93.9077H112.299V98.5054H116.896V93.9077Z" fill="white"/>
<path d="M126.094 93.9087H121.496V98.5064H126.094V93.9087Z" fill="white"/>
<path d="M139.883 93.9082H135.285V98.5059H139.883V93.9082Z" fill="white"/>
<path d="M144.482 93.9077H139.885V98.5054H144.482V93.9077Z" fill="white"/>
<path d="M149.078 93.9082H144.48V98.5059H149.078V93.9082Z" fill="white"/>
<path d="M162.873 93.9077H158.275V98.5054H162.873V93.9077Z" fill="white"/>
<path d="M176.662 93.9077H172.064V98.5054H176.662V93.9077Z" fill="white"/>
<path d="M47.9297 98.5063H43.332V103.104H47.9297V98.5063Z" fill="white"/>
<path d="M52.5293 98.5059H47.9316V103.104H52.5293V98.5059Z" fill="white"/>
<path d="M57.1231 98.5063H52.5254V103.104H57.1231V98.5063Z" fill="white"/>
<path d="M61.7227 98.5059H57.125V103.104H61.7227V98.5059Z" fill="white"/>
<path d="M75.5156 98.5059H70.918V103.104H75.5156V98.5059Z" fill="white"/>
<path d="M93.9082 98.5059H89.3105V103.104H93.9082V98.5059Z" fill="white"/>
<path d="M103.1 98.5063H98.502V103.104H103.1V98.5063Z" fill="white"/>
<path d="M107.707 98.5063H103.109V103.104H107.707V98.5063Z" fill="white"/>
<path d="M112.295 98.5063H107.697V103.104H112.295V98.5063Z" fill="white"/>
<path d="M130.689 98.5059H126.092V103.104H130.689V98.5059Z" fill="white"/>
<path d="M139.883 98.5059H135.285V103.104H139.883V98.5059Z" fill="white"/>
<path d="M149.078 98.5059H144.48V103.104H149.078V98.5059Z" fill="white"/>
<path d="M153.676 98.5059H149.078V103.104H153.676V98.5059Z" fill="white"/>
<path d="M176.662 98.5059H172.064V103.104H176.662V98.5059Z" fill="white"/>
<path d="M57.1231 103.104H52.5254V107.701H57.1231V103.104Z" fill="white"/>
<path d="M98.5039 103.104H93.9062V107.701H98.5039V103.104Z" fill="white"/>
<path d="M103.1 103.104H98.502V107.701H103.1V103.104Z" fill="white"/>
<path d="M126.094 103.104H121.496V107.701H126.094V103.104Z" fill="white"/>
<path d="M130.689 103.104H126.092V107.701H130.689V103.104Z" fill="white"/>
<path d="M144.482 103.104H139.885V107.701H144.482V103.104Z" fill="white"/>
<path d="M149.078 103.104H144.48V107.701H149.078V103.104Z" fill="white"/>
<path d="M158.271 103.104H153.674V107.702H158.271V103.104Z" fill="white"/>
<path d="M162.873 103.104H158.275V107.701H162.873V103.104Z" fill="white"/>
<path d="M167.469 103.103H162.871V107.701H167.469V103.103Z" fill="white"/>
<path d="M172.068 103.104H167.471V107.701H172.068V103.104Z" fill="white"/>
<path d="M176.662 103.104H172.064V107.701H176.662V103.104Z" fill="white"/>
<path d="M52.5293 107.701H47.9316V112.299H52.5293V107.701Z" fill="white"/>
<path d="M70.9121 107.701H66.3145V112.299H70.9121V107.701Z" fill="white"/>
<path d="M75.5156 107.701H70.918V112.298H75.5156V107.701Z" fill="white"/>
<path d="M80.1152 107.701H75.5176V112.299H80.1152V107.701Z" fill="white"/>
<path d="M84.7168 107.701H80.1191V112.299H84.7168V107.701Z" fill="white"/>
<path d="M93.9082 107.701H89.3105V112.298H93.9082V107.701Z" fill="white"/>
<path d="M112.295 107.701H107.697V112.299H112.295V107.701Z" fill="white"/>
<path d="M116.896 107.701H112.299V112.299H116.896V107.701Z" fill="white"/>
<path d="M126.094 107.702H121.496V112.299H126.094V107.702Z" fill="white"/>
<path d="M135.285 107.701H130.688V112.299H135.285V107.701Z" fill="white"/>
<path d="M139.883 107.702H135.285V112.299H139.883V107.702Z" fill="white"/>
<path d="M144.482 107.701H139.885V112.299H144.482V107.701Z" fill="white"/>
<path d="M149.078 107.701H144.48V112.298H149.078V107.701Z" fill="white"/>
<path d="M153.676 107.701H149.078V112.299H153.676V107.701Z" fill="white"/>
<path d="M167.469 107.701H162.871V112.299H167.469V107.701Z" fill="white"/>
<path d="M176.662 107.701H172.064V112.299H176.662V107.701Z" fill="white"/>
<path d="M47.9297 112.298H43.332V116.896H47.9297V112.298Z" fill="white"/>
<path d="M52.5293 112.298H47.9316V116.896H52.5293V112.298Z" fill="white"/>
<path d="M66.3184 112.299H61.7207V116.896H66.3184V112.299Z" fill="white"/>
<path d="M80.1152 112.299H75.5176V116.896H80.1152V112.299Z" fill="white"/>
<path d="M89.3106 112.299H84.7129V116.896H89.3106V112.299Z" fill="white"/>
<path d="M93.9082 112.298H89.3105V116.896H93.9082V112.298Z" fill="white"/>
<path d="M107.707 112.298H103.109V116.896H107.707V112.298Z" fill="white"/>
<path d="M112.295 112.299H107.697V116.896H112.295V112.299Z" fill="white"/>
<path d="M121.492 112.299H116.895V116.896H121.492V112.299Z" fill="white"/>
<path d="M130.689 112.298H126.092V116.896H130.689V112.298Z" fill="white"/>
<path d="M153.676 112.299H149.078V116.896H153.676V112.299Z" fill="white"/>
<path d="M158.271 112.298H153.674V116.896H158.271V112.298Z" fill="white"/>
<path d="M167.469 112.298H162.871V116.896H167.469V112.298Z" fill="white"/>
<path d="M176.662 112.299H172.064V116.896H176.662V112.299Z" fill="white"/>
<path d="M66.3184 116.896H61.7207V121.494H66.3184V116.896Z" fill="white"/>
<path d="M75.5156 116.896H70.918V121.494H75.5156V116.896Z" fill="white"/>
<path d="M103.1 116.896H98.502V121.494H103.1V116.896Z" fill="white"/>
<path d="M116.896 116.896H112.299V121.494H116.896V116.896Z" fill="white"/>
<path d="M135.285 116.896H130.688V121.494H135.285V116.896Z" fill="white"/>
<path d="M139.883 116.896H135.285V121.494H139.883V116.896Z" fill="white"/>
<path d="M162.873 116.896H158.275V121.494H162.873V116.896Z" fill="white"/>
<path d="M47.9297 121.495H43.332V126.092H47.9297V121.495Z" fill="white"/>
<path d="M61.7227 121.494H57.125V126.092H61.7227V121.494Z" fill="white"/>
<path d="M84.7168 121.495H80.1191V126.092H84.7168V121.495Z" fill="white"/>
<path d="M89.3106 121.495H84.7129V126.092H89.3106V121.495Z" fill="white"/>
<path d="M126.094 121.494H121.496V126.092H126.094V121.494Z" fill="white"/>
<path d="M130.689 121.495H126.092V126.092H130.689V121.495Z" fill="white"/>
<path d="M135.285 121.494H130.688V126.092H135.285V121.494Z" fill="white"/>
<path d="M158.281 121.494H153.684V126.092H158.281V121.494Z" fill="white"/>
<path d="M167.469 121.494H162.871V126.092H167.469V121.494Z" fill="white"/>
<path d="M172.068 121.495H167.471V126.092H172.068V121.495Z" fill="white"/>
<path d="M47.9297 126.092H43.332V130.689H47.9297V126.092Z" fill="white"/>
<path d="M52.5293 126.092H47.9316V130.69H52.5293V126.092Z" fill="white"/>
<path d="M57.1231 126.092H52.5254V130.689H57.1231V126.092Z" fill="white"/>
<path d="M75.5156 126.092H70.918V130.689H75.5156V126.092Z" fill="white"/>
<path d="M80.1152 126.092H75.5176V130.69H80.1152V126.092Z" fill="white"/>
<path d="M89.3106 126.092H84.7129V130.689H89.3106V126.092Z" fill="white"/>
<path d="M93.9082 126.092H89.3105V130.689H93.9082V126.092Z" fill="white"/>
<path d="M107.707 126.092H103.109V130.689H107.707V126.092Z" fill="white"/>
<path d="M112.295 126.092H107.697V130.689H112.295V126.092Z" fill="white"/>
<path d="M121.492 126.092H116.895V130.69H121.492V126.092Z" fill="white"/>
<path d="M130.689 126.092H126.092V130.689H130.689V126.092Z" fill="white"/>
<path d="M135.285 126.092H130.688V130.689H135.285V126.092Z" fill="white"/>
<path d="M144.482 126.092H139.885V130.69H144.482V126.092Z" fill="white"/>
<path d="M149.078 126.092H144.48V130.689H149.078V126.092Z" fill="white"/>
<path d="M162.873 126.092H158.275V130.69H162.873V126.092Z" fill="white"/>
<path d="M176.662 126.092H172.064V130.69H176.662V126.092Z" fill="white"/>
<path d="M47.9297 130.69H43.332V135.288H47.9297V130.69Z" fill="white"/>
<path d="M52.5293 130.689H47.9316V135.287H52.5293V130.689Z" fill="white"/>
<path d="M66.3184 130.69H61.7207V135.288H66.3184V130.69Z" fill="white"/>
<path d="M70.9121 130.689H66.3145V135.287H70.9121V130.689Z" fill="white"/>
<path d="M80.1152 130.69H75.5176V135.288H80.1152V130.69Z" fill="white"/>
<path d="M84.7168 130.689H80.1191V135.287H84.7168V130.689Z" fill="white"/>
<path d="M89.3106 130.69H84.7129V135.288H89.3106V130.69Z" fill="white"/>
<path d="M93.9082 130.69H89.3105V135.288H93.9082V130.69Z" fill="white"/>
<path d="M98.5039 130.689H93.9062V135.287H98.5039V130.689Z" fill="white"/>
<path d="M107.695 130.689H103.098V135.287H107.695V130.689Z" fill="white"/>
<path d="M116.896 130.69H112.299V135.288H116.896V130.69Z" fill="white"/>
<path d="M121.492 130.69H116.895V135.288H121.492V130.69Z" fill="white"/>
<path d="M135.285 130.69H130.688V135.288H135.285V130.69Z" fill="white"/>
<path d="M144.482 130.689H139.885V135.287H144.482V130.689Z" fill="white"/>
<path d="M149.078 130.69H144.48V135.288H149.078V130.69Z" fill="white"/>
<path d="M153.676 130.69H149.078V135.288H153.676V130.69Z" fill="white"/>
<path d="M158.271 130.689H153.674V135.287H158.271V130.689Z" fill="white"/>
<path d="M162.873 130.689H158.275V135.287H162.873V130.689Z" fill="white"/>
<path d="M167.469 130.69H162.871V135.288H167.469V130.69Z" fill="white"/>
<path d="M47.9297 135.288H43.332V139.885H47.9297V135.288Z" fill="white"/>
<path d="M52.5293 135.287H47.9316V139.885H52.5293V135.287Z" fill="white"/>
<path d="M57.1231 135.287H52.5254V139.885H57.1231V135.287Z" fill="white"/>
<path d="M70.9121 135.288H66.3145V139.886H70.9121V135.288Z" fill="white"/>
<path d="M75.5156 135.287H70.918V139.885H75.5156V135.287Z" fill="white"/>
<path d="M89.3106 135.288H84.7129V139.885H89.3106V135.288Z" fill="white"/>
<path d="M93.9082 135.288H89.3105V139.886H93.9082V135.288Z" fill="white"/>
<path d="M103.1 135.288H98.502V139.886H103.1V135.288Z" fill="white"/>
<path d="M107.695 135.288H103.098V139.885H107.695V135.288Z" fill="white"/>
<path d="M126.094 135.288H121.496V139.886H126.094V135.288Z" fill="white"/>
<path d="M135.285 135.287H130.688V139.885H135.285V135.287Z" fill="white"/>
<path d="M139.883 135.287H135.285V139.885H139.883V135.287Z" fill="white"/>
<path d="M144.482 135.288H139.885V139.886H144.482V135.288Z" fill="white"/>
<path d="M149.078 135.287H144.48V139.885H149.078V135.287Z" fill="white"/>
<path d="M153.676 135.287H149.078V139.885H153.676V135.287Z" fill="white"/>
<path d="M158.271 135.288H153.674V139.885H158.271V135.288Z" fill="white"/>
<path d="M162.873 135.288H158.275V139.886H162.873V135.288Z" fill="white"/>
<path d="M167.469 135.287H162.871V139.885H167.469V135.287Z" fill="white"/>
<path d="M172.068 135.287H167.471V139.885H172.068V135.287Z" fill="white"/>
<path d="M84.7168 139.884H80.1191V144.482H84.7168V139.884Z" fill="white"/>
<path d="M98.5039 139.885H93.9062V144.482H98.5039V139.885Z" fill="white"/>
<path d="M107.707 139.885H103.109V144.482H107.707V139.885Z" fill="white"/>
<path d="M121.492 139.885H116.895V144.482H121.492V139.885Z" fill="white"/>
<path d="M126.094 139.885H121.496V144.482H126.094V139.885Z" fill="white"/>
<path d="M130.689 139.885H126.092V144.482H130.689V139.885Z" fill="white"/>
<path d="M139.883 139.885H135.285V144.482H139.883V139.885Z" fill="white"/>
<path d="M158.271 139.885H153.674V144.482H158.271V139.885Z" fill="white"/>
<path d="M162.873 139.885H158.275V144.482H162.873V139.885Z" fill="white"/>
<path d="M84.7168 144.483H80.1191V149.081H84.7168V144.483Z" fill="white"/>
<path d="M107.707 144.483H103.109V149.081H107.707V144.483Z" fill="white"/>
<path d="M116.896 144.482H112.299V149.08H116.896V144.482Z" fill="white"/>
<path d="M121.492 144.483H116.895V149.081H121.492V144.483Z" fill="white"/>
<path d="M135.285 144.482H130.688V149.08H135.285V144.482Z" fill="white"/>
<path d="M139.883 144.482H135.285V149.08H139.883V144.482Z" fill="white"/>
<path d="M149.078 144.483H144.48V149.081H149.078V144.483Z" fill="white"/>
<path d="M158.271 144.483H153.674V149.081H158.271V144.483Z" fill="white"/>
<path d="M162.873 144.483H158.275V149.081H162.873V144.483Z" fill="white"/>
<path d="M84.7168 149.081H80.1191V153.678H84.7168V149.081Z" fill="white"/>
<path d="M89.3106 149.08H84.7129V153.678H89.3106V149.08Z" fill="white"/>
<path d="M93.9082 149.08H89.3105V153.678H93.9082V149.08Z" fill="white"/>
<path d="M103.1 149.08H98.502V153.678H103.1V149.08Z" fill="white"/>
<path d="M107.707 149.081H103.109V153.678H107.707V149.081Z" fill="white"/>
<path d="M121.492 149.081H116.895V153.678H121.492V149.081Z" fill="white"/>
<path d="M126.094 149.08H121.496V153.678H126.094V149.08Z" fill="white"/>
<path d="M135.285 149.08H130.688V153.678H135.285V149.08Z" fill="white"/>
<path d="M139.883 149.081H135.285V153.678H139.883V149.081Z" fill="white"/>
<path d="M158.271 149.08H153.674V153.678H158.271V149.08Z" fill="white"/>
<path d="M172.068 149.081H167.471V153.678H172.068V149.081Z" fill="white"/>
<path d="M176.662 149.081H172.064V153.678H176.662V149.081Z" fill="white"/>
<path d="M84.7168 153.678H80.1191V158.275H84.7168V153.678Z" fill="white"/>
<path d="M98.5039 153.678H93.9062V158.275H98.5039V153.678Z" fill="white"/>
<path d="M103.1 153.678H98.502V158.275H103.1V153.678Z" fill="white"/>
<path d="M107.707 153.678H103.109V158.275H107.707V153.678Z" fill="white"/>
<path d="M116.896 153.678H112.299V158.276H116.896V153.678Z" fill="white"/>
<path d="M121.492 153.678H116.895V158.275H121.492V153.678Z" fill="white"/>
<path d="M135.285 153.678H130.688V158.276H135.285V153.678Z" fill="white"/>
<path d="M139.883 153.678H135.285V158.275H139.883V153.678Z" fill="white"/>
<path d="M144.482 153.678H139.885V158.275H144.482V153.678Z" fill="white"/>
<path d="M149.078 153.678H144.48V158.276H149.078V153.678Z" fill="white"/>
<path d="M153.676 153.678H149.078V158.276H153.676V153.678Z" fill="white"/>
<path d="M158.271 153.678H153.674V158.275H158.271V153.678Z" fill="white"/>
<path d="M162.873 153.678H158.275V158.275H162.873V153.678Z" fill="white"/>
<path d="M84.7168 158.275H80.1191V162.873H84.7168V158.275Z" fill="white"/>
<path d="M103.1 158.276H98.502V162.874H103.1V158.276Z" fill="white"/>
<path d="M107.707 158.275H103.109V162.873H107.707V158.275Z" fill="white"/>
<path d="M112.295 158.276H107.697V162.874H112.295V158.276Z" fill="white"/>
<path d="M121.492 158.276H116.895V162.874H121.492V158.276Z" fill="white"/>
<path d="M126.094 158.276H121.496V162.874H126.094V158.276Z" fill="white"/>
<path d="M130.689 158.275H126.092V162.873H130.689V158.275Z" fill="white"/>
<path d="M135.285 158.276H130.688V162.874H135.285V158.276Z" fill="white"/>
<path d="M139.883 158.276H135.285V162.874H139.883V158.276Z" fill="white"/>
<path d="M144.482 158.275H139.885V162.873H144.482V158.275Z" fill="white"/>
<path d="M153.676 158.275H149.078V162.873H153.676V158.275Z" fill="white"/>
<path d="M172.068 158.275H167.471V162.873H172.068V158.275Z" fill="white"/>
<path d="M93.9082 162.873H89.3105V167.47H93.9082V162.873Z" fill="white"/>
<path d="M107.707 162.873H103.109V167.471H107.707V162.873Z" fill="white"/>
<path d="M121.492 162.873H116.895V167.471H121.492V162.873Z" fill="white"/>
<path d="M144.482 162.873H139.885V167.47H144.482V162.873Z" fill="white"/>
<path d="M153.676 162.873H149.078V167.471H153.676V162.873Z" fill="white"/>
<path d="M158.271 162.873H153.674V167.471H158.271V162.873Z" fill="white"/>
<path d="M167.469 162.873H162.871V167.471H167.469V162.873Z" fill="white"/>
<path d="M172.068 162.874H167.471V167.471H172.068V162.874Z" fill="white"/>
<path d="M176.662 162.874H172.064V167.471H176.662V162.874Z" fill="white"/>
<path d="M98.5039 167.471H93.9062V172.068H98.5039V167.471Z" fill="white"/>
<path d="M107.695 167.471H103.098V172.068H107.695V167.471Z" fill="white"/>
<path d="M116.896 167.471H112.299V172.069H116.896V167.471Z" fill="white"/>
<path d="M144.482 167.471H139.885V172.069H144.482V167.471Z" fill="white"/>
<path d="M153.676 167.471H149.078V172.069H153.676V167.471Z" fill="white"/>
<path d="M162.873 167.471H158.275V172.069H162.873V167.471Z" fill="white"/>
<path d="M167.469 167.471H162.871V172.069H167.469V167.471Z" fill="white"/>
<path d="M176.662 167.471H172.064V172.069H176.662V167.471Z" fill="white"/>
<path d="M84.7168 172.068H80.1191V176.666H84.7168V172.068Z" fill="white"/>
<path d="M98.5039 172.068H93.9062V176.666H98.5039V172.068Z" fill="white"/>
<path d="M103.1 172.068H98.502V176.666H103.1V172.068Z" fill="white"/>
<path d="M126.094 172.068H121.496V176.666H126.094V172.068Z" fill="white"/>
<path d="M130.689 172.069H126.092V176.667H130.689V172.069Z" fill="white"/>
<path d="M135.285 172.069H130.688V176.667H135.285V172.069Z" fill="white"/>
<path d="M139.883 172.069H135.285V176.667H139.883V172.069Z" fill="white"/>
<path d="M149.078 172.069H144.48V176.667H149.078V172.069Z" fill="white"/>
<path d="M158.271 172.069H153.674V176.667H158.271V172.069Z" fill="white"/>
<path d="M162.873 172.069H158.275V176.667H162.873V172.069Z" fill="white"/>
<path d="M70.8425 43.334H48.3139H43.4863V48.1615V70.6901V75.5177H48.3139H70.8425H75.67V70.6901V48.1615V43.334H70.8425ZM70.8425 70.6901H48.3139V48.1615H70.8425V70.6901Z" fill="white"/>
<path d="M66.4688 52.5288H52.6758V66.3218H66.4688V52.5288Z" fill="white"/>
<path d="M171.841 43.334H149.312H144.484V48.1615V70.6901V75.5177H149.312H171.841H176.668V70.6901V48.1615V43.334H171.841ZM171.841 70.6901H149.312V48.1615H171.841V70.6901Z" fill="white"/>
<path d="M70.8425 144.333H48.3139H43.4863V149.161V171.69V176.517H48.3139H70.8425H75.67V171.69V149.161V144.333H70.8425ZM70.8425 171.69H48.3139V149.161H70.8425V171.69Z" fill="white"/>
<path d="M66.4688 153.529H52.6758V167.322H66.4688V153.529Z" fill="white"/>
<path d="M70.8425 43.334H48.3139H43.4863V48.1615V70.6901V75.5177H48.3139H70.8425H75.67V70.6901V48.1615V43.334H70.8425ZM70.8425 70.6901H48.3139V48.1615H70.8425V70.6901Z" fill="white"/>
<path d="M66.4688 52.5288H52.6758V66.3218H66.4688V52.5288Z" fill="white"/>
<path d="M167.467 52.5288H153.674V66.3218H167.467V52.5288Z" fill="white"/>
<path d="M70.8425 144.333H48.3139H43.4863V149.161V171.69V176.517H48.3139H70.8425H75.67V171.69V149.161V144.333H70.8425ZM70.8425 171.69H48.3139V149.161H70.8425V171.69Z" fill="white"/>
<path d="M66.4688 153.529H52.6758V167.322H66.4688V153.529Z" fill="white"/>
</svg>
