<svg width="24" height="24" viewBox="0 0 24 24" fill="none" xmlns="http://www.w3.org/2000/svg">
<path d="M21.7219 3.19694C21.6112 3.10061 21.4765 3.03654 21.3324 3.01164C21.1883 2.98674 21.0402 3.00195 20.904 3.05564L2.8095 10.1936C2.55306 10.2941 2.33595 10.4759 2.19086 10.7115C2.04578 10.9472 1.98056 11.224 2.00503 11.5002C2.02951 11.7765 2.14235 12.0373 2.32657 12.2433C2.51078 12.4493 2.75641 12.5894 3.02646 12.6425L7.71482 13.5704V18.84C7.7139 19.127 7.79852 19.4077 7.95771 19.6457C8.11691 19.8837 8.34334 20.068 8.60767 20.1747C8.87159 20.2833 9.16183 20.3094 9.44065 20.2495C9.71947 20.1897 9.97397 20.0466 10.1711 19.839L12.4318 17.4756L16.0183 20.64C16.2771 20.8714 16.6108 20.9994 16.9567 21C17.1083 20.9999 17.2589 20.9759 17.4031 20.9289C17.6388 20.8535 17.8508 20.7172 18.0179 20.5336C18.1851 20.3499 18.3016 20.1253 18.3558 19.8822L21.9799 3.98984C22.0123 3.84652 22.0054 3.697 21.96 3.55732C21.9145 3.41764 21.8322 3.29306 21.7219 3.19694Z" fill="#ffffff"/>
</svg>
