<svg width="16" height="16" viewBox="0 0 16 16" fill="none" xmlns="http://www.w3.org/2000/svg">
<mask id="mask0_95_837" style="mask-type:luminance" maskUnits="userSpaceOnUse" x="0" y="0" width="16" height="16">
<rect width="16" height="16" rx="8" fill="white"/>
</mask>
<g mask="url(#mask0_95_837)">
<path fill-rule="evenodd" clip-rule="evenodd" d="M0 8C0 3.58173 3.58172 0 8 0C12.4183 0 16 3.58172 16 8V13.3333C16 17.7516 12.4183 21.3333 8 21.3333C3.58172 21.3333 0 17.7516 0 13.3333V8Z" fill="#E31D1C"/>
<path fill-rule="evenodd" clip-rule="evenodd" d="M0 1.3335V3.27289H16V1.3335H0ZM0 5.21247V7.15187H16V5.21247H0ZM0 11.0304V9.09105H16V11.0304H0ZM0 12.97V14.9094H16V12.97H0ZM0 18.7881V16.8487H16V18.7881H0ZM0 22.6668V20.7274H16V22.6668H0Z" fill="#F7FCFF"/>
<rect width="9" height="7" fill="#2E42A5"/>
<path fill-rule="evenodd" clip-rule="evenodd" d="M1.03981 2.25837L1.56973 1.91306L1.98069 2.18983H1.74805L2.21872 2.57927L2.05976 3.12526H1.81076L1.56899 2.62376L1.3628 3.12526H0.748047L1.21872 3.51469L1.03981 4.1292L1.56973 3.78389L1.98094 4.06083H1.74805L2.21872 4.45026L2.05976 4.99625H1.81076L1.56899 4.49475L1.3628 4.99625H0.748047L1.21872 5.38568L1.03981 6.00019L1.56973 5.65488L2.08246 6.00019L1.92305 5.38568L2.33482 4.99625H2.14496L2.56973 4.71946L2.98072 4.99625H2.74805L3.21872 5.38568L3.03981 6.00019L3.56973 5.65488L4.08246 6.00019L3.92305 5.38568L4.33482 4.99625H4.14496L4.56973 4.71946L4.98072 4.99625H4.74805L5.21872 5.38568L5.03981 6.00019L5.56973 5.65488L6.08246 6.00019L5.92305 5.38568L6.33482 4.99625H6.14496L6.56973 4.71946L6.98072 4.99625H6.74805L7.21872 5.38568L7.03981 6.00019L7.56973 5.65488L8.08246 6.00019L7.92305 5.38568L8.33482 4.99625H7.81076L7.56899 4.49475L7.3628 4.99625H7.06469L6.92305 4.45026L7.33482 4.06083H7.14474L7.56973 3.78389L8.08246 4.1292L7.92305 3.51469L8.33482 3.12526H7.81076L7.56899 2.62376L7.3628 3.12526H7.06469L6.92305 2.57927L7.33482 2.18983H7.14499L7.56973 1.91306L8.08246 2.25837L7.92305 1.64386L8.33482 1.25443H7.81076L7.56899 0.75293L7.3628 1.25443H6.74805L7.21872 1.64386L7.05976 2.18983H6.81076L6.56899 1.68833L6.3628 2.18983H6.06468L5.92305 1.64386L6.33482 1.25443H5.81076L5.56899 0.75293L5.3628 1.25443H4.74805L5.21872 1.64386L5.05976 2.18983H4.81076L4.56899 1.68833L4.3628 2.18983H4.06468L3.92305 1.64386L4.33482 1.25443H3.81076L3.56899 0.75293L3.3628 1.25443H2.74805L3.21872 1.64386L3.05976 2.18983H2.81076L2.56899 1.68833L2.3628 2.18983H2.06468L1.92305 1.64386L2.33482 1.25443H1.81076L1.56899 0.75293L1.3628 1.25443H0.748047L1.21872 1.64386L1.03981 2.25837ZM7.05971 4.06083L7.21872 3.51469L6.74805 3.12526H6.98072L6.56973 2.84847L6.14496 3.12526H6.33482L5.92305 3.51469L6.06473 4.06083H6.3628L6.56899 3.55933L6.81076 4.06083H7.05971ZM5.98094 4.06083L5.56973 3.78389L5.14474 4.06083H5.33482L4.92305 4.45026L5.06469 4.99625H5.3628L5.56899 4.49475L5.81076 4.99625H6.05976L6.21872 4.45026L5.74805 4.06083H5.98094ZM4.21872 4.45026L4.05976 4.99625H3.81076L3.56899 4.49475L3.3628 4.99625H3.06469L2.92305 4.45026L3.33482 4.06083H3.14474L3.56973 3.78389L3.98094 4.06083H3.74805L4.21872 4.45026ZM4.3628 4.06083H4.06473L3.92305 3.51469L4.33482 3.12526H4.14496L4.56973 2.84847L4.98072 3.12526H4.74805L5.21872 3.51469L5.05971 4.06083H4.81076L4.56899 3.55933L4.3628 4.06083ZM3.05971 4.06083L3.21872 3.51469L2.74805 3.12526H2.98072L2.56973 2.84847L2.14496 3.12526H2.33482L1.92305 3.51469L2.06473 4.06083H2.3628L2.56899 3.55933L2.81076 4.06083H3.05971ZM6.21872 2.57927L6.05976 3.12526H5.81076L5.56899 2.62376L5.3628 3.12526H5.06469L4.92305 2.57927L5.33482 2.18983H5.14499L5.56973 1.91306L5.98069 2.18983H5.74805L6.21872 2.57927ZM3.98069 2.18983L3.56973 1.91306L3.14499 2.18983H3.33482L2.92305 2.57927L3.06469 3.12526H3.3628L3.56899 2.62376L3.81076 3.12526H4.05976L4.21872 2.57927L3.74805 2.18983H3.98069Z" fill="#F7FCFF"/>
</g>
</svg>
