<?xml version="1.0" standalone="no"?>
<!DOCTYPE svg PUBLIC "-//W3C//DTD SVG 20010904//EN"
 "http://www.w3.org/TR/2001/REC-SVG-20010904/DTD/svg10.dtd">
<svg version="1.0" xmlns="http://www.w3.org/2000/svg"
 width="1024.000000pt" height="1024.000000pt" viewBox="0 0 1024.000000 1024.000000"
 preserveAspectRatio="xMidYMid meet">
<metadata>
Created by potrace 1.14, written by Peter Selinger 2001-2017
</metadata>
<g transform="translate(0.000000,1024.000000) scale(0.100000,-0.100000)"
fill="#000000" stroke="none">
<path d="M1316 5973 c-22 -177 -33 -307 -51 -598 -17 -294 -40 -1203 -30
-1251 l6 -34 231 0 231 0 -6 73 c-16 177 -29 693 -23 912 10 359 16 446 33
443 8 -2 189 -322 403 -713 l388 -710 226 -3 226 -2 0 1005 0 1005 -220 0
-220 0 0 -665 c0 -366 -3 -665 -8 -665 -4 0 -170 298 -368 663 l-360 662 -221
3 -220 2 -17 -127z"/>
<path d="M5500 6093 c0 -5 126 -456 279 -1003 l279 -995 297 0 297 0 75 140
c243 454 421 900 526 1320 44 175 97 457 97 516 l0 29 -230 0 -230 0 -4 -22
c-2 -13 -9 -72 -15 -133 -35 -345 -185 -833 -395 -1277 -43 -93 -59 -118 -75
-118 -15 0 -23 10 -30 38 -41 154 -391 1504 -391 1508 0 2 -108 4 -240 4 -132
0 -240 -3 -240 -7z"/>
<path d="M7657 6093 c-4 -3 -7 -456 -7 -1005 l0 -998 655 0 655 0 0 195 0 195
-425 0 -425 0 0 215 0 215 380 0 380 0 0 190 0 190 -380 0 -380 0 0 205 0 205
410 0 410 0 0 200 0 200 -633 0 c-349 0 -637 -3 -640 -7z"/>
</g>
</svg>
