<svg xmlns="http://www.w3.org/2000/svg">
<defs>
<font id="FixelDisplay-Medium" horiz-adv-x="609" >
  <font-face 
    font-family="Fixel Display Medium"
    font-weight="500"
    font-stretch="normal"
    units-per-em="1000"
    panose-1="0 0 0 0 0 0 0 0 0 0"
    ascent="800"
    descent="-200"
    x-height="520"
    cap-height="700"
    bbox="-52 -207 1161 932"
    underline-thickness="50"
    underline-position="-175"
    unicode-range="U+000D-FB04"
  />
<missing-glyph horiz-adv-x="713" 
d="M198 619q-14 -1 -23 6t-10 18q-2 12 6 20t22 10q16 2 28.5 -5t14.5 -18q1 -11 -10.5 -20t-27.5 -11zM121 427q-20 -2 -36.5 8t-17.5 24q0 7 3.5 14l7.5 15t7.5 18t2.5 22t-6 21t-11 16t-11 13.5t-5 13.5q-1 13 13 25t31 14t35 -9t31 -31q8 -12 15 -18t13 -11t10.5 -10
t5.5 -15t-2.5 -16t-9 -12.5t-12 -14.5t-12.5 -22q-18 -42 -52 -45zM253 551q-17 -2 -28.5 6t-12.5 22q-2 14 8.5 23.5t27.5 11.5q19 2 34.5 -6.5t17.5 -20.5q1 -13 -13 -23.5t-34 -12.5zM260 470q-17 -2 -28 6t-12 22q-2 14 8 23t27 11q19 2 34 -6t16 -21q2 -12 -12 -22.5
t-33 -12.5zM217 401q-14 -1 -23 6t-10 19q-2 11 6.5 19t22.5 10q16 2 28.5 -5.5t13.5 -18.5t-10.5 -19.5t-27.5 -10.5zM563 245q-14 2 -22 10t-7 19q1 12 10 19t23 6q16 -2 27.5 -10.5t10.5 -19.5t-13.5 -18.5t-28.5 -5.5zM450 70q-18 2 -32 13.5t-13 24.5q0 7 5 13.5t11 14
t11 16.5t6 21t-2.5 22t-8 18t-8 15t-2.5 14q2 13 17.5 22.5t35.5 8.5q34 -1 54 -44q6 -14 12.5 -22t12 -14.5t8.5 -12.5t2 -16t-4.5 -15.5t-9.5 -11t-13.5 -11.5t-15.5 -17q-14 -19 -31.5 -30t-34.5 -9zM605 169q-17 2 -27 11t-9 23q2 14 13.5 22t28.5 6q19 -2 33.5 -12.5
t12.5 -23.5q-1 -12 -16.5 -20t-35.5 -6zM598 87q-17 2 -27 11.5t-8 23.5t12.5 22t27.5 6q19 -2 33 -12.5t13 -23.5q-2 -12 -17 -20.5t-34 -6.5zM544 27q-14 2 -22 10t-7 20t10.5 18.5t23.5 5.5q16 -2 27.5 -11t9.5 -20q-1 -11 -14 -18t-28 -5z" />
    <glyph glyph-name="arrowleft" unicode="&#x3c;&#x2d;" horiz-adv-x="729" 
d="M52 330v7l215 221l59 -58l-129 -126h490v-81h-490l129 -126l-59 -58z" />
    <glyph glyph-name="arrowup" unicode="&#x2f;&#x7c;\" horiz-adv-x="521" 
d="M257 650.003h7l221 -214.986l-58 -58.9971l-126 128.992v-489.97h-81v489.97l-126 -128.992l-58 58.9971z" />
    <glyph glyph-name="arrowright" unicode="&#x2d;&#x3e;" horiz-adv-x="729" 
d="M677.003 330v7l-214.986 221l-58.9971 -58l128.992 -126h-489.97v-81h489.97l-128.992 -126l58.9971 -58z" />
    <glyph glyph-name="arrowdown" unicode="\&#x7c;&#x2f;" horiz-adv-x="521" 
d="M257 16.0371h7l221 214.973l-58 58.9941l-126 -128.984v489.939h-81v-489.939l-126 128.984l-58 -58.9941z" />
    <glyph glyph-name="uni2646" unicode="TRIDENT" horiz-adv-x="798" 
d="M432 408q0 -34 8 -61t20 -49.5t27 -41.5t29 -38q18 8 30 17.5t12 23.5q0 19 -20 30t-55 11v11q0 61 12 110.5t39 92.5t69.5 80.5t102.5 73.5v-668h-159q-32 -74 -115 -133v-59h-66v59q-83 59 -115 133h-159v668q60 -36 102.5 -73.5t69.5 -80.5t39.5 -92.5t12.5 -110.5
v-11q-35 0 -55.5 -11t-20.5 -30q0 -14 12 -23.5t31 -17.5q14 19 29 38t27 41.5t19.5 49.5t7.5 61v320h66v-320zM640 65v475q-41 -38 -61.5 -82t-28.5 -109q34 -8 53 -30.5t19 -57.5q0 -39 -22.5 -59.5t-52.5 -34.5q8 -17 13 -37t5 -43v-11.5t-1 -10.5h76zM234 65
q0 5 -0.5 10.5t-0.5 11.5q0 23 5 43t13 37q-30 14 -52.5 34.5t-22.5 59.5q0 35 19.5 57.5t53.5 30.5q-8 65 -29 109t-62 82v-475h76zM343 190q16 -9 30.5 -20.5t25.5 -28.5q12 17 26.5 28.5t30.5 20.5q-14 19 -29 39t-28 44q-13 -25 -27.5 -44.5t-28.5 -38.5zM366 65
q-5 26 -20.5 43t-35.5 29q-5 -11 -8.5 -24t-3.5 -27q0 -5 0.5 -10.5t1.5 -10.5h66zM498 65q1 5 1.5 10.5t0.5 10.5q0 27 -11 51q-20 -12 -35.5 -29t-20.5 -43h65zM368 0h-41q26 -39 72 -75q47 36 72 75h-41v-29h-62v29z" />
    <glyph glyph-name="uniE000" unicode="&#x457;&#x457;" horiz-adv-x="528" 
d="M62 615q-23 0 -38 15t-15 39q0 23 15 38.5t38 15.5t38.5 -15.5t15.5 -38.5q0 -24 -15.5 -39t-38.5 -15zM263 615q-23 0 -38 15.5t-15 38.5t15 38.5t38 15.5t38.5 -15.5t15.5 -38.5t-15.5 -38.5t-38.5 -15.5zM465 615q-23 0 -38 15t-15 39q0 23 15 38.5t38 15.5
t38.5 -15.5t15.5 -38.5q0 -24 -15.5 -39t-38.5 -15zM82 520h99v-520h-99v520zM346 520h99v-520h-99v520z" />
    <glyph glyph-name="uniE01A" unicode="MACPAWLOGO" horiz-adv-x="740" 
d="M328 654q-10 -5 -17 -5q-11 0 -17 10q-11 20 12 33q8 5 20 5q6 0 11.5 -1.5t7.5 -6.5q5 -8 -0.5 -18.5t-16.5 -16.5zM392 620q-9 -5 -19 -5q-13 0 -21 12q-12 21 14 37q12 6 24 6q15 0 21 -9q5 -9 -0.5 -21t-18.5 -20zM370 0q-67 0 -127 26t-104 70t-70 104t-26 127
q0 50 14.5 96t40.5 85.5t63.5 70.5t83.5 50q15 7 34 7q27 0 50 -15t34 -41t5.5 -52.5t-24.5 -45.5q-8 -8 -17 -13l-18 -10l-11 -5q-35 -18 -54.5 -53.5t-19.5 -73.5q0 -30 11.5 -56.5t31.5 -46.5t46.5 -31.5t56.5 -11.5q26 0 50 9t42.5 24.5t32 36.5t18.5 46q2 8 2 15t1 15
q3 38 26 64t64 26q38 0 64.5 -26t26.5 -64q0 -67 -26 -127t-70 -104t-103.5 -70t-127.5 -26zM426 561q-10 -6 -20 -6q-12 0 -20 12q-13 23 14 38q11 7 24 7q15 0 21 -10q5 -9 -0.5 -21.5t-18.5 -19.5zM420 495q-10 -5 -17 -5q-12 0 -18 10q-5 9 -1.5 18t14.5 15q8 5 20 5
q14 0 18 -8q5 -8 0 -18.5t-16 -16.5z" />
    <glyph glyph-name="f_f" unicode="ff" horiz-adv-x="664" 
d="M87 434h-61v66q13 5 29.5 9.5t31.5 6.5v38q0 78 41 121t112 43q25 0 54.5 -5t49.5 -15v-83q-39 17 -81 17q-40 0 -59.5 -19t-19.5 -65v-30h203v36q0 78 40.5 121t111.5 43q25 0 54.5 -5t49.5 -15v-83q-37 17 -81 17q-40 0 -59.5 -18.5t-19.5 -64.5v-31h156v-84h-153v-434
h-99v434h-201v-434h-99v434z" />
    <glyph glyph-name="fi" unicode="fi" horiz-adv-x="567" 
d="M435 611q-26 0 -43.5 16t-17.5 42q0 25 17.5 42t43.5 17q27 0 44.5 -17t17.5 -42q0 -26 -17.5 -42t-44.5 -16zM87 434h-61v66q13 5 29.5 9.5t31.5 6.5v38q0 78 41 121t112 43q25 0 54.5 -5t49.5 -15v-83q-39 17 -81 17q-40 0 -59.5 -19t-19.5 -65v-30h301v-518h-99v434
h-200v-434h-99v434z" />
    <glyph glyph-name="fl" unicode="fl" horiz-adv-x="548" 
d="M366 603q-18 11 -48 20t-62 9q-36 0 -54 -19t-18 -65v-30h135v-84h-133v-434h-99v434h-61v66q13 5 29.5 9.5t31.5 6.5v38q0 78 41 121t113 43q33 0 64.5 -6t60.5 -15t54 -20t45 -22v-655h-99v603z" />
    <glyph glyph-name="f_f_i" unicode="ffi" horiz-adv-x="868" 
d="M735 611q-26 0 -43.5 16t-17.5 42q0 25 17.5 42t43.5 17q27 0 44.5 -17t17.5 -42q0 -26 -17.5 -42t-44.5 -16zM686 434h-200v-434h-99v434h-201v-434h-99v434h-61v66q13 5 29.5 9.5t31.5 6.5v38q0 78 41 121t112 43q25 0 54.5 -5t49.5 -15v-83q-39 17 -81 17
q-40 0 -59.5 -19t-19.5 -65v-30h203v36q0 78 40.5 121t111.5 43q25 0 54.5 -5t49.5 -15v-83q-37 17 -81 17q-40 0 -59.5 -18.5t-19.5 -64.5v-31h302v-518h-99v434z" />
    <glyph glyph-name="f_f_l" unicode="ffl" horiz-adv-x="847" 
d="M87 434h-61v66q13 5 29.5 9.5t31.5 6.5v38q0 78 41 121t112 43q25 0 54.5 -5t49.5 -15v-83q-39 17 -81 17q-40 0 -59.5 -19t-19.5 -64v-31h203v37q0 77 40.5 120t112.5 43q33 0 64.5 -6t60.5 -15t54.5 -20t45.5 -22v-655h-99v603q-19 11 -48.5 20t-62.5 9
q-35 0 -53.5 -19t-18.5 -64v-31h152v-84h-149v-434h-99v434h-201v-434h-99v434z" />
    <glyph glyph-name=".notdef" horiz-adv-x="713" 
d="M198 619q-14 -1 -23 6t-10 18q-2 12 6 20t22 10q16 2 28.5 -5t14.5 -18q1 -11 -10.5 -20t-27.5 -11zM121 427q-20 -2 -36.5 8t-17.5 24q0 7 3.5 14l7.5 15t7.5 18t2.5 22t-6 21t-11 16t-11 13.5t-5 13.5q-1 13 13 25t31 14t35 -9t31 -31q8 -12 15 -18t13 -11t10.5 -10
t5.5 -15t-2.5 -16t-9 -12.5t-12 -14.5t-12.5 -22q-18 -42 -52 -45zM253 551q-17 -2 -28.5 6t-12.5 22q-2 14 8.5 23.5t27.5 11.5q19 2 34.5 -6.5t17.5 -20.5q1 -13 -13 -23.5t-34 -12.5zM260 470q-17 -2 -28 6t-12 22q-2 14 8 23t27 11q19 2 34 -6t16 -21q2 -12 -12 -22.5
t-33 -12.5zM217 401q-14 -1 -23 6t-10 19q-2 11 6.5 19t22.5 10q16 2 28.5 -5.5t13.5 -18.5t-10.5 -19.5t-27.5 -10.5zM563 245q-14 2 -22 10t-7 19q1 12 10 19t23 6q16 -2 27.5 -10.5t10.5 -19.5t-13.5 -18.5t-28.5 -5.5zM450 70q-18 2 -32 13.5t-13 24.5q0 7 5 13.5t11 14
t11 16.5t6 21t-2.5 22t-8 18t-8 15t-2.5 14q2 13 17.5 22.5t35.5 8.5q34 -1 54 -44q6 -14 12.5 -22t12 -14.5t8.5 -12.5t2 -16t-4.5 -15.5t-9.5 -11t-13.5 -11.5t-15.5 -17q-14 -19 -31.5 -30t-34.5 -9zM605 169q-17 2 -27 11t-9 23q2 14 13.5 22t28.5 6q19 -2 33.5 -12.5
t12.5 -23.5q-1 -12 -16.5 -20t-35.5 -6zM598 87q-17 2 -27 11.5t-8 23.5t12.5 22t27.5 6q19 -2 33 -12.5t13 -23.5q-2 -12 -17 -20.5t-34 -6.5zM544 27q-14 2 -22 10t-7 20t10.5 18.5t23.5 5.5q16 -2 27.5 -11t9.5 -20q-1 -11 -14 -18t-28 -5z" />
    <glyph glyph-name=".null" horiz-adv-x="0" 
 />
    <glyph glyph-name=".null" horiz-adv-x="0" 
 />
    <glyph glyph-name="uni000D" unicode="&#xd;" horiz-adv-x="250" 
 />
    <glyph glyph-name="space" unicode=" " horiz-adv-x="273" 
 />
    <glyph glyph-name="exclam" unicode="!" horiz-adv-x="274" 
d="M82 454v246h109v-246l-12 -248h-85zM136 -10q-28 0 -47 18.5t-19 44.5v4q0 26 19 44t47 18t48 -18t20 -44v-4q0 -26 -20 -44.5t-48 -18.5z" />
    <glyph glyph-name="quotedbl" unicode="&#x22;" horiz-adv-x="347" 
d="M46 589v111h93v-111l-12 -154h-69zM208 589v111h93v-111l-12 -154h-69z" />
    <glyph glyph-name="numbersign" unicode="#" horiz-adv-x="810" 
d="M152 177h-122v92h151l55 172h-122v92h152l53 167h106l-53 -167h179l53 167h106l-53 -167h122v-92h-152l-54 -172h122v-92h-151l-57 -177h-106l56 177h-178l-57 -177h-106zM467 269l54 172h-179l-54 -172h179z" />
    <glyph glyph-name="dollar" unicode="$" horiz-adv-x="579" 
d="M242 23q-62 8 -115.5 31.5t-91.5 61.5l58 80q37 -37 93.5 -58.5t116.5 -21.5q61 0 96.5 21.5t35.5 59.5q0 26 -13 43.5t-35 30t-51.5 22.5t-63.5 19q-59 17 -100.5 35t-67.5 40.5t-38 50t-12 61.5q0 35 13 64.5t36.5 53t56.5 39t72 21.5v98h91v-96q57 -6 106 -26.5
t87 -53.5l-53 -80q-35 30 -84.5 48t-101.5 18q-54 0 -85.5 -22t-31.5 -57t35.5 -57t118.5 -45q62 -18 105.5 -37.5t71 -43t40 -52t12.5 -64.5q0 -38 -15.5 -70.5t-43 -57t-66 -39.5t-85.5 -19v-96h-91v98z" />
    <glyph glyph-name="percent" unicode="%" horiz-adv-x="831" 
d="M206 336q-36 0 -66 13.5t-51.5 37.5t-33.5 57t-12 72v13q0 38 12 71t33.5 57t51.5 37.5t66 13.5h8q36 0 66 -13.5t51.5 -37.5t33 -57t11.5 -71v-13q0 -39 -11.5 -72t-33 -57t-51.5 -37.5t-66 -13.5h-8zM631 703h118l-548 -703h-118zM211 419q35 0 57 28.5t22 70.5v8
q0 42 -22 70.5t-57 28.5h-2q-35 0 -57 -28.5t-22 -70.5v-8q0 -42 22 -70.5t57 -28.5h2zM618 -8q-37 0 -67 13.5t-51.5 37.5t-33 57t-11.5 71v13q0 39 11.5 72t33 57t51.5 37.5t67 13.5h7q37 0 67 -13.5t51.5 -37.5t33 -57t11.5 -72v-13q0 -38 -11.5 -71t-33 -57t-51.5 -37.5
t-67 -13.5h-7zM623 75q35 0 56.5 28.5t21.5 70.5v8q0 42 -21.5 70.5t-56.5 28.5h-3q-35 0 -56.5 -28.5t-21.5 -70.5v-8q0 -42 21.5 -70.5t56.5 -28.5h3z" />
    <glyph glyph-name="ampersand" unicode="&#x26;" horiz-adv-x="726" 
d="M292 -10q-55 0 -100 13.5t-76 39t-48 61.5t-17 81q0 36 11 67t31 57t47.5 46.5t60.5 34.5l-3 3q-12 14 -25 29t-24 33t-18 39.5t-7 48.5q0 38 13.5 69t38.5 52.5t59.5 33.5t76.5 12q41 0 74.5 -11t57.5 -31.5t37 -49.5t13 -65q0 -60 -38 -106t-107 -78l151 -171
q16 28 23 63.5t7 75.5v39h93v-58q0 -54 -14.5 -104t-40.5 -88l109 -126h-129l-50 58q-42 -31 -93.5 -49.5t-112.5 -18.5zM295 430q57 29 79.5 56t22.5 62t-22 54.5t-61 19.5q-41 0 -65.5 -20.5t-24.5 -53.5q-1 -29 18 -55t53 -63zM258 326q-106 -41 -106 -132
q0 -53 38 -83.5t106 -30.5q42 0 77.5 10.5t62.5 33.5z" />
    <glyph glyph-name="quotesingle" unicode="'" horiz-adv-x="189" 
d="M48 589v111h93v-111l-12 -154h-69z" />
    <glyph glyph-name="parenleft" unicode="(" horiz-adv-x="293" 
d="M203 -171q-34 44 -60.5 97t-45 111t-28.5 119t-10 120q0 60 10 121t28.5 119.5t45.5 112t60 98.5l66 -37q-51 -90 -77.5 -196t-26.5 -217q0 -110 26.5 -216t77.5 -196z" />
    <glyph glyph-name="parenright" unicode=")" horiz-adv-x="293" 
d="M24 -135q51 90 77 196t26 216q0 111 -26 217t-77 196l66 37q33 -45 60 -98.5t45.5 -112t28.5 -119.5t10 -121q0 -59 -10 -120t-28.5 -119t-45 -111t-60.5 -97z" />
    <glyph glyph-name="asterisk" unicode="*" horiz-adv-x="452" 
d="M189 425l5 28l-23 -18l-90 -52l-37 63l91 52l27 11l-27 10l-91 53l37 63l89 -52l24 -19l-5 29v105h73v-104l-4 -30l23 19l90 52l37 -63l-91 -52l-27 -11l28 -11l90 -52l-37 -63l-91 52l-22 19l4 -30v-104h-73v105z" />
    <glyph glyph-name="plus" unicode="+" horiz-adv-x="591" 
d="M252 282h-204v86h204v212h87v-212h204v-86h-204v-212h-87v212z" />
    <glyph glyph-name="comma" unicode="," horiz-adv-x="226" 
d="M69 121h113l-91 -248h-81z" />
    <glyph glyph-name="hyphen" unicode="-" horiz-adv-x="452" 
d="M66 336h320v-86h-320v86z" />
    <glyph glyph-name="period" unicode="." horiz-adv-x="226" 
d="M112 -10q-28 0 -47 18.5t-19 44.5v4q0 26 19 44t47 18t48 -18t20 -44v-4q0 -26 -20 -44.5t-48 -18.5z" />
    <glyph glyph-name="slash" unicode="/" horiz-adv-x="317" 
d="M190 720h99l-163 -831h-98z" />
    <glyph glyph-name="zero" unicode="0" horiz-adv-x="648" 
d="M324 -10q-64 0 -115.5 25.5t-88 72t-56 113.5t-19.5 149q0 83 19.5 149.5t56 113t88 72t115.5 25.5t115.5 -25.5t87.5 -72t55.5 -113t19.5 -149.5q0 -82 -19.5 -149t-55.5 -113.5t-87.5 -72t-115.5 -25.5zM324 87q82 0 127 68.5t45 194.5t-45 194.5t-127 68.5t-127 -68.5
t-45 -194.5t45 -194.5t127 -68.5z" />
    <glyph glyph-name="one" unicode="1" horiz-adv-x="392" 
d="M300 700v-700h-102v511q-33 -30 -77.5 -46t-92.5 -16v88q37 2 68.5 14.5t55 34.5t36.5 51t13 63h99z" />
    <glyph glyph-name="two" unicode="2" horiz-adv-x="569" 
d="M38 89q30 19 69.5 45.5t81 58.5t82 68t72 74.5t51 78.5t19.5 79q0 55 -34.5 88t-91.5 33q-58 0 -100 -36.5t-56 -109.5l-98 25q16 104 84.5 161t171.5 57q51 0 93.5 -15t73 -43t47.5 -66.5t17 -85.5q0 -61 -32.5 -120.5t-81 -112.5t-105 -97.5t-104.5 -76.5h342v-94h-501
v89z" />
    <glyph glyph-name="three" unicode="3" horiz-adv-x="620" 
d="M301 -10q-98 0 -167 44t-92 125l96 25q40 -97 164 -97q74 0 116.5 40.5t42.5 108.5q0 62 -37 96t-109 34q-26 0 -50.5 -5t-47.5 -19l-38 68l216 195h-319v95h454v-85l-196 -169q5 1 10 1h10q44 -1 83.5 -16t68.5 -42.5t46 -66.5t17 -87q0 -55 -18.5 -100t-53.5 -77
t-84.5 -50t-111.5 -18z" />
    <glyph glyph-name="four" unicode="4" horiz-adv-x="595" 
d="M375 138h-357v87l307 475h150v-471h93v-91h-93v-138h-100v138zM375 229v375h-10l-237 -365v-10h247z" />
    <glyph glyph-name="five" unicode="5" horiz-adv-x="600" 
d="M295 -10q-97 0 -164.5 44t-91.5 125l97 25q20 -50 62 -73.5t99 -23.5q81 0 122 40t41 106q0 65 -38 100.5t-106 35.5q-49 0 -88 -16.5t-71 -47.5l-88 24l40 371h411v-95h-328l-22 -197q36 25 75 37.5t87 12.5q109 0 171.5 -59t62.5 -162q0 -55 -19 -100.5t-54.5 -78
t-85.5 -50.5t-112 -18z" />
    <glyph glyph-name="six" unicode="6" horiz-adv-x="638" 
d="M474 519q-18 48 -53.5 72.5t-86.5 24.5q-53 0 -88.5 -24t-56.5 -62t-30 -84.5t-9 -90.5q33 50 88.5 75t114.5 25q47 0 90.5 -15t76.5 -43.5t53 -70.5t20 -97q0 -53 -19 -97t-54.5 -75.5t-84.5 -49t-109 -17.5q-134 0 -206.5 89t-72.5 259q0 87 19.5 156t56 117t90 73.5
t120.5 25.5q89 0 151 -43.5t88 -121.5zM160 229q33 -143 165 -143q36 0 66 10.5t51.5 30t33.5 46.5t12 59q0 62 -41 98t-107 36q-30 0 -62 -8.5t-58.5 -25.5t-43 -42.5t-16.5 -60.5z" />
    <glyph glyph-name="seven" unicode="7" horiz-adv-x="503" 
d="M373 595v9h-350v96h462v-83l-266 -617h-115z" />
    <glyph glyph-name="eight" unicode="8" horiz-adv-x="624" 
d="M312 -9q-61 0 -111 14.5t-85 40.5t-54 64t-19 84q0 64 35.5 110t98.5 69q-50 23 -77 62.5t-27 93.5q0 84 64 132.5t175 48.5t175 -48.5t64 -132.5q0 -54 -28 -93.5t-80 -62.5q65 -23 101.5 -69t36.5 -111q0 -46 -19 -83.5t-54 -63.5t-84.5 -40.5t-111.5 -14.5zM312 413
q66 0 102 26.5t36 74.5q0 49 -36 75.5t-102 26.5t-102 -26.5t-36 -75.5q0 -48 36 -74.5t102 -26.5zM313 87q79 0 121.5 30.5t42.5 87.5t-42.5 88t-121.5 31t-122.5 -31t-43.5 -88t43.5 -87.5t122.5 -30.5z" />
    <glyph glyph-name="nine" unicode="9" horiz-adv-x="638" 
d="M164.029 181.031q17.998 -47.9971 53.4961 -72.4951q35.498 -24.499 86.4951 -24.499q52.9971 0 88.4941 23.999q35.498 23.999 56.4971 61.9961q20.998 37.998 29.998 84.4951q8.99902 46.4971 8.99902 90.4941q-32.998 -49.9971 -88.4941 -74.9951
q-55.4971 -24.999 -114.493 -24.999q-46.9971 0 -90.4941 15q-43.498 14.999 -76.4961 43.4971q-32.9971 28.498 -52.9961 70.4951q-19.999 41.998 -19.999 96.9941q0 52.9971 18.999 96.9941q18.999 43.998 54.4961 75.4961q35.498 31.498 84.4951 48.9961
q48.9971 17.499 108.993 17.499q133.992 0 206.487 -88.9941q72.4961 -88.9951 72.4961 -258.984q0 -86.9941 -19.499 -155.99t-55.9961 -116.993q-36.498 -47.9971 -89.9951 -73.4951q-53.4961 -25.499 -120.492 -25.499q-88.9951 0 -150.991 43.498
q-61.9961 43.4971 -87.9941 121.492zM478.01 471.014q-32.998 142.991 -164.99 142.991q-35.9971 0 -65.9961 -10.499q-29.998 -10.499 -51.4961 -29.998q-21.499 -19.499 -33.498 -46.4971q-12 -26.999 -12 -58.9971q0 -61.9961 40.998 -97.9932
q40.9971 -35.998 106.993 -35.998q29.998 0 61.9961 8.49902q31.998 8.5 58.4971 25.499q26.498 16.999 42.9971 42.4971t16.499 60.4961z" />
    <glyph glyph-name="colon" unicode=":" horiz-adv-x="226" 
d="M112 -10q-28 0 -47 18.5t-19 44.5v4q0 26 19 44t47 18t48 -18t20 -44v-4q0 -26 -20 -44.5t-48 -18.5zM112 325q-28 0 -47 18.5t-19 44.5v4q0 26 19 44t47 18t48 -18t20 -44v-4q0 -26 -20 -44.5t-48 -18.5z" />
    <glyph glyph-name="semicolon" unicode=";" horiz-adv-x="229" 
d="M124 323q-28 0 -47.5 18.5t-19.5 44.5v4q0 26 19.5 44t47.5 18t47.5 -18t19.5 -44v-4q0 -26 -19.5 -44.5t-47.5 -18.5zM69 121h113l-91 -248h-81z" />
    <glyph glyph-name="less" unicode="&#x3c;" horiz-adv-x="567" 
d="M48 284v80l450 222v-99l-345 -163l345 -165v-98z" />
    <glyph glyph-name="equal" unicode="=" horiz-adv-x="581" 
d="M58 453h465v-86h-465v86zM58 284h465v-86h-465v86z" />
    <glyph glyph-name="greater" unicode="&#x3e;" horiz-adv-x="567" 
d="M69 159l345 165l-345 163v99l450 -222v-80l-450 -223v98z" />
    <glyph glyph-name="question" unicode="?" horiz-adv-x="508" 
d="M201 206q0 39 4.5 67.5t16 51.5t31 44t48.5 46q31 26 55 53t24 68q0 46 -32 68.5t-82 22.5q-30 0 -55 -9.5t-44 -25.5t-30.5 -38t-15.5 -47l-94 15q5 42 25.5 78t52.5 62.5t75.5 42t94.5 15.5q45 0 83.5 -12.5t66.5 -35.5t43.5 -55.5t15.5 -71.5q0 -28 -6 -50.5t-18 -42
t-30 -37t-41 -36.5q-21 -17 -38 -33t-29.5 -34t-19.5 -39.5t-7 -49.5v-17h-94zM251 -10q-28 0 -47 18.5t-19 44.5v4q0 26 19 44t47 18t48 -18t20 -44v-4q0 -26 -20 -44.5t-48 -18.5z" />
    <glyph glyph-name="at" unicode="@" horiz-adv-x="993" 
d="M496 -190q-95 0 -177.5 35t-144 96t-96.5 143.5t-35 176.5q0 95 36 177t98 142.5t146.5 95.5t181.5 35q96 0 177.5 -34t141 -93.5t93 -141t33.5 -176.5q0 -58 -13 -104.5t-37 -79.5t-58 -50.5t-76 -17.5q-48 0 -81.5 22.5t-49.5 61.5q-29 -39 -70 -61.5t-92 -22.5h-4
q-45 0 -83.5 17t-66 47.5t-43 73t-15.5 92.5v24q0 50 15.5 92.5t43 73t66 47.5t83.5 17h4q47 0 86.5 -19t68.5 -54q4 18 7.5 35t8.5 31h70v-307q0 -37 13 -61.5t45 -24.5q42 0 66.5 44.5t24.5 119.5q0 79 -26.5 145.5t-74 114.5t-113 75t-143.5 27q-79 0 -147.5 -27.5
t-119 -76.5t-79.5 -115.5t-29 -143.5q0 -76 28.5 -142.5t78 -116t116.5 -77.5t144 -28q115 0 208 64l40 -77q-55 -36 -118.5 -55t-131.5 -19zM489 98q27 0 50 11t39.5 30.5t25.5 46.5t9 59v22q0 32 -9.5 59t-26 46.5t-39.5 30.5t-50 11h-2q-56 0 -91.5 -41t-35.5 -106v-22
q0 -32 9.5 -59t26.5 -46.5t40.5 -30.5t51.5 -11h2z" />
    <glyph glyph-name="A" unicode="A" horiz-adv-x="649" 
d="M253 700h144l251 -700h-114l-63 183h-292l-63 -183h-115zM441 275l-113 324h-6l-113 -324h232z" />
    <glyph glyph-name="B" unicode="B" horiz-adv-x="658" 
d="M92 700h246q52 0 94.5 -12.5t73 -36t47 -56t16.5 -72.5v-5q0 -91 -79 -145q57 -24 86.5 -68.5t29.5 -102.5v-5q0 -45 -17 -81.5t-47.5 -62t-74.5 -39.5t-98 -14h-277v700zM341 401q58 0 89.5 27.5t31.5 75.5v5q0 44 -31 70.5t-90 26.5h-146v-205h146zM364 95
q63 0 99 28.5t36 78.5v4q0 51 -36 79.5t-99 28.5h-169v-219h169z" />
    <glyph glyph-name="C" unicode="C" horiz-adv-x="680" 
d="M382 -10q-75 0 -137.5 27t-107.5 75t-69.5 113.5t-24.5 142.5v4q0 77 25 142.5t70 113.5t107 75t137 27h1q91 0 161 -42t110 -109l-85 -57q-29 52 -75 80.5t-109 28.5q-54 0 -97 -19t-73 -53t-46 -82t-16 -105v-4q0 -57 16.5 -104.5t46.5 -81.5t73 -53t96 -19
q65 0 113 28.5t76 79.5l82 -57q-19 -33 -47 -60.5t-63 -48t-76.5 -31.5t-86.5 -11h-1z" />
    <glyph glyph-name="D" unicode="D" horiz-adv-x="716" 
d="M92 700h224q80 0 145.5 -25t112.5 -69t73 -105.5t26 -133.5v-20q0 -75 -26 -139t-73 -110t-112.5 -72t-145.5 -26h-224v700zM317 96q57 0 102.5 18.5t77 52.5t48.5 80.5t17 101.5v18q0 52 -17 95.5t-48.5 75t-77 49t-102.5 17.5h-119v-508h119z" />
    <glyph glyph-name="E" unicode="E" horiz-adv-x="577" 
d="M92 700h421v-96h-315v-201h295v-93h-295v-214h325v-96h-431v700z" />
    <glyph glyph-name="F" unicode="F" horiz-adv-x="540" 
d="M92 700h403v-96h-297v-218h277v-93h-277v-293h-106v700z" />
    <glyph glyph-name="G" unicode="G" horiz-adv-x="745" 
d="M375 -9q-73 0 -134 26.5t-105 74t-68.5 113t-24.5 143.5v4q0 77 25.5 142.5t71 113.5t108.5 75t137 27h1q95 0 165 -42.5t111 -110.5l-88 -55q-29 53 -73.5 82t-110.5 29h-2q-53 0 -96.5 -19.5t-74 -54t-47.5 -82.5t-17 -105v-5q0 -58 17 -105.5t48 -81.5t74.5 -53
t96.5 -19h1q45 0 81.5 12.5t61.5 35t38.5 53t13.5 66.5v17h-169v93h270v-365h-78q-6 13 -10 35t-6 42q-38 -40 -94 -63t-119 -23h-4z" />
    <glyph glyph-name="H" unicode="H" horiz-adv-x="718" 
d="M92 700h106v-294h322v294h106v-700h-106v310h-322v-310h-106v700z" />
    <glyph glyph-name="I" unicode="I" horiz-adv-x="290" 
d="M92 700h106v-700h-106v700z" />
    <glyph glyph-name="J" unicode="J" horiz-adv-x="417" 
d="M139 -7q-56 0 -102 19v101q17 -10 37 -16.5t45 -6.5q58 0 84 29.5t26 80.5v500h106v-505q0 -94 -49.5 -148t-146.5 -54z" />
    <glyph glyph-name="K" unicode="K" horiz-adv-x="650" 
d="M92 700h106v-305h5l286 305h128l-311 -322l340 -378h-136l-307 345h-5v-345h-106v700z" />
    <glyph glyph-name="L" unicode="L" horiz-adv-x="539" 
d="M92 700h106v-604h304v-96h-410v700z" />
    <glyph glyph-name="M" unicode="M" horiz-adv-x="883" 
d="M92 700h155l191 -464h7l191 464h155v-700h-104v569h-6l-195 -471h-88l-196 471h-6v-569h-104v700z" />
    <glyph glyph-name="N" unicode="N" horiz-adv-x="730" 
d="M92 700h120l314 -531h9v531h103v-700h-112l-321 544h-9v-544h-104v700z" />
    <glyph glyph-name="O" unicode="O" horiz-adv-x="772" 
d="M43 353q0 77 25.5 142.5t70.5 113.5t107.5 75t136.5 27h5q74 0 136.5 -27t108 -75t71 -113.5t25.5 -142.5v-6q0 -77 -25.5 -142.5t-71 -113t-108 -74.5t-136.5 -27h-5q-74 0 -136.5 27t-107.5 74.5t-70.5 113t-25.5 142.5v6zM153 347q0 -57 17 -105t47.5 -82t73.5 -53
t94 -19h4q51 0 93 19t72.5 53t47.5 82t17 105v6q0 57 -17 105t-47.5 82.5t-73 53.5t-93.5 19h-4q-51 0 -93.5 -19t-73 -53.5t-47.5 -82.5t-17 -105v-6z" />
    <glyph glyph-name="P" unicode="P" horiz-adv-x="619" 
d="M92 700h239q56 0 101.5 -16t77.5 -45t50 -71t18 -93v-6q0 -52 -17.5 -94t-49.5 -71.5t-77 -45.5t-101 -16h-135v-242h-106v700zM327 333q69 0 106 36t37 99v5q0 62 -37 97t-105 35h-132v-272h131z" />
    <glyph glyph-name="Q" unicode="Q" horiz-adv-x="772" 
d="M561 -152q-20 -5 -46 -8t-46 -3q-139 0 -139 142v15q-64 9 -116.5 39t-90.5 76.5t-59 107t-21 130.5v6q0 77 25.5 142.5t70.5 113.5t107.5 75t137.5 27h4q74 0 136.5 -27t108 -75t71 -113.5t25.5 -142.5v-6q0 -72 -22.5 -134t-62.5 -109t-96 -76t-123 -36v-12
q3 -57 60 -57q15 0 37.5 3t38.5 7v-85zM153 347q0 -57 17 -105t47.5 -82t73 -53t93.5 -19h4q51 0 93.5 19t73 53t47.5 82t17 105v6q0 57 -17 105t-47.5 82.5t-73 53.5t-93.5 19h-4q-51 0 -93.5 -19t-73 -53.5t-47.5 -82.5t-17 -105v-6z" />
    <glyph glyph-name="R" unicode="R" horiz-adv-x="656" 
d="M92 700h254q115 0 179 -56t64 -156v-10q0 -69 -34 -119t-95 -73l178 -286h-128l-156 263h-156v-263h-106v700zM337 353q72 0 108 32t36 90v10q0 58 -36.5 89.5t-107.5 31.5h-141v-253h141z" />
    <glyph glyph-name="S" unicode="S" horiz-adv-x="595" 
d="M304 -11q-73 0 -144 25t-125 77l60 82q42 -43 99 -64t116 -21q65 0 103 26t38 72q0 28 -14 47.5t-37.5 33t-54 23.5t-63.5 20q-41 12 -82 27t-73.5 38.5t-53 57.5t-20.5 84q0 48 19.5 84.5t51.5 61t74.5 36.5t87.5 12q72 0 136 -23.5t109 -65.5l-61 -80q-35 35 -85.5 52
t-98.5 17q-60 0 -94 -24.5t-34 -66.5q0 -24 13 -41.5t35.5 -30.5t52.5 -23t63 -20q42 -12 84.5 -27.5t76 -39.5t55 -59t21.5 -86q0 -50 -20.5 -88.5t-55.5 -64t-81.5 -38.5t-97.5 -13z" />
    <glyph glyph-name="T" unicode="T" horiz-adv-x="539" 
d="M217 604h-204v96h513v-96h-204v-604h-105v604z" />
    <glyph glyph-name="U" unicode="U" horiz-adv-x="717" 
d="M359 -10q-64 0 -115.5 18t-87.5 52.5t-55 85.5t-19 116v438h106v-429q0 -88 45.5 -134.5t125.5 -46.5t125 46.5t45 134.5v429h106v-438q0 -66 -19.5 -116.5t-55.5 -85t-87 -52.5t-114 -18z" />
    <glyph glyph-name="V" unicode="V" horiz-adv-x="622" 
d="M9 700h112l186 -584h9l185 584h111l-232 -700h-138z" />
    <glyph glyph-name="W" unicode="W" horiz-adv-x="920" 
d="M18 700h109l121 -580h5l156 580h94l158 -580h3l129 580h109l-165 -700h-139l-138 515h-7l-138 -515h-140z" />
    <glyph glyph-name="X" unicode="X" horiz-adv-x="617" 
d="M236 360v5l-208 335h123l154 -257h5l156 257h122l-208 -334v-5l225 -361h-123l-171 285h-7l-170 -285h-123z" />
    <glyph glyph-name="Y" unicode="Y" horiz-adv-x="601" 
d="M248 275l-246 425h122l174 -317h6l173 317h122l-246 -425v-275h-105v275z" />
    <glyph glyph-name="Z" unicode="Z" horiz-adv-x="587" 
d="M40 82l365 518v4h-341v96h473v-82l-362 -514v-8h373v-96h-508v82z" />
    <glyph glyph-name="bracketleft" unicode="[" horiz-adv-x="324" 
d="M82 720h206v-87h-110v-701h110v-88h-206v876z" />
    <glyph glyph-name="backslash" unicode="\" horiz-adv-x="314" 
d="M30 720h93l161 -831h-92z" />
    <glyph glyph-name="bracketright" unicode="]" horiz-adv-x="324" 
d="M36 -68h109v701h-109v87h206v-876h-206v88z" />
    <glyph glyph-name="asciicircum" unicode="^" horiz-adv-x="551" 
d="M230 701h90l191 -357h-98l-128 246h-20l-127 -246h-98z" />
    <glyph glyph-name="underscore" unicode="_" horiz-adv-x="459" 
d="M10 -55h440v-79h-440v79z" />
    <glyph glyph-name="grave" unicode="`" horiz-adv-x="223" 
d="M30 726h97l56 -145h-78z" />
    <glyph glyph-name="a" unicode="a" horiz-adv-x="581" 
d="M225 -9q-40 0 -73.5 11.5t-57.5 32t-37.5 49t-13.5 63.5v5q0 169 316 169h45v29q0 42 -31.5 66.5t-86.5 24.5h-2q-42 0 -88 -14.5t-84 -39.5l-43 75q49 31 104.5 49.5t115.5 18.5h4q43 0 81 -11t66 -33.5t44 -56t16 -77.5v-256q0 -24 5 -49.5t13 -46.5h-98q-5 11 -8 28.5
t-5 34.5q-38 -35 -84.5 -53.5t-97.5 -18.5zM238 78q51 0 94 20t72 52v96h-33q-120 0 -175 -22.5t-55 -69.5v-3q0 -32 26.5 -52.5t70.5 -20.5z" />
    <glyph glyph-name="b" unicode="b" horiz-adv-x="668" 
d="M363 -8q-58 0 -105.5 21t-81.5 59q-2 -17 -6.5 -37.5t-9.5 -34.5h-78v720h99v-267q33 35 79.5 55t102.5 20h4q54 0 100 -19t79.5 -53t52.5 -81t19 -102v-26q0 -55 -19 -102t-52.5 -81t-79.5 -53t-100 -19h-4zM351 79q37 0 67 12.5t51.5 35t33.5 53.5t12 68v24
q0 37 -12 68t-33.5 53.5t-51.5 35t-67 12.5h-6q-37 0 -67 -12.5t-51.5 -35t-33.5 -53.5t-12 -68v-24q0 -37 12 -68t33.5 -53.5t51.5 -35t67 -12.5h6z" />
    <glyph glyph-name="c" unicode="c" horiz-adv-x="569" 
d="M312 -7q-58 0 -106.5 19t-83 53.5t-53.5 83t-19 106.5v11q0 58 19.5 106t54 82.5t82.5 53.5t104 19h6q77 0 133 -34t88 -90l-77 -48q-22 41 -58 63.5t-87 22.5h-2q-74 0 -116.5 -47t-42.5 -130v-8q0 -40 12 -72.5t34 -56t52.5 -36t66.5 -12.5h3q52 0 87.5 24.5t55.5 60.5
l75 -51q-33 -55 -89 -87.5t-132 -32.5h-7z" />
    <glyph glyph-name="d" unicode="d" horiz-adv-x="668" 
d="M301 -8q-55 0 -101 19.5t-79.5 54t-52 83t-18.5 106.5v10q0 58 18.5 106.5t52 83t79.5 54t101 19.5h4q56 0 102.5 -20t79.5 -56v268h99v-720h-78q-5 14 -9.5 35t-6.5 38q-34 -38 -82 -59.5t-105 -21.5h-4zM323 79q74 0 119 48t45 129v8q0 81 -45 129t-119 48h-6
q-74 0 -119 -48t-45 -129v-8q0 -81 45 -129t119 -48h6z" />
    <glyph glyph-name="e" unicode="e" 
d="M312 -8q-58 0 -106 19t-82.5 53.5t-54 81.5t-19.5 103v13q0 58 19.5 106.5t54.5 84t83 55t104 19.5h3q54 0 98.5 -17.5t76.5 -49.5t50 -76.5t18 -97.5v-62h-406q8 -63 53 -103t115 -40h2q51 0 92.5 21t64.5 52l64 -57q-37 -50 -98 -77.5t-128 -27.5h-4zM462 301
q-2 31 -14 57t-32 44.5t-47 29t-59 10.5h-1q-62 0 -103.5 -38.5t-51.5 -102.5h308z" />
    <glyph glyph-name="f" unicode="f" horiz-adv-x="365" 
d="M87 434h-61v66q13 5 29.5 9.5t31.5 6.5v38q0 78 41 121t112 43q25 0 54.5 -5t49.5 -15v-83q-39 17 -81 17q-40 0 -59.5 -19t-19.5 -65v-30h155v-84h-153v-434h-99v434z" />
    <glyph glyph-name="g" unicode="g" horiz-adv-x="564" 
d="M46 343q0 41 17 75t47 58.5t71.5 38t90.5 13.5h10q67 0 120 -25q15 42 38 75h93l-64 -126q39 -47 39 -109v-8q0 -40 -17 -73.5t-47 -58t-71.5 -38t-90.5 -13.5h-4q-25 0 -44 4v-61q13 2 26 2h27h9q51 0 94.5 -10t75 -29t49 -46.5t17.5 -61.5v-10q0 -34 -18 -61t-49.5 -46
t-75.5 -29.5t-95 -10.5h-16q-52 0 -95.5 10.5t-75 29.5t-49.5 46t-18 61v11q0 44 29.5 77t77.5 52v100q-47 23 -74 63.5t-27 91.5v8zM146 333q0 -22 10 -41t27 -32.5t40.5 -21t50.5 -7.5h8q27 0 50.5 7.5t40.5 21t27 32.5t10 41v9q0 23 -10 41.5t-27 32.5t-41 21.5t-51 7.5
h-5q-28 0 -51.5 -7.5t-41 -21t-27.5 -32.5t-10 -42v-9zM140 -56q0 -32 38.5 -51.5t100.5 -19.5h14q63 0 101.5 19.5t38.5 51.5v7q0 32 -39 51.5t-101 19.5h-14q-62 0 -100.5 -19.5t-38.5 -51.5v-7z" />
    <glyph glyph-name="h" unicode="h" horiz-adv-x="630" 
d="M82 720h99v-271q35 38 84 59t107 21q90 0 137 -50.5t47 -146.5v-332h-99v313q0 125 -118 125q-72 0 -115 -40t-43 -107v-291h-99v720z" />
    <glyph glyph-name="i" unicode="i" horiz-adv-x="264" 
d="M132 611q-27 0 -44 16t-17 42q0 25 17 42t44 17t44.5 -17t17.5 -42q0 -26 -17.5 -42t-44.5 -16zM83 520h99v-520h-99v520z" />
    <glyph glyph-name="j" unicode="j" horiz-adv-x="279" 
d="M147 611q-26 0 -43.5 16t-17.5 42q0 25 17.5 42t43.5 17q27 0 45 -17t18 -42q0 -26 -18 -42t-45 -16zM59 -201q-20 0 -46 4.5t-47 13.5v85q27 -11 56 -11q38 0 57 17.5t19 67.5v544h99v-563q0 -78 -37.5 -118t-100.5 -40z" />
    <glyph glyph-name="k" unicode="k" horiz-adv-x="551" 
d="M82 720h99v-423h7l230 223h116l-253 -242l264 -278h-125l-232 252h-7v-252h-99v720z" />
    <glyph glyph-name="l" unicode="l" horiz-adv-x="264" 
d="M82 720h99v-720h-99v720z" />
    <glyph glyph-name="m" unicode="m" horiz-adv-x="913" 
d="M82 520h78q5 -12 9 -30.5t6 -35.5q29 35 71 55t91 20h2q116 0 154 -90q30 42 75 66t99 24h3q85 0 127 -48.5t42 -140.5v-340h-99v323q0 59 -24 87t-75 28h-2q-57 0 -93 -34.5t-36 -103.5v-300h-99v323q0 59 -24 87t-77 28h-2q-57 0 -92 -34.5t-35 -103.5v-300h-99v520z
" />
    <glyph glyph-name="n" unicode="n" horiz-adv-x="630" 
d="M82 520h78q6 -15 10 -37t6 -39q35 42 84 63.5t104 21.5h3q94 0 141.5 -51t47.5 -146v-332h-99v313q0 60 -27 92.5t-89 32.5h-5q-69 0 -112 -41t-43 -110v-287h-99v520z" />
    <glyph glyph-name="o" unicode="o" horiz-adv-x="642" 
d="M318 -8q-59 0 -108 19.5t-84.5 54.5t-55.5 83t-20 106v10q0 58 20 106t55.5 83t84.5 54.5t108 19.5h6q59 0 108 -19.5t84 -54.5t55 -83t20 -106v-10q0 -58 -20 -106t-55 -83t-84 -54.5t-108 -19.5h-6zM322 78q37 0 67.5 13t52.5 36.5t34 56.5t12 72v8q0 39 -12 72
t-34 56.5t-52.5 36.5t-67.5 13h-3q-36 0 -66.5 -13t-52.5 -36.5t-34 -56.5t-12 -72v-8q0 -39 12 -72t34 -56.5t52.5 -36.5t66.5 -13h3z" />
    <glyph glyph-name="p" unicode="p" horiz-adv-x="668" 
d="M82 520h78q5 -14 9.5 -35t6.5 -38q33 38 81 59.5t106 21.5h4q54 0 100 -19.5t79.5 -54t52.5 -83t19 -106.5v-10q0 -58 -19 -106.5t-52.5 -83t-79.5 -54t-100 -19.5h-4q-56 0 -102.5 20t-79.5 56v-268h-99v720zM351 79q74 0 118.5 48t44.5 129v8q0 81 -44.5 129t-118.5 48
h-6q-74 0 -119 -48t-45 -129v-8q0 -81 45 -129t119 -48h6z" />
    <glyph glyph-name="q" unicode="q" horiz-adv-x="668" 
d="M487 68q-33 -36 -79.5 -56t-102.5 -20h-4q-54 0 -100 19.5t-79.5 54t-52.5 83t-19 106.5v10q0 58 19 106.5t52.5 83t79.5 54t100 19.5h4q58 0 106 -21.5t81 -59.5q2 17 6.5 38t9.5 35h78v-720h-99v268zM323 79q74 0 119 48t45 129v8q0 81 -45 129t-119 48h-5
q-74 0 -119 -48t-45 -129v-8q0 -81 45 -129t119 -48h5z" />
    <glyph glyph-name="r" unicode="r" horiz-adv-x="379" 
d="M82 520h79q5 -14 9 -34t6 -38q30 34 72.5 53t96.5 19h9v-99q-13 5 -27 5q-70 0 -108 -39.5t-38 -108.5v-278h-99v520z" />
    <glyph glyph-name="s" unicode="s" horiz-adv-x="504" 
d="M264 -9q-66 0 -127 19.5t-107 57.5l53 73q40 -31 87 -47t96 -16q51 0 78.5 17.5t27.5 49.5q0 20 -11.5 33t-32 22t-48.5 16.5t-61 16.5q-31 8 -61 17.5t-54 25.5t-38.5 40t-14.5 60q0 35 13.5 63.5t39 48.5t61 30.5t78.5 10.5q54 0 108.5 -17t95.5 -48l-48 -74
q-32 24 -76.5 38t-85.5 14q-45 0 -67.5 -16.5t-22.5 -42.5q0 -28 29.5 -43.5t99.5 -32.5q34 -8 68.5 -18t62.5 -27.5t45.5 -44t17.5 -67.5q0 -37 -15 -66.5t-42 -50t-65 -31.5t-84 -11z" />
    <glyph glyph-name="t" unicode="t" horiz-adv-x="395" 
d="M248 -4q-69 0 -112.5 34.5t-43.5 115.5v289h-69v69q15 5 33.5 9t35.5 6v121l99 13v-133h169v-85h-169v-271q0 -45 21 -62t59 -17q10 0 23 1t26.5 2.5t26 3.5t20.5 4v-82q-10 -4 -24.5 -7.5t-31 -6t-33 -3.5t-30.5 -1z" />
    <glyph glyph-name="u" unicode="u" horiz-adv-x="621" 
d="M258 -9q-92 0 -138.5 50.5t-46.5 145.5v333h99v-314q0 -60 26.5 -92t85.5 -32h3q68 0 110.5 40.5t42.5 111.5v286h99v-520h-78q-6 14 -10 36t-6 39q-33 -39 -80 -61.5t-104 -22.5h-3z" />
    <glyph glyph-name="v" unicode="v" horiz-adv-x="557" 
d="M20 520h106l148 -421h10l149 421h105l-197 -520h-125z" />
    <glyph glyph-name="w" unicode="w" horiz-adv-x="817" 
d="M29 520h101l95 -410h10l124 410h100l123 -412h10l96 412h101l-131 -520h-126l-121 388h-4l-121 -388h-126z" />
    <glyph glyph-name="x" unicode="x" horiz-adv-x="530" 
d="M204 265v4l-181 251h118l124 -186h4l123 186h114l-179 -251v-4l186 -265h-117l-132 199h-4l-129 -199h-115z" />
    <glyph glyph-name="y" unicode="y" horiz-adv-x="544" 
d="M147 -199q-18 0 -42.5 4t-44.5 15v87q19 -8 35 -12.5t33 -4.5q37 0 64.5 23.5t47.5 63.5l-231 543h109l169 -417h7l142 417h103l-194 -546q-12 -35 -29 -66t-40 -55t-55 -38t-74 -14z" />
    <glyph glyph-name="z" unicode="z" horiz-adv-x="506" 
d="M32 87l306 343v5h-286v85h409v-85l-306 -345v-5h320v-85h-443v87z" />
    <glyph glyph-name="braceleft" unicode="{" horiz-adv-x="361" 
d="M226 -147q-49 0 -79.5 29.5t-30.5 80.5v214q0 65 -80 65v89q42 0 61 16.5t19 49.5v213q0 51 30.5 80.5t79.5 29.5h99v-87h-57q-27 0 -42 -14.5t-15 -41.5v-201q0 -84 -83 -84v-11q83 0 83 -84v-202q0 -27 15 -41t42 -14h57v-87h-99z" />
    <glyph glyph-name="bar" unicode="|" horiz-adv-x="260" 
d="M82 720h95v-910h-95v910z" />
    <glyph glyph-name="braceright" unicode="}" horiz-adv-x="361" 
d="M36 -60h57q27 0 42 14t15 41v202q0 84 83 84v11q-83 0 -83 84v201q0 27 -15 41.5t-42 14.5h-57v87h99q50 0 80 -29.5t30 -80.5v-213q0 -33 19 -49.5t61 -16.5v-89q-80 0 -80 -65v-214q0 -51 -30 -80.5t-80 -29.5h-99v87z" />
    <glyph glyph-name="asciitilde" unicode="~" horiz-adv-x="562" 
d="M383 257q-33 0 -59.5 9.5t-51.5 21t-49 21t-52 9.5q-50 0 -80 -43l-50 62q23 30 57.5 46.5t75.5 16.5q33 0 60.5 -9.5t52 -21t47.5 -21t48 -9.5q58 0 88 50l51 -60q-58 -72 -138 -72z" />
    <glyph glyph-name="exclamdown" unicode="&#xa1;" horiz-adv-x="274" 
d="M137 399q-28 0 -47.5 18t-19.5 44v4q0 26 19.5 44.5t47.5 18.5t47.5 -18.5t19.5 -44.5v-4q0 -26 -19.5 -44t-47.5 -18zM82 63l12 249h85l12 -249v-253h-109v253z" />
    <glyph glyph-name="cent" unicode="&#xa2;" horiz-adv-x="538" 
d="M160 -98l30 114q-66 28 -103 91t-37 151v5q0 58 16.5 106t47 82.5t73 54t94.5 20.5q2 1 4 1h4h12l31 117l88 -22l-30 -114q71 -29 114 -104l-74 -49q-20 40 -53.5 61t-76.5 21h-2q-66 0 -106 -47.5t-40 -126.5v-5q0 -39 11 -71.5t30.5 -55.5t47.5 -35.5t62 -12.5h2
q42 0 75.5 21t55.5 61l73 -52q-35 -58 -89.5 -89t-120.5 -31h-6h-4l-11 1l-30 -115z" />
    <glyph glyph-name="sterling" unicode="&#xa3;" horiz-adv-x="508" 
d="M35 79q10 4 22.5 7t25.5 5v217h-43v83h43v110q0 47 14.5 85.5t40.5 65.5t63.5 42t82.5 15q67 0 116.5 -33t75.5 -96l-86 -45q-26 78 -101 78q-47 0 -75 -29.5t-28 -81.5v-111h198v-83h-198v-213h308v-95h-459v79z" />
    <glyph glyph-name="currency" unicode="&#xa4;" horiz-adv-x="562" 
d="M359 185q-34 -17 -77 -17q-45 0 -80 18l-66 -66l-60 60l66 67q-19 35 -19 79q0 22 5 41t13 35l-72 72l63 63l71 -72q17 8 36.5 13t42.5 5q46 0 79 -18l65 65l60 -60l-65 -65q19 -35 19 -79t-19 -79l71 -71l-62 -62zM282 245q35 0 56 22t21 59q0 36 -21 58t-56 22
t-56.5 -21.5t-21.5 -58.5t21.5 -59t56.5 -22z" />
    <glyph glyph-name="yen" unicode="&#xa5;" horiz-adv-x="601" 
d="M59 240h189v35l-24 41h-165v84h117l-174 300h122l174 -317h6l173 317h122l-173 -300h116v-84h-165l-24 -41v-35h189v-83h-189v-157h-105v157h-189v83z" />
    <glyph glyph-name="brokenbar" unicode="&#xa6;" horiz-adv-x="256" 
d="M82 720h91v-380h-91v380zM82 200h91v-390h-91v390z" />
    <glyph glyph-name="section" unicode="&#xa7;" horiz-adv-x="534" 
d="M255 710q60 0 107.5 -17t85.5 -48l-48 -74q-28 24 -62.5 38t-79.5 14q-42 0 -71.5 -22t-29.5 -60q0 -36 31 -57.5t103 -40.5q35 -9 71 -22t64.5 -33t46.5 -50.5t18 -75.5q0 -52 -28 -91.5t-76 -63.5q34 -20 55.5 -51t21.5 -78q0 -42 -16 -75t-43.5 -55t-63 -33.5
t-74.5 -11.5q-61 0 -109.5 17t-86.5 48l48 74q28 -24 63 -38t82 -14q45 0 75 21.5t30 59.5q0 37 -30.5 58.5t-103.5 40.5q-35 9 -71 22t-64.5 33t-46.5 50t-18 75q0 52 28 92t76 64q-34 20 -55 51t-21 78q0 42 15.5 75t42 55t61.5 33.5t73 11.5zM305 141q41 12 66 38t25 64
q0 28 -11 47t-29.5 32.5t-43.5 22.5t-54 16q-9 2 -18 5t-18 5q-42 -12 -67 -37.5t-25 -63.5q0 -28 10.5 -47t29 -32t43.5 -22t53 -17q10 -2 19 -5t20 -6z" />
    <glyph glyph-name="dieresis" unicode="&#xa8;" horiz-adv-x="395" 
d="M298 615q-24 0 -40 15.5t-16 38.5t16 38.5t40 15.5t40 -15.5t16 -38.5t-16 -38.5t-40 -15.5zM96 615q-24 0 -40 15.5t-16 38.5t16 38.5t40 15.5q23 0 39.5 -15.5t16.5 -38.5t-16.5 -38.5t-39.5 -15.5z" />
    <glyph glyph-name="copyright" unicode="&#xa9;" horiz-adv-x="806" 
d="M403 -10q-78 0 -144 27t-114 75t-75 114t-27 144q0 77 27.5 142.5t76 114t114.5 76t142 27.5q78 0 144 -27t114 -75t75 -114t27 -144t-27 -144t-75 -114t-114 -75t-144 -27zM403 78q59 0 109 20.5t86 56.5t56.5 86t20.5 109t-20.5 109t-56.5 86.5t-86 57t-109 20.5
t-109 -20.5t-86.5 -57t-57 -86.5t-20.5 -109t20.5 -109t57 -86t86.5 -56.5t109 -20.5zM402 169q-40 0 -73.5 13.5t-57.5 38t-37 58.5t-13 76q0 41 13 75t37 58.5t57 38t73 13.5q50 0 90.5 -20.5t63.5 -57.5l-68 -46q-23 45 -78 45q-45 0 -71.5 -29t-26.5 -78q0 -48 26 -77
t71 -29q29 0 52.5 13t34.5 36l67 -47q-26 -39 -67.5 -60t-92.5 -21z" />
    <glyph glyph-name="ordfeminine" unicode="&#xaa;" horiz-adv-x="272" 
d="M105 449q-38 0 -61 21t-23 54v2q0 83 149 83h8q0 35 -44 35q-20 0 -39.5 -6.5t-36.5 -19.5l-26 55q53 32 108 32h2q46 0 75.5 -24.5t29.5 -63.5v-108q0 -32 8 -56h-69q-2 5 -3.5 10.5t-2.5 12.5q-35 -27 -75 -27zM128 509q27 0 50 18v30h-2q-84 -1 -84 -27v-1
q0 -9 9.5 -14.5t26.5 -5.5zM35 397h211v-70h-211v70z" />
    <glyph glyph-name="guillemotleft" unicode="&#xab;" horiz-adv-x="590" 
d="M264 271v6l163 201h105l-162 -200v-8l162 -200h-105zM48 271v6l163 201h105l-162 -200v-8l162 -200h-105z" />
    <glyph glyph-name="registered" unicode="&#xae;" horiz-adv-x="806" 
d="M403 -10q-78 0 -144 27t-114 75t-75 114t-27 144q0 77 27.5 142.5t76 114t114.5 76t142 27.5q78 0 144 -27t114 -75t75 -114t27 -144t-27 -144t-75 -114t-114 -75t-144 -27zM403 78q59 0 109 20.5t86 56.5t56.5 86t20.5 109t-20.5 109t-56.5 86.5t-86 57t-109 20.5
t-109 -20.5t-86.5 -57t-57 -86.5t-20.5 -109t20.5 -109t57 -86t86.5 -56.5t109 -20.5zM270 531h145q57 0 90.5 -31t33.5 -85q0 -68 -50 -98l78 -138h-88l-64 120h-67v-120h-78v352zM406 370q49 0 49 44q0 43 -49 43h-58v-87h58z" />
    <glyph glyph-name="macron" unicode="&#xaf;" horiz-adv-x="364" 
d="M41 707h282v-78h-282v78z" />
    <glyph glyph-name="degree" unicode="&#xb0;" horiz-adv-x="408" 
d="M205 400q-35 0 -64 11t-49.5 31.5t-32 49t-11.5 62.5q0 70 43 112t114 42q35 0 63.5 -11t48.5 -31t31.5 -48.5t11.5 -63.5q0 -34 -11.5 -62.5t-31.5 -49t-48.5 -31.5t-63.5 -11zM205 478q33 0 53.5 20.5t20.5 55.5t-20.5 55.5t-53.5 20.5q-35 0 -55.5 -20.5t-20.5 -55.5
t20.5 -55.5t55.5 -20.5z" />
    <glyph glyph-name="plusminus" unicode="&#xb1;" horiz-adv-x="603" 
d="M258 308h-204v86h204v196h87v-196h204v-86h-204v-186h-87v186zM549 86v-86h-495v86h495z" />
    <glyph glyph-name="twosuperior" unicode="&#xb2;" horiz-adv-x="364" 
d="M32 368q45 23 83 49.5t66 54t43.5 54.5t15.5 51q0 26 -17 42t-45 16q-29 0 -50 -19.5t-26 -50.5l-75 18q8 57 50.5 90.5t103.5 33.5q63 0 100 -33t37 -88q0 -54 -39 -109t-101 -98h158v-73h-304v62z" />
    <glyph glyph-name="threesuperior" unicode="&#xb3;" horiz-adv-x="365" 
d="M184 299q-57 0 -100 24.5t-64 69.5l66 36q11 -26 36.5 -41.5t59.5 -15.5q35 0 57 17t22 46q0 28 -20.5 45t-55.5 17q-32 0 -56 -13l-35 44l113 99h-161v73h267v-61l-92 -82q54 -3 86.5 -36t32.5 -87q0 -61 -42.5 -98t-113.5 -37z" />
    <glyph glyph-name="acute" unicode="&#xb4;" horiz-adv-x="222" 
d="M39 581l55 146h98l-75 -146h-78z" />
    <glyph glyph-name="paragraph" unicode="&#xb6;" horiz-adv-x="559" 
d="M267 265q-51 0 -93 16t-71.5 44.5t-46 69t-16.5 89.5t18 88.5t51 68t79.5 44t102.5 15.5h176v-91h-103v-752h-97v408z" />
    <glyph glyph-name="periodcentered" unicode="&#xb7;" horiz-adv-x="190" 
d="M94 237q-26 0 -43.5 16t-17.5 42t17.5 42.5t43.5 16.5q27 0 45 -16.5t18 -42.5t-18 -42t-45 -16z" />
    <glyph glyph-name="cedilla" unicode="&#xb8;" horiz-adv-x="213" 
d="M87 -174q-24 0 -45 6l8 58q13 -5 26 -5q17 0 24.5 7t7.5 17q0 14 -11 23t-34 9l23 59h62l-16 -33q23 -8 36 -23.5t13 -40.5q0 -14 -6.5 -27.5t-18.5 -24.5t-29.5 -18t-39.5 -7z" />
    <glyph glyph-name="onesuperior" unicode="&#xb9;" horiz-adv-x="269" 
d="M28 594q54 0 85.5 29t31.5 77h76v-394h-80v248q-50 -34 -113 -33v73z" />
    <glyph glyph-name="ordmasculine" unicode="&#xba;" horiz-adv-x="315" 
d="M153 444q-56 0 -90.5 35t-34.5 93v6q0 57 34.5 92t90.5 35h11q55 0 89 -35t34 -92v-6q0 -58 -34 -93t-89 -35h-11zM162 510q24 0 38.5 16.5t14.5 45.5v6q0 29 -14.5 45t-38.5 16h-5q-26 0 -41.5 -16t-15.5 -45v-6q0 -29 15.5 -45.5t41.5 -16.5h5zM45 393h226v-70h-226v70
z" />
    <glyph glyph-name="guillemotright" unicode="&#xbb;" horiz-adv-x="590" 
d="M436 270v8l-162 200h105l163 -201v-6l-163 -201h-105zM220 270v8l-162 200h105l163 -201v-6l-163 -201h-105z" />
    <glyph glyph-name="onequarter" unicode="&#xbc;" horiz-adv-x="742" 
d="M113 569q-30 -17 -68 -17h-15v68l14 1q31 2 51 20.5t20 45.5v13h78v-367h-80v236zM552 700h113l-528 -700h-113zM367 118l151 243h98v-228h46v-71h-46v-67h-79v67h-170v56zM537 133v123l-76 -123h76z" />
    <glyph glyph-name="onehalf" unicode="&#xbd;" horiz-adv-x="769" 
d="M113 569q-30 -17 -68 -17h-15v68l14 1q31 2 51 20.5t20 45.5v13h78v-367h-80v236zM552 700h113l-528 -700h-113zM429 62l6 3q25 16 54 38t54 46.5t41.5 51t16.5 52.5q0 20 -11.5 32.5t-31.5 12.5q-24 0 -36.5 -18t-17.5 -42l-2 -15l-78 19l2 12q4 23 13.5 44t26 37
t39.5 26t54 10q58 0 91 -33.5t33 -81.5q0 -27 -10.5 -53t-27.5 -49.5t-38.5 -44t-43.5 -38.5h130v-72h-264v63z" />
    <glyph glyph-name="threequarters" unicode="&#xbe;" horiz-adv-x="804" 
d="M177 329q-49 0 -88.5 24.5t-50.5 72.5l-1 6l74 19l4 -7q10 -21 23.5 -31.5t36.5 -10.5q29 0 45.5 15.5t16.5 43.5q0 51 -55 51q-17 0 -27.5 -4t-24.5 -12l-29 51l86 81h-131v72h244v-61l-73 -66q47 -11 69 -41.5t22 -72.5q0 -27 -9.5 -51t-28 -41.5t-44.5 -27.5t-59 -10z
M614 700h113l-528 -700h-113zM429 118l151 243h98v-228h46v-71h-46v-67h-79v67h-170v56zM599 133v123l-76 -123h76z" />
    <glyph glyph-name="questiondown" unicode="&#xbf;" horiz-adv-x="508" 
d="M257 399q-28 0 -48 18t-20 44v4q0 26 20 44.5t48 18.5t47 -18.5t19 -44.5v-4q0 -26 -19 -44t-47 -18zM233 -200q-45 0 -83.5 12.5t-66.5 35.5t-43.5 55.5t-15.5 72.5q0 29 6 51t18 41t30 36.5t41 36.5q23 18 40.5 34.5t29.5 34t18 38t6 47.5v17h94q0 -39 -4.5 -67
t-16 -51t-31 -44.5t-48.5 -45.5q-31 -25 -54.5 -51.5t-23.5 -67.5q0 -47 31.5 -69t81.5 -22q30 0 55 9.5t44 25.5t30.5 38t15.5 47l94 -15q-5 -42 -25.5 -78.5t-52.5 -63t-75.5 -42t-94.5 -15.5z" />
    <glyph glyph-name="Agrave" unicode="&#xc0;" horiz-adv-x="649" 
d="M253 700h144l251 -700h-114l-63 183h-292l-63 -183h-115zM441 275l-113 324h-6l-113 -324h232zM210 903h101l51 -141h-84z" />
    <glyph glyph-name="Aacute" unicode="&#xc1;" horiz-adv-x="649" 
d="M253 700h144l251 -700h-114l-63 183h-292l-63 -183h-115zM441 275l-113 324h-6l-113 -324h232zM365 763h-81l48 141h100z" />
    <glyph glyph-name="Acircumflex" unicode="&#xc2;" horiz-adv-x="649" 
d="M253 700h144l251 -700h-114l-63 183h-292l-63 -183h-115zM441 275l-113 324h-6l-113 -324h232zM265 900h118l133 -123h-106l-77 61h-18l-77 -61h-106z" />
    <glyph glyph-name="Atilde" unicode="&#xc3;" horiz-adv-x="649" 
d="M253 700h144l251 -700h-114l-63 183h-292l-63 -183h-115zM441 275l-113 324h-6l-113 -324h232zM127 838q21 31 52 47.5t66 16.5q24 0 46 -7t46 -18q19 -8 37.5 -15t38.5 -7q23 0 41 9.5t29 26.5l37 -50q-19 -31 -48.5 -47.5t-64.5 -16.5q-23 0 -45 7t-47 18
q-20 9 -39 15.5t-39 6.5q-23 0 -43 -10t-31 -27z" />
    <glyph glyph-name="Adieresis" unicode="&#xc4;" horiz-adv-x="646" 
d="M212 769q-24 0 -40 15t-16 38t16 39t40 16q23 0 39.5 -16t16.5 -39t-16.5 -38t-39.5 -15zM433 769q-24 0 -39.5 15t-15.5 38t15.5 39t39.5 16t40.5 -16t16.5 -39t-16.5 -38t-40.5 -15zM251 700h144l251 -700h-114l-63 183h-292l-63 -183h-115zM439 275l-113 324h-6
l-113 -324h232z" />
    <glyph glyph-name="Aring" unicode="&#xc5;" horiz-adv-x="649" 
d="M253 700h144l251 -700h-114l-63 183h-292l-63 -183h-115zM441 275l-113 324h-6l-113 -324h232zM323 746q-43 0 -71 25.5t-28 65.5q0 42 28 68.5t71 26.5q45 0 73.5 -26.5t28.5 -68.5q0 -40 -28.5 -65.5t-73.5 -25.5zM323 797q20 0 32.5 11.5t12.5 28.5q0 20 -12.5 32
t-32.5 12q-19 0 -30.5 -12t-11.5 -32q0 -17 11.5 -28.5t30.5 -11.5z" />
    <glyph glyph-name="AE" unicode="&#xc6;" horiz-adv-x="838" 
d="M259 700h515v-96h-289v-201h269v-93h-269v-214h299v-96h-402v183h-201l-66 -183h-114zM382 275v329h-53l-117 -329h170z" />
    <glyph glyph-name="Ccedilla" unicode="&#xc7;" horiz-adv-x="680" 
d="M382 -10q-75 0 -137.5 27t-107.5 75t-69.5 113.5t-24.5 142.5v4q0 77 25 142.5t70 113.5t107 75t137 27h1q91 0 161 -42t110 -109l-85 -57q-29 52 -75 80.5t-109 28.5q-54 0 -97 -19t-73 -53t-46 -82t-16 -105v-4q0 -57 16.5 -104.5t46.5 -81.5t73 -53t96 -19
q65 0 113 28.5t76 79.5l82 -57q-19 -33 -47 -60.5t-63 -48t-76.5 -31.5t-86.5 -11h-1zM340 -174q-24 0 -45 6l8 58q13 -5 26 -5q17 0 24.5 7t7.5 17q0 14 -11 23t-34 9l23 59h62l-16 -33q23 -8 36 -23.5t13 -40.5q0 -14 -6.5 -27.5t-18.5 -24.5t-29.5 -18t-39.5 -7z" />
    <glyph glyph-name="Egrave" unicode="&#xc8;" horiz-adv-x="541" 
d="M92 700h421v-96h-315v-201h295v-93h-295v-214h325v-96h-431v700zM193 903h101l51 -141h-84z" />
    <glyph glyph-name="Eacute" unicode="&#xc9;" horiz-adv-x="541" 
d="M92 700h421v-96h-315v-201h295v-93h-295v-214h325v-96h-431v700zM348 763h-81l48 141h100z" />
    <glyph glyph-name="Ecircumflex" unicode="&#xca;" horiz-adv-x="541" 
d="M92 700h421v-96h-315v-201h295v-93h-295v-214h325v-96h-431v700zM248 900h118l133 -123h-106l-77 61h-18l-77 -61h-106z" />
    <glyph glyph-name="Edieresis" unicode="&#xcb;" horiz-adv-x="541" 
d="M92 700h421v-96h-315v-201h295v-93h-295v-214h325v-96h-431v700zM218 768q-23 0 -38.5 15t-15.5 39q0 23 15.5 39t38.5 16t38.5 -16t15.5 -39q0 -24 -15.5 -39t-38.5 -15zM395 768q-23 0 -38 15t-15 39q0 23 15 39t38 16t39 -16t16 -39q0 -24 -16 -39t-39 -15z" />
    <glyph glyph-name="Igrave" unicode="&#xcc;" horiz-adv-x="290" 
d="M92 700h106v-700h-106v700zM31 903h101l51 -141h-84z" />
    <glyph glyph-name="Iacute" unicode="&#xcd;" horiz-adv-x="290" 
d="M92 700h106v-700h-106v700zM186 763h-81l48 141h100z" />
    <glyph glyph-name="Icircumflex" unicode="&#xce;" horiz-adv-x="290" 
d="M92 700h106v-700h-106v700zM86 900h118l133 -123h-106l-77 61h-18l-77 -61h-106z" />
    <glyph glyph-name="Idieresis" unicode="&#xcf;" horiz-adv-x="290" 
d="M92 700h106v-700h-106v700zM56 768q-23 0 -38.5 15t-15.5 39q0 23 15.5 39t38.5 16t38.5 -16t15.5 -39q0 -24 -15.5 -39t-38.5 -15zM233 768q-23 0 -38 15t-15 39q0 23 15 39t38 16t39 -16t16 -39q0 -24 -16 -39t-39 -15z" />
    <glyph glyph-name="Eth" unicode="&#xd0;" horiz-adv-x="728" 
d="M103 310h-67v96h67v294h225q79 0 144.5 -25t113 -69t73.5 -105.5t26 -133.5v-20q0 -75 -26 -139t-73.5 -110t-113 -72t-144.5 -26h-225v310zM328 96q57 0 102.5 18.5t77 52.5t48.5 80.5t17 101.5v18q0 52 -17 95.5t-48.5 75t-77 49t-102.5 17.5h-119v-198h172v-96h-172
v-214h119z" />
    <glyph glyph-name="Ntilde" unicode="&#xd1;" horiz-adv-x="730" 
d="M92 700h120l314 -531h9v531h103v-700h-112l-321 544h-9v-544h-104v700zM168 838q21 31 52 47.5t66 16.5q24 0 46 -7t46 -18q19 -8 37.5 -15t38.5 -7q23 0 41 9.5t29 26.5l37 -50q-19 -31 -48.5 -47.5t-64.5 -16.5q-23 0 -45 7t-47 18q-20 9 -39 15.5t-39 6.5
q-23 0 -43 -10t-31 -27z" />
    <glyph glyph-name="Ograve" unicode="&#xd2;" horiz-adv-x="772" 
d="M43 353q0 77 25.5 142.5t70.5 113.5t107.5 75t136.5 27h5q74 0 136.5 -27t108 -75t71 -113.5t25.5 -142.5v-6q0 -77 -25.5 -142.5t-71 -113t-108 -74.5t-136.5 -27h-5q-74 0 -136.5 27t-107.5 74.5t-70.5 113t-25.5 142.5v6zM153 347q0 -57 17 -105t47.5 -82t73.5 -53
t94 -19h4q51 0 93 19t72.5 53t47.5 82t17 105v6q0 57 -17 105t-47.5 82.5t-73 53.5t-93.5 19h-4q-51 0 -93.5 -19t-73 -53.5t-47.5 -82.5t-17 -105v-6zM272 903h101l51 -141h-84z" />
    <glyph glyph-name="Oacute" unicode="&#xd3;" horiz-adv-x="772" 
d="M43 353q0 77 25.5 142.5t70.5 113.5t107.5 75t136.5 27h5q74 0 136.5 -27t108 -75t71 -113.5t25.5 -142.5v-6q0 -77 -25.5 -142.5t-71 -113t-108 -74.5t-136.5 -27h-5q-74 0 -136.5 27t-107.5 74.5t-70.5 113t-25.5 142.5v6zM153 347q0 -57 17 -105t47.5 -82t73.5 -53
t94 -19h4q51 0 93 19t72.5 53t47.5 82t17 105v6q0 57 -17 105t-47.5 82.5t-73 53.5t-93.5 19h-4q-51 0 -93.5 -19t-73 -53.5t-47.5 -82.5t-17 -105v-6zM427 763h-81l48 141h100z" />
    <glyph glyph-name="Ocircumflex" unicode="&#xd4;" horiz-adv-x="772" 
d="M43 353q0 77 25.5 142.5t70.5 113.5t107.5 75t136.5 27h5q74 0 136.5 -27t108 -75t71 -113.5t25.5 -142.5v-6q0 -77 -25.5 -142.5t-71 -113t-108 -74.5t-136.5 -27h-5q-74 0 -136.5 27t-107.5 74.5t-70.5 113t-25.5 142.5v6zM153 347q0 -57 17 -105t47.5 -82t73.5 -53
t94 -19h4q51 0 93 19t72.5 53t47.5 82t17 105v6q0 57 -17 105t-47.5 82.5t-73 53.5t-93.5 19h-4q-51 0 -93.5 -19t-73 -53.5t-47.5 -82.5t-17 -105v-6zM327 900h118l133 -123h-106l-77 61h-18l-77 -61h-106z" />
    <glyph glyph-name="Otilde" unicode="&#xd5;" horiz-adv-x="772" 
d="M43 353q0 77 25.5 142.5t70.5 113.5t107.5 75t136.5 27h5q74 0 136.5 -27t108 -75t71 -113.5t25.5 -142.5v-6q0 -77 -25.5 -142.5t-71 -113t-108 -74.5t-136.5 -27h-5q-74 0 -136.5 27t-107.5 74.5t-70.5 113t-25.5 142.5v6zM153 347q0 -57 17 -105t47.5 -82t73.5 -53
t94 -19h4q51 0 93 19t72.5 53t47.5 82t17 105v6q0 57 -17 105t-47.5 82.5t-73 53.5t-93.5 19h-4q-51 0 -93.5 -19t-73 -53.5t-47.5 -82.5t-17 -105v-6zM189 838q21 31 52 47.5t66 16.5q24 0 46 -7t46 -18q19 -8 37.5 -15t38.5 -7q23 0 41 9.5t29 26.5l37 -50
q-19 -31 -48.5 -47.5t-64.5 -16.5q-23 0 -45 7t-47 18q-20 9 -39 15.5t-39 6.5q-23 0 -43 -10t-31 -27z" />
    <glyph glyph-name="Odieresis" unicode="&#xd6;" horiz-adv-x="772" 
d="M274 769q-23 0 -39 15t-16 38t16 39t39 16q24 0 40.5 -16t16.5 -39t-16.5 -38t-40.5 -15zM495 769q-24 0 -39.5 15t-15.5 38t15.5 39t39.5 16t40.5 -16t16.5 -39t-16.5 -38t-40.5 -15zM43 353q0 77 25.5 142.5t70.5 113.5t107.5 75t136.5 27h5q74 0 136.5 -27t108 -75
t71 -113.5t25.5 -142.5v-6q0 -77 -25.5 -142.5t-71 -113t-108 -74.5t-136.5 -27h-5q-74 0 -136.5 27t-107.5 74.5t-70.5 113t-25.5 142.5v6zM153 347q0 -57 17 -105t47.5 -82t73.5 -53t94 -19h4q51 0 93 19t72.5 53t47.5 82t17 105v6q0 57 -17 105t-47.5 82.5t-73 53.5
t-93.5 19h-4q-51 0 -93.5 -19t-73 -53.5t-47.5 -82.5t-17 -105v-6z" />
    <glyph glyph-name="multiply" unicode="&#xd7;" horiz-adv-x="506" 
d="M48 180l145 145l-145 145l60 60l145 -145l145 145l60 -60l-145 -145l145 -145l-60 -60l-145 145l-145 -145z" />
    <glyph glyph-name="Oslash" unicode="&#xd8;" horiz-adv-x="772" 
d="M173 61q-61 48 -95.5 121.5t-34.5 164.5v6q0 77 25.5 142.5t70.5 113.5t107.5 75t136.5 27h5q41 0 77.5 -8.5t69.5 -23.5l32 56h90l-57 -96q60 -48 94.5 -121.5t34.5 -164.5v-6q0 -77 -25.5 -142.5t-71 -113t-108 -74.5t-136.5 -27h-5q-78 0 -145 31l-34 -57h-89z
M151 347q0 -63 20 -113.5t55 -85.5l263 446q-47 22 -101 22h-5q-52 0 -94.5 -19.5t-73 -54t-47.5 -83t-17 -106.5v-6zM284 106q45 -21 101 -21h4q52 0 94.5 19.5t73 54t47.5 82.5t17 106v6q0 63 -19 113.5t-54 85.5z" />
    <glyph glyph-name="Ugrave" unicode="&#xd9;" horiz-adv-x="717" 
d="M359 -10q-64 0 -115.5 18t-87.5 52.5t-55 85.5t-19 116v438h106v-429q0 -88 45.5 -134.5t125.5 -46.5t125 46.5t45 134.5v429h106v-438q0 -66 -19.5 -116.5t-55.5 -85t-87 -52.5t-114 -18zM245 903h101l51 -141h-84z" />
    <glyph glyph-name="Uacute" unicode="&#xda;" horiz-adv-x="717" 
d="M359 -10q-64 0 -115.5 18t-87.5 52.5t-55 85.5t-19 116v438h106v-429q0 -88 45.5 -134.5t125.5 -46.5t125 46.5t45 134.5v429h106v-438q0 -66 -19.5 -116.5t-55.5 -85t-87 -52.5t-114 -18zM400 763h-81l48 141h100z" />
    <glyph glyph-name="Ucircumflex" unicode="&#xdb;" horiz-adv-x="557" 
d="M279 -10q-64 0 -115.5 18t-87.5 52.5t-55 85.5t-19 116v438h106v-429q0 -88 45.5 -134.5t125.5 -46.5t125 46.5t45 134.5v429h106v-438q0 -66 -19.5 -116.5t-55.5 -85t-87 -52.5t-114 -18zM220 900h118l133 -123h-106l-77 61h-18l-77 -61h-106z" />
    <glyph glyph-name="Udieresis" unicode="&#xdc;" horiz-adv-x="716" 
d="M247 769q-23 0 -39 15t-16 38t16 39t39 16q24 0 40.5 -16t16.5 -39t-16.5 -38t-40.5 -15zM469 769q-24 0 -40 15t-16 38t16 39t40 16t40 -16t16 -39t-16 -38t-40 -15zM358 -10q-130 0 -203 70.5t-73 201.5v438h105v-429q0 -88 45.5 -134.5t126.5 -46.5q80 0 125 46.5
t45 134.5v429h105v-438q0 -66 -19.5 -116.5t-55.5 -85t-87 -52.5t-114 -18z" />
    <glyph glyph-name="Yacute" unicode="&#xdd;" horiz-adv-x="601" 
d="M248 275l-246 425h122l174 -317h6l173 317h122l-246 -425v-275h-105v275zM341 763h-81l48 141h100z" />
    <glyph glyph-name="Thorn" unicode="&#xde;" horiz-adv-x="619" 
d="M92 700h106v-100h135q56 0 101.5 -16t77.5 -45t49 -70.5t17 -92.5v-4q0 -51 -17.5 -93t-49 -72t-76.5 -46t-100 -16h-137v-145h-106v700zM327 239q68 0 105.5 35t37.5 98v4q0 61 -37.5 95.5t-104.5 34.5h-132v-267h131z" />
    <glyph glyph-name="germandbls" unicode="&#xdf;" horiz-adv-x="595" 
d="M352 -8q-29 0 -60.5 5.5t-49.5 13.5v81q12 -5 37 -8t43 -3q63 0 100.5 35.5t37.5 93.5t-37 93t-97 35h-63v78h54q46 0 75 30.5t29 76.5q0 48 -32 78t-86 30q-57 0 -92 -34.5t-35 -91.5v-505h-99v508q0 47 16.5 86t46.5 66.5t72 42.5t93 15q49 0 88.5 -13.5t68 -37.5
t44 -57.5t15.5 -74.5q0 -48 -20 -86t-55 -62q54 -25 84.5 -73.5t30.5 -115.5q0 -46 -15 -84t-42.5 -65t-66 -42t-85.5 -15z" />
    <glyph glyph-name="agrave" unicode="&#xe0;" horiz-adv-x="581" 
d="M225 -9q-40 0 -73.5 11.5t-57.5 32t-37.5 49t-13.5 63.5v5q0 169 316 169h45v29q0 42 -31.5 66.5t-86.5 24.5h-2q-42 0 -88 -14.5t-84 -39.5l-43 75q49 31 104.5 49.5t115.5 18.5h4q43 0 81 -11t66 -33.5t44 -56t16 -77.5v-256q0 -24 5 -49.5t13 -46.5h-98q-5 11 -8 28.5
t-5 34.5q-38 -35 -84.5 -53.5t-97.5 -18.5zM238 78q51 0 94 20t72 52v96h-33q-120 0 -175 -22.5t-55 -69.5v-3q0 -32 26.5 -52.5t70.5 -20.5zM173 729h97l56 -145h-78z" />
    <glyph glyph-name="aacute" unicode="&#xe1;" horiz-adv-x="581" 
d="M225 -9q-40 0 -73.5 11.5t-57.5 32t-37.5 49t-13.5 63.5v5q0 169 316 169h45v29q0 42 -31.5 66.5t-86.5 24.5h-2q-42 0 -88 -14.5t-84 -39.5l-43 75q49 31 104.5 49.5t115.5 18.5h4q43 0 81 -11t66 -33.5t44 -56t16 -77.5v-256q0 -24 5 -49.5t13 -46.5h-98q-5 11 -8 28.5
t-5 34.5q-38 -35 -84.5 -53.5t-97.5 -18.5zM238 78q51 0 94 20t72 52v96h-33q-120 0 -175 -22.5t-55 -69.5v-3q0 -32 26.5 -52.5t70.5 -20.5zM247 581l55 146h98l-75 -146h-78z" />
    <glyph glyph-name="acircumflex" unicode="&#xe2;" horiz-adv-x="581" 
d="M225 -9q-40 0 -73.5 11.5t-57.5 32t-37.5 49t-13.5 63.5v5q0 169 316 169h45v29q0 42 -31.5 66.5t-86.5 24.5h-2q-42 0 -88 -14.5t-84 -39.5l-43 75q49 31 104.5 49.5t115.5 18.5h4q43 0 81 -11t66 -33.5t44 -56t16 -77.5v-256q0 -24 5 -49.5t13 -46.5h-98q-5 11 -8 28.5
t-5 34.5q-38 -35 -84.5 -53.5t-97.5 -18.5zM238 78q51 0 94 20t72 52v96h-33q-120 0 -175 -22.5t-55 -69.5v-3q0 -32 26.5 -52.5t70.5 -20.5zM376 596l-78 62h-18l-79 -62h-105l134 124h117l134 -124h-105z" />
    <glyph glyph-name="atilde" unicode="&#xe3;" horiz-adv-x="581" 
d="M225 -9q-40 0 -73.5 11.5t-57.5 32t-37.5 49t-13.5 63.5v5q0 169 316 169h45v29q0 42 -31.5 66.5t-86.5 24.5h-2q-42 0 -88 -14.5t-84 -39.5l-43 75q49 31 104.5 49.5t115.5 18.5h4q43 0 81 -11t66 -33.5t44 -56t16 -77.5v-256q0 -24 5 -49.5t13 -46.5h-98q-5 11 -8 28.5
t-5 34.5q-38 -35 -84.5 -53.5t-97.5 -18.5zM238 78q51 0 94 20t72 52v96h-33q-120 0 -175 -22.5t-55 -69.5v-3q0 -32 26.5 -52.5t70.5 -20.5zM90 660q20 31 51.5 47.5t66.5 16.5q24 0 45.5 -7.5t45.5 -18.5q20 -8 38.5 -14.5t38.5 -6.5q23 0 41 9.5t29 26.5l37 -50
q-19 -31 -48.5 -47.5t-64.5 -16.5q-24 0 -45.5 7t-46.5 18q-20 8 -39 14.5t-39 6.5q-23 0 -43 -9.5t-31 -26.5z" />
    <glyph glyph-name="adieresis" unicode="&#xe4;" horiz-adv-x="581" 
d="M225 -9q-40 0 -73.5 11.5t-57.5 32t-37.5 49t-13.5 63.5v5q0 169 316 169h45v29q0 42 -31.5 66.5t-86.5 24.5h-2q-42 0 -88 -14.5t-84 -39.5l-43 75q49 31 104.5 49.5t115.5 18.5h4q43 0 81 -11t66 -33.5t44 -56t16 -77.5v-256q0 -24 5 -49.5t13 -46.5h-98q-5 11 -8 28.5
t-5 34.5q-38 -35 -84.5 -53.5t-97.5 -18.5zM238 78q51 0 94 20t72 52v96h-33q-120 0 -175 -22.5t-55 -69.5v-3q0 -32 26.5 -52.5t70.5 -20.5zM388 618q-24 0 -40 15.5t-16 38.5t16 38.5t40 15.5t40 -15.5t16 -38.5t-16 -38.5t-40 -15.5zM186 618q-24 0 -40 15.5t-16 38.5
t16 38.5t40 15.5q23 0 39.5 -15.5t16.5 -38.5t-16.5 -38.5t-39.5 -15.5z" />
    <glyph glyph-name="aring" unicode="&#xe5;" horiz-adv-x="581" 
d="M225 -9q-40 0 -73.5 11.5t-57.5 32t-37.5 49t-13.5 63.5v5q0 169 316 169h45v29q0 42 -31.5 66.5t-86.5 24.5h-2q-42 0 -88 -14.5t-84 -39.5l-43 75q49 31 104.5 49.5t115.5 18.5h4q43 0 81 -11t66 -33.5t44 -56t16 -77.5v-256q0 -24 5 -49.5t13 -46.5h-98q-5 11 -8 28.5
t-5 34.5q-38 -35 -84.5 -53.5t-97.5 -18.5zM238 78q51 0 94 20t72 52v96h-33q-120 0 -175 -22.5t-55 -69.5v-3q0 -32 26.5 -52.5t70.5 -20.5zM288 576q-42 0 -69 25t-27 64q0 41 27 66.5t69 25.5q43 0 70.5 -26t27.5 -66q0 -39 -27.5 -64t-70.5 -25zM289 627q19 0 30.5 11
t11.5 28t-11.5 28.5t-30.5 11.5t-30 -11.5t-11 -28.5t11 -28t30 -11z" />
    <glyph glyph-name="ae" unicode="&#xe6;" horiz-adv-x="899" 
d="M218 -7q-39 0 -71 11t-55 30.5t-36 47t-13 60.5q0 162 294 162h41q0 7 -0.5 20.5t-2.5 18.5q-2 51 -28 73t-73 22q-41 0 -84 -14.5t-78 -38.5l-43 75q102 67 208 67q58 0 99.5 -20t63.5 -58q32 37 77.5 57.5t99.5 20.5h3q50 0 92 -17.5t72 -49.5t47 -76t17 -97v-62h-376
v-1q7 -63 48 -103t103 -40h2q43 0 82 20t62 53l64 -57q-36 -48 -93 -76.5t-121 -28.5h-4q-61 0 -110.5 25t-81.5 69q-37 -43 -91.5 -68t-113.5 -25zM757 300v1q-5 63 -42.5 102t-97.5 39h-1q-57 0 -95 -39t-48 -103h284zM386 154q-7 18 -10 38t-3 39h-24q-108 0 -158 -20.5
t-50 -63.5q0 -31 25.5 -49t68.5 -18q45 0 85.5 20t65.5 54z" />
    <glyph glyph-name="ccedilla" unicode="&#xe7;" horiz-adv-x="569" 
d="M312 -7q-58 0 -106.5 19t-83 53.5t-53.5 83t-19 106.5v11q0 58 19.5 106t54 82.5t82.5 53.5t104 19h6q77 0 133 -34t88 -90l-77 -48q-22 41 -58 63.5t-87 22.5h-2q-74 0 -116.5 -47t-42.5 -130v-8q0 -40 12 -72.5t34 -56t52.5 -36t66.5 -12.5h3q52 0 87.5 24.5t55.5 60.5
l75 -51q-33 -55 -89 -87.5t-132 -32.5h-7zM279 -174q-24 0 -45 6l8 58q13 -5 26 -5q17 0 24.5 7t7.5 17q0 14 -11 23t-34 9l23 59h62l-16 -33q23 -8 36 -23.5t13 -40.5q0 -14 -6.5 -27.5t-18.5 -24.5t-29.5 -18t-39.5 -7z" />
    <glyph glyph-name="egrave" unicode="&#xe8;" 
d="M312 -8q-58 0 -106 19t-82.5 53.5t-54 81.5t-19.5 103v13q0 58 19.5 106.5t54.5 84t83 55t104 19.5h3q54 0 98.5 -17.5t76.5 -49.5t50 -76.5t18 -97.5v-62h-406q8 -63 53 -103t115 -40h2q51 0 92.5 21t64.5 52l64 -57q-37 -50 -98 -77.5t-128 -27.5h-4zM462 301
q-2 31 -14 57t-32 44.5t-47 29t-59 10.5h-1q-62 0 -103.5 -38.5t-51.5 -102.5h308zM201 729h97l56 -145h-78z" />
    <glyph glyph-name="eacute" unicode="&#xe9;" 
d="M312 -8q-58 0 -106 19t-82.5 53.5t-54 81.5t-19.5 103v13q0 58 19.5 106.5t54.5 84t83 55t104 19.5h3q54 0 98.5 -17.5t76.5 -49.5t50 -76.5t18 -97.5v-62h-406q8 -63 53 -103t115 -40h2q51 0 92.5 21t64.5 52l64 -57q-37 -50 -98 -77.5t-128 -27.5h-4zM462 301
q-2 31 -14 57t-32 44.5t-47 29t-59 10.5h-1q-62 0 -103.5 -38.5t-51.5 -102.5h308zM275 581l55 146h98l-75 -146h-78z" />
    <glyph glyph-name="ecircumflex" unicode="&#xea;" 
d="M312 -8q-58 0 -106 19t-82.5 53.5t-54 81.5t-19.5 103v13q0 58 19.5 106.5t54.5 84t83 55t104 19.5h3q54 0 98.5 -17.5t76.5 -49.5t50 -76.5t18 -97.5v-62h-406q8 -63 53 -103t115 -40h2q51 0 92.5 21t64.5 52l64 -57q-37 -50 -98 -77.5t-128 -27.5h-4zM462 301
q-2 31 -14 57t-32 44.5t-47 29t-59 10.5h-1q-62 0 -103.5 -38.5t-51.5 -102.5h308zM403 596l-78 62h-18l-79 -62h-105l134 124h117l134 -124h-105z" />
    <glyph glyph-name="edieresis" unicode="&#xeb;" 
d="M312 -8q-58 0 -106 19t-82.5 53.5t-54 81.5t-19.5 103v13q0 58 19.5 106.5t54.5 84t83 55t104 19.5h3q54 0 98.5 -17.5t76.5 -49.5t50 -76.5t18 -97.5v-62h-406q8 -63 53 -103t115 -40h2q51 0 92.5 21t64.5 52l64 -57q-37 -50 -98 -77.5t-128 -27.5h-4zM462 301
q-2 31 -14 57t-32 44.5t-47 29t-59 10.5h-1q-62 0 -103.5 -38.5t-51.5 -102.5h308zM416 618q-24 0 -40 15.5t-16 38.5t16 38.5t40 15.5t40 -15.5t16 -38.5t-16 -38.5t-40 -15.5zM214 618q-24 0 -40 15.5t-16 38.5t16 38.5t40 15.5q23 0 39.5 -15.5t16.5 -38.5t-16.5 -38.5
t-39.5 -15.5z" />
    <glyph glyph-name="igrave" unicode="&#xec;" horiz-adv-x="264" 
d="M82 520h99v-520h-99v520zM17 726h97l56 -145h-78z" />
    <glyph glyph-name="iacute" unicode="&#xed;" horiz-adv-x="264" 
d="M82 520h99v-520h-99v520zM91 578l55 146h98l-75 -146h-78z" />
    <glyph glyph-name="icircumflex" unicode="&#xee;" horiz-adv-x="264" 
d="M209 596l-68 62h-18l-68 -62h-103l124 124h112l124 -124h-103zM82 520h99v-520h-99v520z" />
    <glyph glyph-name="idieresis" unicode="&#xef;" horiz-adv-x="264" 
d="M204 615q-23 0 -37.5 15t-14.5 39q0 23 14.5 38.5t37.5 15.5t38 -15.5t15 -38.5q0 -24 -15 -39t-38 -15zM59 615q-22 0 -37 15t-15 39q0 23 15 38.5t37 15.5t37.5 -15.5t15.5 -38.5q0 -24 -15.5 -39t-37.5 -15zM82 520h99v-520h-99v520z" />
    <glyph glyph-name="eth" unicode="&#xf0;" horiz-adv-x="640" 
d="M159 589l119 57q-21 14 -44 27t-49 25l47 59q68 -32 126 -73l129 62l33 -60l-102 -48q80 -70 126 -160.5t46 -203.5v-10q0 -61 -19.5 -111t-54.5 -86t-84.5 -55.5t-108.5 -19.5h-6q-58 0 -107.5 19.5t-84.5 54t-55 82t-20 104.5v9q0 57 20 104.5t54.5 82t80.5 53.5t98 19
h8q34 0 66.5 -10.5t59.5 -27.5q-20 32 -44 61.5t-55 56.5l-147 -70zM322 78q37 0 67.5 12.5t52.5 36t34 55.5t12 71v7q0 39 -12 71t-34 55.5t-52.5 36t-67.5 12.5h-3q-37 0 -67 -12.5t-52 -36t-34 -55.5t-12 -71v-7q0 -39 12 -71t34 -55.5t52 -36t67 -12.5h3z" />
    <glyph glyph-name="ntilde" unicode="&#xf1;" horiz-adv-x="630" 
d="M82 520h78q6 -15 10 -37t6 -39q35 42 84 63.5t104 21.5h3q94 0 141.5 -51t47.5 -146v-332h-99v313q0 60 -27 92.5t-89 32.5h-5q-69 0 -112 -41t-43 -110v-287h-99v520zM119 660q20 31 51.5 47.5t66.5 16.5q24 0 45.5 -7.5t45.5 -18.5q20 -8 38.5 -14.5t38.5 -6.5
q23 0 41 9.5t29 26.5l37 -50q-19 -31 -48.5 -47.5t-64.5 -16.5q-24 0 -45.5 7t-46.5 18q-20 8 -39 14.5t-39 6.5q-23 0 -43 -9.5t-31 -26.5z" />
    <glyph glyph-name="ograve" unicode="&#xf2;" horiz-adv-x="642" 
d="M318 -8q-59 0 -108 19.5t-84.5 54.5t-55.5 83t-20 106v10q0 58 20 106t55.5 83t84.5 54.5t108 19.5h6q59 0 108 -19.5t84 -54.5t55 -83t20 -106v-10q0 -58 -20 -106t-55 -83t-84 -54.5t-108 -19.5h-6zM322 78q37 0 67.5 13t52.5 36.5t34 56.5t12 72v8q0 39 -12 72
t-34 56.5t-52.5 36.5t-67.5 13h-3q-36 0 -66.5 -13t-52.5 -36.5t-34 -56.5t-12 -72v-8q0 -39 12 -72t34 -56.5t52.5 -36.5t66.5 -13h3zM206 729h97l56 -145h-78z" />
    <glyph glyph-name="oacute" unicode="&#xf3;" horiz-adv-x="642" 
d="M318 -8q-59 0 -108 19.5t-84.5 54.5t-55.5 83t-20 106v10q0 58 20 106t55.5 83t84.5 54.5t108 19.5h6q59 0 108 -19.5t84 -54.5t55 -83t20 -106v-10q0 -58 -20 -106t-55 -83t-84 -54.5t-108 -19.5h-6zM322 78q37 0 67.5 13t52.5 36.5t34 56.5t12 72v8q0 39 -12 72
t-34 56.5t-52.5 36.5t-67.5 13h-3q-36 0 -66.5 -13t-52.5 -36.5t-34 -56.5t-12 -72v-8q0 -39 12 -72t34 -56.5t52.5 -36.5t66.5 -13h3zM280 581l55 146h98l-75 -146h-78z" />
    <glyph glyph-name="ocircumflex" unicode="&#xf4;" horiz-adv-x="642" 
d="M318 -8q-59 0 -108 19.5t-84.5 54.5t-55.5 83t-20 106v10q0 58 20 106t55.5 83t84.5 54.5t108 19.5h6q59 0 108 -19.5t84 -54.5t55 -83t20 -106v-10q0 -58 -20 -106t-55 -83t-84 -54.5t-108 -19.5h-6zM322 78q37 0 67.5 13t52.5 36.5t34 56.5t12 72v8q0 39 -12 72
t-34 56.5t-52.5 36.5t-67.5 13h-3q-36 0 -66.5 -13t-52.5 -36.5t-34 -56.5t-12 -72v-8q0 -39 12 -72t34 -56.5t52.5 -36.5t66.5 -13h3zM409 596l-78 62h-18l-79 -62h-105l134 124h117l134 -124h-105z" />
    <glyph glyph-name="otilde" unicode="&#xf5;" horiz-adv-x="642" 
d="M318 -8q-59 0 -108 19.5t-84.5 54.5t-55.5 83t-20 106v10q0 58 20 106t55.5 83t84.5 54.5t108 19.5h6q59 0 108 -19.5t84 -54.5t55 -83t20 -106v-10q0 -58 -20 -106t-55 -83t-84 -54.5t-108 -19.5h-6zM322 78q37 0 67.5 13t52.5 36.5t34 56.5t12 72v8q0 39 -12 72
t-34 56.5t-52.5 36.5t-67.5 13h-3q-36 0 -66.5 -13t-52.5 -36.5t-34 -56.5t-12 -72v-8q0 -39 12 -72t34 -56.5t52.5 -36.5t66.5 -13h3zM123 660q20 31 51.5 47.5t66.5 16.5q24 0 45.5 -7.5t45.5 -18.5q20 -8 38.5 -14.5t38.5 -6.5q23 0 41 9.5t29 26.5l37 -50
q-19 -31 -48.5 -47.5t-64.5 -16.5q-24 0 -45.5 7t-46.5 18q-20 8 -39 14.5t-39 6.5q-23 0 -43 -9.5t-31 -26.5z" />
    <glyph glyph-name="odieresis" unicode="&#xf6;" horiz-adv-x="642" 
d="M318 -8q-59 0 -108 19.5t-84.5 54.5t-55.5 83t-20 106v10q0 58 20 106t55.5 83t84.5 54.5t108 19.5h6q59 0 108 -19.5t84 -54.5t55 -83t20 -106v-10q0 -58 -20 -106t-55 -83t-84 -54.5t-108 -19.5h-6zM322 78q37 0 67.5 13t52.5 36.5t34 56.5t12 72v8q0 39 -12 72
t-34 56.5t-52.5 36.5t-67.5 13h-3q-36 0 -66.5 -13t-52.5 -36.5t-34 -56.5t-12 -72v-8q0 -39 12 -72t34 -56.5t52.5 -36.5t66.5 -13h3zM421 618q-24 0 -40 15.5t-16 38.5t16 38.5t40 15.5t40 -15.5t16 -38.5t-16 -38.5t-40 -15.5zM219 618q-24 0 -40 15.5t-16 38.5t16 38.5
t40 15.5q23 0 39.5 -15.5t16.5 -38.5t-16.5 -38.5t-39.5 -15.5z" />
    <glyph glyph-name="divide" unicode="&#xf7;" horiz-adv-x="591" 
d="M294 440q-27 0 -46 18.5t-19 45.5v3q0 26 19 44t46 18q28 0 48 -18t20 -44v-3q0 -27 -20 -45.5t-48 -18.5zM48 368h495v-86h-495v86zM294 81q-27 0 -46.5 18.5t-19.5 44.5v4q0 26 19.5 44t46.5 18q28 0 48 -18t20 -44v-4q0 -26 -20 -44.5t-48 -18.5z" />
    <glyph glyph-name="oslash" unicode="&#xf8;" horiz-adv-x="642" 
d="M149 46q-47 35 -73 88.5t-26 120.5v10q0 58 20 106t55.5 83t84.5 54.5t108 19.5h6q52 0 100 -17l28 49h90l-50 -85q47 -35 73 -89t26 -121v-10q0 -58 -20 -106t-55 -83t-84 -54.5t-108 -19.5h-6q-53 0 -99 17l-31 -51h-89zM386 433q-30 11 -63 11h-4q-37 0 -68.5 -13
t-53.5 -37t-34.5 -57t-12.5 -73v-8q0 -43 13.5 -77.5t38.5 -58.5zM323 76q38 0 69 13t53 37t34.5 57t12.5 73v8q0 43 -14 77.5t-39 58.5l-183 -313q30 -11 63 -11h4z" />
    <glyph glyph-name="ugrave" unicode="&#xf9;" horiz-adv-x="621" 
d="M258 -9q-92 0 -138.5 50.5t-46.5 145.5v333h99v-314q0 -60 26.5 -92t85.5 -32h3q68 0 110.5 40.5t42.5 111.5v286h99v-520h-78q-6 14 -10 36t-6 39q-33 -39 -80 -61.5t-104 -22.5h-3zM189 729h97l56 -145h-78z" />
    <glyph glyph-name="uacute" unicode="&#xfa;" horiz-adv-x="621" 
d="M258 -9q-92 0 -138.5 50.5t-46.5 145.5v333h99v-314q0 -60 26.5 -92t85.5 -32h3q68 0 110.5 40.5t42.5 111.5v286h99v-520h-78q-6 14 -10 36t-6 39q-33 -39 -80 -61.5t-104 -22.5h-3zM263 581l55 146h98l-75 -146h-78z" />
    <glyph glyph-name="ucircumflex" unicode="&#xfb;" horiz-adv-x="621" 
d="M258 -9q-92 0 -138.5 50.5t-46.5 145.5v333h99v-314q0 -60 26.5 -92t85.5 -32h3q68 0 110.5 40.5t42.5 111.5v286h99v-520h-78q-6 14 -10 36t-6 39q-33 -39 -80 -61.5t-104 -22.5h-3zM392 596l-78 62h-18l-79 -62h-105l134 124h117l134 -124h-105z" />
    <glyph glyph-name="udieresis" unicode="&#xfc;" horiz-adv-x="621" 
d="M258 -9q-92 0 -138.5 50.5t-46.5 145.5v333h99v-314q0 -60 26.5 -92t85.5 -32h3q68 0 110.5 40.5t42.5 111.5v286h99v-520h-78q-6 14 -10 36t-6 39q-33 -39 -80 -61.5t-104 -22.5h-3zM404 618q-24 0 -40 15.5t-16 38.5t16 38.5t40 15.5t40 -15.5t16 -38.5t-16 -38.5
t-40 -15.5zM202 618q-24 0 -40 15.5t-16 38.5t16 38.5t40 15.5q23 0 39.5 -15.5t16.5 -38.5t-16.5 -38.5t-39.5 -15.5z" />
    <glyph glyph-name="yacute" unicode="&#xfd;" horiz-adv-x="544" 
d="M147 -199q-18 0 -42.5 4t-44.5 15v87q19 -8 35 -12.5t33 -4.5q37 0 64.5 23.5t47.5 63.5l-231 543h109l169 -417h7l142 417h103l-194 -546q-12 -35 -29 -66t-40 -55t-55 -38t-74 -14zM237 579l55 146h98l-75 -146h-78z" />
    <glyph glyph-name="thorn" unicode="&#xfe;" horiz-adv-x="668" 
d="M82 720h99v-267q33 35 79.5 55t102.5 20h4q55 0 101 -19t79.5 -53t52 -81t18.5 -102v-26q0 -55 -18.5 -102t-52 -81t-79.5 -53t-101 -19h-4q-56 0 -102.5 20t-79.5 55v-257h-99v910zM351 79q37 0 67 12.5t51.5 35t33.5 53.5t12 68v24q0 37 -12 68t-33.5 53.5t-51.5 35
t-67 12.5h-6q-37 0 -67 -12.5t-51.5 -35t-33.5 -53.5t-12 -68v-24q0 -37 12 -68t33.5 -53.5t51.5 -35t67 -12.5h6z" />
    <glyph glyph-name="ydieresis" unicode="&#xff;" horiz-adv-x="544" 
d="M147 -199q-18 0 -42.5 4t-44.5 15v87q19 -8 35 -12.5t33 -4.5q37 0 64.5 23.5t47.5 63.5l-231 543h109l169 -417h7l142 417h103l-194 -546q-12 -35 -29 -66t-40 -55t-55 -38t-74 -14zM378 616q-24 0 -40 15.5t-16 38.5t16 38.5t40 15.5t40 -15.5t16 -38.5t-16 -38.5
t-40 -15.5zM176 616q-24 0 -40 15.5t-16 38.5t16 38.5t40 15.5q23 0 39.5 -15.5t16.5 -38.5t-16.5 -38.5t-39.5 -15.5z" />
    <glyph glyph-name="Amacron" unicode="&#x100;" horiz-adv-x="649" 
d="M253 700h144l251 -700h-114l-63 183h-292l-63 -183h-115zM441 275l-113 324h-6l-113 -324h232zM184 885h282v-76h-282v76z" />
    <glyph glyph-name="amacron" unicode="&#x101;" horiz-adv-x="581" 
d="M225 -9q-40 0 -73.5 11.5t-57.5 32t-37.5 49t-13.5 63.5v5q0 169 316 169h45v29q0 42 -31.5 66.5t-86.5 24.5h-2q-42 0 -88 -14.5t-84 -39.5l-43 75q49 31 104.5 49.5t115.5 18.5h4q43 0 81 -11t66 -33.5t44 -56t16 -77.5v-256q0 -24 5 -49.5t13 -46.5h-98q-5 11 -8 28.5
t-5 34.5q-38 -35 -84.5 -53.5t-97.5 -18.5zM238 78q51 0 94 20t72 52v96h-33q-120 0 -175 -22.5t-55 -69.5v-3q0 -32 26.5 -52.5t70.5 -20.5zM148 710h282v-78h-282v78z" />
    <glyph glyph-name="Abreve" unicode="&#x102;" horiz-adv-x="649" 
d="M253 700h144l251 -700h-114l-63 183h-292l-63 -183h-115zM441 275l-113 324h-6l-113 -324h232zM250 899q0 -32 21 -50.5t56 -18.5q34 0 54.5 18.5t20.5 50.5h88q0 -31 -11.5 -57t-33 -45t-52 -29t-67.5 -10t-67.5 10t-52 29t-33 45t-11.5 57h88z" />
    <glyph glyph-name="abreve" unicode="&#x103;" horiz-adv-x="581" 
d="M225 -9q-40 0 -73.5 11.5t-57.5 32t-37.5 49t-13.5 63.5v5q0 169 316 169h45v29q0 42 -31.5 66.5t-86.5 24.5h-2q-42 0 -88 -14.5t-84 -39.5l-43 75q49 31 104.5 49.5t115.5 18.5h4q43 0 81 -11t66 -33.5t44 -56t16 -77.5v-256q0 -24 5 -49.5t13 -46.5h-98q-5 11 -8 28.5
t-5 34.5q-38 -35 -84.5 -53.5t-97.5 -18.5zM238 78q51 0 94 20t72 52v96h-33q-120 0 -175 -22.5t-55 -69.5v-3q0 -32 26.5 -52.5t70.5 -20.5zM212 720q0 -32 21 -50.5t56 -18.5q34 0 54.5 18.5t20.5 50.5h88q0 -31 -11.5 -57t-33 -45t-52 -29t-67.5 -10t-67 10t-51.5 29
t-33 45t-11.5 57h87z" />
    <glyph glyph-name="Aogonek" unicode="&#x104;" horiz-adv-x="649" 
d="M253 700h144l251 -700h-114l-63 183h-292l-63 -183h-115zM441 275l-113 324h-6l-113 -324h232zM608 -174q-38 0 -61.5 20.5t-23.5 55.5q1 35 23 69t61 62l41 -33q-26 -23 -39.5 -43.5t-13.5 -40.5q0 -32 29 -32q6 0 12 2t11 4v-58q-18 -6 -39 -6z" />
    <glyph glyph-name="aogonek" unicode="&#x105;" horiz-adv-x="581" 
d="M225 -9q-40 0 -73.5 11.5t-57.5 32t-37.5 49t-13.5 63.5v5q0 169 316 169h45v29q0 42 -31.5 66.5t-86.5 24.5h-2q-42 0 -88 -14.5t-84 -39.5l-43 75q49 31 104.5 49.5t115.5 18.5h4q43 0 81 -11t66 -33.5t44 -56t16 -77.5v-256q0 -24 5 -49.5t13 -46.5h-98q-5 11 -8 28.5
t-5 34.5q-38 -35 -84.5 -53.5t-97.5 -18.5zM238 78q51 0 94 20t72 52v96h-33q-120 0 -175 -22.5t-55 -69.5v-3q0 -32 26.5 -52.5t70.5 -20.5zM478 -174q-38 0 -61.5 20.5t-23.5 55.5q1 35 23 69t61 62l41 -33q-26 -23 -39.5 -43.5t-13.5 -40.5q0 -32 29 -32q6 0 12 2t11 4
v-58q-18 -6 -39 -6z" />
    <glyph glyph-name="Cacute" unicode="&#x106;" horiz-adv-x="680" 
d="M382 -10q-75 0 -137.5 27t-107.5 75t-69.5 113.5t-24.5 142.5v4q0 77 25 142.5t70 113.5t107 75t137 27h1q91 0 161 -42t110 -109l-85 -57q-29 52 -75 80.5t-109 28.5q-54 0 -97 -19t-73 -53t-46 -82t-16 -105v-4q0 -57 16.5 -104.5t46.5 -81.5t73 -53t96 -19
q65 0 113 28.5t76 79.5l82 -57q-19 -33 -47 -60.5t-63 -48t-76.5 -31.5t-86.5 -11h-1zM425 763h-81l48 141h100z" />
    <glyph glyph-name="cacute" unicode="&#x107;" horiz-adv-x="569" 
d="M312 -7q-58 0 -106.5 19t-83 53.5t-53.5 83t-19 106.5v11q0 58 19.5 106t54 82.5t82.5 53.5t104 19h6q77 0 133 -34t88 -90l-77 -48q-22 41 -58 63.5t-87 22.5h-2q-74 0 -116.5 -47t-42.5 -130v-8q0 -40 12 -72.5t34 -56t52.5 -36t66.5 -12.5h3q52 0 87.5 24.5t55.5 60.5
l75 -51q-33 -55 -89 -87.5t-132 -32.5h-7zM275 581l55 146h98l-75 -146h-78z" />
    <glyph glyph-name="Ccircumflex" unicode="&#x108;" horiz-adv-x="680" 
d="M382 -10q-75 0 -137.5 27t-107.5 75t-69.5 113.5t-24.5 142.5v4q0 77 25 142.5t70 113.5t107 75t137 27h1q91 0 161 -42t110 -109l-85 -57q-29 52 -75 80.5t-109 28.5q-54 0 -97 -19t-73 -53t-46 -82t-16 -105v-4q0 -57 16.5 -104.5t46.5 -81.5t73 -53t96 -19
q65 0 113 28.5t76 79.5l82 -57q-19 -33 -47 -60.5t-63 -48t-76.5 -31.5t-86.5 -11h-1zM326 900h118l133 -123h-106l-77 61h-18l-77 -61h-106z" />
    <glyph glyph-name="ccircumflex" unicode="&#x109;" horiz-adv-x="569" 
d="M312 -7q-58 0 -106.5 19t-83 53.5t-53.5 83t-19 106.5v11q0 58 19.5 106t54 82.5t82.5 53.5t104 19h6q77 0 133 -34t88 -90l-77 -48q-22 41 -58 63.5t-87 22.5h-2q-74 0 -116.5 -47t-42.5 -130v-8q0 -40 12 -72.5t34 -56t52.5 -36t66.5 -12.5h3q52 0 87.5 24.5t55.5 60.5
l75 -51q-33 -55 -89 -87.5t-132 -32.5h-7zM404 596l-78 62h-18l-79 -62h-105l134 124h117l134 -124h-105z" />
    <glyph glyph-name="Cdotaccent" unicode="&#x10a;" horiz-adv-x="680" 
d="M382 -10q-75 0 -137.5 27t-107.5 75t-69.5 113.5t-24.5 142.5v4q0 77 25 142.5t70 113.5t107 75t137 27h1q91 0 161 -42t110 -109l-85 -57q-29 52 -75 80.5t-109 28.5q-54 0 -97 -19t-73 -53t-46 -82t-16 -105v-4q0 -57 16.5 -104.5t46.5 -81.5t73 -53t96 -19
q65 0 113 28.5t76 79.5l82 -57q-19 -33 -47 -60.5t-63 -48t-76.5 -31.5t-86.5 -11h-1zM384 785q-26 0 -43 16t-17 42q0 25 17 41.5t43 16.5q27 0 44.5 -16.5t17.5 -41.5q0 -26 -17.5 -42t-44.5 -16z" />
    <glyph glyph-name="cdotaccent" unicode="&#x10b;" horiz-adv-x="569" 
d="M312 -7q-58 0 -106.5 19t-83 53.5t-53.5 83t-19 106.5v11q0 58 19.5 106t54 82.5t82.5 53.5t104 19h6q77 0 133 -34t88 -90l-77 -48q-22 41 -58 63.5t-87 22.5h-2q-74 0 -116.5 -47t-42.5 -130v-8q0 -40 12 -72.5t34 -56t52.5 -36t66.5 -12.5h3q52 0 87.5 24.5t55.5 60.5
l75 -51q-33 -55 -89 -87.5t-132 -32.5h-7zM316 614q-26 0 -43.5 16t-17.5 42q0 25 17.5 42t43.5 17q27 0 45 -17t18 -42q0 -26 -18 -42t-45 -16z" />
    <glyph glyph-name="Ccaron" unicode="&#x10c;" horiz-adv-x="680" 
d="M382 -10q-75 0 -137.5 27t-107.5 75t-69.5 113.5t-24.5 142.5v4q0 77 25 142.5t70 113.5t107 75t137 27h1q91 0 161 -42t110 -109l-85 -57q-29 52 -75 80.5t-109 28.5q-54 0 -97 -19t-73 -53t-46 -82t-16 -105v-4q0 -57 16.5 -104.5t46.5 -81.5t73 -53t96 -19
q65 0 113 28.5t76 79.5l82 -57q-19 -33 -47 -60.5t-63 -48t-76.5 -31.5t-86.5 -11h-1zM193 900h106l77 -62h18l77 62h106l-133 -123h-118z" />
    <glyph glyph-name="ccaron" unicode="&#x10d;" horiz-adv-x="569" 
d="M312 -7q-58 0 -106.5 19t-83 53.5t-53.5 83t-19 106.5v11q0 58 19.5 106t54 82.5t82.5 53.5t104 19h6q77 0 133 -34t88 -90l-77 -48q-22 41 -58 63.5t-87 22.5h-2q-74 0 -116.5 -47t-42.5 -130v-8q0 -40 12 -72.5t34 -56t52.5 -36t66.5 -12.5h3q52 0 87.5 24.5t55.5 60.5
l75 -51q-33 -55 -89 -87.5t-132 -32.5h-7zM124 720h105l79 -71h18l78 71h105l-134 -132h-117z" />
    <glyph glyph-name="Dcaron" unicode="&#x10e;" horiz-adv-x="716" 
d="M92 700h224q80 0 145.5 -25t112.5 -69t73 -105.5t26 -133.5v-20q0 -75 -26 -139t-73 -110t-112.5 -72t-145.5 -26h-224v700zM317 96q57 0 102.5 18.5t77 52.5t48.5 80.5t17 101.5v18q0 52 -17 95.5t-48.5 75t-77 49t-102.5 17.5h-119v-508h119zM163 897h106l77 -62h18
l77 62h106l-133 -123h-118z" />
    <glyph glyph-name="dcaron" unicode="&#x10f;" horiz-adv-x="702" 
d="M301 -8q-55 0 -101 19.5t-79.5 54t-52 83t-18.5 106.5v10q0 58 18.5 106.5t52 83t79.5 54t101 19.5h4q56 0 102.5 -20t79.5 -56v268h99v-720h-78q-5 14 -9.5 35t-6.5 38q-34 -38 -82 -59.5t-105 -21.5h-4zM323 79q74 0 119 48t45 129v8q0 81 -45 129t-119 48h-6
q-74 0 -119 -48t-45 -129v-8q0 -81 45 -129t119 -48h6zM671 720h92l-36 -161h-68z" />
    <glyph glyph-name="Dcroat" unicode="&#x110;" horiz-adv-x="728" 
d="M103 310h-67v96h67v294h225q79 0 144.5 -25t113 -69t73.5 -105.5t26 -133.5v-20q0 -75 -26 -139t-73.5 -110t-113 -72t-144.5 -26h-225v310zM328 96q57 0 102.5 18.5t77 52.5t48.5 80.5t17 101.5v18q0 52 -17 95.5t-48.5 75t-77 49t-102.5 17.5h-119v-198h172v-96h-172
v-214h119z" />
    <glyph glyph-name="dcroat" unicode="&#x111;" horiz-adv-x="669" 
d="M301 -8q-54 0 -100 19.5t-79.5 54t-52.5 83t-19 106.5v10q0 58 19 106.5t52.5 83t79.5 54t100 19.5h4q57 0 103.5 -20t79.5 -57v142h-163v72h163v55h98v-55h67v-72h-67v-593h-78q-5 14 -9.5 35t-6.5 38q-33 -38 -81 -59.5t-106 -21.5h-4zM323 82q37 0 67 12.5t51.5 35
t33.5 55t12 71.5v8q0 39 -12 71.5t-33.5 55t-51.5 35t-67 12.5h-5q-37 0 -67 -12.5t-51.5 -35t-33.5 -55t-12 -71.5v-8q0 -39 12 -71.5t33.5 -55t51.5 -35t67 -12.5h5z" />
    <glyph glyph-name="Emacron" unicode="&#x112;" horiz-adv-x="577" 
d="M92 700h421v-96h-315v-201h295v-93h-295v-214h325v-96h-431v700zM166 885h282v-76h-282v76z" />
    <glyph glyph-name="emacron" unicode="&#x113;" 
d="M312 -8q-58 0 -106 19t-82.5 53.5t-54 81.5t-19.5 103v13q0 58 19.5 106.5t54.5 84t83 55t104 19.5h3q54 0 98.5 -17.5t76.5 -49.5t50 -76.5t18 -97.5v-62h-406q8 -63 53 -103t115 -40h2q51 0 92.5 21t64.5 52l64 -57q-37 -50 -98 -77.5t-128 -27.5h-4zM462 301
q-2 31 -14 57t-32 44.5t-47 29t-59 10.5h-1q-62 0 -103.5 -38.5t-51.5 -102.5h308zM175 710h282v-78h-282v78z" />
    <glyph glyph-name="Ebreve" unicode="&#x114;" horiz-adv-x="577" 
d="M92 700h421v-96h-315v-201h295v-93h-295v-214h325v-96h-431v700zM232 899q0 -32 21 -50.5t56 -18.5q34 0 54.5 18.5t20.5 50.5h88q0 -31 -11.5 -57t-33 -45t-52 -29t-67.5 -10t-67.5 10t-52 29t-33 45t-11.5 57h88z" />
    <glyph glyph-name="ebreve" unicode="&#x115;" 
d="M312 -8q-58 0 -106 19t-82.5 53.5t-54 81.5t-19.5 103v13q0 58 19.5 106.5t54.5 84t83 55t104 19.5h3q54 0 98.5 -17.5t76.5 -49.5t50 -76.5t18 -97.5v-62h-406q8 -63 53 -103t115 -40h2q51 0 92.5 21t64.5 52l64 -57q-37 -50 -98 -77.5t-128 -27.5h-4zM462 301
q-2 31 -14 57t-32 44.5t-47 29t-59 10.5h-1q-62 0 -103.5 -38.5t-51.5 -102.5h308zM239 720q0 -32 21 -50.5t56 -18.5q34 0 54.5 18.5t20.5 50.5h88q0 -31 -11.5 -57t-33 -45t-52 -29t-67.5 -10t-67 10t-51.5 29t-33 45t-11.5 57h87z" />
    <glyph glyph-name="Edotaccent" unicode="&#x116;" horiz-adv-x="577" 
d="M92 700h421v-96h-315v-201h295v-93h-295v-214h325v-96h-431v700zM306 785q-26 0 -43 16t-17 42q0 25 17 41.5t43 16.5q27 0 44.5 -16.5t17.5 -41.5q0 -26 -17.5 -42t-44.5 -16z" />
    <glyph glyph-name="edotaccent" unicode="&#x117;" 
d="M312 -8q-58 0 -106 19t-82.5 53.5t-54 81.5t-19.5 103v13q0 58 19.5 106.5t54.5 84t83 55t104 19.5h3q54 0 98.5 -17.5t76.5 -49.5t50 -76.5t18 -97.5v-62h-406q8 -63 53 -103t115 -40h2q51 0 92.5 21t64.5 52l64 -57q-37 -50 -98 -77.5t-128 -27.5h-4zM462 301
q-2 31 -14 57t-32 44.5t-47 29t-59 10.5h-1q-62 0 -103.5 -38.5t-51.5 -102.5h308zM316 614q-26 0 -43.5 16t-17.5 42q0 25 17.5 42t43.5 17q27 0 45 -17t18 -42q0 -26 -18 -42t-45 -16z" />
    <glyph glyph-name="Eogonek" unicode="&#x118;" horiz-adv-x="577" 
d="M92 700h421v-96h-315v-201h295v-93h-295v-214h325v-96h-431v700zM483 -174q-38 0 -61.5 20.5t-23.5 55.5q1 35 23 69t61 62l41 -33q-26 -23 -39.5 -43.5t-13.5 -40.5q0 -32 29 -32q6 0 12 2t11 4v-58q-18 -6 -39 -6z" />
    <glyph glyph-name="eogonek" unicode="&#x119;" 
d="M542 97q-25 -33 -59.5 -55.5t-73.5 -34.5q-32 -12 -55.5 -34.5t-23.5 -54.5q0 -34 28 -34q7 0 13 2t11 4v-58q-19 -6 -40 -6q-38 0 -61 20.5t-23 55.5q0 46 39 91q-55 2 -100.5 22t-78 54t-50.5 80t-18 100v13q0 58 19.5 106.5t54.5 84t83 55t105 19.5h3q53 0 98 -17.5
t77 -49.5t50 -76.5t18 -97.5v-62h-407q4 -31 17.5 -57.5t35.5 -45.5t51.5 -29.5t63.5 -10.5h2q51 0 93 21t64 52zM462 301q-2 31 -14 57t-32 44.5t-47 29t-59 10.5q-62 0 -103.5 -38.5t-52.5 -102.5h308z" />
    <glyph glyph-name="Ecaron" unicode="&#x11a;" horiz-adv-x="577" 
d="M92 700h421v-96h-315v-201h295v-93h-295v-214h325v-96h-431v700zM116 900h106l77 -62h18l77 62h106l-133 -123h-118z" />
    <glyph glyph-name="ecaron" unicode="&#x11b;" 
d="M312 -8q-58 0 -106 19t-82.5 53.5t-54 81.5t-19.5 103v13q0 58 19.5 106.5t54.5 84t83 55t104 19.5h3q54 0 98.5 -17.5t76.5 -49.5t50 -76.5t18 -97.5v-62h-406q8 -63 53 -103t115 -40h2q51 0 92.5 21t64.5 52l64 -57q-37 -50 -98 -77.5t-128 -27.5h-4zM462 301
q-2 31 -14 57t-32 44.5t-47 29t-59 10.5h-1q-62 0 -103.5 -38.5t-51.5 -102.5h308zM123 720h105l79 -71h18l78 71h105l-134 -132h-117z" />
    <glyph glyph-name="Gcircumflex" unicode="&#x11c;" horiz-adv-x="745" 
d="M375 -9q-73 0 -134 26.5t-105 74t-68.5 113t-24.5 143.5v4q0 77 25.5 142.5t71 113.5t108.5 75t137 27h1q95 0 165 -42.5t111 -110.5l-88 -55q-29 53 -73.5 82t-110.5 29h-2q-53 0 -96.5 -19.5t-74 -54t-47.5 -82.5t-17 -105v-5q0 -58 17 -105.5t48 -81.5t74.5 -53
t96.5 -19h1q45 0 81.5 12.5t61.5 35t38.5 53t13.5 66.5v17h-169v93h270v-365h-78q-6 13 -10 35t-6 42q-38 -40 -94 -63t-119 -23h-4zM331 900h118l133 -123h-106l-77 61h-18l-77 -61h-106z" />
    <glyph glyph-name="gcircumflex" unicode="&#x11d;" horiz-adv-x="561" 
d="M362 598l-77 60h-18l-76 -60h-106l133 122h117l132 -122h-105zM46 343q0 41 17 75t47 58.5t71.5 38t90.5 13.5h10q35 0 66.5 -7t57.5 -20q7 19 15.5 36.5t19.5 32.5h94l-63 -121q36 -45 36 -106v-8q0 -40 -17 -74t-47 -58.5t-71.5 -38t-90.5 -13.5h-10q-10 0 -19.5 0.5
t-18.5 1.5v-56q10 1 20.5 1h21.5h20q51 0 94.5 -10.5t75 -29.5t49 -46.5t17.5 -61.5v-10q0 -34 -18 -61t-49.5 -46t-75.5 -29.5t-95 -10.5h-16q-52 0 -95.5 10.5t-75 29.5t-49.5 46t-18 61v11q0 44 29.5 77t77.5 51v100q-47 24 -74 64.5t-27 91.5v8zM146 333q0 -22 10 -41
t27.5 -33t41 -21.5t51.5 -7.5h5q27 0 51 8t41 21.5t27 32.5t10 41v9q0 23 -10 41.5t-27 32.5t-41 21.5t-51 7.5h-5q-28 0 -51.5 -7.5t-41 -21t-27.5 -32.5t-10 -42v-9zM140 -56q0 -32 38.5 -51.5t100.5 -19.5h14q63 0 101.5 19.5t38.5 51.5v7q0 32 -39 52t-101 20h-14
q-62 0 -100.5 -20t-38.5 -52v-7z" />
    <glyph glyph-name="Gbreve" unicode="&#x11e;" horiz-adv-x="745" 
d="M375 -9q-73 0 -134 26.5t-105 74t-68.5 113t-24.5 143.5v4q0 77 25.5 142.5t71 113.5t108.5 75t137 27h1q95 0 165 -42.5t111 -110.5l-88 -55q-29 53 -73.5 82t-110.5 29h-2q-53 0 -96.5 -19.5t-74 -54t-47.5 -82.5t-17 -105v-5q0 -58 17 -105.5t48 -81.5t74.5 -53
t96.5 -19h1q45 0 81.5 12.5t61.5 35t38.5 53t13.5 66.5v17h-169v93h270v-365h-78q-6 13 -10 35t-6 42q-38 -40 -94 -63t-119 -23h-4zM316 899q0 -32 21 -50.5t56 -18.5q34 0 54.5 18.5t20.5 50.5h88q0 -31 -11.5 -57t-33 -45t-52 -29t-67.5 -10t-67.5 10t-52 29t-33 45
t-11.5 57h88z" />
    <glyph glyph-name="gbreve" unicode="&#x11f;" horiz-adv-x="561" 
d="M205 720q0 -29 20 -47t52 -18t52 18t20 47h88q0 -62 -43.5 -99.5t-116.5 -37.5t-116.5 37.5t-43.5 99.5h88zM46 343q0 41 17 75t47 58.5t71.5 38t90.5 13.5h10q35 0 66.5 -7t57.5 -20q14 41 36 70h93l-63 -122q36 -45 36 -106v-8q0 -40 -17 -74t-47 -58.5t-71.5 -38
t-90.5 -13.5h-10q-10 0 -19.5 0.5t-18.5 1.5v-56q10 1 20.5 1h21.5h20q51 0 94.5 -10.5t75 -29.5t49 -46.5t17.5 -61.5v-10q0 -34 -18 -61t-49.5 -46t-75.5 -29.5t-95 -10.5h-16q-52 0 -95.5 10.5t-75 29.5t-49.5 46t-18 61v11q0 44 29.5 77t77.5 51v100q-47 24 -74 64.5
t-27 91.5v8zM146 333q0 -22 10 -41t27.5 -33t41 -21.5t51.5 -7.5h5q27 0 51 8t41 21.5t27 32.5t10 41v9q0 23 -10 41.5t-27 32.5t-41 21.5t-51 7.5h-5q-28 0 -51.5 -7.5t-41 -21t-27.5 -32.5t-10 -42v-9zM140 -56q0 -32 38.5 -51.5t100.5 -19.5h14q63 0 101.5 19.5
t38.5 51.5v7q0 32 -39 52t-101 20h-14q-62 0 -100.5 -20t-38.5 -52v-7z" />
    <glyph glyph-name="Gdotaccent" unicode="&#x120;" horiz-adv-x="745" 
d="M375 -9q-73 0 -134 26.5t-105 74t-68.5 113t-24.5 143.5v4q0 77 25.5 142.5t71 113.5t108.5 75t137 27h1q95 0 165 -42.5t111 -110.5l-88 -55q-29 53 -73.5 82t-110.5 29h-2q-53 0 -96.5 -19.5t-74 -54t-47.5 -82.5t-17 -105v-5q0 -58 17 -105.5t48 -81.5t74.5 -53
t96.5 -19h1q45 0 81.5 12.5t61.5 35t38.5 53t13.5 66.5v17h-169v93h270v-365h-78q-6 13 -10 35t-6 42q-38 -40 -94 -63t-119 -23h-4zM390 785q-26 0 -43 16t-17 42q0 25 17 41.5t43 16.5q27 0 44.5 -16.5t17.5 -41.5q0 -26 -17.5 -42t-44.5 -16z" />
    <glyph glyph-name="gdotaccent" unicode="&#x121;" horiz-adv-x="561" 
d="M277 612q-26 0 -43.5 16t-17.5 42q0 25 17.5 42t43.5 17q27 0 45 -17t18 -42q0 -26 -18 -42t-45 -16zM46 343q0 41 17 75t47 58.5t71.5 38t90.5 13.5h10q35 0 66.5 -7t57.5 -20q14 41 36 70h93l-63 -122q36 -45 36 -106v-8q0 -40 -17 -74t-47 -58.5t-71.5 -38
t-90.5 -13.5h-10q-10 0 -19.5 0.5t-18.5 1.5v-56q10 1 20.5 1h21.5h20q51 0 94.5 -10.5t75 -29.5t49 -46.5t17.5 -61.5v-10q0 -34 -18 -61t-49.5 -46t-75.5 -29.5t-95 -10.5h-16q-52 0 -95.5 10.5t-75 29.5t-49.5 46t-18 61v11q0 44 29.5 77t77.5 51v100q-47 24 -74 64.5
t-27 91.5v8zM146 333q0 -22 10 -41t27.5 -33t41 -21.5t51.5 -7.5h5q27 0 51 8t41 21.5t27 32.5t10 41v9q0 23 -10 41.5t-27 32.5t-41 21.5t-51 7.5h-5q-28 0 -51.5 -7.5t-41 -21t-27.5 -32.5t-10 -42v-9zM140 -56q0 -32 38.5 -51.5t100.5 -19.5h14q63 0 101.5 19.5
t38.5 51.5v7q0 32 -39 52t-101 20h-14q-62 0 -100.5 -20t-38.5 -52v-7z" />
    <glyph glyph-name="uni0122" unicode="&#x122;" horiz-adv-x="745" 
d="M375 -9q-73 0 -134 26.5t-105 74t-68.5 113t-24.5 143.5v4q0 77 25.5 142.5t71 113.5t108.5 75t137 27h1q95 0 165 -42.5t111 -110.5l-88 -55q-29 53 -73.5 82t-110.5 29h-2q-53 0 -96.5 -19.5t-74 -54t-47.5 -82.5t-17 -105v-5q0 -58 17 -105.5t48 -81.5t74.5 -53
t96.5 -19h1q45 0 81.5 12.5t61.5 35t38.5 53t13.5 66.5v17h-169v93h270v-365h-78q-6 13 -10 35t-6 42q-38 -40 -94 -63t-119 -23h-4zM340 -41h89l-63 -147h-64z" />
    <glyph glyph-name="uni0123" unicode="&#x123;" horiz-adv-x="561" 
d="M321 710q-17 -9 -26 -22.5t-9 -27.5q20 -1 31.5 -14t11.5 -32q0 -20 -13.5 -34.5t-36.5 -14.5q-26 0 -41.5 18.5t-15.5 45.5q0 30 17.5 60.5t49.5 50.5zM46 343q0 41 17 75t47 58.5t71.5 38t90.5 13.5h10q35 0 66.5 -7t57.5 -20q14 41 36 70h93l-63 -122q36 -45 36 -106
v-8q0 -40 -17 -74t-47 -58.5t-71.5 -38t-90.5 -13.5h-10q-10 0 -19.5 0.5t-18.5 1.5v-56q10 1 20.5 1h21.5h20q51 0 94.5 -10.5t75 -29.5t49 -46.5t17.5 -61.5v-10q0 -34 -18 -61t-49.5 -46t-75.5 -29.5t-95 -10.5h-16q-52 0 -95.5 10.5t-75 29.5t-49.5 46t-18 61v11
q0 44 29.5 77t77.5 51v100q-47 24 -74 64.5t-27 91.5v8zM146 333q0 -22 10 -41t27.5 -33t41 -21.5t51.5 -7.5h5q27 0 51 8t41 21.5t27 32.5t10 41v9q0 23 -10 41.5t-27 32.5t-41 21.5t-51 7.5h-5q-28 0 -51.5 -7.5t-41 -21t-27.5 -32.5t-10 -42v-9zM140 -56
q0 -32 38.5 -51.5t100.5 -19.5h14q63 0 101.5 19.5t38.5 51.5v7q0 32 -39 52t-101 20h-14q-62 0 -100.5 -20t-38.5 -52v-7z" />
    <glyph glyph-name="Hcircumflex" unicode="&#x124;" horiz-adv-x="718" 
d="M92 700h106v-294h322v294h106v-700h-106v310h-322v-310h-106v700zM300 897h118l133 -123h-106l-77 61h-18l-77 -61h-106z" />
    <glyph glyph-name="hcircumflex" unicode="&#x125;" horiz-adv-x="629" 
d="M209 776l-68 62h-18l-68 -62h-103l124 124h112l124 -124h-103zM82 720h99v-271q35 38 84 59t107 21q90 0 137 -50.5t47 -146.5v-332h-99v313q0 125 -118 125q-72 0 -115 -40t-43 -107v-291h-99v720z" />
    <glyph glyph-name="Hbar" unicode="&#x126;" horiz-adv-x="718" 
d="M91 700h106v-104h322v104h106v-700h-106v310h-322v-310h-106v700zM519 406v112h-322v-112h322z" />
    <glyph glyph-name="hbar" unicode="&#x127;" horiz-adv-x="621" 
d="M83 592h-67v72h67v56h99v-56h162v-72h-162v-148q33 35 79 55.5t101 20.5h3q94 0 141.5 -51t47.5 -146v-323h-99v304q0 62 -27.5 93.5t-87.5 31.5h-4q-70 0 -112 -38t-42 -108v-283h-99v592z" />
    <glyph glyph-name="Itilde" unicode="&#x128;" horiz-adv-x="290" 
d="M92 700h106v-700h-106v700zM-52 838q21 31 52 47.5t66 16.5q24 0 46 -7t46 -18q19 -8 37.5 -15t38.5 -7q23 0 41 9.5t29 26.5l37 -50q-19 -31 -48.5 -47.5t-64.5 -16.5q-23 0 -45 7t-47 18q-20 9 -39 15.5t-39 6.5q-23 0 -43 -10t-31 -27z" />
    <glyph glyph-name="itilde" unicode="&#x129;" horiz-adv-x="264" 
d="M206 605q-20 0 -38 5.5t-35 13.5q-17 6 -32 11.5t-32 5.5q-20 0 -36 -9t-25 -25l-45 53q17 26 42.5 39t55.5 13q21 0 39.5 -5.5t35.5 -13.5q16 -7 30.5 -12t29.5 -5q18 0 34 8.5t26 25.5l45 -53q-17 -26 -41.5 -39t-53.5 -13zM82 520h99v-520h-99v520z" />
    <glyph glyph-name="Imacron" unicode="&#x12a;" horiz-adv-x="290" 
d="M92 700h106v-700h-106v700zM4 885h282v-76h-282v76z" />
    <glyph glyph-name="imacron" unicode="&#x12b;" horiz-adv-x="261" 
d="M5 704h251v-78h-251v78zM81 520h99v-520h-99v520z" />
    <glyph glyph-name="Ibreve" unicode="&#x12c;" horiz-adv-x="290" 
d="M92 700h106v-700h-106v700zM70 899q0 -32 21 -50.5t56 -18.5q34 0 54.5 18.5t20.5 50.5h88q0 -31 -11.5 -57t-33 -45t-52 -29t-67.5 -10t-67.5 10t-52 29t-33 45t-11.5 57h88z" />
    <glyph glyph-name="ibreve" unicode="&#x12d;" horiz-adv-x="265" 
d="M132 655q26 0 41.5 18t15.5 47h87q1 -62 -38.5 -99.5t-105.5 -37.5t-105 37.5t-39 99.5h88q0 -29 15 -47t41 -18zM83 520h99v-520h-99v520z" />
    <glyph glyph-name="Iogonek" unicode="&#x12e;" horiz-adv-x="290" 
d="M92 700h106v-700h-106v700zM158 -174q-38 0 -61.5 20.5t-23.5 55.5q1 35 23 69t61 62l41 -33q-26 -23 -39.5 -43.5t-13.5 -40.5q0 -32 29 -32q6 0 12 2t11 4v-58q-18 -6 -39 -6z" />
    <glyph glyph-name="iogonek" unicode="&#x12f;" horiz-adv-x="264" 
d="M132 611q-27 0 -44 16t-17 42q0 25 17 42t44 17t44.5 -17t17.5 -42q0 -26 -17.5 -42t-44.5 -16zM83 520h99v-520h-99v520zM141 -174q-38 0 -61.5 20.5t-23.5 55.5q1 35 23 69t61 62l41 -33q-26 -23 -39.5 -43.5t-13.5 -40.5q0 -32 29 -32q6 0 12 2t11 4v-58
q-18 -6 -39 -6z" />
    <glyph glyph-name="Idotaccent" unicode="&#x130;" horiz-adv-x="290" 
d="M92 700h106v-700h-106v700zM144 785q-26 0 -43 16t-17 42q0 25 17 41.5t43 16.5q27 0 44.5 -16.5t17.5 -41.5q0 -26 -17.5 -42t-44.5 -16z" />
    <glyph glyph-name="dotlessi" unicode="&#x131;" horiz-adv-x="264" 
d="M82 520h99v-520h-99v520z" />
    <glyph glyph-name="IJ" unicode="&#x132;" horiz-adv-x="653" 
d="M387 -7q-57 0 -101 19v101q16 -10 36.5 -16.5t44.5 -6.5q57 0 83 29.5t26 80.5v500h105v-505q0 -94 -49 -148t-145 -54zM92 700h105v-700h-105v700z" />
    <glyph glyph-name="ij" unicode="&#x133;" horiz-adv-x="533" 
d="M131 611q-26 0 -43.5 16t-17.5 42q0 25 17.5 42t43.5 17q27 0 45 -17t18 -42q0 -26 -18 -42t-45 -16zM401 611q-26 0 -43.5 16t-17.5 42q0 25 17.5 42t43.5 17q27 0 45 -17t18 -42q0 -26 -18 -42t-45 -16zM314 -197q-21 0 -47 4t-47 14v85q26 -12 57 -12q38 0 56.5 18
t18.5 68v540h99v-559q0 -78 -37 -118t-100 -40zM82 520h99v-520h-99v520z" />
    <glyph glyph-name="Jcircumflex" unicode="&#x134;" horiz-adv-x="417" 
d="M139 -7q-56 0 -102 19v101q17 -10 37 -16.5t45 -6.5q58 0 84 29.5t26 80.5v500h106v-505q0 -94 -49.5 -148t-146.5 -54zM223 897h118l133 -123h-106l-77 61h-18l-77 -61h-106z" />
    <glyph glyph-name="jcircumflex" unicode="&#x135;" horiz-adv-x="287" 
d="M232 596l-69 62h-18l-68 -62h-102l124 124h111l124 -124h-102zM67 -197q-21 0 -47 4t-47 14v85q25 -12 57 -12q38 0 56.5 18t18.5 68v540h99v-559q0 -78 -37 -118t-100 -40z" />
    <glyph glyph-name="uni0136" unicode="&#x136;" horiz-adv-x="650" 
d="M92 700h106v-305h5l286 305h128l-311 -322l340 -378h-136l-307 345h-5v-345h-106v700zM304 -36h89l-63 -147h-64z" />
    <glyph glyph-name="uni0137" unicode="&#x137;" horiz-adv-x="551" 
d="M82 720h99v-423h7l230 223h116l-253 -242l264 -278h-125l-232 252h-7v-252h-99v720zM257 -36h89l-63 -147h-64z" />
    <glyph glyph-name="kgreenlandic" unicode="&#x138;" horiz-adv-x="551" 
d="M82 520h99v-223h7l230 223h116l-253 -242l264 -278h-125l-232 252h-7v-252h-99v520z" />
    <glyph glyph-name="Lacute" unicode="&#x139;" horiz-adv-x="539" 
d="M92 700h106v-604h304v-96h-410v700zM186 760h-81l48 141h100z" />
    <glyph glyph-name="lacute" unicode="&#x13a;" horiz-adv-x="264" 
d="M82 720h99v-720h-99v720zM172 761h-81l48 141h100z" />
    <glyph glyph-name="uni013B" unicode="&#x13b;" horiz-adv-x="539" 
d="M92 700h106v-604h304v-96h-410v700zM258 -36h89l-63 -147h-64z" />
    <glyph glyph-name="uni013C" unicode="&#x13c;" horiz-adv-x="264" 
d="M82 720h99v-720h-99v720zM93 -36h89l-63 -147h-64z" />
    <glyph glyph-name="Lcaron" unicode="&#x13d;" horiz-adv-x="539" 
d="M92 700h106v-604h304v-96h-410v700zM316 700h92l-36 -161h-68z" />
    <glyph glyph-name="lcaron" unicode="&#x13e;" horiz-adv-x="298" 
d="M82 720h99v-720h-99v720zM266 720h92l-36 -161h-68z" />
    <glyph glyph-name="Ldot" unicode="&#x13f;" horiz-adv-x="544" 
d="M92 700h106v-604h304v-96h-410v700zM400 308q-27 0 -44 16t-17 42t17 42.5t44 16.5t44.5 -16.5t17.5 -42.5t-17.5 -42t-44.5 -16z" />
    <glyph glyph-name="ldot" unicode="&#x140;" horiz-adv-x="380" 
d="M81 720h99v-720h-99v720zM317 308q-26 0 -43.5 16t-17.5 42t17.5 42.5t43.5 16.5q27 0 45 -16.5t18 -42.5t-18 -42t-45 -16z" />
    <glyph glyph-name="Lslash" unicode="&#x141;" horiz-adv-x="547" 
d="M20 365l80 29v306h106v-268l162 58v-88l-162 -59v-247h304v-96h-410v305l-80 -29v89z" />
    <glyph glyph-name="lslash" unicode="&#x142;" horiz-adv-x="343" 
d="M32 344l90 49v327h99v-273l90 49v-85l-90 -49v-362h-99v308l-90 -49v85z" />
    <glyph glyph-name="Nacute" unicode="&#x143;" horiz-adv-x="730" 
d="M92 700h120l314 -531h9v531h103v-700h-112l-321 544h-9v-544h-104v700zM406 763h-81l48 141h100z" />
    <glyph glyph-name="nacute" unicode="&#x144;" horiz-adv-x="630" 
d="M82 520h78q6 -15 10 -37t6 -39q35 42 84 63.5t104 21.5h3q94 0 141.5 -51t47.5 -146v-332h-99v313q0 60 -27 92.5t-89 32.5h-5q-69 0 -112 -41t-43 -110v-287h-99v520zM277 581l55 146h98l-75 -146h-78z" />
    <glyph glyph-name="uni0145" unicode="&#x145;" horiz-adv-x="730" 
d="M92 700h120l314 -531h9v531h103v-700h-112l-321 544h-9v-544h-104v700zM326 -36h89l-63 -147h-64z" />
    <glyph glyph-name="uni0146" unicode="&#x146;" horiz-adv-x="630" 
d="M82 520h78q6 -15 10 -37t6 -39q35 42 84 63.5t104 21.5h3q94 0 141.5 -51t47.5 -146v-332h-99v313q0 60 -27 92.5t-89 32.5h-5q-69 0 -112 -41t-43 -110v-287h-99v520zM279 -36h89l-63 -147h-64z" />
    <glyph glyph-name="Ncaron" unicode="&#x147;" horiz-adv-x="730" 
d="M92 700h120l314 -531h9v531h103v-700h-112l-321 544h-9v-544h-104v700zM174 900h106l77 -62h18l77 62h106l-133 -123h-118z" />
    <glyph glyph-name="ncaron" unicode="&#x148;" horiz-adv-x="630" 
d="M82 520h78q6 -15 10 -37t6 -39q35 42 84 63.5t104 21.5h3q94 0 141.5 -51t47.5 -146v-332h-99v313q0 60 -27 92.5t-89 32.5h-5q-69 0 -112 -41t-43 -110v-287h-99v520zM125 720h105l79 -71h18l78 71h105l-134 -132h-117z" />
    <glyph glyph-name="napostrophe" unicode="&#x149;" horiz-adv-x="694" 
d="M146 520h78q6 -15 10 -37t6 -39q35 42 84 63.5t104 21.5h3q94 0 141.5 -51t47.5 -146v-332h-99v313q0 60 -27 92.5t-89 32.5h-5q-69 0 -112 -41t-43 -110v-287h-99v520zM64 700h101l-107 -263h-80z" />
    <glyph glyph-name="Eng" unicode="&#x14a;" horiz-adv-x="747" 
d="M461 -197q-29 0 -54.5 5.5t-46.5 13.5v102q17 -11 37 -17t44 -6q55 0 80.5 26.5t27.5 73.5l-346 537h-6v-538h-105v700h121l331 -519h6v519h105v-700q0 -92 -49.5 -144.5t-144.5 -52.5z" />
    <glyph glyph-name="eng" unicode="&#x14b;" horiz-adv-x="639" 
d="M419 -197q-21 0 -47 4t-46 14v85q24 -12 56 -12q38 0 56.5 18t18.5 68v333q0 60 -27 92.5t-89 32.5h-5q-69 0 -112 -41t-43 -110v-287h-99v520h78q6 -15 10 -37t6 -39q33 40 82 62.5t106 22.5h3q94 0 141.5 -51t47.5 -146v-371q0 -78 -37 -118t-100 -40z" />
    <glyph glyph-name="Omacron" unicode="&#x14c;" horiz-adv-x="772" 
d="M43 353q0 77 25.5 142.5t70.5 113.5t107.5 75t136.5 27h5q74 0 136.5 -27t108 -75t71 -113.5t25.5 -142.5v-6q0 -77 -25.5 -142.5t-71 -113t-108 -74.5t-136.5 -27h-5q-74 0 -136.5 27t-107.5 74.5t-70.5 113t-25.5 142.5v6zM153 347q0 -57 17 -105t47.5 -82t73.5 -53
t94 -19h4q51 0 93 19t72.5 53t47.5 82t17 105v6q0 57 -17 105t-47.5 82.5t-73 53.5t-93.5 19h-4q-51 0 -93.5 -19t-73 -53.5t-47.5 -82.5t-17 -105v-6zM246 885h282v-76h-282v76z" />
    <glyph glyph-name="omacron" unicode="&#x14d;" horiz-adv-x="642" 
d="M318 -8q-59 0 -108 19.5t-84.5 54.5t-55.5 83t-20 106v10q0 58 20 106t55.5 83t84.5 54.5t108 19.5h6q59 0 108 -19.5t84 -54.5t55 -83t20 -106v-10q0 -58 -20 -106t-55 -83t-84 -54.5t-108 -19.5h-6zM322 78q37 0 67.5 13t52.5 36.5t34 56.5t12 72v8q0 39 -12 72
t-34 56.5t-52.5 36.5t-67.5 13h-3q-36 0 -66.5 -13t-52.5 -36.5t-34 -56.5t-12 -72v-8q0 -39 12 -72t34 -56.5t52.5 -36.5t66.5 -13h3zM180 710h282v-78h-282v78z" />
    <glyph glyph-name="Obreve" unicode="&#x14e;" horiz-adv-x="772" 
d="M43 353q0 77 25.5 142.5t70.5 113.5t107.5 75t136.5 27h5q74 0 136.5 -27t108 -75t71 -113.5t25.5 -142.5v-6q0 -77 -25.5 -142.5t-71 -113t-108 -74.5t-136.5 -27h-5q-74 0 -136.5 27t-107.5 74.5t-70.5 113t-25.5 142.5v6zM153 347q0 -57 17 -105t47.5 -82t73.5 -53
t94 -19h4q51 0 93 19t72.5 53t47.5 82t17 105v6q0 57 -17 105t-47.5 82.5t-73 53.5t-93.5 19h-4q-51 0 -93.5 -19t-73 -53.5t-47.5 -82.5t-17 -105v-6zM312 899q0 -32 21 -50.5t56 -18.5q34 0 54.5 18.5t20.5 50.5h88q0 -31 -11.5 -57t-33 -45t-52 -29t-67.5 -10t-67.5 10
t-52 29t-33 45t-11.5 57h88z" />
    <glyph glyph-name="obreve" unicode="&#x14f;" horiz-adv-x="642" 
d="M318 -8q-59 0 -108 19.5t-84.5 54.5t-55.5 83t-20 106v10q0 58 20 106t55.5 83t84.5 54.5t108 19.5h6q59 0 108 -19.5t84 -54.5t55 -83t20 -106v-10q0 -58 -20 -106t-55 -83t-84 -54.5t-108 -19.5h-6zM322 78q37 0 67.5 13t52.5 36.5t34 56.5t12 72v8q0 39 -12 72
t-34 56.5t-52.5 36.5t-67.5 13h-3q-36 0 -66.5 -13t-52.5 -36.5t-34 -56.5t-12 -72v-8q0 -39 12 -72t34 -56.5t52.5 -36.5t66.5 -13h3zM244 720q0 -32 21 -50.5t56 -18.5q34 0 54.5 18.5t20.5 50.5h88q0 -31 -11.5 -57t-33 -45t-52 -29t-67.5 -10t-67 10t-51.5 29t-33 45
t-11.5 57h87z" />
    <glyph glyph-name="Ohungarumlaut" unicode="&#x150;" horiz-adv-x="772" 
d="M43 353q0 77 25.5 142.5t70.5 113.5t107.5 75t136.5 27h5q74 0 136.5 -27t108 -75t71 -113.5t25.5 -142.5v-6q0 -77 -25.5 -142.5t-71 -113t-108 -74.5t-136.5 -27h-5q-74 0 -136.5 27t-107.5 74.5t-70.5 113t-25.5 142.5v6zM153 347q0 -57 17 -105t47.5 -82t73.5 -53
t94 -19h4q51 0 93 19t72.5 53t47.5 82t17 105v6q0 57 -17 105t-47.5 82.5t-73 53.5t-93.5 19h-4q-51 0 -93.5 -19t-73 -53.5t-47.5 -82.5t-17 -105v-6zM266 762l48 141h101l-68 -141h-81zM421 762l48 141h101l-68 -141h-81z" />
    <glyph glyph-name="ohungarumlaut" unicode="&#x151;" horiz-adv-x="642" 
d="M318 -8q-59 0 -108 19.5t-84.5 54.5t-55.5 83t-20 106v10q0 58 20 106t55.5 83t84.5 54.5t108 19.5h6q59 0 108 -19.5t84 -54.5t55 -83t20 -106v-10q0 -58 -20 -106t-55 -83t-84 -54.5t-108 -19.5h-6zM322 78q37 0 67.5 13t52.5 36.5t34 56.5t12 72v8q0 39 -12 72
t-34 56.5t-52.5 36.5t-67.5 13h-3q-36 0 -66.5 -13t-52.5 -36.5t-34 -56.5t-12 -72v-8q0 -39 12 -72t34 -56.5t52.5 -36.5t66.5 -13h3zM248 729h97l-65 -145h-78zM402 729h97l-64 -145h-79z" />
    <glyph glyph-name="OE" unicode="&#x152;" horiz-adv-x="943" 
d="M480 0q-20 -5 -41.5 -7.5t-44.5 -2.5h-4q-76 0 -139.5 27t-109.5 74.5t-72 113t-26 142.5v6q0 77 26 142.5t72 113.5t109.5 75t139.5 27h4q45 0 89 -11h395v-94h-295v-203h275v-93h-275v-216h305v-94h-408zM480 597q-40 16 -86 16h-4q-53 0 -96.5 -19t-75 -53.5
t-48.5 -82.5t-17 -105v-6q0 -57 17 -104.5t48.5 -82t75.5 -53.5t98 -19h4q47 0 84 15v494z" />
    <glyph glyph-name="oe" unicode="&#x153;" horiz-adv-x="1005" 
d="M718 -8q-67 0 -119.5 27t-84.5 75q-33 -48 -85.5 -75t-118.5 -27h-5q-56 0 -103 19.5t-80.5 54.5t-52.5 83t-19 106v10q0 58 19 106t52.5 83t80.5 54.5t103 19.5h5q67 0 120 -27.5t86 -77.5q32 49 84 76.5t117 27.5h4q51 0 94 -17.5t74 -49.5t48 -76.5t17 -97.5v-62h-388
q8 -63 53 -103t113 -40h3q45 0 81.5 21t58.5 52l64 -57q-36 -50 -94.5 -77.5t-122.5 -27.5h-4zM310 78q34 0 62.5 13t49 36.5t32 56.5t11.5 72v8q0 39 -11.5 72t-32 56.5t-49 36.5t-62.5 13h-3q-34 0 -63 -13t-49.5 -36.5t-32 -56.5t-11.5 -72v-8q0 -39 11.5 -72t32 -56.5
t49.5 -36.5t63 -13h3zM861 301q-2 32 -13.5 57.5t-30.5 44.5t-44.5 29t-55.5 10h-1q-59 0 -98.5 -38t-49.5 -103h293z" />
    <glyph glyph-name="Racute" unicode="&#x154;" horiz-adv-x="656" 
d="M92 700h254q115 0 179 -56t64 -156v-10q0 -69 -34 -119t-95 -73l178 -286h-128l-156 263h-156v-263h-106v700zM337 353q72 0 108 32t36 90v10q0 58 -36.5 89.5t-107.5 31.5h-141v-253h141zM363 763h-81l48 141h100z" />
    <glyph glyph-name="racute" unicode="&#x155;" horiz-adv-x="379" 
d="M82 520h79q5 -14 9 -34t6 -38q30 34 72.5 53t96.5 19h9v-99q-13 5 -27 5q-70 0 -108 -39.5t-38 -108.5v-278h-99v520zM176 581l55 146h98l-75 -146h-78z" />
    <glyph glyph-name="uni0156" unicode="&#x156;" horiz-adv-x="656" 
d="M92 700h254q115 0 179 -56t64 -156v-10q0 -69 -34 -119t-95 -73l178 -286h-128l-156 263h-156v-263h-106v700zM337 353q72 0 108 32t36 90v10q0 58 -36.5 89.5t-107.5 31.5h-141v-253h141zM308 -36h89l-63 -147h-64z" />
    <glyph glyph-name="uni0157" unicode="&#x157;" horiz-adv-x="379" 
d="M82 520h79q5 -14 9 -34t6 -38q30 34 72.5 53t96.5 19h9v-99q-13 5 -27 5q-70 0 -108 -39.5t-38 -108.5v-278h-99v520zM93 -36h89l-63 -147h-64z" />
    <glyph glyph-name="Rcaron" unicode="&#x158;" horiz-adv-x="656" 
d="M92 700h254q115 0 179 -56t64 -156v-10q0 -69 -34 -119t-95 -73l178 -286h-128l-156 263h-156v-263h-106v700zM337 353q72 0 108 32t36 90v10q0 58 -36.5 89.5t-107.5 31.5h-141v-253h141zM131 900h106l77 -62h18l77 62h106l-133 -123h-118z" />
    <glyph glyph-name="rcaron" unicode="&#x159;" horiz-adv-x="379" 
d="M82 520h79q5 -14 9 -34t6 -38q30 34 72.5 53t96.5 19h9v-99q-13 5 -27 5q-70 0 -108 -39.5t-38 -108.5v-278h-99v520zM25 720h105l79 -71h18l78 71h105l-134 -132h-117z" />
    <glyph glyph-name="Sacute" unicode="&#x15a;" horiz-adv-x="595" 
d="M304 -11q-73 0 -144 25t-125 77l60 82q42 -43 99 -64t116 -21q65 0 103 26t38 72q0 28 -14 47.5t-37.5 33t-54 23.5t-63.5 20q-41 12 -82 27t-73.5 38.5t-53 57.5t-20.5 84q0 48 19.5 84.5t51.5 61t74.5 36.5t87.5 12q72 0 136 -23.5t109 -65.5l-61 -80q-35 35 -85.5 52
t-98.5 17q-60 0 -94 -24.5t-34 -66.5q0 -24 13 -41.5t35.5 -30.5t52.5 -23t63 -20q42 -12 84.5 -27.5t76 -39.5t55 -59t21.5 -86q0 -50 -20.5 -88.5t-55.5 -64t-81.5 -38.5t-97.5 -13zM334 763h-81l48 141h100z" />
    <glyph glyph-name="sacute" unicode="&#x15b;" horiz-adv-x="504" 
d="M264 -9q-66 0 -127 19.5t-107 57.5l53 73q40 -31 87 -47t96 -16q51 0 78.5 17.5t27.5 49.5q0 20 -11.5 33t-32 22t-48.5 16.5t-61 16.5q-31 8 -61 17.5t-54 25.5t-38.5 40t-14.5 60q0 35 13.5 63.5t39 48.5t61 30.5t78.5 10.5q54 0 108.5 -17t95.5 -48l-48 -74
q-32 24 -76.5 38t-85.5 14q-45 0 -67.5 -16.5t-22.5 -42.5q0 -28 29.5 -43.5t99.5 -32.5q34 -8 68.5 -18t62.5 -27.5t45.5 -44t17.5 -67.5q0 -37 -15 -66.5t-42 -50t-65 -31.5t-84 -11zM205 581l55 146h98l-75 -146h-78z" />
    <glyph glyph-name="Scircumflex" unicode="&#x15c;" horiz-adv-x="595" 
d="M304 -11q-73 0 -144 25t-125 77l60 82q42 -43 99 -64t116 -21q65 0 103 26t38 72q0 28 -14 47.5t-37.5 33t-54 23.5t-63.5 20q-41 12 -82 27t-73.5 38.5t-53 57.5t-20.5 84q0 48 19.5 84.5t51.5 61t74.5 36.5t87.5 12q72 0 136 -23.5t109 -65.5l-61 -80q-35 35 -85.5 52
t-98.5 17q-60 0 -94 -24.5t-34 -66.5q0 -24 13 -41.5t35.5 -30.5t52.5 -23t63 -20q42 -12 84.5 -27.5t76 -39.5t55 -59t21.5 -86q0 -50 -20.5 -88.5t-55.5 -64t-81.5 -38.5t-97.5 -13zM234 900h118l133 -123h-106l-77 61h-18l-77 -61h-106z" />
    <glyph glyph-name="scircumflex" unicode="&#x15d;" horiz-adv-x="504" 
d="M264 -9q-66 0 -127 19.5t-107 57.5l53 73q40 -31 87 -47t96 -16q51 0 78.5 17.5t27.5 49.5q0 20 -11.5 33t-32 22t-48.5 16.5t-61 16.5q-31 8 -61 17.5t-54 25.5t-38.5 40t-14.5 60q0 35 13.5 63.5t39 48.5t61 30.5t78.5 10.5q54 0 108.5 -17t95.5 -48l-48 -74
q-32 24 -76.5 38t-85.5 14q-45 0 -67.5 -16.5t-22.5 -42.5q0 -28 29.5 -43.5t99.5 -32.5q34 -8 68.5 -18t62.5 -27.5t45.5 -44t17.5 -67.5q0 -37 -15 -66.5t-42 -50t-65 -31.5t-84 -11zM334 596l-78 62h-18l-79 -62h-105l134 124h117l134 -124h-105z" />
    <glyph glyph-name="Scedilla" unicode="&#x15e;" horiz-adv-x="595" 
d="M304 -11q-73 0 -144 25t-125 77l60 82q42 -43 99 -64t116 -21q65 0 103 26t38 72q0 28 -14 47.5t-37.5 33t-54 23.5t-63.5 20q-41 12 -82 27t-73.5 38.5t-53 57.5t-20.5 84q0 48 19.5 84.5t51.5 61t74.5 36.5t87.5 12q72 0 136 -23.5t109 -65.5l-61 -80q-35 35 -85.5 52
t-98.5 17q-60 0 -94 -24.5t-34 -66.5q0 -24 13 -41.5t35.5 -30.5t52.5 -23t63 -20q42 -12 84.5 -27.5t76 -39.5t55 -59t21.5 -86q0 -50 -20.5 -88.5t-55.5 -64t-81.5 -38.5t-97.5 -13zM261 -174q-24 0 -45 6l8 58q13 -5 26 -5q17 0 24.5 7t7.5 17q0 14 -11 23t-34 9l23 59
h62l-16 -33q23 -8 36 -23.5t13 -40.5q0 -14 -6.5 -27.5t-18.5 -24.5t-29.5 -18t-39.5 -7z" />
    <glyph glyph-name="scedilla" unicode="&#x15f;" horiz-adv-x="504" 
d="M264 -9q-66 0 -127 19.5t-107 57.5l53 73q40 -31 87 -47t96 -16q51 0 78.5 17.5t27.5 49.5q0 20 -11.5 33t-32 22t-48.5 16.5t-61 16.5q-31 8 -61 17.5t-54 25.5t-38.5 40t-14.5 60q0 35 13.5 63.5t39 48.5t61 30.5t78.5 10.5q54 0 108.5 -17t95.5 -48l-48 -74
q-32 24 -76.5 38t-85.5 14q-45 0 -67.5 -16.5t-22.5 -42.5q0 -28 29.5 -43.5t99.5 -32.5q34 -8 68.5 -18t62.5 -27.5t45.5 -44t17.5 -67.5q0 -37 -15 -66.5t-42 -50t-65 -31.5t-84 -11zM222 -174q-24 0 -45 6l8 58q13 -5 26 -5q17 0 24.5 7t7.5 17q0 14 -11 23t-34 9l23 59
h62l-16 -33q23 -8 36 -23.5t13 -40.5q0 -14 -6.5 -27.5t-18.5 -24.5t-29.5 -18t-39.5 -7z" />
    <glyph glyph-name="Scaron" unicode="&#x160;" horiz-adv-x="595" 
d="M304 -11q-73 0 -144 25t-125 77l60 82q42 -43 99 -64t116 -21q65 0 103 26t38 72q0 28 -14 47.5t-37.5 33t-54 23.5t-63.5 20q-41 12 -82 27t-73.5 38.5t-53 57.5t-20.5 84q0 48 19.5 84.5t51.5 61t74.5 36.5t87.5 12q72 0 136 -23.5t109 -65.5l-61 -80q-35 35 -85.5 52
t-98.5 17q-60 0 -94 -24.5t-34 -66.5q0 -24 13 -41.5t35.5 -30.5t52.5 -23t63 -20q42 -12 84.5 -27.5t76 -39.5t55 -59t21.5 -86q0 -50 -20.5 -88.5t-55.5 -64t-81.5 -38.5t-97.5 -13zM102 900h106l77 -62h18l77 62h106l-133 -123h-118z" />
    <glyph glyph-name="scaron" unicode="&#x161;" horiz-adv-x="504" 
d="M264 -9q-66 0 -127 19.5t-107 57.5l53 73q40 -31 87 -47t96 -16q51 0 78.5 17.5t27.5 49.5q0 20 -11.5 33t-32 22t-48.5 16.5t-61 16.5q-31 8 -61 17.5t-54 25.5t-38.5 40t-14.5 60q0 35 13.5 63.5t39 48.5t61 30.5t78.5 10.5q54 0 108.5 -17t95.5 -48l-48 -74
q-32 24 -76.5 38t-85.5 14q-45 0 -67.5 -16.5t-22.5 -42.5q0 -28 29.5 -43.5t99.5 -32.5q34 -8 68.5 -18t62.5 -27.5t45.5 -44t17.5 -67.5q0 -37 -15 -66.5t-42 -50t-65 -31.5t-84 -11zM54 720h105l79 -71h18l78 71h105l-134 -132h-117z" />
    <glyph glyph-name="uni0162" unicode="&#x162;" horiz-adv-x="539" 
d="M217 604h-204v96h513v-96h-204v-604h-105v604zM230 -174q-24 0 -45 6l8 58q13 -5 26 -5q17 0 24.5 7t7.5 17q0 14 -11 23t-34 9l23 59h62l-16 -33q23 -8 36 -23.5t13 -40.5q0 -14 -6.5 -27.5t-18.5 -24.5t-29.5 -18t-39.5 -7z" />
    <glyph glyph-name="uni0163" unicode="&#x163;" horiz-adv-x="395" 
d="M248 -4q-69 0 -112.5 34.5t-43.5 115.5v289h-69v69q15 5 33.5 9t35.5 6v121l99 13v-133h169v-85h-169v-271q0 -45 21 -62t59 -17q10 0 23 1t26.5 2.5t26 3.5t20.5 4v-82q-10 -4 -24.5 -7.5t-31 -6t-33 -3.5t-30.5 -1zM206 -174q-24 0 -45 6l8 58q13 -5 26 -5q17 0 24.5 7
t7.5 17q0 14 -11 23t-34 9l23 59h62l-16 -33q23 -8 36 -23.5t13 -40.5q0 -14 -6.5 -27.5t-18.5 -24.5t-29.5 -18t-39.5 -7z" />
    <glyph glyph-name="Tcaron" unicode="&#x164;" horiz-adv-x="539" 
d="M217 604h-204v96h513v-96h-204v-604h-105v604zM78 900h106l77 -62h18l77 62h106l-133 -123h-118z" />
    <glyph glyph-name="tcaron" unicode="&#x165;" horiz-adv-x="399" 
d="M248 -4q-69 0 -112.5 34.5t-43.5 115.5v289h-69v69q15 5 33.5 9t35.5 6v121l99 13v-133h169v-85h-169v-271q0 -45 21 -62t59 -17q10 0 23 1t26.5 2.5t26 3.5t20.5 4v-82q-10 -4 -24.5 -7.5t-31 -6t-33 -3.5t-30.5 -1zM304 721h92l-36 -161h-68z" />
    <glyph glyph-name="Tbar" unicode="&#x166;" horiz-adv-x="535" 
d="M98 395h117v209h-204v96h513v-96h-204v-209h116v-78h-116v-317h-105v317h-117v78z" />
    <glyph glyph-name="tbar" unicode="&#x167;" horiz-adv-x="392" 
d="M32 328h59v107h-69v69q15 5 33.5 9t35.5 6v121l99 13v-133h169v-85h-169v-107h147v-75h-147v-89q0 -45 21 -62t59 -17q10 0 23 1t26.5 2.5t26 3.5t20.5 4v-82q-10 -4 -24.5 -7.5t-31 -6t-33 -3.5t-30.5 -1q-69 0 -112.5 34.5t-43.5 115.5v107h-59v75z" />
    <glyph glyph-name="Utilde" unicode="&#x168;" horiz-adv-x="717" 
d="M359 -10q-64 0 -115.5 18t-87.5 52.5t-55 85.5t-19 116v438h106v-429q0 -88 45.5 -134.5t125.5 -46.5t125 46.5t45 134.5v429h106v-438q0 -66 -19.5 -116.5t-55.5 -85t-87 -52.5t-114 -18zM162 838q21 31 52 47.5t66 16.5q24 0 46 -7t46 -18q19 -8 37.5 -15t38.5 -7
q23 0 41 9.5t29 26.5l37 -50q-19 -31 -48.5 -47.5t-64.5 -16.5q-23 0 -45 7t-47 18q-20 9 -39 15.5t-39 6.5q-23 0 -43 -10t-31 -27z" />
    <glyph glyph-name="utilde" unicode="&#x169;" horiz-adv-x="621" 
d="M258 -9q-92 0 -138.5 50.5t-46.5 145.5v333h99v-314q0 -60 26.5 -92t85.5 -32h3q68 0 110.5 40.5t42.5 111.5v286h99v-520h-78q-6 14 -10 36t-6 39q-33 -39 -80 -61.5t-104 -22.5h-3zM106 660q20 31 51.5 47.5t66.5 16.5q24 0 45.5 -7.5t45.5 -18.5q20 -8 38.5 -14.5
t38.5 -6.5q23 0 41 9.5t29 26.5l37 -50q-19 -31 -48.5 -47.5t-64.5 -16.5q-24 0 -45.5 7t-46.5 18q-20 8 -39 14.5t-39 6.5q-23 0 -43 -9.5t-31 -26.5z" />
    <glyph glyph-name="Umacron" unicode="&#x16a;" horiz-adv-x="717" 
d="M359 -10q-64 0 -115.5 18t-87.5 52.5t-55 85.5t-19 116v438h106v-429q0 -88 45.5 -134.5t125.5 -46.5t125 46.5t45 134.5v429h106v-438q0 -66 -19.5 -116.5t-55.5 -85t-87 -52.5t-114 -18zM218 885h282v-76h-282v76z" />
    <glyph glyph-name="umacron" unicode="&#x16b;" horiz-adv-x="621" 
d="M258 -9q-92 0 -138.5 50.5t-46.5 145.5v333h99v-314q0 -60 26.5 -92t85.5 -32h3q68 0 110.5 40.5t42.5 111.5v286h99v-520h-78q-6 14 -10 36t-6 39q-33 -39 -80 -61.5t-104 -22.5h-3zM164 710h282v-78h-282v78z" />
    <glyph glyph-name="Ubreve" unicode="&#x16c;" horiz-adv-x="717" 
d="M359 -10q-64 0 -115.5 18t-87.5 52.5t-55 85.5t-19 116v438h106v-429q0 -88 45.5 -134.5t125.5 -46.5t125 46.5t45 134.5v429h106v-438q0 -66 -19.5 -116.5t-55.5 -85t-87 -52.5t-114 -18zM284 899q0 -32 21 -50.5t56 -18.5q34 0 54.5 18.5t20.5 50.5h88q0 -31 -11.5 -57
t-33 -45t-52 -29t-67.5 -10t-67.5 10t-52 29t-33 45t-11.5 57h88z" />
    <glyph glyph-name="ubreve" unicode="&#x16d;" horiz-adv-x="621" 
d="M258 -9q-92 0 -138.5 50.5t-46.5 145.5v333h99v-314q0 -60 26.5 -92t85.5 -32h3q68 0 110.5 40.5t42.5 111.5v286h99v-520h-78q-6 14 -10 36t-6 39q-33 -39 -80 -61.5t-104 -22.5h-3zM228 720q0 -32 21 -50.5t56 -18.5q34 0 54.5 18.5t20.5 50.5h88q0 -31 -11.5 -57
t-33 -45t-52 -29t-67.5 -10t-67 10t-51.5 29t-33 45t-11.5 57h87z" />
    <glyph glyph-name="Uring" unicode="&#x16e;" horiz-adv-x="717" 
d="M359 -10q-64 0 -115.5 18t-87.5 52.5t-55 85.5t-19 116v438h106v-429q0 -88 45.5 -134.5t125.5 -46.5t125 46.5t45 134.5v429h106v-438q0 -66 -19.5 -116.5t-55.5 -85t-87 -52.5t-114 -18zM357 746q-43 0 -71 25.5t-28 65.5q0 42 28 68.5t71 26.5q45 0 73.5 -26.5
t28.5 -68.5q0 -40 -28.5 -65.5t-73.5 -25.5zM357 797q20 0 32.5 11.5t12.5 28.5q0 20 -12.5 32t-32.5 12q-19 0 -30.5 -12t-11.5 -32q0 -17 11.5 -28.5t30.5 -11.5z" />
    <glyph glyph-name="uring" unicode="&#x16f;" horiz-adv-x="621" 
d="M258 -9q-92 0 -138.5 50.5t-46.5 145.5v333h99v-314q0 -60 26.5 -92t85.5 -32h3q68 0 110.5 40.5t42.5 111.5v286h99v-520h-78q-6 14 -10 36t-6 39q-33 -39 -80 -61.5t-104 -22.5h-3zM304 576q-42 0 -69 25t-27 64q0 41 27 66.5t69 25.5q43 0 70.5 -26t27.5 -66
q0 -39 -27.5 -64t-70.5 -25zM305 627q19 0 30.5 11t11.5 28t-11.5 28.5t-30.5 11.5t-30 -11.5t-11 -28.5t11 -28t30 -11z" />
    <glyph glyph-name="Uhungarumlaut" unicode="&#x170;" horiz-adv-x="717" 
d="M359 -10q-64 0 -115.5 18t-87.5 52.5t-55 85.5t-19 116v438h106v-429q0 -88 45.5 -134.5t125.5 -46.5t125 46.5t45 134.5v429h106v-438q0 -66 -19.5 -116.5t-55.5 -85t-87 -52.5t-114 -18zM239 762l48 141h101l-68 -141h-81zM394 762l48 141h101l-68 -141h-81z" />
    <glyph glyph-name="uhungarumlaut" unicode="&#x171;" horiz-adv-x="621" 
d="M258 -9q-92 0 -138.5 50.5t-46.5 145.5v333h99v-314q0 -60 26.5 -92t85.5 -32h3q68 0 110.5 40.5t42.5 111.5v286h99v-520h-78q-6 14 -10 36t-6 39q-33 -39 -80 -61.5t-104 -22.5h-3zM231 729h97l-65 -145h-78zM385 729h97l-64 -145h-79z" />
    <glyph glyph-name="Uogonek" unicode="&#x172;" horiz-adv-x="717" 
d="M421 -168q-19 -6 -40 -6q-38 0 -61 20t-23 55q0 45 39 90q-119 6 -186.5 76t-67.5 195v438h106v-429q0 -88 45.5 -134.5t125.5 -46.5t125 46.5t45 134.5v429h106v-438q0 -109 -52 -176t-143 -87q-29 -12 -50.5 -32.5t-21.5 -48.5q0 -34 29 -34q6 0 12 2l12 4v-58z" />
    <glyph glyph-name="uogonek" unicode="&#x173;" horiz-adv-x="621" 
d="M258 -9q-92 0 -138.5 50.5t-46.5 145.5v333h99v-314q0 -60 26.5 -92t85.5 -32h3q68 0 110.5 40.5t42.5 111.5v286h99v-520h-78q-6 14 -10 36t-6 39q-33 -39 -80 -61.5t-104 -22.5h-3zM499 -174q-38 0 -61.5 20.5t-23.5 55.5q1 35 23 69t61 62l41 -33q-26 -23 -39.5 -43.5
t-13.5 -40.5q0 -32 29 -32q6 0 12 2t11 4v-58q-18 -6 -39 -6z" />
    <glyph glyph-name="Wcircumflex" unicode="&#x174;" horiz-adv-x="920" 
d="M18 700h109l121 -580h5l156 580h94l158 -580h3l129 580h109l-165 -700h-139l-138 515h-7l-138 -515h-140zM398 900h118l133 -123h-106l-77 61h-18l-77 -61h-106z" />
    <glyph glyph-name="wcircumflex" unicode="&#x175;" horiz-adv-x="817" 
d="M29 520h101l95 -410h10l124 410h100l123 -412h10l96 412h101l-131 -520h-126l-121 388h-4l-121 -388h-126zM496 596l-78 62h-18l-79 -62h-105l134 124h117l134 -124h-105z" />
    <glyph glyph-name="Ycircumflex" unicode="&#x176;" horiz-adv-x="601" 
d="M248 275l-246 425h122l174 -317h6l173 317h122l-246 -425v-275h-105v275zM241 900h118l133 -123h-106l-77 61h-18l-77 -61h-106z" />
    <glyph glyph-name="ycircumflex" unicode="&#x177;" horiz-adv-x="544" 
d="M147 -199q-18 0 -42.5 4t-44.5 15v87q19 -8 35 -12.5t33 -4.5q37 0 64.5 23.5t47.5 63.5l-231 543h109l169 -417h7l142 417h103l-194 -546q-12 -35 -29 -66t-40 -55t-55 -38t-74 -14zM365 594l-78 62h-18l-79 -62h-105l134 124h117l134 -124h-105z" />
    <glyph glyph-name="Ydieresis" unicode="&#x178;" horiz-adv-x="601" 
d="M248 275l-246 425h122l174 -317h6l173 317h122l-246 -425v-275h-105v275zM211 768q-23 0 -38.5 15t-15.5 39q0 23 15.5 39t38.5 16t38.5 -16t15.5 -39q0 -24 -15.5 -39t-38.5 -15zM388 768q-23 0 -38 15t-15 39q0 23 15 39t38 16t39 -16t16 -39q0 -24 -16 -39t-39 -15z
" />
    <glyph glyph-name="Zacute" unicode="&#x179;" horiz-adv-x="587" 
d="M40 82l365 518v4h-341v96h473v-82l-362 -514v-8h373v-96h-508v82zM334 760h-81l48 141h100z" />
    <glyph glyph-name="zacute" unicode="&#x17a;" horiz-adv-x="506" 
d="M32 87l306 343v5h-286v85h409v-85l-306 -345v-5h320v-85h-443v87zM213 581l55 146h98l-75 -146h-78z" />
    <glyph glyph-name="Zdotaccent" unicode="&#x17b;" horiz-adv-x="587" 
d="M40 82l365 518v4h-341v96h473v-82l-362 -514v-8h373v-96h-508v82zM293 782q-26 0 -43 16t-17 42q0 25 17 41.5t43 16.5q27 0 44.5 -16.5t17.5 -41.5q0 -26 -17.5 -42t-44.5 -16z" />
    <glyph glyph-name="zdotaccent" unicode="&#x17c;" horiz-adv-x="506" 
d="M32 87l306 343v5h-286v85h409v-85l-306 -345v-5h320v-85h-443v87zM254 614q-26 0 -43.5 16t-17.5 42q0 25 17.5 42t43.5 17q27 0 45 -17t18 -42q0 -26 -18 -42t-45 -16z" />
    <glyph glyph-name="Zcaron" unicode="&#x17d;" horiz-adv-x="587" 
d="M40 82l365 518v4h-341v96h473v-82l-362 -514v-8h373v-96h-508v82zM102 897h106l77 -62h18l77 62h106l-133 -123h-118z" />
    <glyph glyph-name="zcaron" unicode="&#x17e;" horiz-adv-x="506" 
d="M32 87l306 343v5h-286v85h409v-85l-306 -345v-5h320v-85h-443v87zM61 720h105l79 -71h18l78 71h105l-134 -132h-117z" />
    <glyph glyph-name="longs" unicode="&#x17f;" horiz-adv-x="302" 
d="M82 554q0 78 41 121t112 43q25 0 54.5 -5t49.5 -15v-83q-37 17 -79 17q-39 0 -59 -19t-20 -65v-548h-99v554z" />
    <glyph glyph-name="uni018F" unicode="&#x18f;" horiz-adv-x="738" 
d="M585 397q-5 48 -22 88t-45 68.5t-66 44t-86 15.5h-1q-75 0 -127 -29t-84 -82l-85 57q42 67 119.5 109t181.5 42q69 0 128.5 -26.5t103 -74.5t68.5 -113.5t25 -143.5v-4q0 -77 -24 -142.5t-67.5 -113.5t-104 -75t-134.5 -27h-1q-74 0 -135 27t-104.5 74.5t-67.5 113
t-24 143.5v49h552zM142 308q6 -49 24 -90t47 -70t67.5 -45t83.5 -16h1q49 0 87.5 16t66.5 45t45 70t22 90h-444z" />
    <glyph glyph-name="florin" unicode="&#x192;" horiz-adv-x="365" 
d="M49 -198q-21 0 -47 4t-46 14v85q25 -11 56 -11q38 0 56.5 17.5t18.5 67.5v455h-61v66q13 5 29.5 9.5t31.5 6.5v38q0 78 41 121t112 43q25 0 54.5 -5t49.5 -15v-83q-39 17 -81 17q-40 0 -59.5 -19t-19.5 -65v-30h155v-84h-153v-474q0 -78 -37 -118t-100 -40z" />
    <glyph glyph-name="uni01CD" unicode="&#x1cd;" horiz-adv-x="649" 
d="M253 700h144l251 -700h-114l-63 183h-292l-63 -183h-115zM441 275l-113 324h-6l-113 -324h232zM133 900h106l77 -62h18l77 62h106l-133 -123h-118z" />
    <glyph glyph-name="uni01CE" unicode="&#x1ce;" horiz-adv-x="581" 
d="M225 -9q-40 0 -73.5 11.5t-57.5 32t-37.5 49t-13.5 63.5v5q0 169 316 169h45v29q0 42 -31.5 66.5t-86.5 24.5h-2q-42 0 -88 -14.5t-84 -39.5l-43 75q49 31 104.5 49.5t115.5 18.5h4q43 0 81 -11t66 -33.5t44 -56t16 -77.5v-256q0 -24 5 -49.5t13 -46.5h-98q-5 11 -8 28.5
t-5 34.5q-38 -35 -84.5 -53.5t-97.5 -18.5zM238 78q51 0 94 20t72 52v96h-33q-120 0 -175 -22.5t-55 -69.5v-3q0 -32 26.5 -52.5t70.5 -20.5zM96 720h105l79 -71h18l78 71h105l-134 -132h-117z" />
    <glyph glyph-name="uni01DD" unicode="&#x1dd;" 
d="M297 528q58 0 106 -19t82.5 -53.5t54 -81.5t19.5 -103v-13q0 -58 -19.5 -106.5t-54.5 -83.5t-83 -55t-105 -20h-3q-53 0 -97.5 17.5t-77 49.5t-50.5 76.5t-18 97.5v62h407q-4 32 -17.5 58t-35.5 45t-51 29.5t-64 10.5h-2q-51 0 -93 -21t-64 -52l-64 57q37 50 98 77.5
t128 27.5h4zM147 219q5 -62 46.5 -101.5t105.5 -39.5q62 0 103.5 38.5t52.5 102.5h-308z" />
    <glyph glyph-name="uni01F4" unicode="&#x1f4;" horiz-adv-x="742" 
d="M349 760l50 141h102l-73 -149zM375 -9q-73 0 -134 26.5t-105 74t-68.5 113t-24.5 143.5v4q0 77 25.5 142.5t71 113.5t108.5 75t137 27h1q95 0 165 -42.5t111 -110.5l-88 -55q-29 52 -74 80.5t-111 28.5h-1q-53 0 -96.5 -19t-74 -53.5t-47.5 -82t-17 -104.5v-5
q0 -57 17 -104.5t47.5 -81t74 -52.5t96.5 -19h1q46 0 82 12.5t61.5 34.5t39 52.5t13.5 66.5v16h-169v93h270v-365h-78q-6 13 -10 35t-6 42q-38 -40 -94 -63t-120 -23h-3z" />
    <glyph glyph-name="uni01F5" unicode="&#x1f5;" horiz-adv-x="561" 
d="M239 582l56 145h97l-75 -145h-78zM46 343q0 41 17 75t47 58.5t71.5 38t90.5 13.5h10q35 0 66.5 -7t57.5 -20q14 41 36 70h93l-63 -122q36 -45 36 -106v-8q0 -40 -17 -74t-47 -58.5t-71.5 -38t-90.5 -13.5h-10q-10 0 -19.5 0.5t-18.5 1.5v-56q10 1 20.5 1h21.5h20
q51 0 94.5 -10.5t75 -29.5t49 -46.5t17.5 -61.5v-10q0 -34 -18 -61t-49.5 -46t-75.5 -29.5t-95 -10.5h-16q-52 0 -95.5 10.5t-75 29.5t-49.5 46t-18 61v11q0 44 29.5 77t77.5 51v100q-47 24 -74 64.5t-27 91.5v8zM146 333q0 -22 10 -41t27.5 -33t41 -21.5t51.5 -7.5h5
q27 0 51 8t41 21.5t27 32.5t10 41v9q0 23 -10 41.5t-27 32.5t-41 21.5t-51 7.5h-5q-28 0 -51.5 -7.5t-41 -21t-27.5 -32.5t-10 -42v-9zM140 -56q0 -32 38.5 -51.5t100.5 -19.5h14q63 0 101.5 19.5t38.5 51.5v7q0 32 -39 52t-101 20h-14q-62 0 -100.5 -20t-38.5 -52v-7z" />
    <glyph glyph-name="AEacute" unicode="&#x1fc;" horiz-adv-x="838" 
d="M259 700h515v-96h-289v-201h269v-93h-269v-214h299v-96h-402v183h-201l-66 -183h-114zM382 275v329h-53l-117 -329h170zM474 743h-81l48 141h100z" />
    <glyph glyph-name="aeacute" unicode="&#x1fd;" horiz-adv-x="899" 
d="M218 -7q-39 0 -71 11t-55 30.5t-36 47t-13 60.5q0 162 294 162h41q0 7 -0.5 20.5t-2.5 18.5q-2 51 -28 73t-73 22q-41 0 -84 -14.5t-78 -38.5l-43 75q102 67 208 67q58 0 99.5 -20t63.5 -58q32 37 77.5 57.5t99.5 20.5h3q50 0 92 -17.5t72 -49.5t47 -76t17 -97v-62h-376
v-1q7 -63 48 -103t103 -40h2q43 0 82 20t62 53l64 -57q-36 -48 -93 -76.5t-121 -28.5h-4q-61 0 -110.5 25t-81.5 69q-37 -43 -91.5 -68t-113.5 -25zM757 300v1q-5 63 -42.5 102t-97.5 39h-1q-57 0 -95 -39t-48 -103h284zM386 154q-7 18 -10 38t-3 39h-24q-108 0 -158 -20.5
t-50 -63.5q0 -31 25.5 -49t68.5 -18q45 0 85.5 20t65.5 54zM409 561l55 146h98l-75 -146h-78z" />
    <glyph glyph-name="Oslashacute" unicode="&#x1fe;" horiz-adv-x="772" 
d="M173 61q-61 48 -95.5 121.5t-34.5 164.5v6q0 77 25.5 142.5t70.5 113.5t107.5 75t136.5 27h5q41 0 77.5 -8.5t69.5 -23.5l32 56h90l-57 -96q60 -48 94.5 -121.5t34.5 -164.5v-6q0 -77 -25.5 -142.5t-71 -113t-108 -74.5t-136.5 -27h-5q-78 0 -145 31l-34 -57h-89z
M151 347q0 -63 20 -113.5t55 -85.5l263 446q-47 22 -101 22h-5q-52 0 -94.5 -19.5t-73 -54t-47.5 -83t-17 -106.5v-6zM284 106q45 -21 101 -21h4q52 0 94.5 19.5t73 54t47.5 82.5t17 106v6q0 63 -19 113.5t-54 85.5zM428 760h-81l48 141h100z" />
    <glyph glyph-name="oslashacute" unicode="&#x1ff;" horiz-adv-x="642" 
d="M149 46q-47 35 -73 88.5t-26 120.5v10q0 58 20 106t55.5 83t84.5 54.5t108 19.5h6q52 0 100 -17l28 49h90l-50 -85q47 -35 73 -89t26 -121v-10q0 -58 -20 -106t-55 -83t-84 -54.5t-108 -19.5h-6q-53 0 -99 17l-31 -51h-89zM386 433q-30 11 -63 11h-4q-37 0 -68.5 -13
t-53.5 -37t-34.5 -57t-12.5 -73v-8q0 -43 13.5 -77.5t38.5 -58.5zM323 76q38 0 69 13t53 37t34.5 57t12.5 73v8q0 43 -14 77.5t-39 58.5l-183 -313q30 -11 63 -11h4zM280 579l55 146h98l-75 -146h-78z" />
    <glyph glyph-name="uni0218" unicode="&#x218;" horiz-adv-x="595" 
d="M304 -11q-73 0 -144 25t-125 77l60 82q42 -43 99 -64t116 -21q65 0 103 26t38 72q0 28 -14 47.5t-37.5 33t-54 23.5t-63.5 20q-41 12 -82 27t-73.5 38.5t-53 57.5t-20.5 84q0 48 19.5 84.5t51.5 61t74.5 36.5t87.5 12q72 0 136 -23.5t109 -65.5l-61 -80q-35 35 -85.5 52
t-98.5 17q-60 0 -94 -24.5t-34 -66.5q0 -24 13 -41.5t35.5 -30.5t52.5 -23t63 -20q42 -12 84.5 -27.5t76 -39.5t55 -59t21.5 -86q0 -50 -20.5 -88.5t-55.5 -64t-81.5 -38.5t-97.5 -13zM261 -36h89l-63 -147h-64z" />
    <glyph glyph-name="uni0219" unicode="&#x219;" horiz-adv-x="504" 
d="M264 -9q-66 0 -127 19.5t-107 57.5l53 73q40 -31 87 -47t96 -16q51 0 78.5 17.5t27.5 49.5q0 20 -11.5 33t-32 22t-48.5 16.5t-61 16.5q-31 8 -61 17.5t-54 25.5t-38.5 40t-14.5 60q0 35 13.5 63.5t39 48.5t61 30.5t78.5 10.5q54 0 108.5 -17t95.5 -48l-48 -74
q-32 24 -76.5 38t-85.5 14q-45 0 -67.5 -16.5t-22.5 -42.5q0 -28 29.5 -43.5t99.5 -32.5q34 -8 68.5 -18t62.5 -27.5t45.5 -44t17.5 -67.5q0 -37 -15 -66.5t-42 -50t-65 -31.5t-84 -11zM222 -36h89l-63 -147h-64z" />
    <glyph glyph-name="uni021A" unicode="&#x21a;" horiz-adv-x="539" 
d="M217 604h-204v96h513v-96h-204v-604h-105v604zM230 -36h89l-63 -147h-64z" />
    <glyph glyph-name="uni021B" unicode="&#x21b;" horiz-adv-x="395" 
d="M248 -4q-69 0 -112.5 34.5t-43.5 115.5v289h-69v69q15 5 33.5 9t35.5 6v121l99 13v-133h169v-85h-169v-271q0 -45 21 -62t59 -17q10 0 23 1t26.5 2.5t26 3.5t20.5 4v-82q-10 -4 -24.5 -7.5t-31 -6t-33 -3.5t-30.5 -1zM206 -36h89l-63 -147h-64z" />
    <glyph glyph-name="uni0237" unicode="&#x237;" horiz-adv-x="282" 
d="M63 -197q-21 0 -47 4t-47 14v85q25 -12 57 -12q38 0 56.5 18t18.5 68v540h99v-559q0 -78 -37 -118t-100 -40z" />
    <glyph glyph-name="circumflex" unicode="&#x2c6;" horiz-adv-x="403" 
d="M289 596l-78 62h-18l-79 -62h-105l134 124h117l134 -124h-105z" />
    <glyph glyph-name="caron" unicode="&#x2c7;" horiz-adv-x="403" 
d="M9 720h105l79 -71h18l78 71h105l-134 -132h-117z" />
    <glyph glyph-name="breve" unicode="&#x2d8;" horiz-adv-x="355" 
d="M101 720q0 -32 21 -50.5t56 -18.5q34 0 54.5 18.5t20.5 50.5h88q0 -31 -11.5 -57t-33 -45t-52 -29t-67.5 -10t-67 10t-51.5 29t-33 45t-11.5 57h87z" />
    <glyph glyph-name="dotaccent" unicode="&#x2d9;" horiz-adv-x="262" 
d="M130 611q-26 0 -43.5 16t-17.5 42q0 25 17.5 42t43.5 17q27 0 45 -17t18 -42q0 -26 -18 -42t-45 -16z" />
    <glyph glyph-name="ring" unicode="&#x2da;" horiz-adv-x="220" 
d="M109 573q-42 0 -69 25t-27 64q0 41 27 66.5t69 25.5q43 0 70.5 -26t27.5 -66q0 -39 -27.5 -64t-70.5 -25zM110 624q19 0 30.5 11t11.5 28t-11.5 28.5t-30.5 11.5t-30 -11.5t-11 -28.5t11 -28t30 -11z" />
    <glyph glyph-name="ogonek" unicode="&#x2db;" horiz-adv-x="201" 
d="M119 -174q-38 0 -61.5 20.5t-23.5 55.5q1 35 23 69t61 62l41 -33q-26 -23 -39.5 -43.5t-13.5 -40.5q0 -32 29 -32q6 0 12 2t11 4v-58q-18 -6 -39 -6z" />
    <glyph glyph-name="tilde" unicode="&#x2dc;" horiz-adv-x="435" 
d="M21 659q20 31 51.5 47.5t66.5 16.5q24 0 45.5 -7.5t45.5 -18.5q20 -8 38.5 -14.5t38.5 -6.5q23 0 41 9.5t29 26.5l37 -50q-19 -31 -48.5 -47.5t-64.5 -16.5q-24 0 -45.5 7t-46.5 18q-20 8 -39 14.5t-39 6.5q-23 0 -43 -9.5t-31 -26.5z" />
    <glyph glyph-name="hungarumlaut" unicode="&#x2dd;" horiz-adv-x="372" 
d="M85 726h97l-65 -145h-78zM239 726h97l-64 -145h-79z" />
    <glyph glyph-name="uni0326" unicode="&#x326;" horiz-adv-x="162" 
d="M40 -36h89l-63 -147h-64z" />
    <glyph glyph-name="uni0394" unicode="&#x394;" horiz-adv-x="649" 
d="M253 700h144l251 -700h-647zM502 92l-174 507h-6l-174 -507h354z" />
    <glyph glyph-name="uni03A9" unicode="&#x3a9;" horiz-adv-x="780" 
d="M163 341q0 -48 14 -89t38 -72.5t56 -52.5t68 -31v-96h-254v94h80q-51 45 -81.5 109.5t-30.5 145.5v20q0 78 24.5 141t68.5 107.5t105 69t133 24.5h11q73 0 134 -24.5t105 -70t68.5 -109.5t24.5 -142v-20q0 -78 -30.5 -142t-82.5 -109h81v-94h-254v94h1l-1 3q36 10 68 31
t56 52.5t38 72.5t14 89v20q0 57 -17 103.5t-47 79.5t-70.5 50.5t-88.5 17.5h-9q-47 0 -87.5 -17.5t-70.5 -50.5t-47 -79.5t-17 -104.5v-20z" />
    <glyph glyph-name="uni03BC" unicode="&#x3bc;" horiz-adv-x="630" 
d="M280 -9q-62 0 -105 29l10 -220h-103v720h99v-314q0 -60 26.5 -92t85.5 -32h3q69 0 111 40.5t42 111.5v286h99v-520h-78q-5 14 -9.5 36t-5.5 39q-32 -39 -76 -61.5t-97 -22.5h-2z" />
    <glyph glyph-name="pi" unicode="&#x3c0;" horiz-adv-x="598" 
d="M520 -6q-26 0 -49 7.5t-40 25t-26.5 45t-9.5 67.5v296h-203v-435h-99v435h-67v85h537v-85h-69v-278q0 -48 12 -63t36 -15q13 0 28 6v-84q-22 -7 -50 -7z" />
    <glyph glyph-name="uni0401" unicode="&#x401;" horiz-adv-x="577" 
d="M195 769q-23 0 -39 15t-16 38t16 39t39 16q24 0 40.5 -16t16.5 -39t-16.5 -38t-40.5 -15zM417 769q-24 0 -39.5 15t-15.5 38t15.5 39t39.5 16t40.5 -16t16.5 -39t-16.5 -38t-40.5 -15zM92 700h421v-96h-315v-201h295v-93h-295v-214h325v-96h-431v700z" />
    <glyph glyph-name="uni0402" unicode="&#x402;" horiz-adv-x="715" 
d="M183 604h-170v96h513v-96h-238v-174q84 31 154 31q50 0 91.5 -15t70.5 -44t45 -71t16 -96v-29q0 -49 -14 -88.5t-39.5 -67.5t-60 -42.5t-75.5 -14.5q-18 0 -38 3t-39 11v86q27 -8 51 -8q51 0 81 34t30 101v15q0 69 -34.5 100.5t-97.5 31.5q-32 0 -67 -8t-74 -23v-336
h-105v604z" />
    <glyph glyph-name="uni0403" unicode="&#x403;" horiz-adv-x="496" 
d="M92 700h391v-96h-285v-604h-106v700zM329 743h-81l48 141h100z" />
    <glyph glyph-name="uni0404" unicode="&#x404;" horiz-adv-x="685" 
d="M383 -10q-76 0 -138.5 27t-107.5 75t-69.5 113.5t-24.5 142.5v4q0 77 25 142.5t69.5 113.5t107 75t137.5 27q92 0 164.5 -42t112.5 -109l-85 -57q-29 53 -77.5 82t-113.5 29h-1q-48 0 -87 -15.5t-68.5 -43.5t-48 -67.5t-24.5 -87.5h323v-91l-326 40q0 -57 16.5 -105
t46.5 -82.5t73 -53.5t97 -19q66 0 116 29.5t79 80.5l81 -57q-19 -33 -47.5 -60.5t-64 -48t-77.5 -31.5t-87 -11h-1z" />
    <glyph glyph-name="uni0405" unicode="&#x405;" horiz-adv-x="592" 
d="M306 -11q-75 0 -146 25t-125 77l60 82q41 -43 99 -64t119 -21q63 0 100 25.5t37 71.5q0 28 -14 47.5t-37 33t-53.5 24t-63.5 20.5q-40 12 -81 27t-74 38.5t-53.5 57.5t-20.5 83q0 48 19 84t51 61t74.5 37.5t89.5 12.5q67 0 130 -21.5t110 -63.5l-58 -84q-35 35 -86.5 52
t-100.5 17q-57 0 -90.5 -24.5t-33.5 -65.5q0 -25 13 -42.5t35 -30.5t51 -23t60 -19q44 -13 87 -28.5t77.5 -39.5t56 -58.5t21.5 -85.5q0 -50 -20.5 -88t-55.5 -64t-81 -39.5t-96 -13.5z" />
    <glyph glyph-name="uni0406" unicode="&#x406;" horiz-adv-x="289" 
d="M92 700h105v-700h-105v700z" />
    <glyph glyph-name="uni0407" unicode="&#x407;" horiz-adv-x="289" 
d="M54 768q-23 0 -38 15t-15 39q0 23 15 39t38 16t39 -16t16 -39q0 -24 -16 -39t-39 -15zM232 768q-23 0 -38 15t-15 39q0 23 15 39t38 16t39 -16t16 -39q0 -24 -16 -39t-39 -15zM92 700h105v-700h-105v700z" />
    <glyph glyph-name="uni0408" unicode="&#x408;" horiz-adv-x="417" 
d="M139 -7q-56 0 -102 19v101q17 -10 37 -16.5t45 -6.5q58 0 84 29.5t26 80.5v500h106v-505q0 -94 -49.5 -148t-146.5 -54z" />
    <glyph glyph-name="uni0409" unicode="&#x409;" horiz-adv-x="1025" 
d="M73 -10q-30 0 -60 11v93q24 -9 48 -9q31 0 49 17.5t28.5 63t14.5 124t7 201.5l4 209h438v-269h145q53 0 97 -15t75.5 -42.5t48.5 -67t17 -87.5v-4q0 -48 -17 -88t-48 -68t-74.5 -43.5t-97.5 -15.5h-251v604h-232l-3 -138q-3 -127 -9.5 -217.5t-26 -148t-56 -84
t-97.5 -26.5zM738 94q66 0 102.5 32t36.5 89v3q0 57 -36.5 88.5t-102.5 31.5h-136v-244h136z" />
    <glyph glyph-name="uni040A" unicode="&#x40a;" horiz-adv-x="1029" 
d="M92 700h106v-269h303v269h105v-269h144q53 0 97 -15t75.5 -42.5t48.5 -67t17 -87.5v-4q0 -48 -17 -88t-48 -68t-74.5 -43.5t-97.5 -15.5h-250v335h-303v-335h-106v700zM742 94q66 0 102.5 31.5t36.5 88.5v4q0 56 -36.5 87.5t-103.5 31.5h-135v-243h136z" />
    <glyph glyph-name="uni040B" unicode="&#x40b;" horiz-adv-x="729" 
d="M183 604h-170v96h513v-96h-238v-173q45 16 83 23t75 7q107 0 158.5 -52.5t51.5 -163.5v-245h-106v234q0 73 -28 102.5t-96 29.5q-33 0 -65.5 -7t-72.5 -22v-337h-105v604z" />
    <glyph glyph-name="uni040C" unicode="&#x40c;" horiz-adv-x="650" 
d="M92 700h106v-305h5l286 305h128l-311 -322l340 -378h-136l-307 345h-5v-345h-106v700zM384 743h-81l48 141h100z" />
    <glyph glyph-name="uni040E" unicode="&#x40e;" horiz-adv-x="604" 
d="M207 -10q-19 0 -44 5.5t-44 14.5v91q15 -8 34.5 -13.5t39.5 -5.5q26 0 47.5 10t32.5 33l-261 575h113l198 -457h9l156 457h109l-215 -578q-26 -69 -66.5 -100.5t-108.5 -31.5zM242 897q0 -32 21 -50.5t56 -18.5q34 0 54.5 18.5t20.5 50.5h88q0 -31 -11.5 -57t-33 -45
t-52 -29t-67.5 -10t-67.5 10t-52 29t-33 45t-11.5 57h88z" />
    <glyph glyph-name="uni040F" unicode="&#x40f;" horiz-adv-x="705" 
d="M613 0h-210v-135h-101v135h-210v700h106v-604h309v604h106v-700z" />
    <glyph glyph-name="uni0410" unicode="&#x410;" horiz-adv-x="649" 
d="M253 700h144l251 -700h-114l-63 183h-292l-63 -183h-115zM441 275l-113 324h-6l-113 -324h232z" />
    <glyph glyph-name="uni0411" unicode="&#x411;" horiz-adv-x="649" 
d="M92 700h462v-96h-356v-174h161q54 0 98.5 -15t76 -42.5t48.5 -66.5t17 -87v-5q0 -48 -17.5 -87.5t-49 -67.5t-76 -43.5t-98.5 -15.5h-266v700zM354 95q65 0 101 31.5t36 87.5v6q0 55 -37 87t-100 32h-158v-244h158z" />
    <glyph glyph-name="uni0412" unicode="&#x412;" horiz-adv-x="658" 
d="M92 700h246q52 0 94.5 -12.5t73 -36t47 -56t16.5 -72.5v-5q0 -91 -79 -145q57 -24 86.5 -68.5t29.5 -102.5v-5q0 -45 -17 -81.5t-47.5 -62t-74.5 -39.5t-98 -14h-277v700zM341 401q58 0 89.5 27.5t31.5 75.5v5q0 44 -31 70.5t-90 26.5h-146v-205h146zM364 95
q63 0 99 28.5t36 78.5v4q0 51 -36 79.5t-99 28.5h-169v-219h169z" />
    <glyph glyph-name="uni0413" unicode="&#x413;" horiz-adv-x="496" 
d="M92 700h391v-96h-285v-604h-106v700z" />
    <glyph glyph-name="uni0414" unicode="&#x414;" horiz-adv-x="700" 
d="M19 94h49q36 37 52.5 168t16.5 364v74h457v-606h79v-229h-101v135h-451v-135h-102v229zM239 592q-1 -190 -18 -311.5t-49 -186.5h318v513h-251v-15z" />
    <glyph glyph-name="uni0415" unicode="&#x415;" horiz-adv-x="577" 
d="M92 700h421v-96h-315v-201h295v-93h-295v-214h325v-96h-431v700z" />
    <glyph glyph-name="uni0416" unicode="&#x416;" horiz-adv-x="862" 
d="M379 345h-7l-238 -345h-129l272 378l-239 322h118l215 -305h8v305h104v-305h8l215 305h118l-239 -322l272 -378h-129l-238 345h-7v-345h-104v345z" />
    <glyph glyph-name="uni0417" unicode="&#x417;" horiz-adv-x="617" 
d="M304 -10q-91 0 -161 39.5t-118 115.5l87 55q40 -60 84.5 -87t106.5 -27q72 0 112.5 31t40.5 83v3q0 52 -38 81.5t-105 29.5h-93v89h71q63 0 98.5 28t35.5 78v3q0 45 -36 73t-93 28q-54 0 -95 -25.5t-67 -73.5l-89 54q45 68 110.5 105.5t147.5 37.5q49 0 91 -13.5
t72.5 -37.5t48 -57t17.5 -72v-6q0 -98 -91 -153q60 -24 92 -70.5t32 -107.5v-5q0 -42 -19.5 -78.5t-54.5 -63.5t-83 -42t-104 -15z" />
    <glyph glyph-name="uni0418" unicode="&#x418;" horiz-adv-x="730" 
d="M92 700h105v-531h9l313 531h119v-700h-105v544h-9l-320 -544h-112v700z" />
    <glyph glyph-name="uni0419" unicode="&#x419;" horiz-adv-x="730" 
d="M92 700h105v-531h9l313 531h119v-700h-105v544h-9l-320 -544h-112v700zM290 900q0 -32 21 -50.5t56 -18.5q34 0 54.5 18.5t20.5 50.5h88q0 -31 -11.5 -57t-33 -45t-52 -29t-67.5 -10t-67.5 10t-52 29t-33 45t-11.5 57h88z" />
    <glyph glyph-name="uni041A" unicode="&#x41a;" horiz-adv-x="650" 
d="M92 700h106v-305h5l286 305h128l-311 -322l340 -378h-136l-307 345h-5v-345h-106v700z" />
    <glyph glyph-name="uni041B" unicode="&#x41b;" horiz-adv-x="704" 
d="M72 -10q-16 0 -30.5 2.5t-28.5 7.5v93q11 -4 22 -6t24 -2q31 0 49.5 18.5t29 62.5t14.5 118t6 186l5 230h449v-700h-106v604h-241l-4 -144q-3 -132 -10.5 -221.5t-27 -145t-55.5 -79.5t-96 -24z" />
    <glyph glyph-name="uni041C" unicode="&#x41c;" horiz-adv-x="883" 
d="M92 700h155l191 -464h7l191 464h155v-700h-104v569h-6l-195 -471h-88l-196 471h-6v-569h-104v700z" />
    <glyph glyph-name="uni041D" unicode="&#x41d;" horiz-adv-x="718" 
d="M92 700h106v-294h322v294h106v-700h-106v310h-322v-310h-106v700z" />
    <glyph glyph-name="uni041E" unicode="&#x41e;" horiz-adv-x="772" 
d="M43 353q0 77 25.5 142.5t70.5 113.5t107.5 75t136.5 27h5q74 0 136.5 -27t108 -75t71 -113.5t25.5 -142.5v-6q0 -77 -25.5 -142.5t-71 -113t-108 -74.5t-136.5 -27h-5q-74 0 -136.5 27t-107.5 74.5t-70.5 113t-25.5 142.5v6zM153 347q0 -57 17 -105t47.5 -82t73.5 -53
t94 -19h4q51 0 93 19t72.5 53t47.5 82t17 105v6q0 57 -17 105t-47.5 82.5t-73 53.5t-93.5 19h-4q-51 0 -93.5 -19t-73 -53.5t-47.5 -82.5t-17 -105v-6z" />
    <glyph glyph-name="uni041F" unicode="&#x41f;" horiz-adv-x="712" 
d="M92 700h528v-700h-105v604h-317v-604h-106v700z" />
    <glyph glyph-name="uni0420" unicode="&#x420;" horiz-adv-x="619" 
d="M92 700h239q56 0 101.5 -16t77.5 -45t50 -71t18 -93v-6q0 -52 -17.5 -94t-49.5 -71.5t-77 -45.5t-101 -16h-135v-242h-106v700zM327 333q69 0 106 36t37 99v5q0 62 -37 97t-105 35h-132v-272h131z" />
    <glyph glyph-name="uni0421" unicode="&#x421;" horiz-adv-x="680" 
d="M382 -10q-75 0 -137.5 27t-107.5 75t-69.5 113.5t-24.5 142.5v4q0 77 25 142.5t70 113.5t107 75t137 27h1q91 0 161 -42t110 -109l-85 -57q-29 52 -75 80.5t-109 28.5q-54 0 -97 -19t-73 -53t-46 -82t-16 -105v-4q0 -57 16.5 -104.5t46.5 -81.5t73 -53t96 -19
q65 0 113 28.5t76 79.5l82 -57q-19 -33 -47 -60.5t-63 -48t-76.5 -31.5t-86.5 -11h-1z" />
    <glyph glyph-name="uni0422" unicode="&#x422;" horiz-adv-x="539" 
d="M217 604h-204v96h513v-96h-204v-604h-105v604z" />
    <glyph glyph-name="uni0423" unicode="&#x423;" horiz-adv-x="604" 
d="M207 -10q-19 0 -44 5.5t-44 14.5v91q15 -8 34.5 -13.5t39.5 -5.5q26 0 47.5 10t32.5 33l-261 575h113l198 -457h9l156 457h109l-215 -578q-26 -69 -66.5 -100.5t-108.5 -31.5z" />
    <glyph glyph-name="uni0424" unicode="&#x424;" horiz-adv-x="787" 
d="M444 71v-71h-102v71h-17q-61 0 -114 21.5t-91 59.5t-60 90.5t-22 114.5v7q0 62 22 114.5t60 90.5t91 59.5t114 21.5h17v55h102v-55h18q62 0 114.5 -21.5t90.5 -59.5t60 -90.5t22 -114.5v-7q0 -62 -22 -114.5t-60 -90.5t-90.5 -59.5t-114.5 -21.5h-18zM344 161v399h-18
q-39 0 -72.5 -14.5t-57.5 -40.5t-37.5 -62t-13.5 -79v-6q0 -43 13.5 -79.5t37.5 -62.5t57.5 -40.5t72.5 -14.5h18zM461 161q39 0 72 14.5t57.5 40.5t38 62.5t13.5 79.5v6q0 43 -13.5 79t-37.5 62t-57.5 40.5t-72.5 14.5h-19v-399h19z" />
    <glyph glyph-name="uni0425" unicode="&#x425;" horiz-adv-x="617" 
d="M236 360v5l-208 335h123l154 -257h5l156 257h122l-208 -334v-5l225 -361h-123l-171 285h-7l-170 -285h-123z" />
    <glyph glyph-name="uni0426" unicode="&#x426;" horiz-adv-x="718" 
d="M590 0h-498v700h106v-604h309v604h106v-604h78v-231h-101v135z" />
    <glyph glyph-name="uni0427" unicode="&#x427;" horiz-adv-x="671" 
d="M474 290q-50 -17 -91.5 -24.5t-83.5 -7.5q-227 0 -227 216v226h106v-214q0 -73 32 -103t107 -30q41 0 76.5 7t80.5 24v316h105v-700h-105v290z" />
    <glyph glyph-name="uni0428" unicode="&#x428;" horiz-adv-x="1019" 
d="M92 700h106v-604h259v604h105v-604h259v604h106v-700h-835v700z" />
    <glyph glyph-name="uni0429" unicode="&#x429;" horiz-adv-x="1022" 
d="M902 0h-810v700h106v-604h258v604h105v-604h259v604h105v-604h78v-231h-101v135z" />
    <glyph glyph-name="uni042A" unicode="&#x42a;" horiz-adv-x="665" 
d="M137 606h-143v94h249v-253h139q55 0 99.5 -15.5t76.5 -44t49.5 -69.5t17.5 -91v-4q0 -51 -17 -92t-48.5 -70t-76 -45t-99.5 -16h-247v606zM373 95q69 0 106.5 33.5t37.5 94.5v5q0 60 -37.5 93.5t-106.5 33.5h-132v-260h132z" />
    <glyph glyph-name="uni042B" unicode="&#x42b;" horiz-adv-x="863" 
d="M92 700h106v-253h132q56 0 101.5 -15.5t77.5 -44t50 -69t18 -91.5v-4q0 -51 -17.5 -92t-49.5 -70t-77.5 -45t-101.5 -16h-239v700zM665 700h106v-700h-106v700zM321 95q72 0 110.5 33.5t38.5 94.5v5q0 60 -38.5 93.5t-109.5 33.5h-126v-260h125z" />
    <glyph glyph-name="uni042C" unicode="&#x42c;" horiz-adv-x="628" 
d="M92 700h106v-253h147q54 0 99 -15.5t76.5 -44t49 -69.5t17.5 -91v-4q0 -51 -17 -92t-48.5 -70t-76 -45t-99.5 -16h-254v700zM336 95q69 0 106.5 33.5t37.5 94.5v5q0 60 -38 93.5t-107 33.5h-139v-260h140z" />
    <glyph glyph-name="uni042D" unicode="&#x42d;" horiz-adv-x="685" 
d="M302 -10q-45 0 -87 11t-78 31.5t-64.5 48t-47.5 60.5l82 57q28 -51 78.5 -80.5t116.5 -29.5q49 0 89 16t69.5 45t48 69.5t23.5 89.5h-324v91h324q-6 48 -24.5 87.5t-48 67.5t-68.5 43.5t-87 15.5h-1q-65 0 -114 -29t-78 -82l-85 57q40 67 112.5 109t164.5 42
q75 0 137.5 -27t107 -75t69.5 -113.5t25 -142.5v-4q0 -77 -24.5 -142.5t-69 -113.5t-107 -75t-138.5 -27h-1z" />
    <glyph glyph-name="uni042E" unicode="&#x42e;" horiz-adv-x="1011" 
d="M632 -10q-69 0 -127.5 24t-102 67t-70 102t-31.5 128h-103v-311h-106v700h106v-295h105q8 66 35 122t70 96.5t100 63.5t124 23h3q72 0 133.5 -26.5t105.5 -74t69 -111.5t25 -139v-18q0 -75 -25 -139t-69 -111.5t-105 -74t-133 -26.5h-4zM410 341q0 -55 16.5 -101.5
t45.5 -80t70 -52.5t90 -19h3q49 0 90 19t70.5 52.5t46 80t16.5 101.5v18q0 55 -16.5 101.5t-45.5 80.5t-70 53t-91 19h-2q-49 0 -90.5 -19t-70.5 -53t-45.5 -80.5t-16.5 -101.5v-18z" />
    <glyph glyph-name="uni042F" unicode="&#x42f;" horiz-adv-x="646" 
d="M184 277q-66 25 -105.5 77.5t-39.5 121.5v15q0 49 19 88t54 66t84 41t110 14h248v-700h-105v253h-162l-145 -253h-124zM450 606h-136q-78 0 -122 -30.5t-44 -89.5v-13q0 -58 43.5 -94t122.5 -36h136v263z" />
    <glyph glyph-name="uni0430" unicode="&#x430;" horiz-adv-x="581" 
d="M225 -9q-40 0 -73.5 11.5t-57.5 32t-37.5 49t-13.5 63.5v5q0 169 316 169h45v29q0 42 -31.5 66.5t-86.5 24.5h-2q-42 0 -88 -14.5t-84 -39.5l-43 75q49 31 104.5 49.5t115.5 18.5h4q43 0 81 -11t66 -33.5t44 -56t16 -77.5v-256q0 -24 5 -49.5t13 -46.5h-98q-5 11 -8 28.5
t-5 34.5q-38 -35 -84.5 -53.5t-97.5 -18.5zM238 78q51 0 94 20t72 52v96h-33q-120 0 -175 -22.5t-55 -69.5v-3q0 -32 26.5 -52.5t70.5 -20.5z" />
    <glyph glyph-name="uni0431" unicode="&#x431;" horiz-adv-x="629" 
d="M319 -8q-131 0 -200 89t-69 260q0 168 66 260t191 117q29 6 60.5 10t61 6.5t56 3.5t46.5 1v-97q-54 0 -107.5 -5t-101.5 -14q-84 -16 -131 -68t-56 -157q29 54 80.5 88t117.5 34h7q53 0 97 -19t75.5 -52.5t49 -80t17.5 -101.5v-21q0 -55 -19.5 -101.5t-53.5 -80.5
t-80 -53t-100 -19h-7zM323 79q33 0 61.5 12.5t49.5 34.5t32.5 53t11.5 67v22q0 36 -11 67t-31 53.5t-48.5 35t-63.5 12.5h-3q-34 0 -63.5 -13t-50.5 -36.5t-33 -55t-12 -67.5v-19q0 -36 11.5 -66.5t32.5 -52.5t49.5 -34.5t62.5 -12.5h5z" />
    <glyph glyph-name="uni0432" unicode="&#x432;" horiz-adv-x="558" 
d="M82 520h251q36 0 66.5 -10t52.5 -27.5t34.5 -41.5t12.5 -53v-16q0 -32 -17 -57.5t-46 -43.5q42 -17 65 -47t23 -68v-15q0 -31 -13.5 -56.5t-37 -44.5t-56.5 -29.5t-72 -10.5h-263v520zM318 302q37 0 59.5 18.5t22.5 47.5v6q0 29 -22.5 47.5t-58.5 18.5h-140v-138h139z
M333 80q40 0 65.5 20t25.5 49v10q0 31 -24.5 50t-65.5 19h-155v-148h154z" />
    <glyph glyph-name="uni0433" unicode="&#x433;" horiz-adv-x="429" 
d="M82 520h328v-85h-229v-435h-99v520z" />
    <glyph glyph-name="uni0434" unicode="&#x434;" horiz-adv-x="602" 
d="M14 84h44q30 24 44 130.5t14 305.5h390v-436h69v-212h-95v128h-371v-128h-95v212zM407 84v352h-196q-3 -159 -16.5 -245.5t-35.5 -106.5h248z" />
    <glyph glyph-name="uni0435" unicode="&#x435;" 
d="M312 -8q-58 0 -106 19t-82.5 53.5t-54 81.5t-19.5 103v13q0 58 19.5 106.5t54.5 84t83 55t104 19.5h3q54 0 98.5 -17.5t76.5 -49.5t50 -76.5t18 -97.5v-62h-406q8 -63 53 -103t115 -40h2q51 0 92.5 21t64.5 52l64 -57q-37 -50 -98 -77.5t-128 -27.5h-4zM462 301
q-2 31 -14 57t-32 44.5t-47 29t-59 10.5h-1q-62 0 -103.5 -38.5t-51.5 -102.5h308z" />
    <glyph glyph-name="uni0436" unicode="&#x436;" horiz-adv-x="726" 
d="M315 252h-9l-184 -252h-116l213 278l-199 242h109l178 -223h8v223h96v-223h8l178 223h109l-199 -242l213 -278h-116l-183 252h-10v-252h-96v252z" />
    <glyph glyph-name="uni0437" unicode="&#x437;" horiz-adv-x="504" 
d="M253 -8q-72 0 -130 30t-95 92l77 47q48 -83 152 -83h6q48 0 77 20.5t29 51.5v5q0 33 -26 52.5t-77 19.5h-82v76h81q38 0 61 19t23 49v5q0 28 -25 47t-68 19h-5q-48 0 -82 -21t-53 -59l-76 54q32 51 88 81.5t131 30.5h7q38 0 71 -10t57.5 -28.5t39 -43.5t14.5 -55v-12
q0 -32 -18 -58.5t-52 -46.5q43 -20 67.5 -53t24.5 -71v-8q0 -32 -16 -59.5t-44 -47.5t-66 -31.5t-82 -11.5h-9z" />
    <glyph glyph-name="uni0438" unicode="&#x438;" horiz-adv-x="638" 
d="M82 520h98v-360h5l274 360h97v-520h-98v377h-4l-285 -377h-87v520z" />
    <glyph glyph-name="uni0439" unicode="&#x439;" horiz-adv-x="638" 
d="M82 520h98v-360h5l274 360h97v-520h-98v377h-4l-285 -377h-87v520zM243 720q0 -32 21 -50.5t56 -18.5q34 0 54.5 18.5t20.5 50.5h88q0 -31 -11.5 -57t-33 -45t-52 -29t-67.5 -10t-67 10t-51.5 29t-33 45t-11.5 57h87z" />
    <glyph glyph-name="uni043A" unicode="&#x43a;" horiz-adv-x="551" 
d="M82 520h99v-223h7l230 223h116l-253 -242l264 -278h-125l-232 252h-7v-252h-99v520z" />
    <glyph glyph-name="uni043B" unicode="&#x43b;" horiz-adv-x="585" 
d="M67 -8q-28 0 -51 9v84q8 -5 17.5 -6.5t17.5 -1.5q21 0 34 10t20.5 37t11 74t4.5 122l2 200h380v-520h-99v435h-188l-2 -130q-1 -95 -10 -155.5t-27 -95.5t-45.5 -48.5t-64.5 -13.5z" />
    <glyph glyph-name="uni043C" unicode="&#x43c;" horiz-adv-x="722" 
d="M82 520h100l175 -325h9l174 325h100v-520h-97v345h-9l-140 -257h-66l-140 258h-9v-346h-97v520z" />
    <glyph glyph-name="uni043D" unicode="&#x43d;" horiz-adv-x="628" 
d="M82 520h96v-206h268v206h99v-520h-99v229h-268v-229h-96v520z" />
    <glyph glyph-name="uni043E" unicode="&#x43e;" horiz-adv-x="642" 
d="M318 -8q-59 0 -108 19.5t-84.5 54.5t-55.5 83t-20 106v10q0 58 20 106t55.5 83t84.5 54.5t108 19.5h6q59 0 108 -19.5t84 -54.5t55 -83t20 -106v-10q0 -58 -20 -106t-55 -83t-84 -54.5t-108 -19.5h-6zM322 78q37 0 67.5 13t52.5 36.5t34 56.5t12 72v8q0 39 -12 72
t-34 56.5t-52.5 36.5t-67.5 13h-3q-36 0 -66.5 -13t-52.5 -36.5t-34 -56.5t-12 -72v-8q0 -39 12 -72t34 -56.5t52.5 -36.5t66.5 -13h3z" />
    <glyph glyph-name="uni043F" unicode="&#x43f;" horiz-adv-x="632" 
d="M82 520h468v-520h-99v435h-270v-435h-99v520z" />
    <glyph glyph-name="uni0440" unicode="&#x440;" horiz-adv-x="668" 
d="M82 520h78q5 -14 9.5 -35t6.5 -38q33 38 81 59.5t106 21.5h4q54 0 100 -19.5t79.5 -54t52.5 -83t19 -106.5v-10q0 -58 -19 -106.5t-52.5 -83t-79.5 -54t-100 -19.5h-4q-56 0 -102.5 20t-79.5 56v-268h-99v720zM351 79q74 0 118.5 48t44.5 129v8q0 81 -44.5 129t-118.5 48
h-6q-74 0 -119 -48t-45 -129v-8q0 -81 45 -129t119 -48h6z" />
    <glyph glyph-name="uni0441" unicode="&#x441;" horiz-adv-x="569" 
d="M312 -7q-58 0 -106.5 19t-83 53.5t-53.5 83t-19 106.5v11q0 58 19.5 106t54 82.5t82.5 53.5t104 19h6q77 0 133 -34t88 -90l-77 -48q-22 41 -58 63.5t-87 22.5h-2q-74 0 -116.5 -47t-42.5 -130v-8q0 -40 12 -72.5t34 -56t52.5 -36t66.5 -12.5h3q52 0 87.5 24.5t55.5 60.5
l75 -51q-33 -55 -89 -87.5t-132 -32.5h-7z" />
    <glyph glyph-name="uni0442" unicode="&#x442;" horiz-adv-x="468" 
d="M185 434h-166v86h431v-86h-166v-434h-99v434z" />
    <glyph glyph-name="uni0443" unicode="&#x443;" horiz-adv-x="544" 
d="M147 -199q-18 0 -42.5 4t-44.5 15v87q19 -8 35 -12.5t33 -4.5q37 0 64.5 23.5t47.5 63.5l-231 543h109l169 -417h7l142 417h103l-194 -546q-12 -35 -29 -66t-40 -55t-55 -38t-74 -14z" />
    <glyph glyph-name="uni0444" unicode="&#x444;" horiz-adv-x="748" 
d="M424 720v-193h12q58 0 106 -19.5t82.5 -54t54 -83t19.5 -105.5v-10q0 -57 -19.5 -105t-54 -83t-82.5 -54.5t-106 -19.5q-9 0 -12 1v-184h-99v184q-4 -1 -12 -1q-58 0 -106 19.5t-83 54.5t-54.5 83t-19.5 105v10q0 57 19.5 105.5t54.5 83t83 54t106 19.5q7 0 12 -1v194h99
zM151 256q0 -40 12 -73.5t34 -57.5t52 -37.5t67 -13.5q6 0 10 1v371q-4 1 -10 1q-37 0 -67 -13t-52 -37t-34 -58t-12 -75v-8zM597 264q0 41 -12 75t-33.5 58t-52 37t-67.5 13q-6 0 -9 -1v-371q3 -1 9 -1q37 0 67.5 13.5t52 37.5t33.5 57.5t12 73.5v8z" />
    <glyph glyph-name="uni0445" unicode="&#x445;" horiz-adv-x="530" 
d="M204 265v4l-181 251h118l124 -186h4l123 186h114l-179 -251v-4l186 -265h-117l-132 199h-4l-129 -199h-115z" />
    <glyph glyph-name="uni0446" unicode="&#x446;" horiz-adv-x="638" 
d="M518 0h-436v520h99v-436h262v436h99v-436h71v-212h-95v128z" />
    <glyph glyph-name="uni0447" unicode="&#x447;" horiz-adv-x="576" 
d="M394 204q-37 -14 -75 -21.5t-76 -7.5q-92 0 -136 42.5t-44 122.5v180h96v-170q0 -46 23 -68t74 -22q36 0 71.5 6t66.5 18v236h99v-520h-99v204z" />
    <glyph glyph-name="uni0448" unicode="&#x448;" horiz-adv-x="850" 
d="M82 520h99v-436h195v436h98v-436h196v436h98v-520h-686v520z" />
    <glyph glyph-name="uni0449" unicode="&#x449;" horiz-adv-x="854" 
d="M733 0h-651v520h99v-436h191v436h98v-436h191v436h98v-436h69v-212h-95v128z" />
    <glyph glyph-name="uni044A" unicode="&#x44a;" horiz-adv-x="564" 
d="M118 437h-103v83h202v-174h141q38 0 70 -12.5t55 -34.5t36 -52t13 -66v-16q0 -36 -13 -66t-36.5 -52t-56 -34.5t-70.5 -12.5h-238v437zM349 82q35 0 58.5 24t23.5 61v13q0 37 -23.5 61t-58.5 24h-134v-183h134z" />
    <glyph glyph-name="uni044B" unicode="&#x44b;" horiz-adv-x="759" 
d="M82 520h99v-174h123q38 0 70.5 -12.5t56 -34.5t36.5 -52t13 -66v-16q0 -36 -13.5 -66t-37 -52t-56 -34.5t-71.5 -12.5h-220v520zM578 520h99v-520h-99v520zM296 82q35 0 59 24.5t24 60.5v12q0 37 -23.5 61t-59.5 24h-116v-182h116z" />
    <glyph glyph-name="uni044C" unicode="&#x44c;" horiz-adv-x="535" 
d="M82 520h99v-174h139q40 0 73.5 -12.5t58 -34.5t38 -52t13.5 -66v-16q0 -36 -13.5 -66t-38 -52t-58.5 -34.5t-74 -12.5h-237v520zM314 83q38 0 63 24t25 60v12q0 37 -25 60.5t-63 23.5h-134v-180h134z" />
    <glyph glyph-name="uni044D" unicode="&#x44d;" horiz-adv-x="572" 
d="M253 -7q-77 0 -133.5 32.5t-90.5 87.5l75 51q20 -37 56.5 -61t89.5 -24h3q67 0 111.5 38.5t54.5 104.5h-242v77h242q-9 67 -51 105t-109 38h-2q-52 0 -89 -22.5t-59 -64.5l-77 48q32 56 88.5 90t133.5 34h6q57 0 105 -19t83 -53.5t54.5 -82.5t19.5 -106v-11
q0 -58 -19 -106.5t-53.5 -83t-82.5 -53.5t-107 -19h-7z" />
    <glyph glyph-name="uni044E" unicode="&#x44e;" horiz-adv-x="819" 
d="M516 -8q-51 0 -95 17.5t-76.5 49t-52.5 74.5t-23 95h-91v-228h-96v520h96v-207h94q6 47 27 86.5t53 68t73.5 44.5t90.5 16h6q54 0 99 -19t78 -53t51.5 -80.5t18.5 -102.5v-26q0 -55 -18.5 -102t-51.5 -81t-78 -53t-99 -19h-6zM520 79q32 0 58.5 12.5t46 34.5t30.5 53.5
t11 68.5v25q0 38 -11 68.5t-30.5 53t-46 34.5t-58.5 12h-3q-31 0 -58 -12t-46 -34.5t-30 -53t-11 -68.5v-25q0 -37 11 -68.5t30 -53.5t46 -34.5t58 -12.5h3z" />
    <glyph glyph-name="uni044F" unicode="&#x44f;" horiz-adv-x="563" 
d="M156 206q-46 20 -73.5 55.5t-27.5 83.5v16q0 35 14 64t38.5 50t58 33t72.5 12h243v-520h-96v187h-136l-107 -187h-108zM385 268v169h-140q-39 0 -65 -21.5t-26 -56.5v-11q0 -35 26 -57.5t65 -22.5h140z" />
    <glyph glyph-name="uni0451" unicode="&#x451;" 
d="M312 -8q-58 0 -106 19t-82.5 53.5t-54 81.5t-19.5 103v13q0 58 19.5 106.5t54.5 84t83 55t104 19.5h3q54 0 98.5 -17.5t76.5 -49.5t50 -76.5t18 -97.5v-62h-406q8 -63 53 -103t115 -40h2q51 0 92.5 21t64.5 52l64 -57q-37 -50 -98 -77.5t-128 -27.5h-4zM462 301
q-2 31 -14 57t-32 44.5t-47 29t-59 10.5h-1q-62 0 -103.5 -38.5t-51.5 -102.5h308zM416 618q-24 0 -40 15.5t-16 38.5t16 38.5t40 15.5t40 -15.5t16 -38.5t-16 -38.5t-40 -15.5zM214 618q-24 0 -40 15.5t-16 38.5t16 38.5t40 15.5q23 0 39.5 -15.5t16.5 -38.5t-16.5 -38.5
t-39.5 -15.5z" />
    <glyph glyph-name="uni0452" unicode="&#x452;" horiz-adv-x="625" 
d="M81 592h-67v72h67v56h99v-56h162v-72h-162v-148q33 35 79 55.5t101 20.5h3q94 0 141.5 -51t47.5 -146v-307q0 -50 -14 -89t-39 -67t-60 -42.5t-76 -14.5q-18 0 -38 3t-39 11v84q27 -8 53 -8q51 0 82 34t32 100v277q0 62 -27 93.5t-90 31.5h-4q-69 0 -110.5 -38
t-41.5 -108v-283h-99v592z" />
    <glyph glyph-name="uni0453" unicode="&#x453;" horiz-adv-x="429" 
d="M82 520h328v-85h-229v-435h-99v520zM205 561l55 146h98l-75 -146h-78z" />
    <glyph glyph-name="uni0454" unicode="&#x454;" horiz-adv-x="573" 
d="M315 -7q-58 0 -107 19t-84 53.5t-54.5 83t-19.5 106.5v11q0 58 19.5 106t55 82.5t83.5 53.5t105 19h6q77 0 133.5 -34t88.5 -90l-77 -48q-22 41 -59 63.5t-89 22.5h-1q-67 0 -109 -37.5t-51 -104.5h241v-77h-241q10 -66 55 -104.5t111 -38.5h3q53 0 89 24.5t56 60.5
l75 -51q-33 -55 -89.5 -87.5t-132.5 -32.5h-7z" />
    <glyph glyph-name="uni0455" unicode="&#x455;" horiz-adv-x="504" 
d="M264 -9q-66 0 -127 19.5t-107 57.5l53 73q40 -31 87 -47t96 -16q51 0 78.5 17.5t27.5 49.5q0 20 -11.5 33t-32 22t-48.5 16.5t-61 16.5q-31 8 -61 17.5t-54 25.5t-38.5 40t-14.5 60q0 35 13.5 63.5t39 48.5t61 30.5t78.5 10.5q54 0 108.5 -17t95.5 -48l-48 -74
q-32 24 -76.5 38t-85.5 14q-45 0 -67.5 -16.5t-22.5 -42.5q0 -28 29.5 -43.5t99.5 -32.5q34 -8 68.5 -18t62.5 -27.5t45.5 -44t17.5 -67.5q0 -37 -15 -66.5t-42 -50t-65 -31.5t-84 -11z" />
    <glyph glyph-name="uni0456" unicode="&#x456;" horiz-adv-x="264" 
d="M132 611q-27 0 -44 16t-17 42q0 25 17 42t44 17t44.5 -17t17.5 -42q0 -26 -17.5 -42t-44.5 -16zM83 520h99v-520h-99v520z" />
    <glyph glyph-name="uni0457" unicode="&#x457;" horiz-adv-x="264" 
d="M204 615q-23 0 -37.5 15t-14.5 39q0 23 14.5 38.5t37.5 15.5t38 -15.5t15 -38.5q0 -24 -15 -39t-38 -15zM59 615q-22 0 -37 15t-15 39q0 23 15 38.5t37 15.5t37.5 -15.5t15.5 -38.5q0 -24 -15.5 -39t-37.5 -15zM82 520h99v-520h-99v520z" />
    <glyph glyph-name="uni0458" unicode="&#x458;" horiz-adv-x="279" 
d="M147 611q-26 0 -43.5 16t-17.5 42q0 25 17.5 42t43.5 17q27 0 45 -17t18 -42q0 -26 -18 -42t-45 -16zM59 -201q-20 0 -46 4.5t-47 13.5v85q27 -11 56 -11q38 0 57 17.5t19 67.5v544h99v-563q0 -78 -37.5 -118t-100.5 -40z" />
    <glyph glyph-name="uni0459" unicode="&#x459;" horiz-adv-x="834" 
d="M67 -8q-28 0 -51 9v84q8 -5 17.5 -6.5t17.5 -1.5q21 0 34 10t20.5 37t11 74t4.5 122l2 200h366v-189h133q39 0 72 -12t57 -33t37.5 -50t13.5 -63v-15q0 -34 -13.5 -63t-38 -50t-57.5 -33t-72 -12h-230v435h-175l-2 -130q-1 -95 -10.5 -155.5t-27.5 -95.5t-45 -48.5
t-64 -13.5zM616 82q37 0 61 22t24 56v11q0 34 -24 56t-61 22h-127v-167h127z" />
    <glyph glyph-name="uni045A" unicode="&#x45a;" horiz-adv-x="870" 
d="M82 520h96v-189h248v189h99v-189h133q39 0 72 -12t57 -33t37.5 -50t13.5 -63v-15q0 -34 -13.5 -63t-38 -50t-58 -33t-72.5 -12h-230v246h-248v-246h-96v520zM652 82q37 0 60.5 22t23.5 56v11q0 34 -23.5 56t-60.5 22h-127v-167h127z" />
    <glyph glyph-name="uni045B" unicode="&#x45b;" horiz-adv-x="625" 
d="M81 592h-67v72h67v56h99v-56h162v-72h-162v-148q33 35 79 55.5t101 20.5h3q94 0 141.5 -51t47.5 -146v-323h-99v304q0 62 -27.5 93.5t-87.5 31.5h-4q-70 0 -112 -38t-42 -108v-283h-99v592z" />
    <glyph glyph-name="uni045C" unicode="&#x45c;" horiz-adv-x="551" 
d="M82 520h99v-223h7l230 223h116l-253 -242l264 -278h-125l-232 252h-7v-252h-99v520zM254 561l55 146h98l-75 -146h-78z" />
    <glyph glyph-name="uni045E" unicode="&#x45e;" horiz-adv-x="544" 
d="M147 -199q-18 0 -42.5 4t-44.5 15v87q19 -8 35 -12.5t33 -4.5q37 0 64.5 23.5t47.5 63.5l-231 543h109l169 -417h7l142 417h103l-194 -546q-12 -35 -29 -66t-40 -55t-55 -38t-74 -14zM201 718q0 -32 21 -50.5t56 -18.5q34 0 54.5 18.5t20.5 50.5h88q0 -31 -11.5 -57
t-33 -45t-52 -29t-67.5 -10t-67 10t-51.5 29t-33 45t-11.5 57h87z" />
    <glyph glyph-name="uni045F" unicode="&#x45f;" horiz-adv-x="625" 
d="M181 520v-436h262v436h99v-520h-182v-128h-95v128h-183v520h99z" />
    <glyph glyph-name="uni0490" unicode="&#x490;" horiz-adv-x="479" 
d="M92 700h274v123h100v-219h-268v-604h-106v700z" />
    <glyph glyph-name="uni0491" unicode="&#x491;" horiz-adv-x="422" 
d="M82 520h226v107h96v-192h-223v-435h-99v520z" />
    <glyph glyph-name="uni0492" unicode="&#x492;" horiz-adv-x="511" 
d="M107 300h-72v86h72v314h391v-96h-285v-218h156v-86h-156v-300h-106v300z" />
    <glyph glyph-name="uni0493" unicode="&#x493;" horiz-adv-x="439" 
d="M92 209h-70v83h70v228h328v-85h-229v-143h139v-83h-139v-209h-99v209z" />
    <glyph glyph-name="uni049A" unicode="&#x49a;" horiz-adv-x="650" 
d="M92 700h106v-305h5l286 305h128l-311 -322l254 -282h86v-231h-101v135h-35l-307 345h-5v-345h-106v700z" />
    <glyph glyph-name="uni049B" unicode="&#x49b;" horiz-adv-x="541" 
d="M82 520h99v-223h7l230 223h116l-253 -242l185 -194h79v-212h-95v128h-30l-232 252h-7v-252h-99v520z" />
    <glyph glyph-name="uni04A2" unicode="&#x4a2;" horiz-adv-x="732" 
d="M603 0h-83v310h-322v-310h-106v700h106v-294h322v294h106v-604h79v-231h-102v135z" />
    <glyph glyph-name="uni04A3" unicode="&#x4a3;" horiz-adv-x="642" 
d="M521 0h-75v229h-268v-229h-96v520h96v-206h268v206h99v-436h71v-212h-95v128z" />
    <glyph glyph-name="uni04AE" unicode="&#x4ae;" horiz-adv-x="601" 
d="M248 275l-246 425h122l174 -317h6l173 317h122l-246 -425v-275h-105v275z" />
    <glyph glyph-name="uni04AF" unicode="&#x4af;" horiz-adv-x="557" 
d="M20 520h106l148 -421h10l149 421h105l-199 -520h-11v-200h-99v200h-11z" />
    <glyph glyph-name="uni04B0" unicode="&#x4b0;" horiz-adv-x="601" 
d="M131 316h98l-227 384h122l174 -317h6l173 317h122l-227 -384h97v-85h-116v-231h-105v231h-117v85z" />
    <glyph glyph-name="uni04B1" unicode="&#x4b1;" horiz-adv-x="557" 
d="M121 0h97l-198 520h106l148 -421h10l149 421h105l-199 -520h94v-83h-105v-117h-99v117h-108v83z" />
    <glyph glyph-name="uni04BA" unicode="&#x4ba;" horiz-adv-x="671" 
d="M197.029 410.018q49.9961 16.999 91.4941 24.499q41.4971 7.49902 83.4951 7.49902q226.985 0 226.985 -215.986v-225.986h-105.993v213.986q0 72.9961 -31.998 102.994t-106.993 29.998q-40.998 0 -76.4951 -7q-35.498 -6.99902 -80.4951 -23.998v-315.98h-104.994
v699.957h104.994v-289.982z" />
    <glyph glyph-name="uni04BB" unicode="&#x4bb;" horiz-adv-x="630" 
d="M82 720h99v-271q35 38 84 59t107 21q90 0 137 -50.5t47 -146.5v-332h-99v313q0 125 -118 125q-72 0 -115 -40t-43 -107v-291h-99v720z" />
    <glyph glyph-name="uni04D4" unicode="&#x4d4;" horiz-adv-x="838" 
d="M259 700h515v-96h-289v-201h269v-93h-269v-214h299v-96h-402v183h-201l-66 -183h-114zM382 275v329h-53l-117 -329h170z" />
    <glyph glyph-name="uni04D5" unicode="&#x4d5;" horiz-adv-x="899" 
d="M218 -7q-39 0 -71 11t-55 30.5t-36 47t-13 60.5q0 162 294 162h41q0 7 -0.5 20.5t-2.5 18.5q-2 51 -28 73t-73 22q-41 0 -84 -14.5t-78 -38.5l-43 75q102 67 208 67q58 0 99.5 -20t63.5 -58q32 37 77.5 57.5t99.5 20.5h3q50 0 92 -17.5t72 -49.5t47 -76t17 -97v-62h-376
v-1q7 -63 48 -103t103 -40h2q43 0 82 20t62 53l64 -57q-36 -48 -93 -76.5t-121 -28.5h-4q-61 0 -110.5 25t-81.5 69q-37 -43 -91.5 -68t-113.5 -25zM757 300v1q-5 63 -42.5 102t-97.5 39h-1q-57 0 -95 -39t-48 -103h284zM386 154q-7 18 -10 38t-3 39h-24q-108 0 -158 -20.5
t-50 -63.5q0 -31 25.5 -49t68.5 -18q45 0 85.5 20t65.5 54z" />
    <glyph glyph-name="uni04D8" unicode="&#x4d8;" horiz-adv-x="738" 
d="M585 397q-5 48 -22 88t-45 68.5t-66 44t-86 15.5h-1q-75 0 -127 -29t-84 -82l-85 57q42 67 119.5 109t181.5 42q69 0 128.5 -26.5t103 -74.5t68.5 -113.5t25 -143.5v-4q0 -77 -24 -142.5t-67.5 -113.5t-104 -75t-134.5 -27h-1q-74 0 -135 27t-104.5 74.5t-67.5 113
t-24 143.5v49h552zM142 308q6 -49 24 -90t47 -70t67.5 -45t83.5 -16h1q49 0 87.5 16t66.5 45t45 70t22 90h-444z" />
    <glyph glyph-name="uni04D9" unicode="&#x4d9;" 
d="M297 528q58 0 106 -19t82.5 -53.5t54 -81.5t19.5 -103v-13q0 -58 -19.5 -106.5t-54.5 -83.5t-83 -55t-105 -20h-3q-53 0 -97.5 17.5t-77 49.5t-50.5 76.5t-18 97.5v62h407q-4 32 -17.5 58t-35.5 45t-51 29.5t-64 10.5h-2q-51 0 -93 -21t-64 -52l-64 57q37 50 98 77.5
t128 27.5h4zM147 219q5 -62 46.5 -101.5t105.5 -39.5q62 0 103.5 38.5t52.5 102.5h-308z" />
    <glyph glyph-name="uni04E8" unicode="&#x4e8;" horiz-adv-x="772" 
d="M43 353q0 77 25.5 142.5t70.5 113.5t107.5 75t136.5 27h5q74 0 136.5 -27t108 -75t71 -113.5t25.5 -142.5v-6q0 -77 -25.5 -142.5t-71 -113t-108 -74.5t-136.5 -27h-5q-74 0 -136.5 27t-107.5 74.5t-70.5 113t-25.5 142.5v6zM616 396q-6 49 -25 89t-48.5 68.5t-68.5 44
t-86 15.5h-4q-46 0 -85 -15.5t-69 -44t-49 -68.5t-25 -89h460zM155 308q6 -49 25 -90t49 -69.5t69.5 -44.5t86.5 -16h4q46 0 85.5 16t69 44.5t48.5 69.5t25 90h-462z" />
    <glyph glyph-name="uni04E9" unicode="&#x4e9;" horiz-adv-x="642" 
d="M318 -8q-59 0 -108 19.5t-84.5 54.5t-55.5 83t-20 106v10q0 58 20 106t55.5 83t84.5 54.5t108 19.5h6q59 0 108 -19.5t84 -54.5t55 -83t20 -106v-10q0 -58 -20 -106t-55 -83t-84 -54.5t-108 -19.5h-6zM485 299q-9 66 -53 105.5t-110 39.5h-3q-65 0 -109 -39.5t-54 -105.5
h329zM322 76q66 0 110 40t54 106h-330q9 -66 53 -106t110 -40h3z" />
    <glyph glyph-name="uni058F" unicode="&#x58f;" horiz-adv-x="646" 
d="M299 710q126 0 196 -67.5t70 -196.5v-105h90v-86h-90v-43h90v-86h-90v-126h-106v126h-146v86h146v43h-146v86h146v97q0 88 -42 130t-118 42t-118.5 -42t-42.5 -130v-31h-106v39q0 128 69.5 196t197.5 68z" />
    <glyph glyph-name="Wgrave" unicode="&#x1e80;" horiz-adv-x="920" 
d="M18 700h109l121 -580h5l156 580h94l158 -580h3l129 580h109l-165 -700h-139l-138 515h-7l-138 -515h-140zM342 903h101l51 -141h-84z" />
    <glyph glyph-name="wgrave" unicode="&#x1e81;" horiz-adv-x="817" 
d="M29 520h101l95 -410h10l124 410h100l123 -412h10l96 412h101l-131 -520h-126l-121 388h-4l-121 -388h-126zM293 729h97l56 -145h-78z" />
    <glyph glyph-name="Wacute" unicode="&#x1e82;" horiz-adv-x="920" 
d="M18 700h109l121 -580h5l156 580h94l158 -580h3l129 580h109l-165 -700h-139l-138 515h-7l-138 -515h-140zM497 763h-81l48 141h100z" />
    <glyph glyph-name="wacute" unicode="&#x1e83;" horiz-adv-x="817" 
d="M29 520h101l95 -410h10l124 410h100l123 -412h10l96 412h101l-131 -520h-126l-121 388h-4l-121 -388h-126zM367 581l55 146h98l-75 -146h-78z" />
    <glyph glyph-name="Wdieresis" unicode="&#x1e84;" horiz-adv-x="920" 
d="M346 769q-24 0 -40 15t-16 38t16 39t40 16q23 0 39.5 -16t16.5 -39t-16.5 -38t-39.5 -15zM567 769q-24 0 -39.5 15t-15.5 38t15.5 39t39.5 16t40.5 -16t16.5 -39t-16.5 -38t-40.5 -15zM18 700h109l121 -580h5l156 580h94l158 -580h3l129 580h109l-165 -700h-139l-138 515
h-7l-138 -515h-140z" />
    <glyph glyph-name="wdieresis" unicode="&#x1e85;" horiz-adv-x="817" 
d="M29 520h101l95 -410h10l124 410h100l123 -412h10l96 412h101l-131 -520h-126l-121 388h-4l-121 -388h-126zM508 615q-24 0 -40 15.5t-16 38.5t16 38.5t40 15.5t40 -15.5t16 -38.5t-16 -38.5t-40 -15.5zM306 615q-24 0 -40 15.5t-16 38.5t16 38.5t40 15.5q23 0 39.5 -15.5
t16.5 -38.5t-16.5 -38.5t-39.5 -15.5z" />
    <glyph glyph-name="Germandbls" unicode="&#x1e9e;" horiz-adv-x="710" 
d="M409 -10q-45 0 -83 10t-69 29l57 88q44 -26 97 -26q69 0 109 35.5t40 95.5q0 58 -37.5 93.5t-100.5 35.5q-25 0 -51 -5.5t-43 -16.5l-41 69l183 206h-125q-35 0 -64 -12t-49.5 -34.5t-32 -53.5t-11.5 -69v-435h-106v436q0 60 18 108.5t51 83t79.5 53.5t103.5 19h263v-82
l-165 -181q7 1 13 1h12q48 -1 86.5 -17t66.5 -44.5t43 -67.5t15 -87q0 -53 -18 -96t-52 -73t-82 -46.5t-107 -16.5z" />
    <glyph glyph-name="uni1EBC" unicode="&#x1ebc;" horiz-adv-x="577" 
d="M92 700h421v-96h-315v-201h295v-93h-295v-214h325v-96h-431v700zM110 838q21 31 52 47.5t66 16.5q24 0 46 -7t46 -18q19 -8 37.5 -15t38.5 -7q23 0 41 9.5t29 26.5l37 -50q-19 -31 -48.5 -47.5t-64.5 -16.5q-23 0 -45 7t-47 18q-20 9 -39 15.5t-39 6.5q-23 0 -43 -10
t-31 -27z" />
    <glyph glyph-name="uni1EBD" unicode="&#x1ebd;" 
d="M312 -8q-58 0 -106 19t-82.5 53.5t-54 81.5t-19.5 103v13q0 58 19.5 106.5t54.5 84t83 55t104 19.5h3q54 0 98.5 -17.5t76.5 -49.5t50 -76.5t18 -97.5v-62h-406q8 -63 53 -103t115 -40h2q51 0 92.5 21t64.5 52l64 -57q-37 -50 -98 -77.5t-128 -27.5h-4zM462 301
q-2 31 -14 57t-32 44.5t-47 29t-59 10.5h-1q-62 0 -103.5 -38.5t-51.5 -102.5h308zM117 660q20 31 51.5 47.5t66.5 16.5q24 0 45.5 -7.5t45.5 -18.5q20 -8 38.5 -14.5t38.5 -6.5q23 0 41 9.5t29 26.5l37 -50q-19 -31 -48.5 -47.5t-64.5 -16.5q-24 0 -45.5 7t-46.5 18
q-20 8 -39 14.5t-39 6.5q-23 0 -43 -9.5t-31 -26.5z" />
    <glyph glyph-name="uni2010" unicode="&#x2010;" horiz-adv-x="452" 
d="M66 336h320v-86h-320v86z" />
    <glyph glyph-name="endash" unicode="&#x2013;" horiz-adv-x="642" 
d="M66 350h510v-80h-510v80z" />
    <glyph glyph-name="emdash" unicode="&#x2014;" horiz-adv-x="1132" 
d="M66 350h1000v-80h-1000v80z" />
    <glyph glyph-name="quoteleft" unicode="&#x2018;" horiz-adv-x="242" 
d="M145.007 437.043h-100.993l106.993 262.983h79.9951z" />
    <glyph glyph-name="quoteright" unicode="&#x2019;" horiz-adv-x="242" 
d="M117 700h101l-107 -263h-80z" />
    <glyph glyph-name="quotesinglbase" unicode="&#x201a;" horiz-adv-x="241" 
d="M100 145h100l-107 -264h-80z" />
    <glyph glyph-name="quotedblleft" unicode="&#x201c;" horiz-adv-x="415" 
d="M318.006 436.009h-99.9941l106.994 263.984h79.9951zM144.017 436.009h-99.9941l106.993 263.984h79.9961z" />
    <glyph glyph-name="quotedblright" unicode="&#x201d;" horiz-adv-x="415" 
d="M117 700h100l-107 -264h-80zM291 700h100l-107 -264h-80z" />
    <glyph glyph-name="quotedblbase" unicode="&#x201e;" horiz-adv-x="415" 
d="M97 145h100l-107 -264h-80zM271 145h100l-107 -264h-80z" />
    <glyph glyph-name="dagger" unicode="&#x2020;" horiz-adv-x="394" 
d="M154 435h-138v85h138v200h87v-200h137v-85h-137v-563h-87v563z" />
    <glyph glyph-name="daggerdbl" unicode="&#x2021;" horiz-adv-x="394" 
d="M152 168h-136v86h136v181h-136v85h136v200h90v-200h136v-85h-136v-181h136v-86h-136v-296h-90v296z" />
    <glyph glyph-name="bullet" unicode="&#x2022;" horiz-adv-x="240" 
d="M119 222q-31 0 -52 20.5t-21 49.5v4q0 29 21 49t52 20q32 0 53.5 -20t21.5 -49v-4q0 -29 -22 -49.5t-53 -20.5z" />
    <glyph glyph-name="ellipsis" unicode="&#x2026;" horiz-adv-x="664" 
d="M550 -10q-28 0 -47 18.5t-19 44.5v4q0 26 19 44t47 18t48 -18t20 -44v-4q0 -26 -20 -44.5t-48 -18.5zM112 -10q-28 0 -47 18.5t-19 44.5v4q0 26 19 44t47 18t48 -18t20 -44v-4q0 -26 -20 -44.5t-48 -18.5zM331 -10q-28 0 -47 18.5t-19 44.5v4q0 26 19 44t47 18t48 -18
t20 -44v-4q0 -26 -20 -44.5t-48 -18.5z" />
    <glyph glyph-name="perthousand" unicode="&#x2030;" horiz-adv-x="1205" 
d="M207 335q-36 0 -66 13.5t-51.5 37.5t-33.5 57t-12 72v13q0 38 12 71t33.5 57t51.5 37.5t66 13.5h8q36 0 66 -13.5t51.5 -37.5t33 -57t11.5 -71v-13q0 -39 -11.5 -72t-33 -57t-51.5 -37.5t-66 -13.5h-8zM632 702h118l-548 -703h-118zM212 418q35 0 57 28.5t22 70.5v8
q0 42 -22 70.5t-57 28.5h-2q-35 0 -57 -28.5t-22 -70.5v-8q0 -42 22 -70.5t57 -28.5h2zM619 -9q-37 0 -67 13.5t-51.5 37.5t-33 57t-11.5 71v13q0 39 11.5 72t33 57t51.5 37.5t67 13.5h7q37 0 67 -13.5t51.5 -37.5t33 -57t11.5 -72v-13q0 -38 -11.5 -71t-33 -57t-51.5 -37.5
t-67 -13.5h-7zM624 74q35 0 56.5 28.5t21.5 70.5v8q0 42 -21.5 70.5t-56.5 28.5h-3q-35 0 -56.5 -28.5t-21.5 -70.5v-8q0 -42 21.5 -70.5t56.5 -28.5h3zM991 -8q-37 0 -67 13.5t-51.5 37.5t-33 57t-11.5 71v13q0 39 11.5 72t33 57t51.5 37.5t67 13.5h7q37 0 67 -13.5
t51.5 -37.5t33 -57t11.5 -72v-13q0 -38 -11.5 -71t-33 -57t-51.5 -37.5t-67 -13.5h-7zM996 75q35 0 56.5 28.5t21.5 70.5v8q0 42 -21.5 70.5t-56.5 28.5h-3q-35 0 -56.5 -28.5t-21.5 -70.5v-8q0 -42 21.5 -70.5t56.5 -28.5h3z" />
    <glyph glyph-name="minute" unicode="&#x2032;" horiz-adv-x="253" 
d="M117 700h102l-92 -265h-75z" />
    <glyph glyph-name="second" unicode="&#x2033;" horiz-adv-x="436" 
d="M117 700h102l-92 -265h-75zM300 700h102l-92 -265h-75z" />
    <glyph glyph-name="guilsinglleft" unicode="&#x2039;" horiz-adv-x="382" 
d="M55 271v6l162 201h105l-161 -200v-8l161 -200h-105z" />
    <glyph glyph-name="guilsinglright" unicode="&#x203a;" horiz-adv-x="382" 
d="M327.003 271v6l-161.989 201h-104.994l160.99 -200v-8l-160.99 -200h104.994z" />
    <glyph glyph-name="fraction" unicode="&#x2044;" horiz-adv-x="317" 
d="M190 720h99l-163 -831h-98z" />
    <glyph glyph-name="Euro" unicode="&#x20ac;" horiz-adv-x="615" 
d="M367 -10q-106 0 -177 63.5t-95 177.5h-78v84h69q-1 6 -1 12.5v13.5v18v12.5t1 12.5h-69v83h79q12 56 37 101t60.5 76.5t81 48.5t97.5 17q68 0 121 -26t88 -76l-78 -63q-23 32 -57.5 49t-75.5 17q-63 0 -105.5 -38t-60.5 -106h244v-83h-256v-25v-19v-25h256v-84h-243
q17 -68 59 -105t102 -37q42 0 81.5 18t66.5 50l79 -63q-39 -50 -97.5 -77t-128.5 -27z" />
    <glyph glyph-name="uni20B4" unicode="&#x20b4;" horiz-adv-x="593" 
d="M17 467h380q17 20 17 48q-1 44 -32 70t-83 26q-42 0 -84.5 -17t-71.5 -45l-53 79q41 39 95 60t114 21q48 0 88 -13t68.5 -36t44 -56t15.5 -72q0 -35 -14 -65h75v-84h-559v84zM302 -10q-52 0 -95.5 13.5t-74 38t-47.5 58.5t-17 76q0 16 2.5 29.5t7.5 25.5h-61v84h559v-84
h-397q-8 -15 -8 -39q0 -47 35.5 -75t96.5 -28q50 0 97.5 19.5t80.5 53.5l58 -80q-43 -43 -105.5 -67.5t-131.5 -24.5z" />
    <glyph glyph-name="uni20B8" unicode="&#x20b8;" horiz-adv-x="539" 
d="M13 700h513v-84h-513v84zM217 482h-204v92h513v-92h-204v-482h-105v482z" />
    <glyph glyph-name="uni20BD" unicode="&#x20bd;" horiz-adv-x="614" 
d="M9 364h76v336h245q55 0 100 -14.5t76.5 -41.5t49 -65t17.5 -85v-5q0 -48 -17 -86.5t-48.5 -65.5t-76 -42t-100.5 -15h-140v-73h253v-84h-253v-123h-106v123h-76v84h76v73h-76v84zM325 364q69 0 104.5 32t35.5 87v5q0 54 -35 85.5t-103 31.5h-136v-241h134z" />
    <glyph glyph-name="uni2116" unicode="&#x2116;" horiz-adv-x="981" 
d="M814 444q-57 0 -91 35t-34 93v6q0 57 34 92t91 35h10q56 0 90 -35t34 -92v-6q0 -58 -34 -93t-90 -35h-10zM92 700h120l297 -531h4v531h103v-700h-110l-304 542h-7v-542h-103v700zM823 510q24 0 38.5 16.5t14.5 45.5v6q0 29 -14.5 45t-38.5 16h-5q-26 0 -41.5 -16
t-15.5 -45v-6q0 -29 15.5 -45.5t41.5 -16.5h5zM705 393h227v-70h-227v70z" />
    <glyph glyph-name="trademark" unicode="&#x2122;" horiz-adv-x="613" 
d="M267 700h115l35 -128h5l35 128h115v-245h-68v182h-7l-39 -136h-77l-39 136h-6v-182h-69v245zM86 635h-75v65h220v-65h-76v-180h-69v180z" />
    <glyph glyph-name="estimated" unicode="&#x212e;" horiz-adv-x="806" 
d="M233 108q37 -25 80 -39.5t91 -14.5q82 0 150 41.5t107 108.5h71q-21 -47 -54.5 -86.5t-76 -68t-92.5 -44t-105 -15.5q-75 0 -141 28.5t-114.5 77.5t-77 114.5t-28.5 140.5q0 74 28.5 139.5t77 114.5t114.5 77.5t141 28.5q74 0 139.5 -28.5t114.5 -77t77.5 -114
t28.5 -140.5h-531v-243zM574 593q-37 26 -79.5 40t-90.5 14t-91 -14.5t-80 -39.5v-178h341v178z" />
    <glyph glyph-name="partialdiff" unicode="&#x2202;" horiz-adv-x="593" 
d="M202 745q27 5 52.5 8t50.5 3q75 0 124 -23t78 -64t40.5 -97t11.5 -122q0 -75 -11.5 -155.5t-44.5 -148t-92 -111t-153 -43.5q-50 0 -90 16t-68.5 44.5t-43.5 69t-15 89.5q0 61 19.5 117t55.5 98.5t86.5 68t113.5 25.5q51 0 89.5 -24t60.5 -62v26q0 47 -9.5 87t-32.5 69
t-61.5 45.5t-96.5 16.5q-17 0 -35 -2.5t-38 -6.5zM269 78q42 0 73.5 19t52.5 49t32 67.5t11 74.5q0 66 -32.5 106.5t-90.5 40.5q-42 0 -74 -18.5t-53.5 -48.5t-32 -68.5t-10.5 -79.5q0 -65 33.5 -103.5t90.5 -38.5z" />
    <glyph glyph-name="uni2206" unicode="&#x2206;" horiz-adv-x="649" 
d="M253 700h144l251 -700h-647zM502 92l-174 507h-6l-174 -507h354z" />
    <glyph glyph-name="product" unicode="&#x220f;" horiz-adv-x="737" 
d="M36 700h645v-96h-69v-604h-106v604h-297v-604h-105v604h-68v96z" />
    <glyph glyph-name="summation" unicode="&#x2211;" horiz-adv-x="562" 
d="M183 100v-4h341v-96h-473v82l222 268l-222 268v82h473v-96h-341v-4l205 -250z" />
    <glyph glyph-name="minus" unicode="&#x2212;" horiz-adv-x="591" 
d="M48 368h495v-86h-495v86z" />
    <glyph glyph-name="radical" unicode="&#x221a;" horiz-adv-x="673" 
d="M148 433h-130v87h208l136 -404h8l184 584h109l-231 -700h-134z" />
    <glyph glyph-name="proportional" unicode="&#x221d;" horiz-adv-x="741" 
d="M681 169q-60 0 -119 28.5t-111 76.5q-52 -48 -111 -76.5t-119 -28.5q-34 0 -63 11.5t-51 32t-34.5 49.5t-12.5 63v10q0 35 12.5 63.5t34.5 49t51 32t63 11.5q60 0 119 -28.5t111 -76.5q52 48 111 76.5t119 28.5v-85q-41 0 -89.5 -19.5t-90.5 -56.5q44 -37 91.5 -56.5
t88.5 -19.5v-85zM152 328q0 -34 22.5 -54t63.5 -20t81.5 22t81.5 54q-41 32 -81.5 54t-81.5 22t-63.5 -20t-22.5 -54v-4z" />
    <glyph glyph-name="infinity" unicode="&#x221e;" horiz-adv-x="902" 
d="M221 491q60 0 119 -28.5t111 -76.5q52 48 111 76.5t119 28.5q34 0 63.5 -11.5t51 -32t34 -49t12.5 -63.5v-10q0 -34 -12.5 -63t-34 -49.5t-51 -32t-63.5 -11.5q-60 0 -119 28.5t-111 76.5q-52 -48 -111 -76.5t-119 -28.5q-34 0 -63 11.5t-51 32t-34.5 49.5t-12.5 63v10
q0 35 12.5 63.5t34.5 49t51 32t63 11.5zM750 328v4q0 34 -22.5 54t-63.5 20t-81.5 -22t-81.5 -54q41 -32 81.5 -54t81.5 -22t63.5 20t22.5 54zM152 328q0 -34 22.5 -54t63.5 -20t81.5 22t81.5 54q-41 32 -81.5 54t-81.5 22t-63.5 -20t-22.5 -54v-4z" />
    <glyph glyph-name="integral" unicode="&#x222b;" horiz-adv-x="357" 
d="M58 -197q-20 0 -45 4t-45 14v85q11 -5 24 -8.5t29 -3.5q36 0 51.5 18t19.5 68l52 573q7 78 43 121.5t105 43.5q24 0 50.5 -5t46.5 -15v-86q-17 8 -34.5 12t-37.5 4q-38 0 -54 -18.5t-20 -64.5l-52 -585q-8 -77 -40.5 -117t-92.5 -40z" />
    <glyph glyph-name="approxequal" unicode="&#x2248;" horiz-adv-x="608" 
d="M58 355v85q29 26 59 36t59 10q33 0 66.5 -9.5t66.5 -21.5t65.5 -21.5t64.5 -9.5q29 0 56.5 10t54.5 36v-85q-29 -26 -57.5 -35.5t-57.5 -9.5q-33 0 -66.5 10t-66.5 21.5t-65.5 21.5t-65.5 10q-29 0 -57 -11t-56 -37zM58 192v85q29 26 59 36t59 10q33 0 66.5 -9.5
t66.5 -21.5t65.5 -21.5t64.5 -9.5q29 0 56.5 10t54.5 36v-85q-29 -26 -57.5 -35.5t-57.5 -9.5q-33 0 -66 10t-66 21.5t-66 21.5t-66 10q-29 0 -57 -10.5t-56 -37.5z" />
    <glyph glyph-name="notequal" unicode="&#x2260;" horiz-adv-x="581" 
d="M58 453h265l92 158h75l-92 -158h125v-86h-176l-48 -83h224v-86h-274l-92 -158h-75l93 158h-117v86h167l48 83h-215v86z" />
    <glyph glyph-name="lessequal" unicode="&#x2264;" horiz-adv-x="558" 
d="M54 314v80l450 212v-99l-337 -152v-2l337 -154v-98zM54 86h450v-86h-450v86z" />
    <glyph glyph-name="greaterequal" unicode="&#x2265;" horiz-adv-x="558" 
d="M504.003 314v80l-449.972 212v-99l336.979 -152v-2l-336.979 -154v-98zM504.003 86h-449.972v-86h449.972v86z" />
    <glyph glyph-name="A.ss01" horiz-adv-x="663" 
d="M12 0q0 83 28 176t71.5 186t96.5 180t103 158h133l189 -700h-114l-47 183h-317q-14 -48 -23 -94t-9 -89h-111zM448 276l-82 321h-14q-18 -29 -39.5 -66t-43.5 -78.5t-43.5 -86.5t-39.5 -90h262z" />
    <glyph glyph-name="Aacute.ss01" horiz-adv-x="653" 
d="M325 762l49 141h100l-67 -141h-82zM4 0q0 83 28 176t71.5 186t96 180t102.5 158h134l188 -700h-113l-47 183h-317q-14 -48 -23 -94t-9 -89h-111zM440 276l-83 321h-13q-18 -29 -39.5 -66t-44 -78.5t-44 -86.5t-39.5 -90h263z" />
    <glyph glyph-name="Abreve.ss01" horiz-adv-x="653" 
d="M365 763q-36 0 -65.5 10t-51 28t-33.5 43t-12 56h87q0 -30 20.5 -48t52.5 -18t51.5 18t18.5 48h87q1 -62 -41 -99.5t-114 -37.5zM4 0q0 83 28 176t71.5 186t96 180t102.5 158h134l188 -700h-113l-47 183h-317q-14 -48 -23 -94t-9 -89h-111zM440 276l-83 321h-13
q-18 -29 -39.5 -66t-44 -78.5t-44 -86.5t-39.5 -90h263z" />
    <glyph glyph-name="Acircumflex.ss01" horiz-adv-x="653" 
d="M306 900h118l133 -123h-106l-77 61h-18l-77 -61h-106zM4 0q0 83 28 176t71.5 186t96 180t102.5 158h134l188 -700h-113l-47 183h-317q-14 -48 -23 -94t-9 -89h-111zM440 276l-83 321h-13q-18 -29 -39.5 -66t-44 -78.5t-44 -86.5t-39.5 -90h263z" />
    <glyph glyph-name="Adieresis.ss01" horiz-adv-x="653" 
d="M251 769q-24 0 -39.5 15t-15.5 38t15.5 39t39.5 16t40.5 -16t16.5 -39t-16.5 -38t-40.5 -15zM473 769q-24 0 -39.5 15t-15.5 38t15.5 39t39.5 16t40.5 -16t16.5 -39t-16.5 -38t-40.5 -15zM4 0q0 83 28 176t71.5 186t96 180t102.5 158h134l188 -700h-113l-47 183h-317
q-14 -48 -23 -94t-9 -89h-111zM440 276l-83 321h-13q-18 -29 -39.5 -66t-44 -78.5t-44 -86.5t-39.5 -90h263z" />
    <glyph glyph-name="Agrave.ss01" horiz-adv-x="653" 
d="M251 903h101l51 -141h-83zM4 0q0 83 28 176t71.5 186t96 180t102.5 158h134l188 -700h-113l-47 183h-317q-14 -48 -23 -94t-9 -89h-111zM440 276l-83 321h-13q-18 -29 -39.5 -66t-44 -78.5t-44 -86.5t-39.5 -90h263z" />
    <glyph glyph-name="Amacron.ss01" horiz-adv-x="663" 
d="M12 0q0 83 28 176t71.5 186t96.5 180t103 158h133l189 -700h-114l-47 183h-317q-14 -48 -23 -94t-9 -89h-111zM448 276l-82 321h-14q-18 -29 -39.5 -66t-43.5 -78.5t-43.5 -86.5t-39.5 -90h262zM233 885h282v-76h-282v76z" />
    <glyph glyph-name="Aogonek.ss01" horiz-adv-x="663" 
d="M12 0q0 83 28 176t71.5 186t96.5 180t103 158h133l189 -700h-114l-47 183h-317q-14 -48 -23 -94t-9 -89h-111zM448 276l-82 321h-14q-18 -29 -39.5 -66t-43.5 -78.5t-43.5 -86.5t-39.5 -90h262zM593 -174q-38 0 -61.5 20.5t-23.5 55.5q1 35 23 69t61 62l41 -33
q-26 -23 -39.5 -43.5t-13.5 -40.5q0 -32 29 -32q6 0 12 2t11 4v-58q-18 -6 -39 -6z" />
    <glyph glyph-name="Aring.ss01" horiz-adv-x="663" 
d="M12 0q0 83 28 176t71.5 186t96.5 180t103 158h133l189 -700h-114l-47 183h-317q-14 -48 -23 -94t-9 -89h-111zM448 276l-82 321h-14q-18 -29 -39.5 -66t-43.5 -78.5t-43.5 -86.5t-39.5 -90h262zM372 746q-43 0 -71 25.5t-28 65.5q0 42 28 68.5t71 26.5q45 0 73.5 -26.5
t28.5 -68.5q0 -40 -28.5 -65.5t-73.5 -25.5zM372 797q20 0 32.5 11.5t12.5 28.5q0 20 -12.5 32t-32.5 12q-19 0 -30.5 -12t-11.5 -32q0 -17 11.5 -28.5t30.5 -11.5z" />
    <glyph glyph-name="Atilde.ss01" horiz-adv-x="663" 
d="M12 0q0 83 28 176t71.5 186t96.5 180t103 158h133l189 -700h-114l-47 183h-317q-14 -48 -23 -94t-9 -89h-111zM448 276l-82 321h-14q-18 -29 -39.5 -66t-43.5 -78.5t-43.5 -86.5t-39.5 -90h262zM176 838q21 31 52 47.5t66 16.5q24 0 46 -7t46 -18q19 -8 37.5 -15t38.5 -7
q23 0 41 9.5t29 26.5l37 -50q-19 -31 -48.5 -47.5t-64.5 -16.5q-23 0 -45 7t-47 18q-20 9 -39 15.5t-39 6.5q-23 0 -43 -10t-31 -27z" />
    <glyph glyph-name="AE.ss01" horiz-adv-x="833" 
d="M12 0q0 83 28 177t71.5 187t95.5 179.5t101 156.5h461v-96h-287v-201h267v-93h-267v-214h297v-96h-403v187h-221q-14 -48 -23 -95t-9 -92h-111zM376 280v328h-19q-19 -31 -41.5 -69t-45 -80t-44.5 -87t-41 -92h191z" />
    <glyph glyph-name="G.ss01" horiz-adv-x="747" 
d="M574 503q-28 52 -73 81t-111 29h-2q-53 0 -96.5 -19.5t-74 -54t-47.5 -82.5t-17 -105v-5q0 -58 17 -105.5t48 -81.5t75 -53t98 -19h2q44 0 79.5 11t61 30t39 44.5t13.5 53.5q0 29 -17 43.5t-47 14.5q-8 0 -17.5 -1t-17.5 -3v89q14 3 30 4t30 1q66 0 104.5 -38t38.5 -112
v-225h-98v78q-32 -38 -87 -62.5t-119 -24.5h-5q-75 0 -137 26.5t-107 74t-69.5 113t-24.5 143.5v5q0 77 26 142.5t72 113t109.5 74.5t138.5 27h3q92 0 160.5 -42t109.5 -110z" />
    <glyph glyph-name="uni01F4.ss01" horiz-adv-x="747" 
d="M574 503q-28 52 -73 81t-111 29h-2q-53 0 -96.5 -19.5t-74 -54t-47.5 -82.5t-17 -105v-5q0 -58 17 -105.5t48 -81.5t75 -53t98 -19h2q44 0 79.5 11t61 30t39 44.5t13.5 53.5q0 29 -17 43.5t-47 14.5q-8 0 -17.5 -1t-17.5 -3v89q14 3 30 4t30 1q66 0 104.5 -38t38.5 -112
v-225h-98v78q-32 -38 -87 -62.5t-119 -24.5h-5q-75 0 -137 26.5t-107 74t-69.5 113t-24.5 143.5v5q0 77 26 142.5t72 113t109.5 74.5t138.5 27h3q92 0 160.5 -42t109.5 -110zM431 763h-81l48 141h100z" />
    <glyph glyph-name="Gbreve.ss01" horiz-adv-x="747" 
d="M574 503q-28 52 -73 81t-111 29h-2q-53 0 -96.5 -19.5t-74 -54t-47.5 -82.5t-17 -105v-5q0 -58 17 -105.5t48 -81.5t75 -53t98 -19h2q44 0 79.5 11t61 30t39 44.5t13.5 53.5q0 29 -17 43.5t-47 14.5q-8 0 -17.5 -1t-17.5 -3v89q14 3 30 4t30 1q66 0 104.5 -38t38.5 -112
v-225h-98v78q-32 -38 -87 -62.5t-119 -24.5h-5q-75 0 -137 26.5t-107 74t-69.5 113t-24.5 143.5v5q0 77 26 142.5t72 113t109.5 74.5t138.5 27h3q92 0 160.5 -42t109.5 -110zM316 899q0 -32 21 -50.5t56 -18.5q34 0 54.5 18.5t20.5 50.5h88q0 -31 -11.5 -57t-33 -45t-52 -29
t-67.5 -10t-67.5 10t-52 29t-33 45t-11.5 57h88z" />
    <glyph glyph-name="Gcircumflex.ss01" horiz-adv-x="747" 
d="M574 503q-28 52 -73 81t-111 29h-2q-53 0 -96.5 -19.5t-74 -54t-47.5 -82.5t-17 -105v-5q0 -58 17 -105.5t48 -81.5t75 -53t98 -19h2q44 0 79.5 11t61 30t39 44.5t13.5 53.5q0 29 -17 43.5t-47 14.5q-8 0 -17.5 -1t-17.5 -3v89q14 3 30 4t30 1q66 0 104.5 -38t38.5 -112
v-225h-98v78q-32 -38 -87 -62.5t-119 -24.5h-5q-75 0 -137 26.5t-107 74t-69.5 113t-24.5 143.5v5q0 77 26 142.5t72 113t109.5 74.5t138.5 27h3q92 0 160.5 -42t109.5 -110zM331 900h118l133 -123h-106l-77 61h-18l-77 -61h-106z" />
    <glyph glyph-name="uni0122.ss01" horiz-adv-x="747" 
d="M574 503q-28 52 -73 81t-111 29h-2q-53 0 -96.5 -19.5t-74 -54t-47.5 -82.5t-17 -105v-5q0 -58 17 -105.5t48 -81.5t75 -53t98 -19h2q44 0 79.5 11t61 30t39 44.5t13.5 53.5q0 29 -17 43.5t-47 14.5q-8 0 -17.5 -1t-17.5 -3v89q14 3 30 4t30 1q66 0 104.5 -38t38.5 -112
v-225h-98v78q-32 -38 -87 -62.5t-119 -24.5h-5q-75 0 -137 26.5t-107 74t-69.5 113t-24.5 143.5v5q0 77 26 142.5t72 113t109.5 74.5t138.5 27h3q92 0 160.5 -42t109.5 -110zM340 -41h89l-63 -147h-64z" />
    <glyph glyph-name="Gdotaccent.ss01" horiz-adv-x="747" 
d="M574 503q-28 52 -73 81t-111 29h-2q-53 0 -96.5 -19.5t-74 -54t-47.5 -82.5t-17 -105v-5q0 -58 17 -105.5t48 -81.5t75 -53t98 -19h2q44 0 79.5 11t61 30t39 44.5t13.5 53.5q0 29 -17 43.5t-47 14.5q-8 0 -17.5 -1t-17.5 -3v89q14 3 30 4t30 1q66 0 104.5 -38t38.5 -112
v-225h-98v78q-32 -38 -87 -62.5t-119 -24.5h-5q-75 0 -137 26.5t-107 74t-69.5 113t-24.5 143.5v5q0 77 26 142.5t72 113t109.5 74.5t138.5 27h3q92 0 160.5 -42t109.5 -110zM390 785q-26 0 -43 16t-17 42q0 25 17 41.5t43 16.5q27 0 44.5 -16.5t17.5 -41.5q0 -26 -17.5 -42
t-44.5 -16z" />
    <glyph glyph-name="J.ss01" horiz-adv-x="338" 
d="M81 -149q-26 0 -51 5.5t-46 14.5v100q18 -11 36 -16.5t38 -5.5q46 0 64.5 25.5t18.5 76.5v649h106v-654q0 -94 -42.5 -144.5t-123.5 -50.5z" />
    <glyph glyph-name="Jcircumflex.ss01" horiz-adv-x="338" 
d="M81 -149q-26 0 -51 5.5t-46 14.5v100q18 -11 36 -16.5t38 -5.5q46 0 64.5 25.5t18.5 76.5v649h106v-654q0 -94 -42.5 -144.5t-123.5 -50.5zM136 897h118l133 -123h-106l-77 61h-18l-77 -61h-106z" />
    <glyph glyph-name="K.ss01" horiz-adv-x="654" 
d="M92 700h106v-305h5q48 24 92 54t81.5 67.5t66.5 83t48 100.5h115q-23 -62 -55.5 -113t-70.5 -92t-80 -72t-84 -54l333 -369h-138l-308 345h-5v-345h-106v700z" />
    <glyph glyph-name="uni0136.ss01" horiz-adv-x="654" 
d="M92 700h106v-305h5q48 24 92 54t81.5 67.5t66.5 83t48 100.5h115q-23 -62 -55.5 -113t-70.5 -92t-80 -72t-84 -54l333 -369h-138l-308 345h-5v-345h-106v700zM305 -36h89l-63 -147h-64z" />
    <glyph glyph-name="M.ss01" horiz-adv-x="897" 
d="M67 0q0 99 10.5 198.5t29 191t43.5 171t55 139.5h107l128 -463h6l215 463h144v-700h-105v566h-6l-220 -468h-86l-132 468h-6q-15 -33 -29 -93t-24.5 -136.5t-16.5 -163.5t-6 -173h-107z" />
    <glyph glyph-name="N.ss01" horiz-adv-x="726" 
d="M84 0q-3 200 4 380t23 320h108l302 -531h9v531h104v-700h-112l-314 552h-9q-11 -128 -12 -266t4 -286h-107z" />
    <glyph glyph-name="Nacute.ss01" horiz-adv-x="726" 
d="M84 0q-3 200 4 380t23 320h108l302 -531h9v531h104v-700h-112l-314 552h-9q-11 -128 -12 -266t4 -286h-107zM399 763h-81l48 141h100z" />
    <glyph glyph-name="Ncaron.ss01" horiz-adv-x="726" 
d="M84 0q-3 200 4 380t23 320h108l302 -531h9v531h104v-700h-112l-314 552h-9q-11 -128 -12 -266t4 -286h-107zM167 900h106l77 -62h18l77 62h106l-133 -123h-118z" />
    <glyph glyph-name="uni0145.ss01" horiz-adv-x="726" 
d="M84 0q-3 200 4 380t23 320h108l302 -531h9v531h104v-700h-112l-314 552h-9q-11 -128 -12 -266t4 -286h-107zM319 -36h89l-63 -147h-64z" />
    <glyph glyph-name="Eng.ss01" horiz-adv-x="751" 
d="M465 -197q-29 0 -54.5 5.5t-46.5 13.5v102q17 -11 37 -17t44 -6q55 0 81.5 26.5t26.5 73.5v7l-347 537h-7q-10 -128 -11.5 -262.5t3.5 -282.5h-107q-3 200 4 380t23 320h115l321 -499h7v499h105v-700q0 -92 -49.5 -144.5t-144.5 -52.5z" />
    <glyph glyph-name="Ntilde.ss01" horiz-adv-x="726" 
d="M84 0q-3 200 4 380t23 320h108l302 -531h9v531h104v-700h-112l-314 552h-9q-11 -128 -12 -266t4 -286h-107zM161 838q21 31 52 47.5t66 16.5q24 0 46 -7t46 -18q19 -8 37.5 -15t38.5 -7q23 0 41 9.5t29 26.5l37 -50q-19 -31 -48.5 -47.5t-64.5 -16.5q-23 0 -45 7t-47 18
q-20 9 -39 15.5t-39 6.5q-23 0 -43 -10t-31 -27z" />
    <glyph glyph-name="Q.ss01" horiz-adv-x="779" 
d="M581 -102q-47 0 -87 15t-73.5 32.5t-62 32.5t-52.5 15q-49 0 -49 -54l-92 18q0 56 33 93t89 37q17 0 33.5 -2.5t33.5 -6.5q60 0 109 20t83.5 55.5t53 85t18.5 109.5v3q0 58 -16.5 106t-47 82.5t-73 54t-94.5 19.5h-3q-51 0 -94 -19t-73.5 -53t-47.5 -81.5t-17 -103.5v-3
q0 -70 26 -126t74 -90l-72 -74q-65 48 -101 123.5t-36 166.5v3q0 77 25.5 142t70.5 112.5t107.5 74t137.5 26.5h3q75 0 137.5 -27t108 -74t71 -112t25.5 -141v-3q0 -63 -17 -118t-48 -99t-74.5 -75.5t-95.5 -47.5q21 -10 41 -16.5t39 -6.5q35 0 47.5 18t12.5 37l92 -18
q0 -27 -9.5 -50.5t-28.5 -41.5t-45.5 -28t-61.5 -10z" />
    <glyph glyph-name="V.ss01" horiz-adv-x="638" 
d="M8 700h114l157 -599h13q29 51 62.5 122.5t62.5 152t49 164.5t21 160h112q-4 -89 -29.5 -184.5t-62.5 -187.5t-80.5 -176.5t-83.5 -151.5h-142z" />
    <glyph glyph-name="W.ss01" horiz-adv-x="963" 
d="M27 700h114l115 -590h11q17 35 35 79.5t36 95t34.5 105t29.5 108.5t21 105.5t9 96.5h111l137 -590h11q22 51 47.5 122t47 150.5t37 162t16.5 155.5h113q-4 -85 -25.5 -180t-52 -188t-66 -179t-68.5 -153h-132l-112 490h-8q-12 -55 -32 -119t-44.5 -128.5t-51 -127
t-51.5 -115.5h-131z" />
    <glyph glyph-name="Wacute.ss01" horiz-adv-x="963" 
d="M27 700h114l115 -590h11q17 35 35 79.5t36 95t34.5 105t29.5 108.5t21 105.5t9 96.5h111l137 -590h11q22 51 47.5 122t47 150.5t37 162t16.5 155.5h113q-4 -85 -25.5 -180t-52 -188t-66 -179t-68.5 -153h-132l-112 490h-8q-12 -55 -32 -119t-44.5 -128.5t-51 -127
t-51.5 -115.5h-131zM533 763h-81l48 141h100z" />
    <glyph glyph-name="Wcircumflex.ss01" horiz-adv-x="963" 
d="M27 700h114l115 -590h11q17 35 35 79.5t36 95t34.5 105t29.5 108.5t21 105.5t9 96.5h111l137 -590h11q22 51 47.5 122t47 150.5t37 162t16.5 155.5h113q-4 -85 -25.5 -180t-52 -188t-66 -179t-68.5 -153h-132l-112 490h-8q-12 -55 -32 -119t-44.5 -128.5t-51 -127
t-51.5 -115.5h-131zM433 900h118l133 -123h-106l-77 61h-18l-77 -61h-106z" />
    <glyph glyph-name="Wdieresis.ss01" horiz-adv-x="963" 
d="M27 700h114l115 -590h11q17 35 35 79.5t36 95t34.5 105t29.5 108.5t21 105.5t9 96.5h111l137 -590h11q22 51 47.5 122t47 150.5t37 162t16.5 155.5h113q-4 -85 -25.5 -180t-52 -188t-66 -179t-68.5 -153h-132l-112 490h-8q-12 -55 -32 -119t-44.5 -128.5t-51 -127
t-51.5 -115.5h-131zM403 768q-23 0 -38.5 15t-15.5 39q0 23 15.5 39t38.5 16t38.5 -16t15.5 -39q0 -24 -15.5 -39t-38.5 -15zM580 768q-23 0 -38 15t-15 39q0 23 15 39t38 16t39 -16t16 -39q0 -24 -16 -39t-39 -15z" />
    <glyph glyph-name="Wgrave.ss01" horiz-adv-x="963" 
d="M27 700h114l115 -590h11q17 35 35 79.5t36 95t34.5 105t29.5 108.5t21 105.5t9 96.5h111l137 -590h11q22 51 47.5 122t47 150.5t37 162t16.5 155.5h113q-4 -85 -25.5 -180t-52 -188t-66 -179t-68.5 -153h-132l-112 490h-8q-12 -55 -32 -119t-44.5 -128.5t-51 -127
t-51.5 -115.5h-131zM378 903h101l51 -141h-84z" />
    <glyph glyph-name="X.ss01" 
d="M11 0q17 56 41 105.5t52.5 94.5t60 85t64.5 76v4l-208 335h124l164 -269q53 60 94 129t53 140h119q-12 -48 -32.5 -92.5t-47.5 -86t-58.5 -80.5t-64.5 -76v-4l226 -361h-123l-179 296q-26 -30 -51.5 -64t-47 -71.5t-38 -78t-25.5 -82.5h-123z" />
    <glyph glyph-name="Y.ss01" horiz-adv-x="604" 
d="M248 275l-244 425h121l180 -329h7q26 31 51.5 70t47 82.5t36 88.5t17.5 88h121q-29 -120 -90 -223.5t-141 -199.5v-277h-106v275z" />
    <glyph glyph-name="Yacute.ss01" horiz-adv-x="604" 
d="M248 275l-244 425h121l180 -329h7q26 31 51.5 70t47 82.5t36 88.5t17.5 88h121q-29 -120 -90 -223.5t-141 -199.5v-277h-106v275zM343 760h-81l48 141h100z" />
    <glyph glyph-name="Ycircumflex.ss01" horiz-adv-x="604" 
d="M248 275l-244 425h121l180 -329h7q26 31 51.5 70t47 82.5t36 88.5t17.5 88h121q-29 -120 -90 -223.5t-141 -199.5v-277h-106v275zM243 897h118l133 -123h-106l-77 61h-18l-77 -61h-106z" />
    <glyph glyph-name="Ydieresis.ss01" horiz-adv-x="604" 
d="M220 768q-23 0 -38 15t-15 39q0 23 15 39t38 16t39 -16t16 -39q0 -24 -16 -39t-39 -15zM398 768q-23 0 -38.5 15t-15.5 39q0 23 15.5 39t38.5 16t38.5 -16t15.5 -39q0 -24 -15.5 -39t-38.5 -15zM248 275l-244 425h121l180 -329h7q26 31 51.5 70t47 82.5t36 88.5t17.5 88
h121q-29 -120 -90 -223.5t-141 -199.5v-277h-106v275z" />
    <glyph glyph-name="Z.ss01" horiz-adv-x="590" 
d="M444 -43q-47 0 -87 13.5t-74 29t-63 29t-55 13.5t-39 -11.5t-13 -37.5l-92 26q6 49 35 80l351 505h-344v96h473v-83l-334 -488q35 -6 67 -18.5t61.5 -25t56.5 -22t51 -9.5q19 0 31 5t19 12.5t10 17t3 18.5l93 -19q0 -27 -10 -50.5t-29 -41.5t-47 -28.5t-64 -10.5z" />
    <glyph glyph-name="Zacute.ss01" horiz-adv-x="590" 
d="M444 -43q-47 0 -87 13.5t-74 29t-63 29t-55 13.5t-39 -11.5t-13 -37.5l-92 26q6 49 35 80l351 505h-344v96h473v-83l-334 -488q35 -6 67 -18.5t61.5 -25t56.5 -22t51 -9.5q19 0 31 5t19 12.5t10 17t3 18.5l93 -19q0 -27 -10 -50.5t-29 -41.5t-47 -28.5t-64 -10.5z
M332 761h-81l48 141h100z" />
    <glyph glyph-name="Zcaron.ss01" horiz-adv-x="590" 
d="M444 -43q-47 0 -87 13.5t-74 29t-63 29t-55 13.5t-39 -11.5t-13 -37.5l-92 26q6 49 35 80l351 505h-344v96h473v-83l-334 -488q35 -6 67 -18.5t61.5 -25t56.5 -22t51 -9.5q19 0 31 5t19 12.5t10 17t3 18.5l93 -19q0 -27 -10 -50.5t-29 -41.5t-47 -28.5t-64 -10.5z
M100 898h106l77 -62h18l77 62h106l-133 -123h-118z" />
    <glyph glyph-name="Zdotaccent.ss01" horiz-adv-x="590" 
d="M444 -43q-47 0 -87 13.5t-74 29t-63 29t-55 13.5t-39 -11.5t-13 -37.5l-92 26q6 49 35 80l351 505h-344v96h473v-83l-334 -488q35 -6 67 -18.5t61.5 -25t56.5 -22t51 -9.5q19 0 31 5t19 12.5t10 17t3 18.5l93 -19q0 -27 -10 -50.5t-29 -41.5t-47 -28.5t-64 -10.5z
M290 783q-26 0 -43 16t-17 42q0 25 17 41.5t43 16.5q27 0 44.5 -16.5t17.5 -41.5q0 -26 -17.5 -42t-44.5 -16z" />
    <glyph glyph-name="a.ss01" horiz-adv-x="637" 
d="M274 -6q-54 0 -96 20.5t-70.5 55.5t-43 80.5t-14.5 94.5v8q0 54 17 103.5t51.5 88t86.5 61t121 22.5h6q118 0 227 -80v-448h-78q-6 16 -11 41t-5 43v11q-30 -48 -77 -74.5t-109 -26.5h-5zM297 83q35 0 64.5 13t52 37.5t35 59t12.5 76.5v132q-26 21 -58 31.5t-64 10.5h-4
q-46 0 -80.5 -15.5t-57 -41.5t-33.5 -60t-11 -70v-6q0 -42 11.5 -73.5t30.5 -52t44.5 -31t52.5 -10.5h5z" />
    <glyph glyph-name="aacute.ss01" horiz-adv-x="637" 
d="M274 -6q-54 0 -96 20.5t-70.5 55.5t-43 80.5t-14.5 94.5v8q0 54 17 103.5t51.5 88t86.5 61t121 22.5h6q118 0 227 -80v-448h-78q-6 16 -11 41t-5 43v11q-30 -48 -77 -74.5t-109 -26.5h-5zM297 83q35 0 64.5 13t52 37.5t35 59t12.5 76.5v132q-26 21 -58 31.5t-64 10.5h-4
q-46 0 -80.5 -15.5t-57 -41.5t-33.5 -60t-11 -70v-6q0 -42 11.5 -73.5t30.5 -52t44.5 -31t52.5 -10.5h5zM289 581l55 146h98l-75 -146h-78z" />
    <glyph glyph-name="abreve.ss01" horiz-adv-x="637" 
d="M274 -6q-54 0 -96 20.5t-70.5 55.5t-43 80.5t-14.5 94.5v8q0 54 17 103.5t51.5 88t86.5 61t121 22.5h6q118 0 227 -80v-448h-78q-6 16 -11 41t-5 43v11q-30 -48 -77 -74.5t-109 -26.5h-5zM297 83q35 0 64.5 13t52 37.5t35 59t12.5 76.5v132q-26 21 -58 31.5t-64 10.5h-4
q-46 0 -80.5 -15.5t-57 -41.5t-33.5 -60t-11 -70v-6q0 -42 11.5 -73.5t30.5 -52t44.5 -31t52.5 -10.5h5zM254 720q0 -32 21 -50.5t56 -18.5q34 0 54.5 18.5t20.5 50.5h88q0 -31 -11.5 -57t-33 -45t-52 -29t-67.5 -10t-67 10t-51.5 29t-33 45t-11.5 57h87z" />
    <glyph glyph-name="acircumflex.ss01" horiz-adv-x="637" 
d="M274 -6q-54 0 -96 20.5t-70.5 55.5t-43 80.5t-14.5 94.5v8q0 54 17 103.5t51.5 88t86.5 61t121 22.5h6q118 0 227 -80v-448h-78q-6 16 -11 41t-5 43v11q-30 -48 -77 -74.5t-109 -26.5h-5zM297 83q35 0 64.5 13t52 37.5t35 59t12.5 76.5v132q-26 21 -58 31.5t-64 10.5h-4
q-46 0 -80.5 -15.5t-57 -41.5t-33.5 -60t-11 -70v-6q0 -42 11.5 -73.5t30.5 -52t44.5 -31t52.5 -10.5h5zM418 596l-78 62h-18l-79 -62h-105l134 124h117l134 -124h-105z" />
    <glyph glyph-name="adieresis.ss01" horiz-adv-x="637" 
d="M274 -6q-54 0 -96 20.5t-70.5 55.5t-43 80.5t-14.5 94.5v8q0 54 17 103.5t51.5 88t86.5 61t121 22.5h6q118 0 227 -80v-448h-78q-6 16 -11 41t-5 43v11q-30 -48 -77 -74.5t-109 -26.5h-5zM297 83q35 0 64.5 13t52 37.5t35 59t12.5 76.5v132q-26 21 -58 31.5t-64 10.5h-4
q-46 0 -80.5 -15.5t-57 -41.5t-33.5 -60t-11 -70v-6q0 -42 11.5 -73.5t30.5 -52t44.5 -31t52.5 -10.5h5zM430 618q-24 0 -40 15.5t-16 38.5t16 38.5t40 15.5t40 -15.5t16 -38.5t-16 -38.5t-40 -15.5zM228 618q-24 0 -40 15.5t-16 38.5t16 38.5t40 15.5q23 0 39.5 -15.5
t16.5 -38.5t-16.5 -38.5t-39.5 -15.5z" />
    <glyph glyph-name="agrave.ss01" horiz-adv-x="637" 
d="M274 -6q-54 0 -96 20.5t-70.5 55.5t-43 80.5t-14.5 94.5v8q0 54 17 103.5t51.5 88t86.5 61t121 22.5h6q118 0 227 -80v-448h-78q-6 16 -11 41t-5 43v11q-30 -48 -77 -74.5t-109 -26.5h-5zM297 83q35 0 64.5 13t52 37.5t35 59t12.5 76.5v132q-26 21 -58 31.5t-64 10.5h-4
q-46 0 -80.5 -15.5t-57 -41.5t-33.5 -60t-11 -70v-6q0 -42 11.5 -73.5t30.5 -52t44.5 -31t52.5 -10.5h5zM215 729h97l56 -145h-78z" />
    <glyph glyph-name="amacron.ss01" horiz-adv-x="637" 
d="M274 -6q-54 0 -96 20.5t-70.5 55.5t-43 80.5t-14.5 94.5v8q0 54 17 103.5t51.5 88t86.5 61t121 22.5h6q118 0 227 -80v-448h-78q-6 16 -11 41t-5 43v11q-30 -48 -77 -74.5t-109 -26.5h-5zM297 83q35 0 64.5 13t52 37.5t35 59t12.5 76.5v132q-26 21 -58 31.5t-64 10.5h-4
q-46 0 -80.5 -15.5t-57 -41.5t-33.5 -60t-11 -70v-6q0 -42 11.5 -73.5t30.5 -52t44.5 -31t52.5 -10.5h5zM190 710h282v-78h-282v78z" />
    <glyph glyph-name="aogonek.ss01" horiz-adv-x="637" 
d="M274 -6q-54 0 -96 20.5t-70.5 55.5t-43 80.5t-14.5 94.5v8q0 54 17 103.5t51.5 88t86.5 61t121 22.5h6q118 0 227 -80v-448h-78q-6 16 -11 41t-5 43v11q-30 -48 -77 -74.5t-109 -26.5h-5zM297 83q35 0 64.5 13t52 37.5t35 59t12.5 76.5v132q-26 21 -58 31.5t-64 10.5h-4
q-46 0 -80.5 -15.5t-57 -41.5t-33.5 -60t-11 -70v-6q0 -42 11.5 -73.5t30.5 -52t44.5 -31t52.5 -10.5h5zM519 -174q-38 0 -61.5 20.5t-23.5 55.5q1 35 23 69t61 62l41 -33q-26 -23 -39.5 -43.5t-13.5 -40.5q0 -32 29 -32q6 0 12 2t11 4v-58q-18 -6 -39 -6z" />
    <glyph glyph-name="aring.ss01" horiz-adv-x="637" 
d="M274 -6q-54 0 -96 20.5t-70.5 55.5t-43 80.5t-14.5 94.5v8q0 54 17 103.5t51.5 88t86.5 61t121 22.5h6q118 0 227 -80v-448h-78q-6 16 -11 41t-5 43v11q-30 -48 -77 -74.5t-109 -26.5h-5zM297 83q35 0 64.5 13t52 37.5t35 59t12.5 76.5v132q-26 21 -58 31.5t-64 10.5h-4
q-46 0 -80.5 -15.5t-57 -41.5t-33.5 -60t-11 -70v-6q0 -42 11.5 -73.5t30.5 -52t44.5 -31t52.5 -10.5h5zM330 576q-42 0 -69 25t-27 64q0 41 27 66.5t69 25.5q43 0 70.5 -26t27.5 -66q0 -39 -27.5 -64t-70.5 -25zM331 627q19 0 30.5 11t11.5 28t-11.5 28.5t-30.5 11.5
t-30 -11.5t-11 -28.5t11 -28t30 -11z" />
    <glyph glyph-name="atilde.ss01" horiz-adv-x="637" 
d="M274 -6q-54 0 -96 20.5t-70.5 55.5t-43 80.5t-14.5 94.5v8q0 54 17 103.5t51.5 88t86.5 61t121 22.5h6q118 0 227 -80v-448h-78q-6 16 -11 41t-5 43v11q-30 -48 -77 -74.5t-109 -26.5h-5zM297 83q35 0 64.5 13t52 37.5t35 59t12.5 76.5v132q-26 21 -58 31.5t-64 10.5h-4
q-46 0 -80.5 -15.5t-57 -41.5t-33.5 -60t-11 -70v-6q0 -42 11.5 -73.5t30.5 -52t44.5 -31t52.5 -10.5h5zM132 660q20 31 51.5 47.5t66.5 16.5q24 0 45.5 -7.5t45.5 -18.5q20 -8 38.5 -14.5t38.5 -6.5q23 0 41 9.5t29 26.5l37 -50q-19 -31 -48.5 -47.5t-64.5 -16.5
q-24 0 -45.5 7t-46.5 18q-20 8 -39 14.5t-39 6.5q-23 0 -43 -9.5t-31 -26.5z" />
    <glyph glyph-name="ae.ss01" horiz-adv-x="902" 
d="M621 -8q-62 0 -112.5 26t-82.5 71q-38 -45 -93 -71t-115 -26q-39 0 -71 11t-55.5 31t-36 48t-12.5 62q0 163 292 163h41v44q0 42 -25.5 64.5t-75.5 22.5q-40 0 -84.5 -14.5t-78.5 -38.5l-43 76q51 33 104.5 50t104.5 17q57 0 98.5 -21t64.5 -59q33 37 80.5 58t104.5 21
h11q44 0 82.5 -13t68 -36t46.5 -53.5t17 -66.5q0 -66 -47.5 -99t-149.5 -33h-183q3 -33 16.5 -59t34.5 -45t48 -29t57 -10h10q48 0 85 18.5t62 52.5l66 -55q-35 -51 -92 -79t-126 -28h-11zM659 303q54 0 73 16t19 46q0 15 -9 29t-25 24.5t-37.5 17t-46.5 6.5h-4
q-62 0 -105 -38.5t-52 -100.5h187zM347 232q-106 0 -156 -20.5t-50 -63.5q0 -31 25 -50t70 -19t87 23.5t65 63.5q-10 32 -11 66h-30z" />
    <glyph glyph-name="b.ss01" horiz-adv-x="641" 
d="M177 720v-285q31 45 77 69t105 24h4q55 0 96.5 -20.5t70 -55.5t43 -80t14.5 -95v-8q0 -54 -17 -104t-51.5 -88t-86.5 -61t-121 -23h-6q-58 0 -115.5 20t-111.5 61v646h99zM176 121q26 -21 58 -32t64 -11h5q46 0 80 15.5t56.5 42t33.5 60.5t11 70v5q0 42 -11.5 73.5
t-31 52.5t-44.5 31.5t-53 10.5h-5q-34 0 -63.5 -13.5t-51.5 -38t-35 -59t-13 -76.5v-131z" />
    <glyph glyph-name="d.ss01" horiz-adv-x="648" 
d="M280 -6q-55 0 -96.5 20.5t-70 55t-43 80t-14.5 94.5v8q0 54 17 104t51 88t86 61t121 23h6q63 0 130 -27v219h99v-720h-78q-6 16 -11 41t-5 44v11q-31 -48 -78 -75t-110 -27h-4zM304 83q34 0 64 13t52 37.5t34.5 59t12.5 76.5v132q-26 21 -58 31.5t-64 10.5h-4
q-46 0 -80.5 -15.5t-57 -41.5t-33.5 -60t-11 -70v-6q0 -42 11.5 -73.5t31 -52t44.5 -31t53 -10.5h5z" />
    <glyph glyph-name="dcaron.ss01" horiz-adv-x="674" 
d="M280 -6q-55 0 -96.5 20.5t-70 55t-43 80t-14.5 94.5v8q0 54 17 104t51 88t86 61t121 23h6q63 0 130 -27v219h99v-720h-78q-6 16 -11 41t-5 44v11q-31 -48 -78 -75t-110 -27h-4zM304 83q34 0 64 13t52 37.5t34.5 59t12.5 76.5v132q-26 21 -58 31.5t-64 10.5h-4
q-46 0 -80.5 -15.5t-57 -41.5t-33.5 -60t-11 -70v-6q0 -42 11.5 -73.5t31 -52t44.5 -31t53 -10.5h5zM646 720h92l-36 -161h-68z" />
    <glyph glyph-name="dcroat.ss01" horiz-adv-x="640" 
d="M280 -6q-55 0 -96.5 20.5t-70 55t-43 80t-14.5 94.5v8q0 54 17 104t51 88t86 61t121 23h6q63 0 130 -27v92h-162v71h162v56h99v-56h58v-72h-58v-592h-78q-6 16 -11 41t-5 44v11q-31 -48 -78 -75t-110 -27h-4zM304 83q34 0 64 13t52 37.5t34.5 59t12.5 76.5v132
q-26 21 -58 31.5t-64 10.5h-4q-46 0 -80.5 -15.5t-57 -41.5t-33.5 -60t-11 -70v-6q0 -42 11.5 -73.5t31 -52t44.5 -31t53 -10.5h5z" />
    <glyph glyph-name="e.ss01" horiz-adv-x="603" 
d="M312 -8q-56 0 -103 19t-81.5 53t-53.5 81.5t-19 103.5v14q0 57 19.5 105.5t54.5 84t83.5 55.5t106.5 20h11q45 0 85.5 -13.5t70.5 -36.5t48 -54.5t18 -67.5q0 -66 -50 -99.5t-156 -33.5h-189q8 -66 52.5 -104t107.5 -38h12q51 0 90 19t67 54l66 -55q-38 -51 -96.5 -79
t-131.5 -28h-12zM353 300q58 0 78.5 16t20.5 47q0 16 -9.5 30t-26.5 25t-40 17.5t-50 6.5h-3q-69 0 -112 -39t-53 -103h195z" />
    <glyph glyph-name="eacute.ss01" horiz-adv-x="603" 
d="M312 -8q-56 0 -103 19t-81.5 53t-53.5 81.5t-19 103.5v14q0 57 19.5 105.5t54.5 84t83.5 55.5t106.5 20h11q45 0 85.5 -13.5t70.5 -36.5t48 -54.5t18 -67.5q0 -66 -50 -99.5t-156 -33.5h-189q8 -66 52.5 -104t107.5 -38h12q51 0 90 19t67 54l66 -55q-38 -51 -96.5 -79
t-131.5 -28h-12zM353 300q58 0 78.5 16t20.5 47q0 16 -9.5 30t-26.5 25t-40 17.5t-50 6.5h-3q-69 0 -112 -39t-53 -103h195zM291 581l55 146h98l-75 -146h-78z" />
    <glyph glyph-name="ebreve.ss01" horiz-adv-x="603" 
d="M312 -8q-56 0 -103 19t-81.5 53t-53.5 81.5t-19 103.5v14q0 57 19.5 105.5t54.5 84t83.5 55.5t106.5 20h11q45 0 85.5 -13.5t70.5 -36.5t48 -54.5t18 -67.5q0 -66 -50 -99.5t-156 -33.5h-189q8 -66 52.5 -104t107.5 -38h12q51 0 90 19t67 54l66 -55q-38 -51 -96.5 -79
t-131.5 -28h-12zM353 300q58 0 78.5 16t20.5 47q0 16 -9.5 30t-26.5 25t-40 17.5t-50 6.5h-3q-69 0 -112 -39t-53 -103h195zM256 720q0 -32 21 -50.5t56 -18.5q34 0 54.5 18.5t20.5 50.5h88q0 -31 -11.5 -57t-33 -45t-52 -29t-67.5 -10t-67 10t-51.5 29t-33 45t-11.5 57h87z
" />
    <glyph glyph-name="ecaron.ss01" horiz-adv-x="603" 
d="M312 -8q-56 0 -103 19t-81.5 53t-53.5 81.5t-19 103.5v14q0 57 19.5 105.5t54.5 84t83.5 55.5t106.5 20h11q45 0 85.5 -13.5t70.5 -36.5t48 -54.5t18 -67.5q0 -66 -50 -99.5t-156 -33.5h-189q8 -66 52.5 -104t107.5 -38h12q51 0 90 19t67 54l66 -55q-38 -51 -96.5 -79
t-131.5 -28h-12zM353 300q58 0 78.5 16t20.5 47q0 16 -9.5 30t-26.5 25t-40 17.5t-50 6.5h-3q-69 0 -112 -39t-53 -103h195zM140 720h105l79 -71h18l78 71h105l-134 -132h-117z" />
    <glyph glyph-name="ecircumflex.ss01" horiz-adv-x="603" 
d="M312 -8q-56 0 -103 19t-81.5 53t-53.5 81.5t-19 103.5v14q0 57 19.5 105.5t54.5 84t83.5 55.5t106.5 20h11q45 0 85.5 -13.5t70.5 -36.5t48 -54.5t18 -67.5q0 -66 -50 -99.5t-156 -33.5h-189q8 -66 52.5 -104t107.5 -38h12q51 0 90 19t67 54l66 -55q-38 -51 -96.5 -79
t-131.5 -28h-12zM353 300q58 0 78.5 16t20.5 47q0 16 -9.5 30t-26.5 25t-40 17.5t-50 6.5h-3q-69 0 -112 -39t-53 -103h195zM420 596l-78 62h-18l-79 -62h-105l134 124h117l134 -124h-105z" />
    <glyph glyph-name="edieresis.ss01" horiz-adv-x="599" 
d="M308 -8q-56 0 -103 19t-81.5 53t-53.5 81.5t-19 103.5v14q0 57 19.5 105.5t54.5 84t83.5 55.5t106.5 20h11q45 0 85.5 -13.5t70.5 -36.5t48 -54.5t18 -67.5q0 -66 -50 -99.5t-156 -33.5h-189q8 -66 52.5 -104t107.5 -38h12q51 0 90 19t67 54l66 -55q-38 -51 -96.5 -79
t-131.5 -28h-12zM349 300q58 0 78.5 16t20.5 47q0 16 -9.5 30t-26.5 25t-40 17.5t-50 6.5h-3q-69 0 -112 -39t-53 -103h195zM428 618q-24 0 -40 15.5t-16 38.5t16 38.5t40 15.5t40 -15.5t16 -38.5t-16 -38.5t-40 -15.5zM226 618q-24 0 -40 15.5t-16 38.5t16 38.5t40 15.5
q23 0 39.5 -15.5t16.5 -38.5t-16.5 -38.5t-39.5 -15.5z" />
    <glyph glyph-name="edotaccent.ss01" horiz-adv-x="603" 
d="M312 -8q-56 0 -103 19t-81.5 53t-53.5 81.5t-19 103.5v14q0 57 19.5 105.5t54.5 84t83.5 55.5t106.5 20h11q45 0 85.5 -13.5t70.5 -36.5t48 -54.5t18 -67.5q0 -66 -50 -99.5t-156 -33.5h-189q8 -66 52.5 -104t107.5 -38h12q51 0 90 19t67 54l66 -55q-38 -51 -96.5 -79
t-131.5 -28h-12zM353 300q58 0 78.5 16t20.5 47q0 16 -9.5 30t-26.5 25t-40 17.5t-50 6.5h-3q-69 0 -112 -39t-53 -103h195zM332 614q-26 0 -43.5 16t-17.5 42q0 25 17.5 42t43.5 17q27 0 45 -17t18 -42q0 -26 -18 -42t-45 -16z" />
    <glyph glyph-name="egrave.ss01" horiz-adv-x="603" 
d="M312 -8q-56 0 -103 19t-81.5 53t-53.5 81.5t-19 103.5v14q0 57 19.5 105.5t54.5 84t83.5 55.5t106.5 20h11q45 0 85.5 -13.5t70.5 -36.5t48 -54.5t18 -67.5q0 -66 -50 -99.5t-156 -33.5h-189q8 -66 52.5 -104t107.5 -38h12q51 0 90 19t67 54l66 -55q-38 -51 -96.5 -79
t-131.5 -28h-12zM353 300q58 0 78.5 16t20.5 47q0 16 -9.5 30t-26.5 25t-40 17.5t-50 6.5h-3q-69 0 -112 -39t-53 -103h195zM217 729h97l56 -145h-78z" />
    <glyph glyph-name="emacron.ss01" horiz-adv-x="603" 
d="M312 -8q-56 0 -103 19t-81.5 53t-53.5 81.5t-19 103.5v14q0 57 19.5 105.5t54.5 84t83.5 55.5t106.5 20h11q45 0 85.5 -13.5t70.5 -36.5t48 -54.5t18 -67.5q0 -66 -50 -99.5t-156 -33.5h-189q8 -66 52.5 -104t107.5 -38h12q51 0 90 19t67 54l66 -55q-38 -51 -96.5 -79
t-131.5 -28h-12zM353 300q58 0 78.5 16t20.5 47q0 16 -9.5 30t-26.5 25t-40 17.5t-50 6.5h-3q-69 0 -112 -39t-53 -103h195zM192 710h282v-78h-282v78z" />
    <glyph glyph-name="eogonek.ss01" horiz-adv-x="603" 
d="M394 -168q-19 -6 -40 -6q-38 0 -61 20.5t-23 55.5q0 47 38 90q-55 1 -101.5 20t-80 53t-52.5 81t-19 103v14q0 57 19.5 105.5t54.5 84t83.5 55.5t106.5 20h11q45 0 85.5 -13.5t70.5 -36.5t48 -54.5t18 -67.5q0 -66 -50 -99.5t-156 -33.5h-189q8 -66 52.5 -104t107.5 -38
h12q51 0 90 19t67 54l66 -55q-46 -61 -121 -89h-2q-15 -5 -30.5 -13t-28.5 -19.5t-21 -26.5t-8 -33q0 -34 29 -34q6 0 12 2l12 4v-58zM353 300q58 0 78.5 16t20.5 47q0 16 -9.5 30t-26.5 25t-40 17.5t-50 6.5h-3q-69 0 -112 -39t-53 -103h195z" />
    <glyph glyph-name="f.ss01" horiz-adv-x="363" 
d="M95 436h-69v67q13 5 29.5 9t31.5 6q-6 36 -6 56q0 65 42.5 104.5t114.5 39.5q29 0 57.5 -5.5t47.5 -15.5v-83q-40 17 -81 17q-84 0 -84 -73q0 -8 1 -18t3 -20h157v-84h-145v-626h-99v626z" />
    <glyph glyph-name="g.ss01" horiz-adv-x="571" 
d="M270 -205q-46 0 -86.5 13.5t-70.5 37.5t-47.5 57t-17.5 73v7q0 53 27.5 95t76.5 65q-39 26 -68 68.5t-29 95.5v18q0 45 16 82t44.5 64t68 42t87.5 15h18q17 0 32 -2t30 -6h191v-85h-71q33 -47 33 -110v-17q0 -44 -15.5 -80t-44 -62.5t-67 -41.5t-85.5 -16
q-69 -2 -107 -32.5t-38 -81.5v-5q0 -52 37.5 -79t94.5 -27h8q32 0 58.5 10t47 27t33 40.5t16.5 50.5l90 -18q-6 -42 -25.5 -78.5t-51.5 -63t-75.5 -41.5t-97.5 -15h-12zM285 190q54 0 88 33t34 86v17q0 52 -34 85.5t-88 33.5h-11q-54 0 -87.5 -32.5t-33.5 -86.5v-17
q0 -54 33.5 -86.5t87.5 -32.5h11z" />
    <glyph glyph-name="uni01F5.ss01" horiz-adv-x="571" 
d="M270 -205q-46 0 -86.5 13.5t-70.5 37.5t-47.5 57t-17.5 73v7q0 53 27.5 95t76.5 65q-39 26 -68 68.5t-29 95.5v18q0 45 16 82t44.5 64t68 42t87.5 15h18q17 0 32 -2t30 -6h191v-85h-71q33 -47 33 -110v-17q0 -44 -15.5 -80t-44 -62.5t-67 -41.5t-85.5 -16
q-69 -2 -107 -32.5t-38 -81.5v-5q0 -52 37.5 -79t94.5 -27h8q32 0 58.5 10t47 27t33 40.5t16.5 50.5l90 -18q-6 -42 -25.5 -78.5t-51.5 -63t-75.5 -41.5t-97.5 -15h-12zM285 190q54 0 88 33t34 86v17q0 52 -34 85.5t-88 33.5h-11q-54 0 -87.5 -32.5t-33.5 -86.5v-17
q0 -54 33.5 -86.5t87.5 -32.5h11zM239 581l55 146h98l-75 -146h-78z" />
    <glyph glyph-name="gbreve.ss01" horiz-adv-x="571" 
d="M270 -205q-46 0 -86.5 13.5t-70.5 37.5t-47.5 57t-17.5 73v7q0 53 27.5 95t76.5 65q-39 26 -68 68.5t-29 95.5v18q0 45 16 82t44.5 64t68 42t87.5 15h18q17 0 32 -2t30 -6h191v-85h-71q33 -47 33 -110v-17q0 -44 -15.5 -80t-44 -62.5t-67 -41.5t-85.5 -16
q-69 -2 -107 -32.5t-38 -81.5v-5q0 -52 37.5 -79t94.5 -27h8q32 0 58.5 10t47 27t33 40.5t16.5 50.5l90 -18q-6 -42 -25.5 -78.5t-51.5 -63t-75.5 -41.5t-97.5 -15h-12zM285 190q54 0 88 33t34 86v17q0 52 -34 85.5t-88 33.5h-11q-54 0 -87.5 -32.5t-33.5 -86.5v-17
q0 -54 33.5 -86.5t87.5 -32.5h11zM204 720q0 -32 21 -50.5t56 -18.5q34 0 54.5 18.5t20.5 50.5h88q0 -31 -11.5 -57t-33 -45t-52 -29t-67.5 -10t-67 10t-51.5 29t-33 45t-11.5 57h87z" />
    <glyph glyph-name="gcircumflex.ss01" horiz-adv-x="571" 
d="M270 -205q-46 0 -86.5 13.5t-70.5 37.5t-47.5 57t-17.5 73v7q0 53 27.5 95t76.5 65q-39 26 -68 68.5t-29 95.5v18q0 45 16 82t44.5 64t68 42t87.5 15h18q17 0 32 -2t30 -6h191v-85h-71q33 -47 33 -110v-17q0 -44 -15.5 -80t-44 -62.5t-67 -41.5t-85.5 -16
q-69 -2 -107 -32.5t-38 -81.5v-5q0 -52 37.5 -79t94.5 -27h8q32 0 58.5 10t47 27t33 40.5t16.5 50.5l90 -18q-6 -42 -25.5 -78.5t-51.5 -63t-75.5 -41.5t-97.5 -15h-12zM285 190q54 0 88 33t34 86v17q0 52 -34 85.5t-88 33.5h-11q-54 0 -87.5 -32.5t-33.5 -86.5v-17
q0 -54 33.5 -86.5t87.5 -32.5h11zM368 596l-78 62h-18l-79 -62h-105l134 124h117l134 -124h-105z" />
    <glyph glyph-name="uni0123.ss01" horiz-adv-x="571" 
d="M270 -205q-46 0 -86.5 13.5t-70.5 37.5t-47.5 57t-17.5 73v7q0 53 27.5 95t76.5 65q-39 26 -68 68.5t-29 95.5v18q0 45 16 82t44.5 64t68 42t87.5 15h18q17 0 32 -2t30 -6h191v-85h-71q33 -47 33 -110v-17q0 -44 -15.5 -80t-44 -62.5t-67 -41.5t-85.5 -16
q-69 -2 -107 -32.5t-38 -81.5v-5q0 -52 37.5 -79t94.5 -27h8q32 0 58.5 10t47 27t33 40.5t16.5 50.5l90 -18q-6 -42 -25.5 -78.5t-51.5 -63t-75.5 -41.5t-97.5 -15h-12zM285 190q54 0 88 33t34 86v17q0 52 -34 85.5t-88 33.5h-11q-54 0 -87.5 -32.5t-33.5 -86.5v-17
q0 -54 33.5 -86.5t87.5 -32.5h11zM327 707q-17 -9 -26 -22t-9 -27q20 -1 31.5 -14t11.5 -32q0 -21 -13.5 -35t-36.5 -14q-26 0 -41.5 18t-15.5 46q0 29 17.5 60t49.5 51z" />
    <glyph glyph-name="gdotaccent.ss01" horiz-adv-x="571" 
d="M270 -205q-46 0 -86.5 13.5t-70.5 37.5t-47.5 57t-17.5 73v7q0 53 27.5 95t76.5 65q-39 26 -68 68.5t-29 95.5v18q0 45 16 82t44.5 64t68 42t87.5 15h18q17 0 32 -2t30 -6h191v-85h-71q33 -47 33 -110v-17q0 -44 -15.5 -80t-44 -62.5t-67 -41.5t-85.5 -16
q-69 -2 -107 -32.5t-38 -81.5v-5q0 -52 37.5 -79t94.5 -27h8q32 0 58.5 10t47 27t33 40.5t16.5 50.5l90 -18q-6 -42 -25.5 -78.5t-51.5 -63t-75.5 -41.5t-97.5 -15h-12zM285 190q54 0 88 33t34 86v17q0 52 -34 85.5t-88 33.5h-11q-54 0 -87.5 -32.5t-33.5 -86.5v-17
q0 -54 33.5 -86.5t87.5 -32.5h11zM280 614q-26 0 -43.5 16t-17.5 42q0 25 17.5 42t43.5 17q27 0 45 -17t18 -42q0 -26 -18 -42t-45 -16z" />
    <glyph glyph-name="l.ss01" horiz-adv-x="287" 
d="M181 -4q-109 0 -109 132v592h99v-573q0 -38 11 -50.5t34 -12.5q11 0 25 1.5t27 5.5v-81q-19 -6 -42 -10t-45 -4z" />
    <glyph glyph-name="lacute.ss01" horiz-adv-x="287" 
d="M181 -4q-109 0 -109 132v592h99v-573q0 -38 11 -50.5t34 -12.5q11 0 25 1.5t27 5.5v-81q-19 -6 -42 -10t-45 -4zM162 761h-81l48 141h100z" />
    <glyph glyph-name="lcaron.ss01" horiz-adv-x="287" 
d="M181 -4q-109 0 -109 132v592h99v-573q0 -38 11 -50.5t34 -12.5q11 0 25 1.5t27 5.5v-81q-19 -6 -42 -10t-45 -4zM252 720h92l-36 -161h-68z" />
    <glyph glyph-name="uni013C.ss01" horiz-adv-x="287" 
d="M181 -4q-109 0 -109 132v592h99v-573q0 -38 11 -50.5t34 -12.5q11 0 25 1.5t27 5.5v-81q-19 -6 -42 -10t-45 -4zM140 -36h89l-63 -147h-64z" />
    <glyph glyph-name="ldot.ss01" horiz-adv-x="372" 
d="M181 -4q-109 0 -109 132v592h99v-573q0 -38 11 -50.5t34 -12.5q11 0 25 1.5t27 5.5v-81q-19 -6 -42 -10t-45 -4zM317 308q-26 0 -43.5 16t-17.5 42t17.5 42.5t43.5 16.5q27 0 45 -16.5t18 -42.5t-18 -42t-45 -16z" />
    <glyph glyph-name="lslash.ss01" horiz-adv-x="334" 
d="M25 344l85 47v329h99v-276l95 52v-85l-95 -52v-212q0 -38 11 -50.5t34 -12.5q11 0 25 1.5t27 5.5v-81q-19 -6 -42 -10t-45 -4q-109 0 -109 132v178l-85 -47v85z" />
    <glyph glyph-name="oe.ss01" horiz-adv-x="1012" 
d="M310 -8q-57 0 -104.5 19.5t-82 54.5t-54 83t-19.5 106v10q0 58 19.5 106t54 83t82 54.5t104.5 19.5h6q68 0 122 -27t88 -75q35 48 88 75t120 27h11q44 0 83.5 -13.5t69 -36.5t47 -54.5t17.5 -67.5q0 -66 -48.5 -99.5t-152.5 -33.5h-184q8 -65 51 -103.5t104 -38.5h10
q49 0 87 19t67 54l66 -55q-38 -51 -95.5 -79t-128.5 -28h-12q-64 0 -116 26.5t-86 72.5q-35 -46 -88 -72.5t-120 -26.5h-6zM316 78q35 0 64.5 13t50.5 36.5t33 56.5t12 72v8q0 39 -12 72t-33 56.5t-50.5 36.5t-64.5 13h-3q-35 0 -64 -13t-50 -36.5t-33 -56.5t-12 -72v-8
q0 -39 12 -72t33 -56.5t50 -36.5t64 -13h3zM765 300q56 0 76 16t20 47q0 16 -9.5 30t-25.5 25t-38 17.5t-48 6.5h-3q-66 0 -108 -39t-51 -103h187z" />
    <glyph glyph-name="p.ss01" horiz-adv-x="647" 
d="M83 520h78q7 -16 11.5 -41.5t4.5 -43.5v-11q31 48 78.5 75t109.5 27h4q55 0 96.5 -20.5t70 -55.5t43 -80t14.5 -95v-8q0 -54 -17 -103.5t-51.5 -87.5t-86.5 -61t-121 -23h-6q-63 0 -129 28v-210h-99v710zM308 77q47 0 81 15.5t56.5 41.5t33.5 60t11 70v6q0 42 -11.5 73.5
t-31 52t-44.5 31t-53 10.5h-5q-34 0 -64 -13t-52 -37.5t-34.5 -59t-12.5 -76.5v-132q26 -21 58 -31.5t64 -10.5h4z" />
    <glyph glyph-name="q.ss01" horiz-adv-x="642" 
d="M466 88q-31 -45 -76.5 -69.5t-105.5 -24.5h-5q-54 0 -96 20.5t-70.5 55t-43 80t-14.5 94.5v8q0 54 17.5 104t52 88t86.5 61t121 23h6q117 0 227 -80v-638h-99v278zM302 83q35 0 64.5 13t52 37.5t35 59t12.5 76.5v132q-26 21 -58 31.5t-64 10.5h-4q-46 0 -80.5 -15.5
t-57 -41.5t-33.5 -60t-11 -70v-6q0 -42 11.5 -73.5t30.5 -52t44.5 -31t52.5 -10.5h5z" />
    <glyph glyph-name="germandbls.ss01" horiz-adv-x="612" 
d="M95 436h-69v67q14 5 33 9.5t36 6.5q3 44 20 81t47 63t71 40.5t90 14.5q48 0 88 -13.5t68 -37.5t43.5 -57.5t15.5 -74.5q0 -48 -19.5 -86t-54.5 -62q54 -25 84 -73.5t30 -115.5q0 -46 -15 -84t-42.5 -65t-66 -42t-85.5 -15q-29 0 -60.5 5.5t-49.5 13.5v81q13 -5 37.5 -8
t43.5 -3q62 0 99.5 35.5t37.5 93.5t-37 93t-97 35h-62v78h54q46 1 75 31t29 76q0 48 -32.5 78t-86.5 30q-57 0 -91.5 -34.5t-34.5 -91.5v-695h-99v626z" />
    <glyph glyph-name="t.ss01" horiz-adv-x="394" 
d="M244 -4q-77 0 -116.5 40.5t-39.5 119.5q0 30 1.5 66t4.5 73t7.5 73t9.5 67h-89v69q17 5 37 9.5t39 5.5v121l99 13v-133h161v-85h-159q-3 -54 -7.5 -120.5t-4.5 -136.5q0 -52 20.5 -72.5t58.5 -20.5q10 0 24 1t28.5 2.5t28 3.5t21.5 4v-82q-11 -4 -26.5 -7.5t-32.5 -6
t-34 -3.5t-31 -1z" />
    <glyph glyph-name="tbar.ss01" horiz-adv-x="392" 
d="M31 328h65q3 29 6 56t8 51h-89v69q17 5 37 9.5t39 5.5v121l99 13v-133h161v-85h-159q-2 -24 -3.5 -51t-3.5 -56h141v-75h-144q-1 -19 -1.5 -37.5t-0.5 -37.5q0 -52 20.5 -72.5t58.5 -20.5q10 0 24 1t28.5 2.5t28 3.5t21.5 4v-82q-11 -4 -26.5 -7.5t-32.5 -6t-34 -3.5
t-31 -1q-77 0 -116.5 40.5t-39.5 119.5q0 45 3 97h-59v75z" />
    <glyph glyph-name="tcaron.ss01" horiz-adv-x="400" 
d="M244 -4q-77 0 -116.5 40.5t-39.5 119.5q0 30 1.5 66t4.5 73t7.5 73t9.5 67h-89v69q17 5 37 9.5t39 5.5v121l99 13v-133h161v-85h-159q-3 -54 -7.5 -120.5t-4.5 -136.5q0 -52 20.5 -72.5t58.5 -20.5q10 0 24 1t28.5 2.5t28 3.5t21.5 4v-82q-11 -4 -26.5 -7.5t-32.5 -6
t-34 -3.5t-31 -1zM303 720h92l-36 -161h-68z" />
    <glyph glyph-name="uni0163.ss01" horiz-adv-x="394" 
d="M244 -4q-77 0 -116.5 40.5t-39.5 119.5q0 30 1.5 66t4.5 73t7.5 73t9.5 67h-89v69q17 5 37 9.5t39 5.5v121l99 13v-133h161v-85h-159q-3 -54 -7.5 -120.5t-4.5 -136.5q0 -52 20.5 -72.5t58.5 -20.5q10 0 24 1t28.5 2.5t28 3.5t21.5 4v-82q-11 -4 -26.5 -7.5t-32.5 -6
t-34 -3.5t-31 -1zM204 -174q-24 0 -45 6l8 58q13 -5 26 -5q17 0 24.5 7t7.5 17q0 14 -11 23t-34 9l23 59h62l-16 -33q23 -8 36 -23.5t13 -40.5q0 -14 -6.5 -27.5t-18.5 -24.5t-29.5 -18t-39.5 -7z" />
    <glyph glyph-name="uni021B.ss01" horiz-adv-x="394" 
d="M244 -4q-77 0 -116.5 40.5t-39.5 119.5q0 30 1.5 66t4.5 73t7.5 73t9.5 67h-89v69q17 5 37 9.5t39 5.5v121l99 13v-133h161v-85h-159q-3 -54 -7.5 -120.5t-4.5 -136.5q0 -52 20.5 -72.5t58.5 -20.5q10 0 24 1t28.5 2.5t28 3.5t21.5 4v-82q-11 -4 -26.5 -7.5t-32.5 -6
t-34 -3.5t-31 -1zM204 -36h89l-63 -147h-64z" />
    <glyph glyph-name="f_f.ss01" horiz-adv-x="664" 
d="M95 436h-69v67q13 5 29.5 9t31.5 6q-6 36 -6 56q0 65 42.5 104.5t114.5 39.5q29 0 57.5 -5.5t47.5 -15.5v-83q-40 17 -81 17q-84 0 -84 -72q0 -8 1 -18.5t3 -20.5h206q-4 17 -5 30t-1 24q0 65 42.5 104.5t114.5 39.5q28 0 56.5 -5.5t47.5 -15.5v-83q-39 17 -80 17
q-85 0 -85 -72q0 -8 1 -18.5t3 -20.5h158v-84h-146v-626h-99v626h-201v-626h-99v626z" />
    <glyph glyph-name="f_f_i.ss01" horiz-adv-x="875" 
d="M743 611q-27 0 -44 16t-17 42q0 25 17 42t44 17t44.5 -17t17.5 -42q0 -26 -17.5 -42t-44.5 -16zM694 436h-200v-626h-99v626h-201v-626h-99v626h-69v67q13 5 29.5 9t31.5 6q-6 36 -6 56q0 65 42.5 104.5t114.5 39.5q29 0 57.5 -5.5t47.5 -15.5v-83q-40 17 -81 17
q-84 0 -84 -72q0 -8 1 -18.5t3 -20.5h206q-4 17 -5 30t-1 24q0 65 42.5 104.5t114.5 39.5q28 0 56.5 -5.5t47.5 -15.5v-83q-39 17 -80 17q-85 0 -85 -72q0 -8 1 -18.5t3 -20.5h311v-520h-99v436z" />
    <glyph glyph-name="f_f_l.ss01" horiz-adv-x="903" 
d="M797 -4q-109 0 -109 132v472q-9 5 -23 11t-30.5 10.5t-34 7.5t-34.5 3q-88 0 -88 -73q0 -8 1 -18.5t3 -20.5h149v-84h-137v-626h-99v626h-201v-626h-99v626h-69v67q13 5 29.5 9t31.5 6q-6 36 -6 56q0 65 42.5 104.5t114.5 39.5q29 0 57.5 -5.5t47.5 -15.5v-83
q-40 17 -81 17q-84 0 -84 -71q0 -9 1 -19.5t3 -20.5h206q-4 17 -5 30.5t-1 24.5q0 65 44.5 104t120.5 39q33 0 67 -6t65 -15.5t59 -21t49 -22.5v-506q0 -38 11 -50.5t33 -12.5q12 0 25.5 1.5t26.5 5.5v-81q-18 -6 -41.5 -10t-44.5 -4z" />
    </font>
</defs>
</svg>
