<svg xmlns="http://www.w3.org/2000/svg">
<defs>
<font id="FixelDisplay-SemiBold" horiz-adv-x="610" >
  <font-face 
    font-family="Fixel Display Semi Bold"
    font-weight="600"
    font-stretch="normal"
    units-per-em="1000"
    panose-1="0 0 0 0 0 0 0 0 0 0"
    ascent="800"
    descent="-200"
    x-height="520"
    cap-height="700"
    bbox="-55 -209 1175 933"
    underline-thickness="50"
    underline-position="-175"
    unicode-range="U+000D-FB04"
  />
<missing-glyph horiz-adv-x="714" 
d="M199 619q-14 -1 -23 6t-10 18q-2 12 6 20t22 10q16 2 28.5 -5t14.5 -18q1 -11 -10.5 -20t-27.5 -11zM122 427q-20 -2 -36.5 8t-17.5 24q0 7 3.5 14l7.5 15t7.5 18t2.5 22t-6 21t-11 16t-11 13.5t-5 13.5q-1 13 13 25t31 14t35 -9t31 -31q8 -12 15 -18t13 -11t10.5 -10
t5.5 -15t-2.5 -16t-9 -12.5t-12 -14.5t-12.5 -22q-18 -42 -52 -45zM254 551q-17 -2 -28.5 6t-12.5 22q-2 14 8.5 23.5t27.5 11.5q19 2 34.5 -6.5t17.5 -20.5q1 -13 -13 -23.5t-34 -12.5zM261 470q-17 -2 -28 6t-12 22q-2 14 8 23t27 11q19 2 34 -6t16 -21q2 -12 -12 -22.5
t-33 -12.5zM218 401q-14 -1 -23 6t-10 19q-2 11 6.5 19t22.5 10q16 2 28.5 -5.5t13.5 -18.5t-10.5 -19.5t-27.5 -10.5zM564 245q-14 2 -22 10t-7 19q1 12 10 19t23 6q16 -2 27.5 -10.5t10.5 -19.5t-13.5 -18.5t-28.5 -5.5zM451 70q-18 2 -32 13.5t-13 24.5q0 7 5 13.5t11 14
t11 16.5t6 21t-2.5 22t-8 18t-8 15t-2.5 14q2 13 17.5 22.5t35.5 8.5q34 -1 54 -44q6 -14 12.5 -22t12 -14.5t8.5 -12.5t2 -16t-4.5 -15.5t-9.5 -11t-13.5 -11.5t-15.5 -17q-14 -19 -31.5 -30t-34.5 -9zM606 169q-17 2 -27 11t-9 23q2 14 13.5 22t28.5 6q19 -2 33.5 -12.5
t12.5 -23.5q-1 -12 -16.5 -20t-35.5 -6zM599 87q-17 2 -27 11.5t-8 23.5t12.5 22t27.5 6q19 -2 33 -12.5t13 -23.5q-2 -12 -17 -20.5t-34 -6.5zM545 27q-14 2 -22 10t-7 20t10.5 18.5t23.5 5.5q16 -2 27.5 -11t9.5 -20q-1 -11 -14 -18t-28 -5z" />
    <glyph glyph-name="arrowleft" unicode="&#x3c;&#x2d;" horiz-adv-x="738" 
d="M54 329v8l221 234l72 -68l-120 -121h468v-97h-468l120 -121l-72 -69z" />
    <glyph glyph-name="arrowup" unicode="&#x2f;&#x7c;\" horiz-adv-x="550" 
d="M271 653.003h8l234 -220.986l-68 -71.9951l-121 119.992v-467.972h-97v467.972l-121 -119.992l-69 71.9951z" />
    <glyph glyph-name="arrowright" unicode="&#x2d;&#x3e;" horiz-adv-x="738" 
d="M684.003 329v8l-220.986 234l-71.9951 -68l119.992 -121h-467.972v-97h467.972l-119.992 -121l71.9951 -69z" />
    <glyph glyph-name="arrowdown" unicode="\&#x7c;&#x2f;" horiz-adv-x="550" 
d="M271 12.0371h8l234 220.973l-68 71.9912l-121 -119.985v467.943h-97v-467.943l-121 119.985l-69 -71.9912z" />
    <glyph glyph-name="uni2646" unicode="TRIDENT" horiz-adv-x="797" 
d="M434 410q0 -33 7.5 -59t19 -48t26 -41t28.5 -38q17 8 28 16t11 21q0 17 -18.5 27.5t-51.5 10.5v19q0 61 12.5 110.5t39.5 91.5t70.5 79t105.5 73v-672h-159q-32 -77 -119 -134v-60h-72v60q-87 58 -118 134h-160v672q63 -36 106.5 -73t70.5 -79t39.5 -91.5t12.5 -110.5
v-19q-33 0 -52 -10.5t-19 -27.5q0 -13 11 -21.5t28 -16.5q14 19 28.5 38.5t26 41.5t19 48t7.5 59v326h72v-326zM640 70v465q-38 -35 -58 -79t-27 -105q67 -19 67 -88q0 -39 -21.5 -59.5t-50.5 -34.5q13 -26 16 -48.5t3 -50.5h71zM228 70q0 29 2.5 50.5t16.5 48.5
q-29 14 -51 34.5t-22 59.5q0 35 18 57t50 31q-7 61 -27.5 105t-58.5 79v-465h72zM346 193q14 -8 27.5 -18.5t24.5 -25.5q11 15 24.5 25.5t27.5 18.5q-13 17 -26.5 36t-25.5 41q-11 -22 -24.5 -41t-27.5 -36zM363 70q-5 25 -19.5 41t-33.5 27q-5 -13 -8.5 -26t-3.5 -28
q0 -9 1 -14h64zM498 70q1 5 1 14q0 15 -3.5 28t-9.5 26q-19 -11 -33 -27t-20 -41h65zM366 0h-40q13 -19 31 -37t41 -35q46 33 73 72h-41v-28h-64v28z" />
    <glyph glyph-name="uniE000" unicode="&#x457;&#x457;" horiz-adv-x="547" 
d="M65 606q-27 0 -44.5 17t-17.5 44q0 28 17.5 45t44.5 17q26 0 44 -17t18 -45q0 -27 -18 -44t-44 -17zM272 606q-26 0 -43 17t-17 44t17 44.5t43 17.5q28 0 46 -17.5t18 -44.5t-18 -44t-46 -17zM482 606q-27 0 -44 17t-17 44q0 28 17 45t44 17t45 -17t18 -45q0 -27 -18 -44
t-45 -17zM75 520h124v-520h-124v520zM348 520h124v-520h-124v520z" />
    <glyph glyph-name="uniE01A" unicode="MACPAWLOGO" horiz-adv-x="736" 
d="M326 654q-10 -5 -17 -5q-11 0 -17 10q-11 20 12 33q8 5 20 5q6 0 11.5 -1.5t7.5 -6.5q5 -8 -0.5 -18.5t-16.5 -16.5zM390 620q-9 -5 -19 -5q-13 0 -21 12q-12 21 14 37q12 6 24 6q15 0 21 -9q5 -9 -0.5 -21t-18.5 -20zM368 0q-67 0 -127 26t-104 70t-70 104t-26 127
q0 50 14.5 96t40.5 85.5t63.5 70.5t83.5 50q15 7 34 7q27 0 50 -15t34 -41t5.5 -52.5t-24.5 -45.5q-8 -8 -17 -13l-18 -10l-11 -5q-35 -18 -54.5 -53.5t-19.5 -73.5q0 -30 11.5 -56.5t31.5 -46.5t46.5 -31.5t56.5 -11.5q26 0 50 9t42.5 24.5t32 36.5t18.5 46q2 8 2 15t1 15
q3 38 26 64t64 26q38 0 64.5 -26t26.5 -64q0 -67 -26 -127t-70 -104t-103.5 -70t-127.5 -26zM424 561q-10 -6 -20 -6q-12 0 -20 12q-13 23 14 38q11 7 24 7q15 0 21 -10q5 -9 -0.5 -21.5t-18.5 -19.5zM418 495q-10 -5 -17 -5q-12 0 -18 10q-5 9 -1.5 18t14.5 15q8 5 20 5
q14 0 18 -8q5 -8 0 -18.5t-16 -16.5z" />
    <glyph glyph-name="f_f" unicode="ff" horiz-adv-x="696" 
d="M87 418h-63v80q13 5 30 9t33 6v34q0 81 42 126t117 45q26 0 58 -5t55 -14v-99q-40 17 -80 17q-38 0 -56 -17.5t-18 -61.5v-23h198v32q0 81 42 126t117 45q26 0 58 -5t54 -14v-99q-39 17 -80 17q-37 0 -55 -17t-18 -61v-24h152v-97h-146v-418h-124v418h-192v-418h-124v418
z" />
    <glyph glyph-name="fi" unicode="fi" horiz-adv-x="600" 
d="M462 601q-32 0 -52.5 18.5t-20.5 47.5t20.5 48.5t52.5 19.5q33 0 54 -19.5t21 -48.5t-21 -47.5t-54 -18.5zM87 418h-63v80q13 5 30 9t33 6v34q0 81 42 126t117 45q26 0 58 -5t55 -14v-99q-40 17 -80 17q-38 0 -56 -17.5t-18 -61.5v-23h320v-515h-124v418h-190v-418h-124
v418z" />
    <glyph glyph-name="fl" unicode="fl" horiz-adv-x="583" 
d="M384 588q-19 11 -49 20t-62 9q-34 0 -51 -17.5t-17 -61.5v-23h132v-97h-126v-418h-124v418h-63v80q13 5 30 9t33 6v34q0 81 43.5 126t124.5 45q36 0 71 -6.5t67.5 -16.5t61.5 -22t53 -23v-650h-124v588z" />
    <glyph glyph-name="f_f_i" unicode="ffi" horiz-adv-x="917" 
d="M779 601q-32 0 -52.5 18.5t-20.5 47.5t20.5 48.5t52.5 19.5q33 0 54 -19.5t21 -48.5t-21 -47.5t-54 -18.5zM718 418h-191v-418h-124v418h-192v-418h-124v418h-63v80q13 5 30 9t33 6v34q0 81 42 126t117 45q26 0 58 -5t55 -14v-99q-40 17 -80 17q-38 0 -56 -17.5
t-18 -61.5v-23h198v32q0 81 42 126t117 45q26 0 58 -5t54 -14v-99q-39 17 -80 17q-37 0 -55 -17t-18 -61v-24h321v-515h-124v418z" />
    <glyph glyph-name="f_f_l" unicode="ffl" horiz-adv-x="898" 
d="M87 418h-63v80q13 5 30 9t33 6v34q0 81 42 126t117 45q26 0 58 -5t55 -14v-99q-40 17 -80 17q-38 0 -56 -17.5t-18 -59.5v-25h198v32q0 81 43 126t124 45q36 0 71 -6.5t67.5 -16.5t62 -22t53.5 -23v-650h-124v588q-20 11 -49.5 20t-61.5 9q-34 0 -51 -17.5t-17 -60.5v-24
h144v-97h-138v-418h-124v418h-192v-418h-124v418z" />
    <glyph glyph-name=".notdef" horiz-adv-x="714" 
d="M199 619q-14 -1 -23 6t-10 18q-2 12 6 20t22 10q16 2 28.5 -5t14.5 -18q1 -11 -10.5 -20t-27.5 -11zM122 427q-20 -2 -36.5 8t-17.5 24q0 7 3.5 14l7.5 15t7.5 18t2.5 22t-6 21t-11 16t-11 13.5t-5 13.5q-1 13 13 25t31 14t35 -9t31 -31q8 -12 15 -18t13 -11t10.5 -10
t5.5 -15t-2.5 -16t-9 -12.5t-12 -14.5t-12.5 -22q-18 -42 -52 -45zM254 551q-17 -2 -28.5 6t-12.5 22q-2 14 8.5 23.5t27.5 11.5q19 2 34.5 -6.5t17.5 -20.5q1 -13 -13 -23.5t-34 -12.5zM261 470q-17 -2 -28 6t-12 22q-2 14 8 23t27 11q19 2 34 -6t16 -21q2 -12 -12 -22.5
t-33 -12.5zM218 401q-14 -1 -23 6t-10 19q-2 11 6.5 19t22.5 10q16 2 28.5 -5.5t13.5 -18.5t-10.5 -19.5t-27.5 -10.5zM564 245q-14 2 -22 10t-7 19q1 12 10 19t23 6q16 -2 27.5 -10.5t10.5 -19.5t-13.5 -18.5t-28.5 -5.5zM451 70q-18 2 -32 13.5t-13 24.5q0 7 5 13.5t11 14
t11 16.5t6 21t-2.5 22t-8 18t-8 15t-2.5 14q2 13 17.5 22.5t35.5 8.5q34 -1 54 -44q6 -14 12.5 -22t12 -14.5t8.5 -12.5t2 -16t-4.5 -15.5t-9.5 -11t-13.5 -11.5t-15.5 -17q-14 -19 -31.5 -30t-34.5 -9zM606 169q-17 2 -27 11t-9 23q2 14 13.5 22t28.5 6q19 -2 33.5 -12.5
t12.5 -23.5q-1 -12 -16.5 -20t-35.5 -6zM599 87q-17 2 -27 11.5t-8 23.5t12.5 22t27.5 6q19 -2 33 -12.5t13 -23.5q-2 -12 -17 -20.5t-34 -6.5zM545 27q-14 2 -22 10t-7 20t10.5 18.5t23.5 5.5q16 -2 27.5 -11t9.5 -20q-1 -11 -14 -18t-28 -5z" />
    <glyph glyph-name=".null" horiz-adv-x="0" 
 />
    <glyph glyph-name=".null" horiz-adv-x="0" 
 />
    <glyph glyph-name="uni000D" unicode="&#xd;" horiz-adv-x="250" 
 />
    <glyph glyph-name="space" unicode=" " horiz-adv-x="266" 
 />
    <glyph glyph-name="exclam" unicode="!" horiz-adv-x="278" 
d="M71 462v238h136v-238l-16 -242h-105zM138 -12q-33 0 -55.5 21.5t-22.5 52.5v5q0 30 22.5 51.5t55.5 21.5t57 -21.5t24 -51.5v-5q0 -31 -24 -52.5t-57 -21.5z" />
    <glyph glyph-name="quotedbl" unicode="&#x22;" horiz-adv-x="358" 
d="M37 586v114h112v-114l-15 -168h-82zM209 586v114h112v-114l-15 -168h-82z" />
    <glyph glyph-name="numbersign" unicode="#" horiz-adv-x="820" 
d="M139 167h-114v108h149l51 160h-114v108h148l50 157h129l-50 -157h164l50 157h128l-49 -157h114v-108h-149l-51 -160h114v-108h-148l-54 -167h-128l53 167h-163l-54 -167h-129zM466 275l51 160h-164l-50 -160h163z" />
    <glyph glyph-name="dollar" unicode="$" horiz-adv-x="593" 
d="M240 22q-62 8 -116 31t-93 58l63 99q20 -17 45.5 -31.5t54 -24.5t58.5 -15.5t59 -5.5q55 0 85.5 17.5t30.5 49.5q0 20 -11 35t-30.5 26t-47 20.5t-61.5 18.5q-61 17 -104.5 36t-70.5 42t-39.5 51t-12.5 63q0 36 13 67t36.5 55t57 40t73.5 23v98h109v-96q55 -6 105 -25
t88 -51l-56 -97q-39 29 -90 45.5t-102 16.5q-50 0 -78 -18t-28 -48q0 -33 37 -52.5t109 -39.5q64 -17 109 -36t73 -43t41 -53t13 -66q0 -39 -15 -72.5t-43 -58t-67 -40.5t-86 -21v-95h-109v97z" />
    <glyph glyph-name="percent" unicode="%" horiz-adv-x="833" 
d="M199 336q-36 0 -66 13.5t-51 37.5t-33 57t-12 71v14q0 39 12 71.5t33 56.5t51 37.5t66 13.5h13q36 0 66 -13.5t51.5 -37.5t33.5 -56.5t12 -71.5v-14q0 -38 -12 -71t-33.5 -57t-51.5 -37.5t-66 -13.5h-13zM622 703h138l-548 -703h-138zM207 432q30 0 49 25t19 62v6
q0 38 -19 62.5t-49 24.5h-3q-30 0 -49 -24.5t-19 -62.5v-6q0 -37 19 -62t49 -25h3zM621 -8q-36 0 -66 13.5t-51.5 37.5t-33.5 56.5t-12 71.5v14q0 38 12 71t33.5 57t51.5 37.5t66 13.5h12q36 0 66 -13.5t51.5 -37.5t33.5 -57t12 -71v-14q0 -39 -12 -71.5t-33.5 -56.5
t-51.5 -37.5t-66 -13.5h-12zM629 88q30 0 48.5 24.5t18.5 62.5v6q0 37 -18.5 62t-48.5 25h-4q-30 0 -48.5 -25t-18.5 -62v-6q0 -38 18.5 -62.5t48.5 -24.5h4z" />
    <glyph glyph-name="ampersand" unicode="&#x26;" horiz-adv-x="744" 
d="M299 -11q-57 0 -102.5 14t-77.5 39.5t-49.5 61.5t-17.5 81q0 71 41 123t107 81l-4 5q-28 31 -49.5 65t-21.5 82q0 39 14 70t39 53.5t61 34.5t79 12q85 0 136 -44t51 -118q0 -58 -35 -104t-99 -78l135 -151q25 50 25 123v37h108v-59q0 -52 -14.5 -100.5t-39.5 -86.5
l115 -130h-152l-44 52q-42 -29 -93.5 -46t-111.5 -17zM308 438q48 26 68 52t20 57q0 32 -20 50t-55 18q-37 0 -58.5 -19t-21.5 -49q-1 -27 17 -50t50 -59zM267 314q-97 -37 -97 -119q0 -48 36 -76.5t99 -28.5q38 0 70 9.5t57 29.5z" />
    <glyph glyph-name="quotesingle" unicode="'" horiz-adv-x="194" 
d="M41 586v114h112v-114l-15 -168h-82z" />
    <glyph glyph-name="parenleft" unicode="(" horiz-adv-x="294" 
d="M194 -176q-71 93 -108.5 212t-37.5 240q0 61 9.5 122.5t28.5 120t46 113t62 101.5l82 -46q-49 -91 -74.5 -196t-25.5 -214t25 -213t75 -195z" />
    <glyph glyph-name="parenright" unicode=")" horiz-adv-x="294" 
d="M18 -131q50 91 75.5 195t25.5 213t-25.5 214t-75.5 196l83 46q35 -47 62 -101.5t45.5 -113t28.5 -120t10 -122.5q0 -60 -9.5 -121t-28.5 -119t-46 -112t-62 -100z" />
    <glyph glyph-name="asterisk" unicode="*" horiz-adv-x="453" 
d="M185 415l4 24l-19 -16l-90 -51l-42 72l89 52l24 9l-23 8l-91 52l43 73l88 -51l21 -17l-4 25v104h84v-103l-4 -25l19 16l89 51l42 -72l-89 -52l-23 -9l24 -9l89 -51l-43 -73l-89 52l-19 16l4 -26v-103h-84v104z" />
    <glyph glyph-name="plus" unicode="+" horiz-adv-x="592" 
d="M243 273h-197v104h197v206h105v-206h198v-104h-198v-206h-105v206z" />
    <glyph glyph-name="comma" unicode="," horiz-adv-x="240" 
d="M73 139h130l-97 -270h-97z" />
    <glyph glyph-name="hyphen" unicode="-" horiz-adv-x="453" 
d="M67 328h320v-103h-320v103z" />
    <glyph glyph-name="period" unicode="." horiz-adv-x="242" 
d="M121 -12q-33 0 -56 21.5t-23 52.5v5q0 30 23 51.5t56 21.5q32 0 56 -21.5t24 -51.5v-5q0 -15 -6.5 -28.5t-17.5 -23.5t-25.5 -16t-30.5 -6z" />
    <glyph glyph-name="slash" unicode="/" horiz-adv-x="325" 
d="M184 720h120l-163 -831h-120z" />
    <glyph glyph-name="zero" unicode="0" horiz-adv-x="654" 
d="M327 -11q-66 0 -118.5 25.5t-90 72.5t-57.5 113.5t-20 149.5t20 149.5t57.5 113.5t90 72.5t118.5 25.5t118.5 -25.5t90 -72.5t57.5 -113.5t20 -149.5t-20 -149.5t-57.5 -113.5t-90 -72.5t-118.5 -25.5zM327 105q75 0 115.5 63.5t40.5 181.5t-40.5 181.5t-115.5 63.5
t-116 -63.5t-41 -181.5t41 -181.5t116 -63.5z" />
    <glyph glyph-name="one" unicode="1" horiz-adv-x="398" 
d="M314 700v-700h-125v490q-32 -26 -73.5 -40t-89.5 -14v103q38 2 69 14.5t53.5 33.5t35 50t12.5 63h118z" />
    <glyph glyph-name="two" unicode="2" horiz-adv-x="571" 
d="M33 100q29 18 67 43t78.5 56.5t80 67t70.5 73t50 76.5t19 76q0 48 -30 76.5t-81 28.5q-50 0 -88.5 -33t-49.5 -101l-122 27q7 53 29 94t55.5 69.5t78.5 43.5t97 15q53 0 97 -15.5t76 -43.5t49.5 -67.5t17.5 -86.5q0 -59 -29.5 -115.5t-74.5 -106.5t-97.5 -92t-99.5 -72
h318v-113h-511v100z" />
    <glyph glyph-name="three" unicode="3" horiz-adv-x="616" 
d="M299 -11q-101 0 -170 45t-94 130l116 27q19 -45 55 -65.5t93 -20.5q67 0 106 35.5t39 97.5q0 56 -34.5 87.5t-100.5 31.5q-53 0 -98 -26l-42 77l203 179h-303v113h464v-97l-187 -155q48 0 89.5 -14.5t72.5 -42t48.5 -67t17.5 -89.5q0 -55 -19.5 -100.5t-55 -77.5
t-86.5 -50t-114 -18z" />
    <glyph glyph-name="four" unicode="4" horiz-adv-x="601" 
d="M369 130h-352v98l300 472h172v-463h87v-107h-87v-130h-120v130zM369 237v343h-12l-213 -332v-11h225z" />
    <glyph glyph-name="five" unicode="5" horiz-adv-x="606" 
d="M296 -11q-100 0 -168.5 45t-93.5 130l117 27q19 -44 56.5 -65t89.5 -21q72 0 110 35.5t38 95.5q0 58 -35 90t-97 32q-89 0 -147 -57l-100 28l41 371h420v-114h-323l-19 -170q35 23 70.5 34t80.5 11q56 0 99.5 -15.5t74.5 -44t47 -70t16 -92.5q0 -56 -19.5 -102t-56 -79
t-87.5 -51t-114 -18z" />
    <glyph glyph-name="six" unicode="6" horiz-adv-x="641" 
d="M463 514q-35 88 -128 88q-48 0 -80.5 -21t-52 -55t-27.5 -75t-8 -82q35 44 87 65t107 21q49 0 92.5 -15t76.5 -44t52.5 -70.5t19.5 -95.5q0 -53 -20 -97.5t-56 -76.5t-86 -49.5t-111 -17.5q-137 0 -212 90.5t-75 260.5q0 87 20 156t57.5 116.5t92 73t123.5 25.5
q93 0 157 -44t90 -123zM176 235q14 -65 53 -99t99 -34q33 0 60.5 10t47 27.5t30 41.5t10.5 53q0 56 -38 88.5t-98 32.5q-27 0 -53 -6t-48 -18t-38.5 -29.5t-24.5 -40.5q-2 -12 0 -26z" />
    <glyph glyph-name="seven" unicode="7" horiz-adv-x="509" 
d="M356 574v10h-335v116h472v-96l-256 -604h-141z" />
    <glyph glyph-name="eight" unicode="8" horiz-adv-x="622" 
d="M311 -11q-63 0 -113.5 14.5t-86.5 41.5t-55 65t-19 84q0 63 34 109t97 70q-49 23 -75.5 62.5t-26.5 92.5q0 42 17 76t49 58t77 36.5t102 12.5q114 0 179.5 -48.5t65.5 -132.5q0 -54 -28 -94t-82 -63q66 -24 102.5 -70t36.5 -110q0 -46 -19 -83.5t-55 -64.5t-86.5 -41.5
t-113.5 -14.5zM311 419q60 0 93 24t33 68t-33 67.5t-93 23.5t-92.5 -23.5t-32.5 -67.5t32.5 -68t92.5 -24zM312 102q72 0 110.5 28.5t38.5 79.5t-38.5 79t-110.5 28t-111.5 -28t-39.5 -79t39.5 -79.5t111.5 -28.5z" />
    <glyph glyph-name="nine" unicode="9" horiz-adv-x="641" 
d="M178.028 186.031q34.998 -87.9941 127.992 -87.9941q47.9971 0 80.4951 20.998q32.498 20.999 51.9971 54.9971q19.498 33.998 27.498 74.9951q7.99902 40.998 7.99902 81.9951q-34.9971 -43.9971 -86.9941 -64.9961t-106.993 -20.999q-48.9971 0 -92.4951 15
q-43.4971 14.999 -76.4951 43.9971t-52.4971 70.4951q-19.498 41.498 -19.498 95.4941q0 52.9971 19.998 97.4941q19.999 44.498 55.9971 76.4961t85.9951 49.4961q49.9961 17.499 110.993 17.499q136.991 0 211.986 -90.4941q74.9961 -90.4941 74.9961 -260.484
q0 -86.9941 -19.999 -155.99t-57.4971 -116.493q-37.4971 -47.4971 -91.9941 -72.9951q-54.4961 -25.499 -123.492 -25.499q-92.9941 0 -156.99 43.998q-63.9961 43.9971 -89.9951 122.992zM465.011 465.015q-13.999 64.9961 -52.9971 98.9932
q-38.9971 33.998 -98.9941 33.998q-32.9971 0 -60.4961 -9.99902q-27.498 -9.99902 -46.9971 -27.498t-29.998 -41.498q-10.499 -23.998 -10.499 -52.9961q0 -55.9971 37.9971 -88.4951q37.998 -32.498 97.9941 -32.498q26.999 0 52.9971 6q25.998 5.99902 47.9971 17.999
q21.999 11.999 38.498 29.498t24.498 40.4971q2 12 0 25.999z" />
    <glyph glyph-name="colon" unicode=":" horiz-adv-x="242" 
d="M121 -12q-33 0 -56 21.5t-23 52.5v5q0 30 23 51.5t56 21.5q32 0 56 -21.5t24 -51.5v-5q0 -15 -6.5 -28.5t-17.5 -23.5t-25.5 -16t-30.5 -6zM121 306q-33 0 -56 21.5t-23 52.5v5q0 30 23 51.5t56 21.5q32 0 56 -21.5t24 -51.5v-5q0 -15 -6.5 -28.5t-17.5 -23.5t-25.5 -16
t-30.5 -6z" />
    <glyph glyph-name="semicolon" unicode=";" horiz-adv-x="249" 
d="M134 305q-33 0 -56 21.5t-23 52.5v5q0 30 23 51.5t56 21.5q32 0 56 -21.5t24 -51.5v-5q0 -15 -6.5 -28.5t-17.5 -23.5t-25.5 -16t-30.5 -6zM73 139h130l-97 -270h-97z" />
    <glyph glyph-name="less" unicode="&#x3c;" horiz-adv-x="565" 
d="M46 278v93l455 226v-118l-329 -155l329 -157v-116z" />
    <glyph glyph-name="equal" unicode="=" horiz-adv-x="592" 
d="M56 470h480v-103h-480v103zM56 284h480v-104h-480v104z" />
    <glyph glyph-name="greater" unicode="&#x3e;" horiz-adv-x="565" 
d="M64 167l328 157v1l-328 154v118l455 -226v-93l-455 -227v116z" />
    <glyph glyph-name="question" unicode="?" horiz-adv-x="519" 
d="M198 220q-1 2 -1 12.5v14.5q0 30 7 54.5t19.5 44.5t29.5 37.5t36 34.5l28 24t25 25t17.5 27.5t6.5 32.5q0 38 -28 57.5t-72 19.5q-54 0 -88 -30.5t-39 -76.5l-113 18q3 44 23 81.5t53 65t77.5 43t97.5 15.5q48 0 88 -13t69 -36.5t45.5 -56t16.5 -72.5q0 -53 -23.5 -89
t-71.5 -75q-19 -15 -35.5 -29.5t-29 -31t-20 -36t-7.5 -45.5v-16h-111zM257 -12q-33 0 -56 21.5t-23 52.5v5q0 30 23 51.5t56 21.5q32 0 56 -21.5t24 -51.5v-5q0 -31 -23.5 -52.5t-56.5 -21.5z" />
    <glyph glyph-name="at" unicode="@" horiz-adv-x="999" 
d="M500 -191q-96 0 -180 35t-146 96t-97.5 143.5t-35.5 177.5t36 177.5t99 143t148.5 95.5t183.5 35q97 0 179.5 -34t142.5 -93.5t94 -141t34 -177.5q0 -58 -13.5 -105t-39 -80t-61 -51t-79.5 -18q-48 0 -82.5 21.5t-51.5 58.5q-30 -38 -71 -59t-89 -21h-4q-46 0 -84.5 17.5
t-66.5 48t-43.5 73t-15.5 93.5v24q0 51 15.5 93.5t43.5 73t66.5 48t84.5 17.5h4q45 0 84.5 -18.5t68.5 -51.5q4 17 8 33t10 30h83v-303q0 -38 12 -61.5t41 -23.5q40 0 62.5 42.5t22.5 114.5q0 78 -26 144t-73 113t-112 73.5t-143 26.5q-79 0 -147 -27t-118 -75t-78.5 -113.5
t-28.5 -142.5q0 -76 28 -141.5t77.5 -114t116.5 -76t144 -27.5q115 0 204 63l45 -82q-56 -36 -119.5 -55t-132.5 -19zM493 105q51 0 82 39t31 102v20q0 62 -31.5 101.5t-82.5 39.5h-2q-25 0 -46.5 -10.5t-37 -29t-24 -44.5t-8.5 -57v-20q0 -31 8.5 -56.5t24.5 -44.5
t37.5 -29.5t46.5 -10.5h2z" />
    <glyph glyph-name="A" unicode="A" horiz-adv-x="662" 
d="M245 700h172l246 -700h-140l-54 165h-276l-54 -165h-141zM435 273l-100 296h-8l-101 -296h209z" />
    <glyph glyph-name="B" unicode="B" horiz-adv-x="664" 
d="M84 700h267q52 0 95 -12.5t73.5 -36t47.5 -55.5t17 -71v-7q0 -45 -20 -81t-64 -64q58 -24 88.5 -69t30.5 -103v-6q0 -44 -17 -80t-48 -61.5t-75.5 -39.5t-98.5 -14h-296v700zM348 406q51 0 79 24.5t28 65.5v6q0 39 -27 62t-78 23h-140v-181h138zM373 113q54 0 84.5 25
t30.5 68v5q0 45 -31.5 70.5t-85.5 25.5h-161v-194h163z" />
    <glyph glyph-name="C" unicode="C" horiz-adv-x="687" 
d="M386 -11q-76 0 -139.5 27t-109 75t-71 113.5t-25.5 143.5v4q0 78 25.5 143.5t71.5 113.5t109 75t139 27q91 0 162.5 -41t116.5 -110l-100 -72q-30 51 -72.5 77t-100.5 26h-1q-49 0 -88.5 -17.5t-67.5 -49t-43 -75.5t-15 -97v-5q0 -52 15 -96t43 -75.5t67.5 -49
t87.5 -17.5h1q60 0 105 27t73 75l97 -71q-42 -69 -114.5 -110t-164.5 -41h-1z" />
    <glyph glyph-name="D" unicode="D" horiz-adv-x="720" 
d="M84 700h233q81 0 147.5 -25t114 -69.5t74 -106t26.5 -135.5v-19q0 -75 -26.5 -138.5t-74 -109.5t-114 -71.5t-147.5 -25.5h-233v700zM318 116q53 0 94.5 17t70 48t44 73t15.5 93v17q0 49 -15.5 89.5t-44.5 69.5t-70.5 45t-93.5 16h-103v-468h103z" />
    <glyph glyph-name="E" unicode="E" horiz-adv-x="580" 
d="M84 700h432v-116h-301v-175h281v-110h-281v-183h311v-116h-442v700z" />
    <glyph glyph-name="F" unicode="F" horiz-adv-x="546" 
d="M84 700h417v-116h-286v-192h266v-110h-266v-282h-131v700z" />
    <glyph glyph-name="G" unicode="G" horiz-adv-x="752" 
d="M370 -10q-73 0 -133.5 26.5t-104 74t-67.5 113t-24 143.5v5q0 78 26 143.5t72 113.5t109 75t138 27h2q96 0 168.5 -42t119.5 -114l-106 -67q-29 52 -71.5 79.5t-102.5 27.5h-2q-49 0 -89 -18t-68.5 -50t-44 -76.5t-15.5 -98.5v-6q0 -54 15.5 -98t44 -75.5t68.5 -49
t89 -17.5h2q41 0 74 11t56 30.5t35.5 45.5t12.5 55v14h-156v110h278v-372h-95q-6 11 -10.5 33.5t-6.5 43.5q-33 -39 -89 -63t-118 -24h-7z" />
    <glyph glyph-name="H" unicode="H" horiz-adv-x="724" 
d="M84 700h131v-285h294v285h131v-700h-131v299h-294v-299h-131v700z" />
    <glyph glyph-name="I" unicode="I" horiz-adv-x="300" 
d="M84 700h131v-700h-131v700z" />
    <glyph glyph-name="J" unicode="J" horiz-adv-x="418" 
d="M141 -10q-59 0 -107 18v123q16 -9 35.5 -15.5t43.5 -6.5q51 0 75 26.5t24 71.5v493h131v-506q0 -98 -52.5 -151t-149.5 -53z" />
    <glyph glyph-name="K" unicode="K" horiz-adv-x="661" 
d="M84 700h132v-298h6l260 298h152l-292 -322l316 -378h-161l-275 337h-6v-337h-132v700z" />
    <glyph glyph-name="L" unicode="L" horiz-adv-x="539" 
d="M84 700h131v-584h289v-116h-420v700z" />
    <glyph glyph-name="M" unicode="M" horiz-adv-x="890" 
d="M85 700h187l169 -435h9l169 435h187v-700h-128v540h-7l-175 -445h-101l-175 445h-7v-540h-128v700z" />
    <glyph glyph-name="N" unicode="N" horiz-adv-x="741" 
d="M84 700h147l290 -497h8v497h127v-700h-134l-302 521h-8v-521h-128v700z" />
    <glyph glyph-name="O" unicode="O" horiz-adv-x="779" 
d="M41 353q0 77 25.5 143t71.5 114t109.5 75t138.5 27h7q75 0 138.5 -27t109.5 -75t71.5 -113.5t25.5 -142.5v-8q0 -77 -25.5 -142.5t-71.5 -113.5t-109.5 -75t-138.5 -27h-7q-75 0 -138.5 27.5t-109 75.5t-71.5 114t-26 142v6zM177 347q0 -54 15.5 -98.5t43.5 -76t66.5 -49
t84.5 -17.5h7q45 0 83 17.5t66 49t43.5 76t15.5 98.5v6q0 54 -15.5 98.5t-43 76.5t-66 49.5t-84.5 17.5h-7q-45 0 -83.5 -17.5t-66.5 -49.5t-43.5 -76.5t-15.5 -98.5v-6z" />
    <glyph glyph-name="P" unicode="P" horiz-adv-x="627" 
d="M84 700h252q57 0 104 -16.5t80.5 -46.5t52 -72.5t18.5 -94.5v-6q0 -53 -18.5 -96t-51.5 -73.5t-80 -47t-104 -16.5h-122v-231h-131v700zM327 339q63 0 97 33.5t34 89.5v6q0 54 -33 85.5t-95 31.5h-118v-246h115z" />
    <glyph glyph-name="Q" unicode="Q" horiz-adv-x="779" 
d="M571 -155q-23 -6 -50 -9.5t-50 -3.5q-150 0 -150 146v16q-62 11 -113.5 42t-88.5 77.5t-57.5 106t-20.5 127.5v6q0 77 25.5 142.5t71.5 113.5t109.5 75.5t138.5 27.5h7q75 0 138.5 -27t109 -75t71.5 -113.5t26 -142.5v-8q0 -71 -22 -132.5t-61.5 -108t-95 -76.5
t-121.5 -38v-11q3 -48 55 -48q15 0 39 3t39 7v-97zM177 347q0 -54 15.5 -98.5t43.5 -76.5t66.5 -49.5t83.5 -17.5h6q46 0 84.5 17.5t66.5 49.5t43.5 76.5t15.5 98.5v6q0 54 -15.5 98.5t-43.5 76.5t-66.5 49.5t-84.5 17.5h-6q-45 0 -83.5 -17.5t-66.5 -49.5t-43.5 -76.5
t-15.5 -98.5v-6z" />
    <glyph glyph-name="R" unicode="R" horiz-adv-x="664" 
d="M84 700h268q117 0 182.5 -57.5t65.5 -157.5v-10q0 -68 -33 -117.5t-91 -73.5l172 -284h-155l-144 255h-134v-255h-131v700zM336 358q67 0 100 30t33 82v10q0 51 -33 79.5t-99 28.5h-125v-230h124z" />
    <glyph glyph-name="S" unicode="S" horiz-adv-x="601" 
d="M308 -11q-78 0 -150 24t-127 75l67 104q44 -42 102 -62.5t114 -20.5q57 0 89.5 22t32.5 60q0 24 -12.5 40t-33.5 28t-48.5 21t-57.5 18q-42 12 -84.5 27t-76 39t-55 59.5t-21.5 87.5q0 50 19.5 87.5t52.5 63t76 38t89 12.5q75 0 140 -22.5t115 -64.5l-69 -103
q-37 35 -88 52t-97 17q-51 0 -80.5 -21t-29.5 -57q0 -21 12 -36t32.5 -26.5t48 -20t58.5 -17.5q44 -12 87.5 -27.5t78 -40t56 -60t21.5 -87.5q0 -51 -20.5 -90t-56 -65.5t-83 -40t-101.5 -13.5z" />
    <glyph glyph-name="T" unicode="T" horiz-adv-x="555" 
d="M212 584h-196v116h524v-116h-197v-584h-131v584z" />
    <glyph glyph-name="U" unicode="U" horiz-adv-x="719" 
d="M360 -12q-66 0 -119 18.5t-90 54t-57 87t-20 116.5v436h132v-428q0 -79 42 -121t112 -42t111.5 42t41.5 121v428h132v-436q0 -67 -20.5 -118.5t-57.5 -86.5t-89.5 -53t-117.5 -18z" />
    <glyph glyph-name="V" unicode="V" horiz-adv-x="645" 
d="M8 700h138l171 -563h9l171 563h138l-228 -700h-172z" />
    <glyph glyph-name="W" unicode="W" horiz-adv-x="935" 
d="M16 700h134l109 -550h6l144 550h111l146 -550h5l114 550h134l-160 -700h-168l-122 476h-7l-123 -476h-168z" />
    <glyph glyph-name="X" unicode="X" horiz-adv-x="642" 
d="M231 360v5l-207 335h151l142 -244h8l143 244h150l-207 -334v-5l221 -361h-151l-156 273h-8l-155 -273h-151z" />
    <glyph glyph-name="Y" unicode="Y" horiz-adv-x="624" 
d="M247 273l-248 427h152l158 -298h6l158 298h151l-246 -427v-273h-131v273z" />
    <glyph glyph-name="Z" unicode="Z" horiz-adv-x="593" 
d="M36 100l349 479v5h-327v116h491v-100l-346 -476v-8h355v-116h-522v100z" />
    <glyph glyph-name="bracketleft" unicode="[" horiz-adv-x="349" 
d="M75 720h242v-105h-125v-666h125v-105h-242v876z" />
    <glyph glyph-name="backslash" unicode="\" horiz-adv-x="319" 
d="M25 720h109l160 -831h-109z" />
    <glyph glyph-name="bracketright" unicode="]" horiz-adv-x="348" 
d="M32 -51h122v666h-122v105h241v-876h-241v105z" />
    <glyph glyph-name="asciicircum" unicode="^" horiz-adv-x="542" 
d="M221 701h100l192 -360h-116l-116 228h-20l-116 -228h-116z" />
    <glyph glyph-name="underscore" unicode="_" horiz-adv-x="478" 
d="M19 -50h440v-89h-440v89z" />
    <glyph glyph-name="grave" unicode="`" horiz-adv-x="242" 
d="M31 732h114l56 -154h-94z" />
    <glyph glyph-name="a" unicode="a" horiz-adv-x="586" 
d="M220 -10q-40 0 -73.5 11.5t-57.5 31.5t-37.5 49t-13.5 63v7q0 169 314 169h42v23q0 38 -28 61t-80 23h-3q-41 0 -85.5 -14t-83.5 -39l-51 90q48 30 106 48t121 18h6q47 0 86 -12t68 -36t45 -59t16 -82v-235q0 -27 5 -54t13 -53h-118q-5 12 -8.5 28.5t-5.5 33.5
q-33 -33 -78 -52.5t-99 -19.5zM245 90q44 0 83 17.5t66 46.5v87h-35q-103 0 -152 -20.5t-49 -62.5v-4q0 -28 24 -46t63 -18z" />
    <glyph glyph-name="b" unicode="b" horiz-adv-x="670" 
d="M372 -9q-57 0 -104 20.5t-80 57.5q-2 -17 -6 -36.5t-9 -32.5h-98v720h124v-259q32 32 76 50t97 18h5q54 0 99.5 -19t79 -53.5t52 -81t18.5 -102.5v-26q0 -55 -18.5 -102t-52 -81.5t-79 -53.5t-99.5 -19h-5zM352 90q32 0 59 12t46 33t29.5 50t10.5 64v22q0 35 -10.5 64
t-29.5 50t-46 33t-59 12h-8q-32 0 -59 -12t-46 -33t-29.5 -50t-10.5 -64v-22q0 -35 10.5 -64t29.5 -50t46 -33t59 -12h8z" />
    <glyph glyph-name="c" unicode="c" horiz-adv-x="565" 
d="M309 -8q-59 0 -107.5 19.5t-83.5 54t-54.5 82.5t-19.5 105v16q0 57 20 104.5t55 82t83 53.5t105 19h6q76 0 132.5 -32t91.5 -87l-92 -61q-43 81 -130 81h-3q-65 0 -102 -43t-37 -121v-10q0 -75 40 -118.5t104 -43.5h5q45 0 77 22t52 59l90 -67q-36 -54 -92.5 -84.5
t-132.5 -30.5h-7z" />
    <glyph glyph-name="d" unicode="d" horiz-adv-x="671" 
d="M294 -9q-54 0 -100 19.5t-79 54t-51.5 82.5t-18.5 106v14q0 58 18.5 106t51.5 82.5t79 54t100 19.5h5q53 0 97 -18t76 -51v260h124v-720h-98q-5 13 -9 33t-6 37q-34 -38 -80.5 -58.5t-103.5 -20.5h-5zM327 90q65 0 105 45t40 120v10q0 75 -40 120t-105 45h-8
q-65 0 -105 -45t-40 -120v-10q0 -75 40 -120t105 -45h8z" />
    <glyph glyph-name="e" unicode="e" 
d="M312 -9q-59 0 -108.5 19t-85 53t-55 82t-19.5 105v14q0 57 20 106t55.5 84t84.5 55t106 20h6q54 0 99.5 -18t78.5 -49.5t51.5 -75.5t18.5 -97v-67h-397v-1q7 -57 48.5 -91.5t104.5 -34.5h5q48 0 88.5 19t63.5 48l69 -75q-37 -45 -98.5 -70.5t-126.5 -25.5h-9zM446 305
q-4 56 -41 91.5t-94 35.5h-1q-54 0 -91.5 -34.5t-48.5 -92.5h276z" />
    <glyph glyph-name="f" unicode="f" horiz-adv-x="380" 
d="M87 418h-63v80q13 5 30 9t33 6v34q0 81 42 126t117 45q26 0 58 -5t55 -14v-99q-40 17 -80 17q-38 0 -56 -17.5t-18 -61.5v-23h152v-97h-146v-418h-124v418z" />
    <glyph glyph-name="g" unicode="g" horiz-adv-x="572" 
d="M41 343q0 42 17.5 76.5t48.5 58.5t73.5 37.5t93.5 13.5h15q60 0 106 -18q8 24 16.5 42t19.5 32h113l-65 -129q42 -47 42 -113v-8q0 -40 -17.5 -74t-48.5 -58.5t-73.5 -38.5t-92.5 -14h-5q-17 0 -35 3v-56q13 1 24.5 1.5t24.5 0.5h9q51 0 95 -10.5t76 -30t50 -47t18 -61.5
v-10q0 -34 -18.5 -61.5t-50.5 -47t-76.5 -30t-96.5 -10.5h-25q-52 0 -97 10.5t-77 30t-50.5 47t-18.5 61.5v12q0 44 30.5 78t80.5 54v94q-49 23 -77.5 64.5t-28.5 92.5v8zM164 331q0 -21 9 -38t24.5 -29t36.5 -18.5t44 -6.5h11q23 0 43.5 7t36 19t24.5 29t9 37v11
q0 20 -9 37t-24.5 29t-36 19t-44.5 7h-9q-24 0 -44.5 -7t-36.5 -19t-25 -29t-9 -37v-11zM160 -54q0 -28 33 -45.5t87 -17.5h23q54 0 87.5 18t33.5 45v8q0 27 -33.5 44.5t-87.5 17.5h-23q-54 0 -87 -17.5t-33 -44.5v-8z" />
    <glyph glyph-name="h" unicode="h" horiz-adv-x="636" 
d="M75 720h124v-267q35 36 82.5 56.5t104.5 20.5q88 0 136 -51.5t48 -146.5v-332h-124v306q0 116 -107 116q-65 0 -102.5 -36t-37.5 -98v-288h-124v720z" />
    <glyph glyph-name="i" unicode="i" horiz-adv-x="274" 
d="M136 601q-32 0 -52.5 18.5t-20.5 47.5t20.5 48.5t52.5 19.5q33 0 54 -19.5t21 -48.5t-21 -47.5t-54 -18.5zM75 520h124v-520h-124v520z" />
    <glyph glyph-name="j" unicode="j" horiz-adv-x="287" 
d="M150 601q-32 0 -52.5 18.5t-20.5 47.5t20.5 48.5t52.5 19.5q33 0 54.5 -19.5t21.5 -48.5t-21.5 -47.5t-54.5 -18.5zM64 -204q-21 0 -47.5 4t-49.5 14v103q13 -5 26 -8t28 -3q35 0 51.5 17t16.5 62v535h124v-556q0 -81 -39 -124.5t-110 -43.5z" />
    <glyph glyph-name="k" unicode="k" horiz-adv-x="569" 
d="M75 720h124v-419h8l210 219h140l-240 -241l246 -279h-149l-207 246h-8v-246h-124v720z" />
    <glyph glyph-name="l" unicode="l" horiz-adv-x="274" 
d="M74 720h124v-720h-124v720z" />
    <glyph glyph-name="m" unicode="m" horiz-adv-x="919" 
d="M75 520h98q5 -14 9 -34t6 -36q30 36 72.5 58t91.5 22h2q113 0 153 -91q31 42 75.5 66.5t98.5 24.5h2q84 0 127 -50t43 -143v-337h-124v316q0 57 -21.5 81.5t-67.5 24.5h-2q-50 0 -81 -32t-31 -97v-293h-124v315q0 57 -21.5 82t-68.5 25h-2q-50 -1 -80.5 -32.5
t-30.5 -97.5v-292h-124v520z" />
    <glyph glyph-name="n" unicode="n" horiz-adv-x="636" 
d="M75 520h98q5 -16 9.5 -39t6.5 -40q37 45 86.5 67t103.5 22h3q92 0 140 -51.5t48 -146.5v-332h-124v306q0 57 -25 86.5t-80 29.5h-4q-63 0 -100.5 -39t-37.5 -102v-281h-124v520z" />
    <glyph glyph-name="o" unicode="o" horiz-adv-x="646" 
d="M319 -9q-60 0 -110.5 19.5t-87 54t-57 83t-20.5 105.5v14q0 57 20.5 105.5t57 83t87 54t110.5 19.5h8q60 0 110.5 -19.5t87 -54t57 -83t20.5 -105.5v-14q0 -57 -20.5 -105.5t-57 -83t-87 -54t-110.5 -19.5h-8zM326 89q32 0 59 12.5t46.5 34.5t30.5 52.5t11 66.5v10
q0 36 -11 66.5t-30.5 52.5t-46.5 34.5t-59 12.5h-6q-32 0 -58.5 -12.5t-46 -34.5t-30.5 -52.5t-11 -66.5v-10q0 -36 11 -66.5t30.5 -52.5t46 -34.5t58.5 -12.5h6z" />
    <glyph glyph-name="p" unicode="p" horiz-adv-x="671" 
d="M74 520h98q5 -13 9.5 -33t6.5 -37q33 38 79.5 58.5t103.5 20.5h5q54 0 100 -19.5t79.5 -54t52 -82.5t18.5 -106v-14q0 -58 -18.5 -106t-52 -82.5t-79.5 -54t-100 -19.5h-5q-52 0 -96.5 18t-76.5 51v-260h-124v720zM351 90q65 0 105.5 45t40.5 120v10q0 75 -40 120
t-106 45h-7q-65 0 -105.5 -45t-40.5 -120v-10q0 -75 40.5 -120t105.5 -45h7z" />
    <glyph glyph-name="q" unicode="q" horiz-adv-x="671" 
d="M472 60q-32 -33 -76.5 -51t-96.5 -18h-5q-54 0 -100 19.5t-79.5 54t-52 82.5t-18.5 106v14q0 58 18.5 106t52 82.5t79.5 54t100 19.5h5q57 0 103.5 -20.5t80.5 -58.5q2 17 6 37t9 33h98v-720h-124v260zM326 90q65 0 105.5 45t40.5 120v10q0 75 -40 120t-106 45h-7
q-65 0 -105 -45t-40 -120v-10q0 -75 40 -120t105 -45h7z" />
    <glyph glyph-name="r" unicode="r" horiz-adv-x="392" 
d="M75 520h98q5 -15 9.5 -36t5.5 -38q30 35 73.5 54.5t97.5 19.5h12v-120q-15 6 -33 6q-68 0 -103.5 -35t-35.5 -95v-276h-124v520z" />
    <glyph glyph-name="s" unicode="s" horiz-adv-x="509" 
d="M269 -10q-69 0 -131.5 18.5t-112.5 56.5l62 89q36 -29 85 -46t97 -17q44 0 67 15t23 42q0 18 -11 29.5t-32 19.5t-50.5 15.5t-67.5 19.5q-28 8 -55 18t-48.5 26t-34.5 39.5t-13 57.5q0 73 54 115t145 42q57 0 112.5 -17t97.5 -49l-59 -87q-31 23 -74 37.5t-84 14.5
q-40 0 -59 -13.5t-19 -36.5q0 -26 31 -40t96 -30q33 -8 67 -18.5t61 -27.5t44.5 -44t17.5 -68q0 -37 -15 -67t-42.5 -51t-66 -32t-85.5 -11z" />
    <glyph glyph-name="t" unicode="t" horiz-adv-x="405" 
d="M252 -5q-36 0 -65.5 9t-51.5 28.5t-34 49.5t-12 73v265h-69v84q14 5 32.5 9t36.5 6v121l123 15v-135h163v-100h-164v-242q0 -43 19.5 -59.5t55.5 -16.5q10 0 23 1t26 2.5t25 3.5t20 4v-98q-24 -11 -61 -15.5t-67 -4.5z" />
    <glyph glyph-name="u" unicode="u" horiz-adv-x="628" 
d="M250 -10q-90 0 -137 51t-47 146v333h124v-307q0 -56 24.5 -85.5t76.5 -29.5h2q62 0 99 38.5t37 104.5v279h124v-520h-98q-5 15 -9.5 38t-5.5 40q-34 -41 -82 -64.5t-106 -23.5h-2z" />
    <glyph glyph-name="v" unicode="v" horiz-adv-x="562" 
d="M14 520h131l132 -406h10l131 406h131l-191 -520h-154z" />
    <glyph glyph-name="w" unicode="w" horiz-adv-x="825" 
d="M28 520h125l80 -386h10l110 386h119l110 -387h10l81 387h124l-124 -520h-148l-110 362h-4l-111 -362h-148z" />
    <glyph glyph-name="x" unicode="x" horiz-adv-x="550" 
d="M197 266v4l-178 250h142l113 -177h5l113 177h138l-176 -250v-4l183 -266h-141l-122 191h-4l-119 -191h-139z" />
    <glyph glyph-name="y" unicode="y" horiz-adv-x="558" 
d="M156 -201q-21 0 -47.5 4t-48.5 15v106q18 -9 35.5 -14.5t36.5 -5.5q32 0 57 19t45 54l-225 543h132l153 -399h7l127 399h126l-191 -549q-11 -32 -27 -62.5t-40 -55t-58.5 -39.5t-81.5 -15z" />
    <glyph glyph-name="z" unicode="z" horiz-adv-x="506" 
d="M28 100l287 314v6h-269v100h420v-98l-286 -317v-5h298v-100h-450v100z" />
    <glyph glyph-name="braceleft" unicode="{" horiz-adv-x="378" 
d="M231 -150q-53 0 -86 31t-33 85v200q0 69 -80 69v100q80 0 80 69v200q0 54 33 85t86 31h115v-105h-55q-62 0 -62 -63v-174q0 -42 -21 -64.5t-62 -22.5v-12q40 0 61.5 -22.5t21.5 -64.5v-175q0 -62 62 -62h55v-105h-115z" />
    <glyph glyph-name="bar" unicode="|" horiz-adv-x="265" 
d="M74 720h117v-910h-117v910z" />
    <glyph glyph-name="braceright" unicode="}" horiz-adv-x="378" 
d="M32 -45h56q62 0 62 62v175q0 42 21 64.5t62 22.5v12q-41 0 -62 22.5t-21 64.5v174q0 63 -62 63h-56v105h116q52 0 85 -31t33 -85v-200q0 -69 80 -69v-100q-80 0 -80 -69v-200q0 -54 -33 -85t-85 -31h-116v105z" />
    <glyph glyph-name="asciitilde" unicode="~" horiz-adv-x="563" 
d="M385 250q-31 0 -57.5 9t-50.5 20.5t-48 20.5t-50 9q-52 0 -82 -45l-55 72q23 32 58 50.5t77 18.5q32 0 58.5 -9t50.5 -20.5t47 -20.5t47 -9q28 0 50.5 13t35.5 36l56 -71q-54 -74 -137 -74z" />
    <glyph glyph-name="exclamdown" unicode="&#xa1;" horiz-adv-x="278" 
d="M139 378q-32 0 -55.5 21.5t-23.5 50.5v5q0 31 23.5 52.5t55.5 21.5q33 0 56.5 -21.5t23.5 -52.5v-5q0 -29 -23.5 -50.5t-56.5 -21.5zM71 56l15 242h105l16 -242v-246h-136v246z" />
    <glyph glyph-name="cent" unicode="&#xa2;" horiz-adv-x="533" 
d="M142 -95l30 117q-60 29 -94 90.5t-34 146.5v4q0 57 16 103.5t45 81t69.5 55t90.5 23.5q6 2 12 2h9l32 120l105 -26l-31 -115q66 -27 109 -96l-85 -63q-17 35 -46.5 53.5t-67.5 18.5h-3q-59 0 -94 -42.5t-35 -114.5v-4q0 -72 36 -115.5t97 -43.5h3q77 0 118 75l85 -67
q-37 -57 -92 -86.5t-122 -29.5h-7h-3h-8l-30 -114z" />
    <glyph glyph-name="sterling" unicode="&#xa3;" horiz-adv-x="511" 
d="M33 98q10 4 21.5 7t23.5 5v193h-41v93h41v102q0 48 15 87t42 67t65.5 43.5t85.5 15.5q64 0 114 -30.5t82 -91.5l-99 -60q-23 67 -89 67q-39 0 -64 -25.5t-25 -71.5v-103h177v-93h-177v-188h290v-115h-462v98z" />
    <glyph glyph-name="currency" unicode="&#xa4;" horiz-adv-x="563" 
d="M354 178q-30 -15 -71 -15q-43 0 -75 16l-67 -67l-72 72l67 68q-16 34 -16 74q0 20 4 37.5t11 33.5l-73 73l74 75l73 -73q16 7 34.5 11t39.5 4q43 0 73 -15l66 66l73 -72l-66 -66q16 -31 16 -74t-16 -74l73 -72l-75 -75zM283 250q33 0 52.5 20.5t19.5 55.5q0 34 -19.5 54
t-52.5 20t-53 -20t-20 -54q0 -35 20 -55.5t53 -20.5z" />
    <glyph glyph-name="yen" unicode="&#xa5;" horiz-adv-x="624" 
d="M60 239h187v34l-22 38h-165v94h110l-171 295h152l158 -298h6l158 298h151l-170 -295h111v-94h-165l-22 -38v-34h187v-93h-187v-146h-131v146h-187v93z" />
    <glyph glyph-name="brokenbar" unicode="&#xa6;" horiz-adv-x="257" 
d="M74 720h109v-380h-109v380zM74 200h109v-390h-109v390z" />
    <glyph glyph-name="section" unicode="&#xa7;" horiz-adv-x="546" 
d="M257 711q61 0 111 -17t89 -49l-59 -88q-25 24 -58.5 38.5t-77.5 14.5q-38 0 -64.5 -20t-26.5 -53q0 -36 32 -56t99 -37q35 -9 70.5 -21.5t63.5 -33t45.5 -50.5t17.5 -74q0 -51 -27.5 -90.5t-73.5 -63.5q32 -22 52 -53.5t20 -77.5q0 -43 -16.5 -76t-44 -55.5t-64 -34.5
t-76.5 -12q-62 0 -112.5 17t-89.5 49l59 88q25 -24 59 -38t79 -14q40 0 67 20t27 52q0 37 -32 56.5t-98 36.5q-35 9 -70.5 22t-63.5 33.5t-45.5 50.5t-17.5 73q0 51 27 91t74 63q-33 22 -53 53.5t-20 78.5q0 43 16 76t43.5 55.5t63.5 34t75 11.5zM300 151q39 11 63 34t24 58
q0 25 -9.5 42.5t-26 30t-40 21t-51.5 16.5q-8 2 -15.5 4.5t-15.5 4.5q-38 -11 -62 -34t-24 -58q0 -24 9 -41.5t25 -29.5t38 -20.5t49 -16.5q9 -3 18 -5.5t18 -5.5z" />
    <glyph glyph-name="dieresis" unicode="&#xa8;" horiz-adv-x="423" 
d="M315 606q-29 0 -46.5 17t-17.5 44t17.5 44.5t46.5 17.5t48 -17.5t19 -44.5t-19 -44t-48 -17zM106 606q-29 0 -47 17t-18 44t18 44.5t47 17.5q28 0 47 -17.5t19 -44.5t-19 -44t-47 -17z" />
    <glyph glyph-name="copyright" unicode="&#xa9;" horiz-adv-x="802" 
d="M401 -10q-78 0 -144 27t-114 75t-75 114t-27 144q0 77 27.5 142.5t76 114t114.5 76t142 27.5q78 0 144 -27t114 -75t75 -114t27 -144t-27 -144t-75 -114t-114 -75t-144 -27zM401 85q57 0 106 20t84 55t55 84t20 106t-20 106t-55 84t-84 55t-106 20t-106 -20t-84 -55
t-55 -84t-20 -106t20 -106t55 -84t84 -55t106 -20zM402 168q-40 0 -74 14t-58 38.5t-37.5 59t-13.5 75.5t13 75.5t37 59t57.5 38t73.5 13.5q50 0 90.5 -21t63.5 -58l-75 -50q-20 43 -71 43q-40 0 -64 -27t-24 -74q0 -46 23.5 -73t63.5 -27q26 0 47.5 12.5t32.5 34.5l74 -53
q-26 -38 -67.5 -59t-91.5 -21z" />
    <glyph glyph-name="ordfeminine" unicode="&#xaa;" horiz-adv-x="281" 
d="M106 449q-38 0 -61 20.5t-23 53.5v3q0 82 146 82h11q-1 32 -42 32h-1q-19 0 -38.5 -6.5t-36.5 -18.5l-28 58q53 32 111 32h3q48 0 77 -25t29 -67v-103q0 -31 9 -57h-75q-2 5 -3.5 10.5t-2.5 12.5q-33 -27 -75 -27zM132 510q14 0 26 5.5t21 13.5v27h-4q-75 0 -75 -25v-2
q0 -19 32 -19zM38 398h215v-78h-215v78z" />
    <glyph glyph-name="guillemotleft" unicode="&#xab;" horiz-adv-x="599" 
d="M268 270v8l155 200h130l-154 -199v-10l154 -199h-130zM36 270v8l156 200h130l-154 -199v-10l154 -199h-130z" />
    <glyph glyph-name="registered" unicode="&#xae;" horiz-adv-x="802" 
d="M401 -10q-78 0 -144 27t-114 75t-75 114t-27 144q0 77 27.5 142.5t76 114t114.5 76t142 27.5q78 0 144 -27t114 -75t75 -114t27 -144t-27 -144t-75 -114t-114 -75t-144 -27zM401 85q57 0 106 20t84 55t55 84t20 106t-20 106t-55 84t-84 55t-106 20t-106 -20t-84 -55
t-55 -84t-20 -106t20 -106t55 -84t84 -55t106 -20zM266 530h147q57 0 90 -31.5t33 -86.5q0 -66 -46 -97l73 -134h-95l-58 113h-58v-113h-86v349zM404 371q44 0 44 40q0 39 -44 39h-52v-79h52z" />
    <glyph glyph-name="macron" unicode="&#xaf;" horiz-adv-x="376" 
d="M41 714h293v-92h-293v92z" />
    <glyph glyph-name="degree" unicode="&#xb0;" horiz-adv-x="408" 
d="M205 399q-36 0 -65 11t-49.5 31.5t-32 49t-11.5 62.5q0 71 43 113t115 42q70 0 113 -42t43 -113q0 -34 -11.5 -62.5t-32 -49t-49 -31.5t-63.5 -11zM205 486q30 0 48 18.5t18 48.5q0 31 -18 49t-48 18q-31 0 -49.5 -18t-18.5 -49q0 -30 18.5 -48.5t49.5 -18.5z" />
    <glyph glyph-name="plusminus" unicode="&#xb1;" horiz-adv-x="606" 
d="M250 315h-197v104h197v184h105v-184h198v-104h-198v-174h-105v174zM553 103v-103h-500v103h500z" />
    <glyph glyph-name="twosuperior" unicode="&#xb2;" horiz-adv-x="366" 
d="M29 374q44 23 80.5 49t63 52t41.5 51t15 47q0 23 -14.5 36.5t-37.5 13.5q-25 0 -42.5 -17t-20.5 -44l-90 19q8 59 50.5 93t105.5 34q65 0 103.5 -33.5t38.5 -88.5q0 -51 -34.5 -102.5t-92.5 -93.5h145v-84h-311v68z" />
    <glyph glyph-name="threesuperior" unicode="&#xb3;" horiz-adv-x="371" 
d="M188 298q-59 0 -103 24.5t-66 69.5l77 45q11 -25 34 -39t53 -14q32 0 51.5 15t19.5 41q0 24 -19 39t-50 15q-32 0 -56 -13l-36 47l104 88h-152v84h275v-68l-86 -77q51 -5 82 -38t31 -85q0 -60 -43.5 -97t-115.5 -37z" />
    <glyph glyph-name="acute" unicode="&#xb4;" horiz-adv-x="242" 
d="M40 579l57 155h113l-75 -155h-95z" />
    <glyph glyph-name="paragraph" unicode="&#xb6;" horiz-adv-x="577" 
d="M268 253q-52 0 -95 16t-73.5 45.5t-47 71t-16.5 92.5q0 50 18 91t50.5 70t78.5 45t102 16h207v-109h-105v-731h-119v393z" />
    <glyph glyph-name="periodcentered" unicode="&#xb7;" horiz-adv-x="211" 
d="M104 228q-32 0 -52.5 18.5t-20.5 48.5t20.5 49t52.5 19q33 0 54.5 -19t21.5 -49t-21.5 -48.5t-54.5 -18.5z" />
    <glyph glyph-name="cedilla" unicode="&#xb8;" horiz-adv-x="226" 
d="M90 -179q-24 0 -50 6l8 67q6 -2 12.5 -4t13.5 -2q17 0 24.5 7t7.5 16q0 12 -10 21t-34 9l24 59h71l-14 -30q50 -19 50 -67q0 -15 -6.5 -29.5t-19.5 -26t-32.5 -19t-44.5 -7.5z" />
    <glyph glyph-name="onesuperior" unicode="&#xb9;" horiz-adv-x="283" 
d="M26 595q54 0 87.5 29t33.5 76h90v-394h-95v234q-50 -34 -116 -32v87z" />
    <glyph glyph-name="ordmasculine" unicode="&#xba;" horiz-adv-x="322" 
d="M156 438q-58 0 -94 35.5t-36 95.5v6q0 59 36 94.5t94 35.5h12q57 0 92.5 -35.5t35.5 -94.5v-6q0 -60 -35.5 -95.5t-92.5 -35.5h-12zM166 511q23 0 37 15.5t14 42.5v6q0 27 -14 42t-37 15h-6q-24 0 -39.5 -15t-15.5 -42v-6q0 -27 15.5 -42.5t39.5 -15.5h6zM43 390h237v-78
h-237v78z" />
    <glyph glyph-name="guillemotright" unicode="&#xbb;" horiz-adv-x="599" 
d="M432 269v10l-154 199h130l155 -200v-8l-155 -200h-130zM201 269v10l-154 199h130l155 -200v-8l-155 -200h-130z" />
    <glyph glyph-name="onequarter" unicode="&#xbc;" horiz-adv-x="750" 
d="M110 561q-30 -15 -65 -15h-15v75l14 1q32 2 50.5 20t18.5 45v13h88v-366h-91v227zM548 700h129l-528 -700h-129zM367 119l150 241h110v-225h43v-78h-43v-62h-89v62h-171v62zM538 135v110l-66 -110h66z" />
    <glyph glyph-name="onehalf" unicode="&#xbd;" horiz-adv-x="773" 
d="M110 561q-30 -15 -65 -15h-15v75l14 1q32 2 50.5 20t18.5 45v13h88v-366h-91v227zM548 700h129l-528 -700h-129zM430 66l6 4q24 15 52.5 36t53 45.5t41 50.5t16.5 50q0 17 -9.5 27t-26.5 10q-21 0 -31.5 -16.5t-14.5 -36.5l-2 -15l-90 20l2 11q3 22 13 43.5t27 38t41 27
t56 10.5q30 0 54 -9.5t40.5 -25t25 -36.5t8.5 -45q0 -26 -9.5 -50.5t-25.5 -46.5t-36.5 -41.5t-41.5 -36.5h122v-81h-271v67z" />
    <glyph glyph-name="threequarters" unicode="&#xbe;" horiz-adv-x="809" 
d="M177 329q-53 0 -92.5 25.5t-50.5 72.5l-1 8l84 20l3 -7q10 -20 21.5 -29t31.5 -9q26 0 40.5 14t14.5 38q0 46 -49 46q-17 0 -26.5 -3.5t-23.5 -11.5l-33 53l79 73h-123v81h249v-66l-69 -61q46 -11 67 -43t21 -70q0 -27 -9.5 -50.5t-28 -41.5t-45 -28.5t-60.5 -10.5z
M607 700h129l-528 -700h-129zM426 119l150 241h110v-225h43v-78h-43v-62h-89v62h-171v62zM597 135v110l-66 -110h66z" />
    <glyph glyph-name="questiondown" unicode="&#xbf;" horiz-adv-x="519" 
d="M262 378q-33 0 -57 21.5t-24 50.5v5q0 31 24 52.5t57 21.5t55.5 -21.5t22.5 -52.5v-5q0 -30 -22.5 -51t-55.5 -21zM242 -202q-48 0 -88 13t-69.5 37t-45.5 57t-16 73q0 27 6 48.5t18 40.5t30.5 37t42.5 37q22 18 39 34t28 32t17 34t6 40v17h111q0 -36 -3.5 -62.5
t-13.5 -48.5t-27.5 -42.5t-46.5 -44.5q-15 -12 -28.5 -23.5t-24 -24.5t-17 -27.5t-6.5 -32.5q0 -39 27.5 -58t70.5 -19q55 0 89 30.5t39 76.5l113 -18q-4 -44 -23.5 -81.5t-52.5 -65.5t-77.5 -43.5t-97.5 -15.5z" />
    <glyph glyph-name="Agrave" unicode="&#xc0;" horiz-adv-x="662" 
d="M245 700h172l246 -700h-140l-54 165h-276l-54 -165h-141zM435 273l-100 296h-8l-101 -296h209zM203 906h121l56 -147h-104z" />
    <glyph glyph-name="Aacute" unicode="&#xc1;" horiz-adv-x="662" 
d="M245 700h172l246 -700h-140l-54 165h-276l-54 -165h-141zM435 273l-100 296h-8l-101 -296h209zM381 761h-101l52 147h120z" />
    <glyph glyph-name="Acircumflex" unicode="&#xc2;" horiz-adv-x="662" 
d="M245 700h172l246 -700h-140l-54 165h-276l-54 -165h-141zM435 273l-100 296h-8l-101 -296h209zM261 900h140l127 -126h-119l-69 57h-18l-69 -57h-119z" />
    <glyph glyph-name="Atilde" unicode="&#xc3;" horiz-adv-x="662" 
d="M245 700h172l246 -700h-140l-54 165h-276l-54 -165h-141zM435 273l-100 296h-8l-101 -296h209zM126 839q20 33 53 51.5t71 18.5q23 0 45 -7t48 -18q20 -9 39 -15.5t39 -6.5q49 0 71 36l41 -58q-19 -33 -50.5 -51.5t-69.5 -18.5q-23 0 -44.5 7t-50.5 20q-21 9 -39.5 15
t-37.5 6q-23 0 -43.5 -10t-31.5 -27z" />
    <glyph glyph-name="Adieresis" unicode="&#xc4;" horiz-adv-x="659" 
d="M214 765q-28 0 -46 16.5t-18 43.5t18 45t46 18q29 0 48 -18t19 -45t-19 -43.5t-48 -16.5zM444 765q-29 0 -47 16.5t-18 43.5t18 45t47 18t47.5 -18t18.5 -45t-18.5 -43.5t-47.5 -16.5zM244 700h172l246 -700h-140l-54 165h-276l-54 -165h-141zM434 273l-100 296h-8
l-101 -296h209z" />
    <glyph glyph-name="Aring" unicode="&#xc5;" horiz-adv-x="662" 
d="M245 700h172l246 -700h-140l-54 165h-276l-54 -165h-141zM435 273l-100 296h-8l-101 -296h209zM330 741q-47 0 -77 26t-30 68q0 45 30 71.5t77 26.5q48 0 78 -27t30 -71q0 -42 -30 -68t-78 -26zM330 798q19 0 31 10.5t12 27.5q0 18 -12 29.5t-31 11.5t-30.5 -11.5
t-11.5 -29.5q0 -17 11.5 -27.5t30.5 -10.5z" />
    <glyph glyph-name="AE" unicode="&#xc6;" horiz-adv-x="853" 
d="M245 700h545v-116h-279v-175h259v-110h-259v-183h289v-116h-415v165h-190l-56 -165h-141zM385 273v311h-53l-104 -311h157z" />
    <glyph glyph-name="Ccedilla" unicode="&#xc7;" horiz-adv-x="687" 
d="M386 -11q-76 0 -139.5 27t-109 75t-71 113.5t-25.5 143.5v4q0 78 25.5 143.5t71.5 113.5t109 75t139 27q91 0 162.5 -41t116.5 -110l-100 -72q-30 51 -72.5 77t-100.5 26h-1q-49 0 -88.5 -17.5t-67.5 -49t-43 -75.5t-15 -97v-5q0 -52 15 -96t43 -75.5t67.5 -49
t87.5 -17.5h1q60 0 105 27t73 75l97 -71q-42 -69 -114.5 -110t-164.5 -41h-1zM338 -179q-24 0 -50 6l8 67q6 -2 12.5 -4t13.5 -2q17 0 24.5 7t7.5 16q0 12 -10 21t-34 9l24 59h71l-14 -30q50 -19 50 -67q0 -15 -6.5 -29.5t-19.5 -26t-32.5 -19t-44.5 -7.5z" />
    <glyph glyph-name="Egrave" unicode="&#xc8;" horiz-adv-x="553" 
d="M84 700h432v-116h-301v-175h281v-110h-281v-183h311v-116h-442v700zM177 906h121l56 -147h-104z" />
    <glyph glyph-name="Eacute" unicode="&#xc9;" horiz-adv-x="553" 
d="M84 700h432v-116h-301v-175h281v-110h-281v-183h311v-116h-442v700zM355 761h-101l52 147h120z" />
    <glyph glyph-name="Ecircumflex" unicode="&#xca;" horiz-adv-x="553" 
d="M84 700h432v-116h-301v-175h281v-110h-281v-183h311v-116h-442v700zM235 900h140l127 -126h-119l-69 57h-18l-69 -57h-119z" />
    <glyph glyph-name="Edieresis" unicode="&#xcb;" horiz-adv-x="553" 
d="M84 700h432v-116h-301v-175h281v-110h-281v-183h311v-116h-442v700zM213 763q-26 0 -43 16.5t-17 44.5t17 46t43 18t44.5 -18t18.5 -46t-18.5 -44.5t-44.5 -16.5zM395 763q-27 0 -44 16.5t-17 44.5t17 46t44 18q26 0 44 -18t18 -46t-18 -44.5t-44 -16.5z" />
    <glyph glyph-name="Igrave" unicode="&#xcc;" horiz-adv-x="300" 
d="M84 700h131v-700h-131v700zM22 906h121l56 -147h-104z" />
    <glyph glyph-name="Iacute" unicode="&#xcd;" horiz-adv-x="300" 
d="M84 700h131v-700h-131v700zM200 761h-101l52 147h120z" />
    <glyph glyph-name="Icircumflex" unicode="&#xce;" horiz-adv-x="300" 
d="M84 700h131v-700h-131v700zM80 900h140l127 -126h-119l-69 57h-18l-69 -57h-119z" />
    <glyph glyph-name="Idieresis" unicode="&#xcf;" horiz-adv-x="300" 
d="M84 700h131v-700h-131v700zM58 763q-26 0 -43 16.5t-17 44.5t17 46t43 18t44.5 -18t18.5 -46t-18.5 -44.5t-44.5 -16.5zM240 763q-27 0 -44 16.5t-17 44.5t17 46t44 18q26 0 44 -18t18 -46t-18 -44.5t-44 -16.5z" />
    <glyph glyph-name="Eth" unicode="&#xd0;" horiz-adv-x="732" 
d="M97 299h-65v116h65v285h232q81 0 147.5 -25t114 -69.5t74 -106t26.5 -135.5v-19q0 -75 -26 -138.5t-74 -109.5t-114.5 -71.5t-147.5 -25.5h-232v299zM331 116q52 0 93.5 17t70 48t44 73t15.5 93v17q0 49 -15.5 89.5t-44 69.5t-70 45t-93.5 16h-103v-169h154v-116h-154
v-183h103z" />
    <glyph glyph-name="Ntilde" unicode="&#xd1;" horiz-adv-x="741" 
d="M84 700h147l290 -497h8v497h127v-700h-134l-302 521h-8v-521h-128v700zM166 840q20 33 53 51.5t71 18.5q23 0 45 -7t48 -18q20 -9 39 -15.5t39 -6.5q49 0 71 36l41 -58q-19 -33 -50.5 -51.5t-69.5 -18.5q-23 0 -44.5 7t-50.5 20q-21 9 -39.5 15t-37.5 6q-23 0 -43.5 -10
t-31.5 -27z" />
    <glyph glyph-name="Ograve" unicode="&#xd2;" horiz-adv-x="779" 
d="M41 353q0 77 25.5 143t71.5 114t109.5 75t138.5 27h7q75 0 138.5 -27t109.5 -75t71.5 -113.5t25.5 -142.5v-8q0 -77 -25.5 -142.5t-71.5 -113.5t-109.5 -75t-138.5 -27h-7q-75 0 -138.5 27.5t-109 75.5t-71.5 114t-26 142v6zM177 347q0 -54 15.5 -98.5t43.5 -76t66.5 -49
t84.5 -17.5h7q45 0 83 17.5t66 49t43.5 76t15.5 98.5v6q0 54 -15.5 98.5t-43 76.5t-66 49.5t-84.5 17.5h-7q-45 0 -83.5 -17.5t-66.5 -49.5t-43.5 -76.5t-15.5 -98.5v-6zM262 906h121l56 -147h-104z" />
    <glyph glyph-name="Oacute" unicode="&#xd3;" horiz-adv-x="779" 
d="M41 353q0 77 25.5 143t71.5 114t109.5 75t138.5 27h7q75 0 138.5 -27t109.5 -75t71.5 -113.5t25.5 -142.5v-8q0 -77 -25.5 -142.5t-71.5 -113.5t-109.5 -75t-138.5 -27h-7q-75 0 -138.5 27.5t-109 75.5t-71.5 114t-26 142v6zM177 347q0 -54 15.5 -98.5t43.5 -76t66.5 -49
t84.5 -17.5h7q45 0 83 17.5t66 49t43.5 76t15.5 98.5v6q0 54 -15.5 98.5t-43 76.5t-66 49.5t-84.5 17.5h-7q-45 0 -83.5 -17.5t-66.5 -49.5t-43.5 -76.5t-15.5 -98.5v-6zM440 761h-101l52 147h120z" />
    <glyph glyph-name="Ocircumflex" unicode="&#xd4;" horiz-adv-x="779" 
d="M41 353q0 77 25.5 143t71.5 114t109.5 75t138.5 27h7q75 0 138.5 -27t109.5 -75t71.5 -113.5t25.5 -142.5v-8q0 -77 -25.5 -142.5t-71.5 -113.5t-109.5 -75t-138.5 -27h-7q-75 0 -138.5 27.5t-109 75.5t-71.5 114t-26 142v6zM177 347q0 -54 15.5 -98.5t43.5 -76t66.5 -49
t84.5 -17.5h7q45 0 83 17.5t66 49t43.5 76t15.5 98.5v6q0 54 -15.5 98.5t-43 76.5t-66 49.5t-84.5 17.5h-7q-45 0 -83.5 -17.5t-66.5 -49.5t-43.5 -76.5t-15.5 -98.5v-6zM320 900h140l127 -126h-119l-69 57h-18l-69 -57h-119z" />
    <glyph glyph-name="Otilde" unicode="&#xd5;" horiz-adv-x="779" 
d="M41 353q0 77 25.5 143t71.5 114t109.5 75t138.5 27h7q75 0 138.5 -27t109.5 -75t71.5 -113.5t25.5 -142.5v-8q0 -77 -25.5 -142.5t-71.5 -113.5t-109.5 -75t-138.5 -27h-7q-75 0 -138.5 27.5t-109 75.5t-71.5 114t-26 142v6zM177 347q0 -54 15.5 -98.5t43.5 -76t66.5 -49
t84.5 -17.5h7q45 0 83 17.5t66 49t43.5 76t15.5 98.5v6q0 54 -15.5 98.5t-43 76.5t-66 49.5t-84.5 17.5h-7q-45 0 -83.5 -17.5t-66.5 -49.5t-43.5 -76.5t-15.5 -98.5v-6zM185 839q20 33 53 51.5t71 18.5q23 0 45 -7t48 -18q20 -9 39 -15.5t39 -6.5q49 0 71 36l41 -58
q-19 -33 -50.5 -51.5t-69.5 -18.5q-23 0 -44.5 7t-50.5 20q-21 9 -39.5 15t-37.5 6q-23 0 -43.5 -10t-31.5 -27z" />
    <glyph glyph-name="Odieresis" unicode="&#xd6;" horiz-adv-x="780" 
d="M274 765q-28 0 -46.5 16.5t-18.5 43.5t18.5 45t46.5 18t47 -18t19 -45t-19 -43.5t-47 -16.5zM503 765q-29 0 -47 16.5t-18 43.5t18 45t47 18t47.5 -18t18.5 -45t-18.5 -43.5t-47.5 -16.5zM41 353q0 77 25.5 143t71.5 114t109.5 75t138.5 27h7q75 0 138.5 -27t109.5 -75
t71.5 -113.5t25.5 -142.5v-8q0 -77 -25.5 -142.5t-71.5 -113.5t-109.5 -75t-138.5 -27h-7q-75 0 -138.5 27.5t-109 75.5t-71.5 114t-26 142v6zM177 347q0 -54 15.5 -98.5t43.5 -76t66.5 -49t84.5 -17.5h7q45 0 83 17.5t66 49t43.5 76t15.5 98.5v6q0 54 -15.5 98.5t-43 76.5
t-66 49.5t-84.5 17.5h-7q-45 0 -83.5 -17.5t-66.5 -49.5t-43.5 -76.5t-15.5 -98.5v-6z" />
    <glyph glyph-name="multiply" unicode="&#xd7;" horiz-adv-x="518" 
d="M46 184l141 141l-141 141l73 72l140 -141l141 141l72 -72l-141 -141l141 -141l-72 -72l-141 141l-140 -141z" />
    <glyph glyph-name="Oslash" unicode="&#xd8;" horiz-adv-x="779" 
d="M172 61q-62 48 -96.5 121.5t-34.5 164.5v6q0 77 25.5 143t71 114t109 75t138.5 27h8q76 0 139 -27l29 50h103l-56 -95q61 -49 95.5 -122t34.5 -164v-8q0 -77 -26 -142.5t-71.5 -113.5t-109 -75t-138.5 -27h-8q-73 0 -138 28l-29 -52h-102zM173 346q0 -57 16.5 -103
t46.5 -79l244 419q-39 18 -88 18h-6q-48 0 -87 -18t-67 -50.5t-43.5 -78t-15.5 -100.5v-8zM300 117q39 -18 87 -18h6q48 0 87 18t66.5 50.5t43 78t15.5 100.5v8q0 56 -16 102t-45 79z" />
    <glyph glyph-name="Ugrave" unicode="&#xd9;" horiz-adv-x="719" 
d="M360 -12q-66 0 -119 18.5t-90 54t-57 87t-20 116.5v436h132v-428q0 -79 42 -121t112 -42t111.5 42t41.5 121v428h132v-436q0 -67 -20.5 -118.5t-57.5 -86.5t-89.5 -53t-117.5 -18zM233 906h121l56 -147h-104z" />
    <glyph glyph-name="Uacute" unicode="&#xda;" horiz-adv-x="719" 
d="M360 -12q-66 0 -119 18.5t-90 54t-57 87t-20 116.5v436h132v-428q0 -79 42 -121t112 -42t111.5 42t41.5 121v428h132v-436q0 -67 -20.5 -118.5t-57.5 -86.5t-89.5 -53t-117.5 -18zM411 761h-101l52 147h120z" />
    <glyph glyph-name="Ucircumflex" unicode="&#xdb;" horiz-adv-x="599" 
d="M300 -12q-66 0 -119 18.5t-90 54t-57 87t-20 116.5v436h132v-428q0 -79 42 -121t112 -42t111.5 42t41.5 121v428h132v-436q0 -67 -20.5 -118.5t-57.5 -86.5t-89.5 -53t-117.5 -18zM230 900h140l127 -126h-119l-69 57h-18l-69 -57h-119z" />
    <glyph glyph-name="Udieresis" unicode="&#xdc;" horiz-adv-x="717" 
d="M243 765q-28 0 -46 16.5t-18 43.5t18 45t46 18q29 0 48 -18t19 -45t-19 -43.5t-48 -16.5zM473 765q-29 0 -46.5 16.5t-17.5 43.5t17.5 45t46.5 18t48 -18t19 -45t-19 -43.5t-48 -16.5zM359 -12q-66 0 -119 18.5t-90 54t-57 87t-20 116.5v436h131v-428q0 -79 42.5 -121
t112.5 -42t111.5 42t41.5 121v428h131v-436q0 -67 -20 -118.5t-57.5 -86.5t-89.5 -53t-117 -18z" />
    <glyph glyph-name="Yacute" unicode="&#xdd;" horiz-adv-x="624" 
d="M247 273l-248 427h152l158 -298h6l158 298h151l-246 -427v-273h-131v273zM362 761h-101l52 147h120z" />
    <glyph glyph-name="Thorn" unicode="&#xde;" horiz-adv-x="627" 
d="M84 700h131v-96h125q57 0 103.5 -16.5t79 -46.5t50.5 -72t18 -94v-6q0 -52 -18 -94.5t-50.5 -73t-78.5 -47t-103 -16.5h-126v-138h-131v700zM328 249q61 0 95.5 32t34.5 89v6q0 54 -34 85t-94 31h-118v-243h116z" />
    <glyph glyph-name="germandbls" unicode="&#xdf;" horiz-adv-x="604" 
d="M365 -10q-29 0 -60.5 6t-50.5 15v97q11 -5 33 -8t39 -3q55 0 88 32.5t33 86.5q0 53 -32 84.5t-85 31.5h-59v86h49q41 0 66.5 28.5t25.5 70.5q0 45 -28.5 72.5t-76.5 27.5q-51 0 -82 -31t-31 -83v-503h-124v508q0 47 17 86t48 66.5t75 42.5t98 15q51 0 93 -13.5
t71.5 -38.5t46 -59t16.5 -76q0 -46 -19 -83t-52 -62q51 -26 79.5 -74t28.5 -114q0 -46 -15 -84.5t-42 -66t-65 -42.5t-85 -15z" />
    <glyph glyph-name="agrave" unicode="&#xe0;" horiz-adv-x="586" 
d="M220 -10q-40 0 -73.5 11.5t-57.5 31.5t-37.5 49t-13.5 63v7q0 169 314 169h42v23q0 38 -28 61t-80 23h-3q-41 0 -85.5 -14t-83.5 -39l-51 90q48 30 106 48t121 18h6q47 0 86 -12t68 -36t45 -59t16 -82v-235q0 -27 5 -54t13 -53h-118q-5 12 -8.5 28.5t-5.5 33.5
q-33 -33 -78 -52.5t-99 -19.5zM245 90q44 0 83 17.5t66 46.5v87h-35q-103 0 -152 -20.5t-49 -62.5v-4q0 -28 24 -46t63 -18zM168 735h114l56 -154h-94z" />
    <glyph glyph-name="aacute" unicode="&#xe1;" horiz-adv-x="586" 
d="M220 -10q-40 0 -73.5 11.5t-57.5 31.5t-37.5 49t-13.5 63v7q0 169 314 169h42v23q0 38 -28 61t-80 23h-3q-41 0 -85.5 -14t-83.5 -39l-51 90q48 30 106 48t121 18h6q47 0 86 -12t68 -36t45 -59t16 -82v-235q0 -27 5 -54t13 -53h-118q-5 12 -8.5 28.5t-5.5 33.5
q-33 -33 -78 -52.5t-99 -19.5zM245 90q44 0 83 17.5t66 46.5v87h-35q-103 0 -152 -20.5t-49 -62.5v-4q0 -28 24 -46t63 -18zM237 579l57 155h113l-75 -155h-95z" />
    <glyph glyph-name="acircumflex" unicode="&#xe2;" horiz-adv-x="586" 
d="M220 -10q-40 0 -73.5 11.5t-57.5 31.5t-37.5 49t-13.5 63v7q0 169 314 169h42v23q0 38 -28 61t-80 23h-3q-41 0 -85.5 -14t-83.5 -39l-51 90q48 30 106 48t121 18h6q47 0 86 -12t68 -36t45 -59t16 -82v-235q0 -27 5 -54t13 -53h-118q-5 12 -8.5 28.5t-5.5 33.5
q-33 -33 -78 -52.5t-99 -19.5zM245 90q44 0 83 17.5t66 46.5v87h-35q-103 0 -152 -20.5t-49 -62.5v-4q0 -28 24 -46t63 -18zM370 592l-72 59h-18l-72 -59h-117l128 128h140l128 -128h-117z" />
    <glyph glyph-name="atilde" unicode="&#xe3;" horiz-adv-x="586" 
d="M220 -10q-40 0 -73.5 11.5t-57.5 31.5t-37.5 49t-13.5 63v7q0 169 314 169h42v23q0 38 -28 61t-80 23h-3q-41 0 -85.5 -14t-83.5 -39l-51 90q48 30 106 48t121 18h6q47 0 86 -12t68 -36t45 -59t16 -82v-235q0 -27 5 -54t13 -53h-118q-5 12 -8.5 28.5t-5.5 33.5
q-33 -33 -78 -52.5t-99 -19.5zM245 90q44 0 83 17.5t66 46.5v87h-35q-103 0 -152 -20.5t-49 -62.5v-4q0 -28 24 -46t63 -18zM85 661q20 34 53 52t71 18q23 0 45 -7t48 -18q20 -9 38.5 -15.5t39.5 -6.5q23 0 41.5 9.5t29.5 26.5l41 -57q-20 -34 -51.5 -52t-68.5 -18
q-23 0 -44.5 7t-50.5 19q-21 9 -40 15t-38 6q-23 0 -43 -10t-31 -27z" />
    <glyph glyph-name="adieresis" unicode="&#xe4;" horiz-adv-x="586" 
d="M220 -10q-40 0 -73.5 11.5t-57.5 31.5t-37.5 49t-13.5 63v7q0 169 314 169h42v23q0 38 -28 61t-80 23h-3q-41 0 -85.5 -14t-83.5 -39l-51 90q48 30 106 48t121 18h6q47 0 86 -12t68 -36t45 -59t16 -82v-235q0 -27 5 -54t13 -53h-118q-5 12 -8.5 28.5t-5.5 33.5
q-33 -33 -78 -52.5t-99 -19.5zM245 90q44 0 83 17.5t66 46.5v87h-35q-103 0 -152 -20.5t-49 -62.5v-4q0 -28 24 -46t63 -18zM392 609q-29 0 -46.5 17t-17.5 44t17.5 44.5t46.5 17.5t48 -17.5t19 -44.5t-19 -44t-48 -17zM183 609q-29 0 -47 17t-18 44t18 44.5t47 17.5
q28 0 47 -17.5t19 -44.5t-19 -44t-47 -17z" />
    <glyph glyph-name="aring" unicode="&#xe5;" horiz-adv-x="586" 
d="M220 -10q-40 0 -73.5 11.5t-57.5 31.5t-37.5 49t-13.5 63v7q0 169 314 169h42v23q0 38 -28 61t-80 23h-3q-41 0 -85.5 -14t-83.5 -39l-51 90q48 30 106 48t121 18h6q47 0 86 -12t68 -36t45 -59t16 -82v-235q0 -27 5 -54t13 -53h-118q-5 12 -8.5 28.5t-5.5 33.5
q-33 -33 -78 -52.5t-99 -19.5zM245 90q44 0 83 17.5t66 46.5v87h-35q-103 0 -152 -20.5t-49 -62.5v-4q0 -28 24 -46t63 -18zM290 575q-46 0 -75.5 25.5t-29.5 66.5q0 43 29.5 69.5t75.5 26.5q45 0 74.5 -26.5t29.5 -69.5q0 -41 -29 -66.5t-75 -25.5zM290 631q18 0 29 10.5
t11 26.5q0 17 -11 28t-29 11q-19 0 -30 -11t-11 -28q0 -16 11 -26.5t30 -10.5z" />
    <glyph glyph-name="ae" unicode="&#xe6;" horiz-adv-x="897" 
d="M217 -9q-39 0 -72 11t-57 31t-37 48.5t-13 63.5q0 164 293 164h41q0 9 -2 22t-4 18q-5 42 -28.5 59.5t-63.5 17.5q-39 0 -81 -14.5t-79 -37.5l-51 89q50 32 104.5 49t108.5 17q57 0 98 -18.5t66 -52.5q32 34 76 52.5t96 18.5h5q51 0 94 -18t74 -49.5t48.5 -75.5t17.5 -96
v-68h-367q7 -57 44 -92t94 -35h3q42 0 79 18.5t60 48.5l69 -75q-36 -43 -93.5 -69.5t-119.5 -26.5h-8q-61 0 -110 23t-83 64q-18 -19 -40.5 -35t-49 -27.5t-55 -18t-57.5 -6.5zM741 305q-5 56 -38.5 91.5t-87.5 35.5h-1q-51 0 -86 -34.5t-45 -92.5h258zM378 156
q-7 18 -10 38q-2 8 -2 16.5t-1 18.5h-24q-94 0 -138.5 -19t-44.5 -58q0 -27 23 -44t61 -17t75 17.5t61 47.5z" />
    <glyph glyph-name="ccedilla" unicode="&#xe7;" horiz-adv-x="565" 
d="M309 -8q-59 0 -107.5 19.5t-83.5 54t-54.5 82.5t-19.5 105v16q0 57 20 104.5t55 82t83 53.5t105 19h6q76 0 132.5 -32t91.5 -87l-92 -61q-43 81 -130 81h-3q-65 0 -102 -43t-37 -121v-10q0 -75 40 -118.5t104 -43.5h5q45 0 77 22t52 59l90 -67q-36 -54 -92.5 -84.5
t-132.5 -30.5h-7zM275 -179q-24 0 -50 6l8 67q6 -2 12.5 -4t13.5 -2q17 0 24.5 7t7.5 16q0 12 -10 21t-34 9l24 59h71l-14 -30q50 -19 50 -67q0 -15 -6.5 -29.5t-19.5 -26t-32.5 -19t-44.5 -7.5z" />
    <glyph glyph-name="egrave" unicode="&#xe8;" 
d="M312 -9q-59 0 -108.5 19t-85 53t-55 82t-19.5 105v14q0 57 20 106t55.5 84t84.5 55t106 20h6q54 0 99.5 -18t78.5 -49.5t51.5 -75.5t18.5 -97v-67h-397v-1q7 -57 48.5 -91.5t104.5 -34.5h5q48 0 88.5 19t63.5 48l69 -75q-37 -45 -98.5 -70.5t-126.5 -25.5h-9zM446 305
q-4 56 -41 91.5t-94 35.5h-1q-54 0 -91.5 -34.5t-48.5 -92.5h276zM198 735h114l56 -154h-94z" />
    <glyph glyph-name="eacute" unicode="&#xe9;" 
d="M312 -9q-59 0 -108.5 19t-85 53t-55 82t-19.5 105v14q0 57 20 106t55.5 84t84.5 55t106 20h6q54 0 99.5 -18t78.5 -49.5t51.5 -75.5t18.5 -97v-67h-397v-1q7 -57 48.5 -91.5t104.5 -34.5h5q48 0 88.5 19t63.5 48l69 -75q-37 -45 -98.5 -70.5t-126.5 -25.5h-9zM446 305
q-4 56 -41 91.5t-94 35.5h-1q-54 0 -91.5 -34.5t-48.5 -92.5h276zM267 579l57 155h113l-75 -155h-95z" />
    <glyph glyph-name="ecircumflex" unicode="&#xea;" 
d="M312 -9q-59 0 -108.5 19t-85 53t-55 82t-19.5 105v14q0 57 20 106t55.5 84t84.5 55t106 20h6q54 0 99.5 -18t78.5 -49.5t51.5 -75.5t18.5 -97v-67h-397v-1q7 -57 48.5 -91.5t104.5 -34.5h5q48 0 88.5 19t63.5 48l69 -75q-37 -45 -98.5 -70.5t-126.5 -25.5h-9zM446 305
q-4 56 -41 91.5t-94 35.5h-1q-54 0 -91.5 -34.5t-48.5 -92.5h276zM399 592l-72 59h-18l-72 -59h-117l128 128h140l128 -128h-117z" />
    <glyph glyph-name="edieresis" unicode="&#xeb;" 
d="M312 -9q-59 0 -108.5 19t-85 53t-55 82t-19.5 105v14q0 57 20 106t55.5 84t84.5 55t106 20h6q54 0 99.5 -18t78.5 -49.5t51.5 -75.5t18.5 -97v-67h-397v-1q7 -57 48.5 -91.5t104.5 -34.5h5q48 0 88.5 19t63.5 48l69 -75q-37 -45 -98.5 -70.5t-126.5 -25.5h-9zM446 305
q-4 56 -41 91.5t-94 35.5h-1q-54 0 -91.5 -34.5t-48.5 -92.5h276zM422 609q-29 0 -46.5 17t-17.5 44t17.5 44.5t46.5 17.5t48 -17.5t19 -44.5t-19 -44t-48 -17zM213 609q-29 0 -47 17t-18 44t18 44.5t47 17.5q28 0 47 -17.5t19 -44.5t-19 -44t-47 -17z" />
    <glyph glyph-name="igrave" unicode="&#xec;" horiz-adv-x="274" 
d="M75 520h124v-520h-124v520zM16 732h114l56 -154h-94z" />
    <glyph glyph-name="iacute" unicode="&#xed;" horiz-adv-x="274" 
d="M75 520h124v-520h-124v520zM85 576l57 155h113l-75 -155h-95z" />
    <glyph glyph-name="icircumflex" unicode="&#xee;" horiz-adv-x="274" 
d="M208 592l-62 59h-18l-62 -59h-114l118 128h134l118 -128h-114zM75 520h124v-520h-124v520z" />
    <glyph glyph-name="idieresis" unicode="&#xef;" horiz-adv-x="274" 
d="M214 606q-26 0 -42.5 17t-16.5 44q0 28 16.5 45t42.5 17t43.5 -17t17.5 -45q0 -27 -17.5 -44t-43.5 -17zM59 606q-26 0 -43 17t-17 44q0 28 17 45t43 17q25 0 42 -17t17 -45q0 -27 -17 -44t-42 -17zM75 520h124v-520h-124v520z" />
    <glyph glyph-name="eth" unicode="&#xf0;" horiz-adv-x="644" 
d="M157 586l112 53q-40 26 -92 51l55 67q35 -16 68 -34.5t64 -38.5l130 61l35 -66l-99 -47q78 -69 123.5 -157t45.5 -200v-14q0 -61 -20 -110.5t-56.5 -85t-87 -55t-110.5 -19.5h-7q-60 0 -110 19t-86.5 52.5t-57 80.5t-20.5 103v13q0 56 20.5 103t55 81t80.5 53t98 19h8
q32 0 62 -8.5t56 -23.5q-17 28 -39.5 54.5t-49.5 50.5l-143 -67zM326 89q32 0 59 11.5t46.5 32.5t30.5 50.5t11 65.5v8q0 36 -11 65.5t-30.5 50.5t-46.5 33t-59 12h-6q-32 0 -59 -12t-46.5 -33t-30 -50.5t-10.5 -65.5v-8q0 -36 10.5 -65.5t30 -50.5t46.5 -32.5t59 -11.5h6z
" />
    <glyph glyph-name="ntilde" unicode="&#xf1;" horiz-adv-x="636" 
d="M75 520h98q5 -16 9.5 -39t6.5 -40q37 45 86.5 67t103.5 22h3q92 0 140 -51.5t48 -146.5v-332h-124v306q0 57 -25 86.5t-80 29.5h-4q-63 0 -100.5 -39t-37.5 -102v-281h-124v520zM116 661q20 34 53 52t71 18q23 0 45 -7t48 -18q20 -9 38.5 -15.5t39.5 -6.5q23 0 41.5 9.5
t29.5 26.5l41 -57q-20 -34 -51.5 -52t-68.5 -18q-23 0 -44.5 7t-50.5 19q-21 9 -40 15t-38 6q-23 0 -43 -10t-31 -27z" />
    <glyph glyph-name="ograve" unicode="&#xf2;" horiz-adv-x="646" 
d="M319 -9q-60 0 -110.5 19.5t-87 54t-57 83t-20.5 105.5v14q0 57 20.5 105.5t57 83t87 54t110.5 19.5h8q60 0 110.5 -19.5t87 -54t57 -83t20.5 -105.5v-14q0 -57 -20.5 -105.5t-57 -83t-87 -54t-110.5 -19.5h-8zM326 89q32 0 59 12.5t46.5 34.5t30.5 52.5t11 66.5v10
q0 36 -11 66.5t-30.5 52.5t-46.5 34.5t-59 12.5h-6q-32 0 -58.5 -12.5t-46 -34.5t-30.5 -52.5t-11 -66.5v-10q0 -36 11 -66.5t30.5 -52.5t46 -34.5t58.5 -12.5h6zM203 735h114l56 -154h-94z" />
    <glyph glyph-name="oacute" unicode="&#xf3;" horiz-adv-x="646" 
d="M319 -9q-60 0 -110.5 19.5t-87 54t-57 83t-20.5 105.5v14q0 57 20.5 105.5t57 83t87 54t110.5 19.5h8q60 0 110.5 -19.5t87 -54t57 -83t20.5 -105.5v-14q0 -57 -20.5 -105.5t-57 -83t-87 -54t-110.5 -19.5h-8zM326 89q32 0 59 12.5t46.5 34.5t30.5 52.5t11 66.5v10
q0 36 -11 66.5t-30.5 52.5t-46.5 34.5t-59 12.5h-6q-32 0 -58.5 -12.5t-46 -34.5t-30.5 -52.5t-11 -66.5v-10q0 -36 11 -66.5t30.5 -52.5t46 -34.5t58.5 -12.5h6zM271 579l57 155h113l-75 -155h-95z" />
    <glyph glyph-name="ocircumflex" unicode="&#xf4;" horiz-adv-x="646" 
d="M319 -9q-60 0 -110.5 19.5t-87 54t-57 83t-20.5 105.5v14q0 57 20.5 105.5t57 83t87 54t110.5 19.5h8q60 0 110.5 -19.5t87 -54t57 -83t20.5 -105.5v-14q0 -57 -20.5 -105.5t-57 -83t-87 -54t-110.5 -19.5h-8zM326 89q32 0 59 12.5t46.5 34.5t30.5 52.5t11 66.5v10
q0 36 -11 66.5t-30.5 52.5t-46.5 34.5t-59 12.5h-6q-32 0 -58.5 -12.5t-46 -34.5t-30.5 -52.5t-11 -66.5v-10q0 -36 11 -66.5t30.5 -52.5t46 -34.5t58.5 -12.5h6zM404 592l-72 59h-18l-72 -59h-117l128 128h140l128 -128h-117z" />
    <glyph glyph-name="otilde" unicode="&#xf5;" horiz-adv-x="646" 
d="M319 -9q-60 0 -110.5 19.5t-87 54t-57 83t-20.5 105.5v14q0 57 20.5 105.5t57 83t87 54t110.5 19.5h8q60 0 110.5 -19.5t87 -54t57 -83t20.5 -105.5v-14q0 -57 -20.5 -105.5t-57 -83t-87 -54t-110.5 -19.5h-8zM326 89q32 0 59 12.5t46.5 34.5t30.5 52.5t11 66.5v10
q0 36 -11 66.5t-30.5 52.5t-46.5 34.5t-59 12.5h-6q-32 0 -58.5 -12.5t-46 -34.5t-30.5 -52.5t-11 -66.5v-10q0 -36 11 -66.5t30.5 -52.5t46 -34.5t58.5 -12.5h6zM119 661q20 34 53 52t71 18q23 0 45 -7t48 -18q20 -9 38.5 -15.5t39.5 -6.5q23 0 41.5 9.5t29.5 26.5l41 -57
q-20 -34 -51.5 -52t-68.5 -18q-23 0 -44.5 7t-50.5 19q-21 9 -40 15t-38 6q-23 0 -43 -10t-31 -27z" />
    <glyph glyph-name="odieresis" unicode="&#xf6;" horiz-adv-x="646" 
d="M319 -9q-60 0 -110.5 19.5t-87 54t-57 83t-20.5 105.5v14q0 57 20.5 105.5t57 83t87 54t110.5 19.5h8q60 0 110.5 -19.5t87 -54t57 -83t20.5 -105.5v-14q0 -57 -20.5 -105.5t-57 -83t-87 -54t-110.5 -19.5h-8zM326 89q32 0 59 12.5t46.5 34.5t30.5 52.5t11 66.5v10
q0 36 -11 66.5t-30.5 52.5t-46.5 34.5t-59 12.5h-6q-32 0 -58.5 -12.5t-46 -34.5t-30.5 -52.5t-11 -66.5v-10q0 -36 11 -66.5t30.5 -52.5t46 -34.5t58.5 -12.5h6zM426 609q-29 0 -46.5 17t-17.5 44t17.5 44.5t46.5 17.5t48 -17.5t19 -44.5t-19 -44t-48 -17zM217 609
q-29 0 -47 17t-18 44t18 44.5t47 17.5q28 0 47 -17.5t19 -44.5t-19 -44t-47 -17z" />
    <glyph glyph-name="divide" unicode="&#xf7;" horiz-adv-x="592" 
d="M295 440q-31 0 -52 20.5t-21 49.5v4q0 28 21 48t52 20q30 0 52 -20t22 -48v-4q0 -29 -22 -49.5t-52 -20.5zM46 377h500v-104h-500v104zM295 67q-31 0 -52 20.5t-21 49.5v4q0 29 21 49t52 20q30 0 52.5 -20t22.5 -49v-4q0 -29 -22.5 -49.5t-52.5 -20.5z" />
    <glyph glyph-name="oslash" unicode="&#xf8;" horiz-adv-x="646" 
d="M142 47q-46 35 -72 88t-26 118v14q0 57 20.5 105.5t57 83t87 54t110.5 19.5h8q54 0 99 -15l27 46h101l-51 -86q46 -35 72.5 -88t26.5 -119v-14q0 -57 -20.5 -105.5t-57 -83t-87 -54t-110.5 -19.5h-8q-54 0 -99 15l-30 -48h-100zM383 425q-27 9 -57 9h-6q-34 0 -63 -12
t-49 -34.5t-31.5 -53.5t-11.5 -69v-10q0 -37 10.5 -67.5t30.5 -52.5zM326 86q35 0 63.5 12t48.5 34.5t31.5 53.5t11.5 69v10q0 75 -42 122l-176 -291q24 -10 57 -10h6z" />
    <glyph glyph-name="ugrave" unicode="&#xf9;" horiz-adv-x="628" 
d="M250 -10q-90 0 -137 51t-47 146v333h124v-307q0 -56 24.5 -85.5t76.5 -29.5h2q62 0 99 38.5t37 104.5v279h124v-520h-98q-5 15 -9.5 38t-5.5 40q-34 -41 -82 -64.5t-106 -23.5h-2zM186 735h114l56 -154h-94z" />
    <glyph glyph-name="uacute" unicode="&#xfa;" horiz-adv-x="628" 
d="M250 -10q-90 0 -137 51t-47 146v333h124v-307q0 -56 24.5 -85.5t76.5 -29.5h2q62 0 99 38.5t37 104.5v279h124v-520h-98q-5 15 -9.5 38t-5.5 40q-34 -41 -82 -64.5t-106 -23.5h-2zM255 579l57 155h113l-75 -155h-95z" />
    <glyph glyph-name="ucircumflex" unicode="&#xfb;" horiz-adv-x="628" 
d="M250 -10q-90 0 -137 51t-47 146v333h124v-307q0 -56 24.5 -85.5t76.5 -29.5h2q62 0 99 38.5t37 104.5v279h124v-520h-98q-5 15 -9.5 38t-5.5 40q-34 -41 -82 -64.5t-106 -23.5h-2zM388 592l-72 59h-18l-72 -59h-117l128 128h140l128 -128h-117z" />
    <glyph glyph-name="udieresis" unicode="&#xfc;" horiz-adv-x="628" 
d="M250 -10q-90 0 -137 51t-47 146v333h124v-307q0 -56 24.5 -85.5t76.5 -29.5h2q62 0 99 38.5t37 104.5v279h124v-520h-98q-5 15 -9.5 38t-5.5 40q-34 -41 -82 -64.5t-106 -23.5h-2zM410 609q-29 0 -46.5 17t-17.5 44t17.5 44.5t46.5 17.5t48 -17.5t19 -44.5t-19 -44
t-48 -17zM201 609q-29 0 -47 17t-18 44t18 44.5t47 17.5q28 0 47 -17.5t19 -44.5t-19 -44t-47 -17z" />
    <glyph glyph-name="yacute" unicode="&#xfd;" horiz-adv-x="558" 
d="M156 -201q-21 0 -47.5 4t-48.5 15v106q18 -9 35.5 -14.5t36.5 -5.5q32 0 57 19t45 54l-225 543h132l153 -399h7l127 399h126l-191 -549q-11 -32 -27 -62.5t-40 -55t-58.5 -39.5t-81.5 -15zM233 577l57 155h113l-75 -155h-95z" />
    <glyph glyph-name="thorn" unicode="&#xfe;" horiz-adv-x="671" 
d="M75 720h124v-259q32 32 76 50t97 18h5q54 0 99.5 -19t79 -53.5t52 -81t18.5 -102.5v-26q0 -55 -18.5 -102t-52 -81.5t-79 -53.5t-99.5 -19h-5q-53 0 -97 18t-76 50v-249h-124v910zM352 90q32 0 59 12t46 33t29.5 50t10.5 64v22q0 35 -10.5 64t-29.5 50t-46 33t-59 12h-8
q-32 0 -59 -12t-46 -33t-29.5 -50t-10.5 -64v-22q0 -35 10.5 -64t29.5 -50t46 -33t59 -12h8z" />
    <glyph glyph-name="ydieresis" unicode="&#xff;" horiz-adv-x="558" 
d="M156 -201q-21 0 -47.5 4t-48.5 15v106q18 -9 35.5 -14.5t36.5 -5.5q32 0 57 19t45 54l-225 543h132l153 -399h7l127 399h126l-191 -549q-11 -32 -27 -62.5t-40 -55t-58.5 -39.5t-81.5 -15zM388 607q-29 0 -46.5 17t-17.5 44t17.5 44.5t46.5 17.5t48 -17.5t19 -44.5
t-19 -44t-48 -17zM179 607q-29 0 -47 17t-18 44t18 44.5t47 17.5q28 0 47 -17.5t19 -44.5t-19 -44t-47 -17z" />
    <glyph glyph-name="Amacron" unicode="&#x100;" horiz-adv-x="662" 
d="M245 700h172l246 -700h-140l-54 165h-276l-54 -165h-141zM435 273l-100 296h-8l-101 -296h209zM184 887h293v-88h-293v88z" />
    <glyph glyph-name="amacron" unicode="&#x101;" horiz-adv-x="586" 
d="M220 -10q-40 0 -73.5 11.5t-57.5 31.5t-37.5 49t-13.5 63v7q0 169 314 169h42v23q0 38 -28 61t-80 23h-3q-41 0 -85.5 -14t-83.5 -39l-51 90q48 30 106 48t121 18h6q47 0 86 -12t68 -36t45 -59t16 -82v-235q0 -27 5 -54t13 -53h-118q-5 12 -8.5 28.5t-5.5 33.5
q-33 -33 -78 -52.5t-99 -19.5zM245 90q44 0 83 17.5t66 46.5v87h-35q-103 0 -152 -20.5t-49 -62.5v-4q0 -28 24 -46t63 -18zM142 717h293v-92h-293v92z" />
    <glyph glyph-name="Abreve" unicode="&#x102;" horiz-adv-x="662" 
d="M245 700h172l246 -700h-140l-54 165h-276l-54 -165h-141zM435 273l-100 296h-8l-101 -296h209zM264 899q0 -28 19 -44.5t49 -16.5t48.5 17t18.5 44h103q0 -65 -46.5 -104.5t-124.5 -39.5t-124 39.5t-46 104.5h103z" />
    <glyph glyph-name="abreve" unicode="&#x103;" horiz-adv-x="586" 
d="M220 -10q-40 0 -73.5 11.5t-57.5 31.5t-37.5 49t-13.5 63v7q0 169 314 169h42v23q0 38 -28 61t-80 23h-3q-41 0 -85.5 -14t-83.5 -39l-51 90q48 30 106 48t121 18h6q47 0 86 -12t68 -36t45 -59t16 -82v-235q0 -27 5 -54t13 -53h-118q-5 12 -8.5 28.5t-5.5 33.5
q-33 -33 -78 -52.5t-99 -19.5zM245 90q44 0 83 17.5t66 46.5v87h-35q-103 0 -152 -20.5t-49 -62.5v-4q0 -28 24 -46t63 -18zM221 720q0 -28 19 -44.5t49 -16.5q29 0 47.5 17t18.5 44h104q0 -32 -12 -58.5t-34.5 -45.5t-54.5 -29.5t-71 -10.5q-78 0 -124 39.5t-46 104.5h104z
" />
    <glyph glyph-name="Aogonek" unicode="&#x104;" horiz-adv-x="662" 
d="M245 700h172l246 -700h-140l-54 165h-276l-54 -165h-141zM435 273l-100 296h-8l-101 -296h209zM621 -179q-42 0 -67 21.5t-24 58.5q0 37 23 72.5t63 62.5l47 -36q-21 -19 -35.5 -41.5t-14.5 -42.5q0 -28 27 -28q6 0 11.5 2t10.5 4v-67q-19 -6 -41 -6z" />
    <glyph glyph-name="aogonek" unicode="&#x105;" horiz-adv-x="586" 
d="M220 -10q-40 0 -73.5 11.5t-57.5 31.5t-37.5 49t-13.5 63v7q0 169 314 169h42v23q0 38 -28 61t-80 23h-3q-41 0 -85.5 -14t-83.5 -39l-51 90q48 30 106 48t121 18h6q47 0 86 -12t68 -36t45 -59t16 -82v-235q0 -27 5 -54t13 -53h-118q-5 12 -8.5 28.5t-5.5 33.5
q-33 -33 -78 -52.5t-99 -19.5zM245 90q44 0 83 17.5t66 46.5v87h-35q-103 0 -152 -20.5t-49 -62.5v-4q0 -28 24 -46t63 -18zM488 -179q-42 0 -67 21.5t-24 58.5q0 37 23 72.5t63 62.5l47 -36q-21 -19 -35.5 -41.5t-14.5 -42.5q0 -28 27 -28q6 0 11.5 2t10.5 4v-67
q-19 -6 -41 -6z" />
    <glyph glyph-name="Cacute" unicode="&#x106;" horiz-adv-x="687" 
d="M386 -11q-76 0 -139.5 27t-109 75t-71 113.5t-25.5 143.5v4q0 78 25.5 143.5t71.5 113.5t109 75t139 27q91 0 162.5 -41t116.5 -110l-100 -72q-30 51 -72.5 77t-100.5 26h-1q-49 0 -88.5 -17.5t-67.5 -49t-43 -75.5t-15 -97v-5q0 -52 15 -96t43 -75.5t67.5 -49
t87.5 -17.5h1q60 0 105 27t73 75l97 -71q-42 -69 -114.5 -110t-164.5 -41h-1zM441 761h-101l52 147h120z" />
    <glyph glyph-name="cacute" unicode="&#x107;" horiz-adv-x="565" 
d="M309 -8q-59 0 -107.5 19.5t-83.5 54t-54.5 82.5t-19.5 105v16q0 57 20 104.5t55 82t83 53.5t105 19h6q76 0 132.5 -32t91.5 -87l-92 -61q-43 81 -130 81h-3q-65 0 -102 -43t-37 -121v-10q0 -75 40 -118.5t104 -43.5h5q45 0 77 22t52 59l90 -67q-36 -54 -92.5 -84.5
t-132.5 -30.5h-7zM261 579l57 155h113l-75 -155h-95z" />
    <glyph glyph-name="Ccircumflex" unicode="&#x108;" horiz-adv-x="687" 
d="M386 -11q-76 0 -139.5 27t-109 75t-71 113.5t-25.5 143.5v4q0 78 25.5 143.5t71.5 113.5t109 75t139 27q91 0 162.5 -41t116.5 -110l-100 -72q-30 51 -72.5 77t-100.5 26h-1q-49 0 -88.5 -17.5t-67.5 -49t-43 -75.5t-15 -97v-5q0 -52 15 -96t43 -75.5t67.5 -49
t87.5 -17.5h1q60 0 105 27t73 75l97 -71q-42 -69 -114.5 -110t-164.5 -41h-1zM320 900h140l127 -126h-119l-69 57h-18l-69 -57h-119z" />
    <glyph glyph-name="ccircumflex" unicode="&#x109;" horiz-adv-x="565" 
d="M309 -8q-59 0 -107.5 19.5t-83.5 54t-54.5 82.5t-19.5 105v16q0 57 20 104.5t55 82t83 53.5t105 19h6q76 0 132.5 -32t91.5 -87l-92 -61q-43 81 -130 81h-3q-65 0 -102 -43t-37 -121v-10q0 -75 40 -118.5t104 -43.5h5q45 0 77 22t52 59l90 -67q-36 -54 -92.5 -84.5
t-132.5 -30.5h-7zM394 592l-72 59h-18l-72 -59h-117l128 128h140l128 -128h-117z" />
    <glyph glyph-name="Cdotaccent" unicode="&#x10a;" horiz-adv-x="687" 
d="M386 -11q-76 0 -139.5 27t-109 75t-71 113.5t-25.5 143.5v4q0 78 25.5 143.5t71.5 113.5t109 75t139 27q91 0 162.5 -41t116.5 -110l-100 -72q-30 51 -72.5 77t-100.5 26h-1q-49 0 -88.5 -17.5t-67.5 -49t-43 -75.5t-15 -97v-5q0 -52 15 -96t43 -75.5t67.5 -49
t87.5 -17.5h1q60 0 105 27t73 75l97 -71q-42 -69 -114.5 -110t-164.5 -41h-1zM389 776q-32 0 -52 18.5t-20 47.5t20 48t52 19q33 0 54 -19t21 -48t-21 -47.5t-54 -18.5z" />
    <glyph glyph-name="cdotaccent" unicode="&#x10b;" horiz-adv-x="565" 
d="M309 -8q-59 0 -107.5 19.5t-83.5 54t-54.5 82.5t-19.5 105v16q0 57 20 104.5t55 82t83 53.5t105 19h6q76 0 132.5 -32t91.5 -87l-92 -61q-43 81 -130 81h-3q-65 0 -102 -43t-37 -121v-10q0 -75 40 -118.5t104 -43.5h5q45 0 77 22t52 59l90 -67q-36 -54 -92.5 -84.5
t-132.5 -30.5h-7zM313 604q-32 0 -52.5 18.5t-20.5 47.5t20.5 48.5t52.5 19.5q33 0 54.5 -19.5t21.5 -48.5t-21.5 -47.5t-54.5 -18.5z" />
    <glyph glyph-name="Ccaron" unicode="&#x10c;" horiz-adv-x="687" 
d="M386 -11q-76 0 -139.5 27t-109 75t-71 113.5t-25.5 143.5v4q0 78 25.5 143.5t71.5 113.5t109 75t139 27q91 0 162.5 -41t116.5 -110l-100 -72q-30 51 -72.5 77t-100.5 26h-1q-49 0 -88.5 -17.5t-67.5 -49t-43 -75.5t-15 -97v-5q0 -52 15 -96t43 -75.5t67.5 -49
t87.5 -17.5h1q60 0 105 27t73 75l97 -71q-42 -69 -114.5 -110t-164.5 -41h-1zM194 900h119l69 -57h18l69 57h119l-127 -126h-140z" />
    <glyph glyph-name="ccaron" unicode="&#x10d;" horiz-adv-x="565" 
d="M309 -8q-59 0 -107.5 19.5t-83.5 54t-54.5 82.5t-19.5 105v16q0 57 20 104.5t55 82t83 53.5t105 19h6q76 0 132.5 -32t91.5 -87l-92 -61q-43 81 -130 81h-3q-65 0 -102 -43t-37 -121v-10q0 -75 40 -118.5t104 -43.5h5q45 0 77 22t52 59l90 -67q-36 -54 -92.5 -84.5
t-132.5 -30.5h-7zM115 720h117l72 -65h18l72 65h117l-128 -134h-140z" />
    <glyph glyph-name="Dcaron" unicode="&#x10e;" horiz-adv-x="720" 
d="M84 700h233q81 0 147.5 -25t114 -69.5t74 -106t26.5 -135.5v-19q0 -75 -26.5 -138.5t-74 -109.5t-114 -71.5t-147.5 -25.5h-233v700zM318 116q53 0 94.5 17t70 48t44 73t15.5 93v17q0 49 -15.5 89.5t-44.5 69.5t-70.5 45t-93.5 16h-103v-468h103zM156 897h119l69 -57h18
l69 57h119l-127 -126h-140z" />
    <glyph glyph-name="dcaron" unicode="&#x10f;" horiz-adv-x="704" 
d="M294 -9q-54 0 -100 19.5t-79 54t-51.5 82.5t-18.5 106v14q0 58 18.5 106t51.5 82.5t79 54t100 19.5h5q53 0 97 -18t76 -51v260h124v-720h-98q-5 13 -9 33t-6 37q-34 -38 -80.5 -58.5t-103.5 -20.5h-5zM327 90q65 0 105 45t40 120v10q0 75 -40 120t-105 45h-8
q-65 0 -105 -45t-40 -120v-10q0 -75 40 -120t105 -45h8zM673 720h107l-37 -166h-80z" />
    <glyph glyph-name="Dcroat" unicode="&#x110;" horiz-adv-x="732" 
d="M97 299h-65v116h65v285h232q81 0 147.5 -25t114 -69.5t74 -106t26.5 -135.5v-19q0 -75 -26 -138.5t-74 -109.5t-114.5 -71.5t-147.5 -25.5h-232v299zM331 116q52 0 93.5 17t70 48t44 73t15.5 93v17q0 49 -15.5 89.5t-44 69.5t-70 45t-93.5 16h-103v-169h154v-116h-154
v-183h103z" />
    <glyph glyph-name="dcroat" unicode="&#x111;" horiz-adv-x="672" 
d="M294 -9q-54 0 -100 19.5t-79.5 54t-52 82.5t-18.5 106v14q0 58 18.5 106t52 82.5t79.5 54t100 19.5h5q53 0 98 -18.5t77 -52.5v127h-149v85h149v50h122v-50h64v-85h-64v-585h-98q-5 13 -9 33t-6 37q-34 -38 -80.5 -58.5t-103.5 -20.5h-5zM326 96q32 0 59 11.5t46.5 32.5
t30 50.5t10.5 65.5v8q0 36 -10.5 65.5t-30 50.5t-46.5 32.5t-59 11.5h-7q-32 0 -59 -11.5t-46 -32.5t-29.5 -50.5t-10.5 -65.5v-8q0 -36 10.5 -65.5t29.5 -50.5t46 -32.5t59 -11.5h7z" />
    <glyph glyph-name="Emacron" unicode="&#x112;" horiz-adv-x="580" 
d="M84 700h432v-116h-301v-175h281v-110h-281v-183h311v-116h-442v700zM158 887h293v-88h-293v88z" />
    <glyph glyph-name="emacron" unicode="&#x113;" 
d="M312 -9q-59 0 -108.5 19t-85 53t-55 82t-19.5 105v14q0 57 20 106t55.5 84t84.5 55t106 20h6q54 0 99.5 -18t78.5 -49.5t51.5 -75.5t18.5 -97v-67h-397v-1q7 -57 48.5 -91.5t104.5 -34.5h5q48 0 88.5 19t63.5 48l69 -75q-37 -45 -98.5 -70.5t-126.5 -25.5h-9zM446 305
q-4 56 -41 91.5t-94 35.5h-1q-54 0 -91.5 -34.5t-48.5 -92.5h276zM172 717h293v-92h-293v92z" />
    <glyph glyph-name="Ebreve" unicode="&#x114;" horiz-adv-x="580" 
d="M84 700h432v-116h-301v-175h281v-110h-281v-183h311v-116h-442v700zM238 899q0 -28 19 -44.5t49 -16.5t48.5 17t18.5 44h103q0 -65 -46.5 -104.5t-124.5 -39.5t-124 39.5t-46 104.5h103z" />
    <glyph glyph-name="ebreve" unicode="&#x115;" 
d="M312 -9q-59 0 -108.5 19t-85 53t-55 82t-19.5 105v14q0 57 20 106t55.5 84t84.5 55t106 20h6q54 0 99.5 -18t78.5 -49.5t51.5 -75.5t18.5 -97v-67h-397v-1q7 -57 48.5 -91.5t104.5 -34.5h5q48 0 88.5 19t63.5 48l69 -75q-37 -45 -98.5 -70.5t-126.5 -25.5h-9zM446 305
q-4 56 -41 91.5t-94 35.5h-1q-54 0 -91.5 -34.5t-48.5 -92.5h276zM251 720q0 -28 19 -44.5t49 -16.5q29 0 47.5 17t18.5 44h104q0 -32 -12 -58.5t-34.5 -45.5t-54.5 -29.5t-71 -10.5q-78 0 -124 39.5t-46 104.5h104z" />
    <glyph glyph-name="Edotaccent" unicode="&#x116;" horiz-adv-x="580" 
d="M84 700h432v-116h-301v-175h281v-110h-281v-183h311v-116h-442v700zM303 776q-32 0 -52 18.5t-20 47.5t20 48t52 19q33 0 54 -19t21 -48t-21 -47.5t-54 -18.5z" />
    <glyph glyph-name="edotaccent" unicode="&#x117;" 
d="M312 -9q-59 0 -108.5 19t-85 53t-55 82t-19.5 105v14q0 57 20 106t55.5 84t84.5 55t106 20h6q54 0 99.5 -18t78.5 -49.5t51.5 -75.5t18.5 -97v-67h-397v-1q7 -57 48.5 -91.5t104.5 -34.5h5q48 0 88.5 19t63.5 48l69 -75q-37 -45 -98.5 -70.5t-126.5 -25.5h-9zM446 305
q-4 56 -41 91.5t-94 35.5h-1q-54 0 -91.5 -34.5t-48.5 -92.5h276zM319 604q-32 0 -52.5 18.5t-20.5 47.5t20.5 48.5t52.5 19.5q33 0 54.5 -19.5t21.5 -48.5t-21.5 -47.5t-54.5 -18.5z" />
    <glyph glyph-name="Eogonek" unicode="&#x118;" horiz-adv-x="580" 
d="M84 700h432v-116h-301v-175h281v-110h-281v-183h311v-116h-442v700zM484 -179q-42 0 -67 21.5t-24 58.5q0 37 23 72.5t63 62.5l47 -36q-21 -19 -35.5 -41.5t-14.5 -42.5q0 -28 27 -28q6 0 11.5 2t10.5 4v-67q-19 -6 -41 -6z" />
    <glyph glyph-name="eogonek" unicode="&#x119;" 
d="M546 87q-21 -25 -50.5 -44.5t-64.5 -32.5h1q-35 -10 -61.5 -32.5t-26.5 -56.5q0 -33 26 -33q6 0 12 2t11 4v-67q-21 -6 -42 -6q-42 0 -66.5 21t-24.5 59q0 47 37 90q-56 3 -102.5 23t-80 54t-52 80.5t-18.5 101.5v14q0 57 20 106t56 84t84.5 55t105.5 20h6q54 0 99.5 -18
t78.5 -49.5t51.5 -75.5t18.5 -97v-67h-397q8 -57 49 -92t105 -35h4q49 0 89.5 19t63.5 48zM446 305q-4 56 -40.5 91.5t-93.5 35.5h-2q-54 0 -91.5 -34.5t-47.5 -92.5h275z" />
    <glyph glyph-name="Ecaron" unicode="&#x11a;" horiz-adv-x="580" 
d="M84 700h432v-116h-301v-175h281v-110h-281v-183h311v-116h-442v700zM108 900h119l69 -57h18l69 57h119l-127 -126h-140z" />
    <glyph glyph-name="ecaron" unicode="&#x11b;" 
d="M312 -9q-59 0 -108.5 19t-85 53t-55 82t-19.5 105v14q0 57 20 106t55.5 84t84.5 55t106 20h6q54 0 99.5 -18t78.5 -49.5t51.5 -75.5t18.5 -97v-67h-397v-1q7 -57 48.5 -91.5t104.5 -34.5h5q48 0 88.5 19t63.5 48l69 -75q-37 -45 -98.5 -70.5t-126.5 -25.5h-9zM446 305
q-4 56 -41 91.5t-94 35.5h-1q-54 0 -91.5 -34.5t-48.5 -92.5h276zM120 720h117l72 -65h18l72 65h117l-128 -134h-140z" />
    <glyph glyph-name="Gcircumflex" unicode="&#x11c;" horiz-adv-x="752" 
d="M370 -10q-73 0 -133.5 26.5t-104 74t-67.5 113t-24 143.5v5q0 78 26 143.5t72 113.5t109 75t138 27h2q96 0 168.5 -42t119.5 -114l-106 -67q-29 52 -71.5 79.5t-102.5 27.5h-2q-49 0 -89 -18t-68.5 -50t-44 -76.5t-15.5 -98.5v-6q0 -54 15.5 -98t44 -75.5t68.5 -49
t89 -17.5h2q41 0 74 11t56 30.5t35.5 45.5t12.5 55v14h-156v110h278v-372h-95q-6 11 -10.5 33.5t-6.5 43.5q-33 -39 -89 -63t-118 -24h-7zM328 900h140l127 -126h-119l-69 57h-18l-69 -57h-119z" />
    <glyph glyph-name="gcircumflex" unicode="&#x11d;" horiz-adv-x="570" 
d="M357 596l-68 55h-18l-68 -55h-118l125 124h140l125 -124h-118zM41 343q0 42 17.5 76.5t48.5 58.5t73.5 37.5t93.5 13.5h15q65 0 114 -21q12 37 30 62h114l-63 -120q37 -45 37 -107v-8q0 -40 -17.5 -74t-48.5 -58.5t-73.5 -38.5t-92.5 -14h-15h-13t-12 1v-52h26h32
q51 0 95 -10.5t76 -30t50 -47t18 -61.5v-10q0 -34 -18.5 -61.5t-50.5 -47t-76.5 -30t-96.5 -10.5h-25q-52 0 -97 10.5t-77 30t-50.5 47t-18.5 61.5v12q0 44 30.5 78t80.5 53v94q-49 24 -77.5 65t-28.5 93v8zM164 331q0 -21 9 -38t25 -29t36.5 -19t44.5 -7h9q24 0 44.5 7
t36 19.5t24.5 29.5t9 37v11q0 20 -9 37t-24.5 29t-36 19t-44.5 7h-9q-24 0 -44.5 -7t-36.5 -19t-25 -29t-9 -37v-11zM160 -54q0 -28 33 -45.5t87 -17.5h23q54 0 87.5 18t33.5 45v8q0 27 -33.5 45t-87.5 18h-23q-54 0 -87 -18t-33 -45v-8z" />
    <glyph glyph-name="Gbreve" unicode="&#x11e;" horiz-adv-x="752" 
d="M370 -10q-73 0 -133.5 26.5t-104 74t-67.5 113t-24 143.5v5q0 78 26 143.5t72 113.5t109 75t138 27h2q96 0 168.5 -42t119.5 -114l-106 -67q-29 52 -71.5 79.5t-102.5 27.5h-2q-49 0 -89 -18t-68.5 -50t-44 -76.5t-15.5 -98.5v-6q0 -54 15.5 -98t44 -75.5t68.5 -49
t89 -17.5h2q41 0 74 11t56 30.5t35.5 45.5t12.5 55v14h-156v110h278v-372h-95q-6 11 -10.5 33.5t-6.5 43.5q-33 -39 -89 -63t-118 -24h-7zM331 899q0 -28 19 -44.5t49 -16.5t48.5 17t18.5 44h103q0 -65 -46.5 -104.5t-124.5 -39.5t-124 39.5t-46 104.5h103z" />
    <glyph glyph-name="gbreve" unicode="&#x11f;" horiz-adv-x="570" 
d="M217 720q0 -26 18 -42t47 -16t46.5 16t17.5 42h103q0 -31 -12 -57t-34 -45t-53 -29t-69 -10t-69 10t-53 29t-34 45t-12 57h104zM41 343q0 42 17.5 76.5t48.5 58.5t73.5 37.5t93.5 13.5h15q65 0 114 -21q14 39 32 64h113l-64 -122q37 -45 37 -107v-8q0 -40 -17.5 -74
t-48.5 -58.5t-73.5 -38.5t-92.5 -14h-15h-13t-12 1v-52h26h32q51 0 95 -10.5t76 -30t50 -47t18 -61.5v-10q0 -34 -18.5 -61.5t-50.5 -47t-76.5 -30t-96.5 -10.5h-25q-52 0 -97 10.5t-77 30t-50.5 47t-18.5 61.5v12q0 44 30.5 78t80.5 53v94q-49 24 -77.5 65t-28.5 93v8z
M164 331q0 -21 9 -38t25 -29t36.5 -19t44.5 -7h9q24 0 44.5 7t36 19.5t24.5 29.5t9 37v11q0 20 -9 37t-24.5 29t-36 19t-44.5 7h-9q-24 0 -44.5 -7t-36.5 -19t-25 -29t-9 -37v-11zM160 -54q0 -28 33 -45.5t87 -17.5h23q54 0 87.5 18t33.5 45v8q0 27 -33.5 45t-87.5 18h-23
q-54 0 -87 -18t-33 -45v-8z" />
    <glyph glyph-name="Gdotaccent" unicode="&#x120;" horiz-adv-x="752" 
d="M370 -10q-73 0 -133.5 26.5t-104 74t-67.5 113t-24 143.5v5q0 78 26 143.5t72 113.5t109 75t138 27h2q96 0 168.5 -42t119.5 -114l-106 -67q-29 52 -71.5 79.5t-102.5 27.5h-2q-49 0 -89 -18t-68.5 -50t-44 -76.5t-15.5 -98.5v-6q0 -54 15.5 -98t44 -75.5t68.5 -49
t89 -17.5h2q41 0 74 11t56 30.5t35.5 45.5t12.5 55v14h-156v110h278v-372h-95q-6 11 -10.5 33.5t-6.5 43.5q-33 -39 -89 -63t-118 -24h-7zM397 776q-32 0 -52 18.5t-20 47.5t20 48t52 19q33 0 54 -19t21 -48t-21 -47.5t-54 -18.5z" />
    <glyph glyph-name="gdotaccent" unicode="&#x121;" horiz-adv-x="570" 
d="M281 603q-32 0 -52.5 18.5t-20.5 48.5q0 29 20.5 48.5t52.5 19.5q33 0 54 -19.5t21 -48.5q0 -30 -21 -48.5t-54 -18.5zM41 343q0 42 17.5 76.5t48.5 58.5t73.5 37.5t93.5 13.5h15q65 0 114 -21q14 39 32 64h113l-64 -122q37 -45 37 -107v-8q0 -40 -17.5 -74t-48.5 -58.5
t-73.5 -38.5t-92.5 -14h-15h-13t-12 1v-52h26h32q51 0 95 -10.5t76 -30t50 -47t18 -61.5v-10q0 -34 -18.5 -61.5t-50.5 -47t-76.5 -30t-96.5 -10.5h-25q-52 0 -97 10.5t-77 30t-50.5 47t-18.5 61.5v12q0 44 30.5 78t80.5 53v94q-49 24 -77.5 65t-28.5 93v8zM164 331
q0 -21 9 -38t25 -29t36.5 -19t44.5 -7h9q24 0 44.5 7t36 19.5t24.5 29.5t9 37v11q0 20 -9 37t-24.5 29t-36 19t-44.5 7h-9q-24 0 -44.5 -7t-36.5 -19t-25 -29t-9 -37v-11zM160 -54q0 -28 33 -45.5t87 -17.5h23q54 0 87.5 18t33.5 45v8q0 27 -33.5 45t-87.5 18h-23
q-54 0 -87 -18t-33 -45v-8z" />
    <glyph glyph-name="uni0122" unicode="&#x122;" horiz-adv-x="752" 
d="M370 -10q-73 0 -133.5 26.5t-104 74t-67.5 113t-24 143.5v5q0 78 26 143.5t72 113.5t109 75t138 27h2q96 0 168.5 -42t119.5 -114l-106 -67q-29 52 -71.5 79.5t-102.5 27.5h-2q-49 0 -89 -18t-68.5 -50t-44 -76.5t-15.5 -98.5v-6q0 -54 15.5 -98t44 -75.5t68.5 -49
t89 -17.5h2q41 0 74 11t56 30.5t35.5 45.5t12.5 55v14h-156v110h278v-372h-95q-6 11 -10.5 33.5t-6.5 43.5q-33 -39 -89 -63t-118 -24h-7zM328 -44h108l-64 -151h-81z" />
    <glyph glyph-name="uni0123" unicode="&#x123;" horiz-adv-x="570" 
d="M330 715q-16 -8 -25 -21t-9 -26q20 -2 31.5 -16t11.5 -34q0 -22 -15 -37.5t-42 -15.5q-29 0 -46 19t-17 48q0 31 19 64t54 53zM41 343q0 42 17.5 76.5t48.5 58.5t73.5 37.5t93.5 13.5h15q65 0 114 -21q14 39 32 64h113l-64 -122q37 -45 37 -107v-8q0 -40 -17.5 -74
t-48.5 -58.5t-73.5 -38.5t-92.5 -14h-15h-13t-12 1v-52h26h32q51 0 95 -10.5t76 -30t50 -47t18 -61.5v-10q0 -34 -18.5 -61.5t-50.5 -47t-76.5 -30t-96.5 -10.5h-25q-52 0 -97 10.5t-77 30t-50.5 47t-18.5 61.5v12q0 44 30.5 78t80.5 53v94q-49 24 -77.5 65t-28.5 93v8z
M164 331q0 -21 9 -38t25 -29t36.5 -19t44.5 -7h9q24 0 44.5 7t36 19.5t24.5 29.5t9 37v11q0 20 -9 37t-24.5 29t-36 19t-44.5 7h-9q-24 0 -44.5 -7t-36.5 -19t-25 -29t-9 -37v-11zM160 -54q0 -28 33 -45.5t87 -17.5h23q54 0 87.5 18t33.5 45v8q0 27 -33.5 45t-87.5 18h-23
q-54 0 -87 -18t-33 -45v-8z" />
    <glyph glyph-name="Hcircumflex" unicode="&#x124;" horiz-adv-x="724" 
d="M84 700h131v-285h294v285h131v-700h-131v299h-294v-299h-131v700zM292 897h140l127 -126h-119l-69 57h-18l-69 -57h-119z" />
    <glyph glyph-name="hcircumflex" unicode="&#x125;" horiz-adv-x="635" 
d="M208 772l-62 59h-18l-62 -59h-114l118 128h134l118 -128h-114zM75 720h124v-267q35 36 82.5 56.5t104.5 20.5q88 0 136 -51.5t48 -146.5v-332h-124v306q0 116 -107 116q-65 0 -102.5 -36t-37.5 -98v-288h-124v720z" />
    <glyph glyph-name="Hbar" unicode="&#x126;" horiz-adv-x="723" 
d="M83 700h131v-93h294v93h131v-700h-131v299h-294v-299h-131v700zM508 415v100h-294v-100h294z" />
    <glyph glyph-name="hbar" unicode="&#x127;" horiz-adv-x="625" 
d="M76 583h-64v85h64v52h124v-52h147v-85h-147v-134q33 33 77.5 52t98.5 19h2q92 0 139.5 -51.5t47.5 -146.5v-322h-124v296q0 59 -24.5 87.5t-77.5 28.5h-3q-63 0 -99.5 -33t-36.5 -98v-281h-124v583z" />
    <glyph glyph-name="Itilde" unicode="&#x128;" horiz-adv-x="300" 
d="M84 700h131v-700h-131v700zM-55 839q20 33 53 51.5t71 18.5q23 0 45 -7t48 -18q20 -9 39 -15.5t39 -6.5q49 0 71 36l41 -58q-19 -33 -50.5 -51.5t-69.5 -18.5q-23 0 -44.5 7t-50.5 20q-21 9 -39.5 15t-37.5 6q-23 0 -43.5 -10t-31.5 -27z" />
    <glyph glyph-name="itilde" unicode="&#x129;" horiz-adv-x="274" 
d="M214 596q-23 0 -42 6t-37 14q-16 7 -31.5 12t-32.5 5q-43 0 -64 -35l-50 65q37 55 105 55q24 0 43.5 -6t36.5 -14q17 -7 31.5 -12t30.5 -5q41 0 62 35l51 -64q-18 -27 -44.5 -41.5t-58.5 -14.5zM75 520h124v-520h-124v520z" />
    <glyph glyph-name="Imacron" unicode="&#x12a;" horiz-adv-x="300" 
d="M84 700h131v-700h-131v700zM3 887h293v-88h-293v88z" />
    <glyph glyph-name="imacron" unicode="&#x12b;" horiz-adv-x="269" 
d="M5 708h259v-92h-259v92zM73 520h124v-520h-124v520z" />
    <glyph glyph-name="Ibreve" unicode="&#x12c;" horiz-adv-x="300" 
d="M84 700h131v-700h-131v700zM83 899q0 -28 19 -44.5t49 -16.5t48.5 17t18.5 44h103q0 -65 -46.5 -104.5t-124.5 -39.5t-124 39.5t-46 104.5h103z" />
    <glyph glyph-name="ibreve" unicode="&#x12d;" horiz-adv-x="275" 
d="M137 662q23 0 36.5 16t13.5 42h103q0 -63 -41.5 -102t-111.5 -39t-111 39t-41 102h103q0 -26 13 -42t36 -16zM76 520h124v-520h-124v520z" />
    <glyph glyph-name="Iogonek" unicode="&#x12e;" horiz-adv-x="300" 
d="M84 700h131v-700h-131v700zM173 -179q-42 0 -67 21.5t-24 58.5q0 37 23 72.5t63 62.5l47 -36q-21 -19 -35.5 -41.5t-14.5 -42.5q0 -28 27 -28q6 0 11.5 2t10.5 4v-67q-19 -6 -41 -6z" />
    <glyph glyph-name="iogonek" unicode="&#x12f;" horiz-adv-x="274" 
d="M136 601q-32 0 -52.5 18.5t-20.5 47.5t20.5 48.5t52.5 19.5q33 0 54 -19.5t21 -48.5t-21 -47.5t-54 -18.5zM75 520h124v-520h-124v520zM157 -179q-42 0 -67 21.5t-24 58.5q0 37 23 72.5t63 62.5l47 -36q-21 -19 -35.5 -41.5t-14.5 -42.5q0 -28 27 -28q6 0 11.5 2t10.5 4
v-67q-19 -6 -41 -6z" />
    <glyph glyph-name="Idotaccent" unicode="&#x130;" horiz-adv-x="300" 
d="M84 700h131v-700h-131v700zM148 776q-32 0 -52 18.5t-20 47.5t20 48t52 19q33 0 54 -19t21 -48t-21 -47.5t-54 -18.5z" />
    <glyph glyph-name="dotlessi" unicode="&#x131;" horiz-adv-x="274" 
d="M75 520h124v-520h-124v520z" />
    <glyph glyph-name="IJ" unicode="&#x132;" horiz-adv-x="659" 
d="M397 -10q-58 0 -105 18v123q15 -9 34 -15.5t42 -6.5q51 0 74 26.5t23 71.5v493h131v-506q0 -98 -51 -151t-148 -53zM83 700h131v-700h-131v700z" />
    <glyph glyph-name="ij" unicode="&#x133;" horiz-adv-x="543" 
d="M136 601q-32 0 -52.5 18.5t-20.5 47.5t20.5 48.5t52.5 19.5q33 0 54 -19.5t21 -48.5t-21 -47.5t-54 -18.5zM406 601q-32 0 -52.5 18.5t-20.5 47.5t20.5 48.5t52.5 19.5q33 0 54.5 -19.5t21.5 -48.5t-21.5 -47.5t-54.5 -18.5zM322 -197q-23 0 -49.5 4t-49.5 14v104
q26 -12 55 -12q35 0 51 17t16 62v528h124v-548q0 -82 -39 -125.5t-108 -43.5zM75 520h124v-520h-124v520z" />
    <glyph glyph-name="Jcircumflex" unicode="&#x134;" horiz-adv-x="418" 
d="M141 -10q-59 0 -107 18v123q16 -9 35.5 -15.5t43.5 -6.5q51 0 75 26.5t24 71.5v493h131v-506q0 -98 -52.5 -151t-149.5 -53zM207 897h140l127 -126h-119l-69 57h-18l-69 -57h-119z" />
    <glyph glyph-name="jcircumflex" unicode="&#x135;" horiz-adv-x="292" 
d="M225 592l-62 59h-18l-62 -59h-114l118 128h134l118 -128h-114zM71 -197q-23 0 -49.5 4t-49.5 14v104q25 -12 54 -12q35 0 51 17t16 62v528h124v-548q0 -82 -38.5 -125.5t-107.5 -43.5z" />
    <glyph glyph-name="uni0136" unicode="&#x136;" horiz-adv-x="661" 
d="M84 700h132v-298h6l260 298h152l-292 -322l316 -378h-161l-275 337h-6v-337h-132v700zM297 -38h108l-64 -151h-81z" />
    <glyph glyph-name="uni0137" unicode="&#x137;" horiz-adv-x="569" 
d="M75 720h124v-419h8l210 219h140l-240 -241l246 -279h-149l-207 246h-8v-246h-124v720zM256 -38h108l-64 -151h-81z" />
    <glyph glyph-name="kgreenlandic" unicode="&#x138;" horiz-adv-x="569" 
d="M75 520h124v-219h8l210 219h140l-240 -241l246 -279h-149l-207 246h-8v-246h-124v520z" />
    <glyph glyph-name="Lacute" unicode="&#x139;" horiz-adv-x="539" 
d="M84 700h131v-584h289v-116h-420v700zM200 758h-101l52 147h120z" />
    <glyph glyph-name="lacute" unicode="&#x13a;" horiz-adv-x="274" 
d="M74 720h124v-720h-124v720zM187 760h-101l52 147h120z" />
    <glyph glyph-name="uni013B" unicode="&#x13b;" horiz-adv-x="539" 
d="M84 700h131v-584h289v-116h-420v700zM248 -38h108l-64 -151h-81z" />
    <glyph glyph-name="uni013C" unicode="&#x13c;" horiz-adv-x="274" 
d="M74 720h124v-720h-124v720zM90 -38h108l-64 -151h-81z" />
    <glyph glyph-name="Lcaron" unicode="&#x13d;" horiz-adv-x="539" 
d="M84 700h131v-584h289v-116h-420v700zM326 700h107l-37 -166h-80z" />
    <glyph glyph-name="lcaron" unicode="&#x13e;" horiz-adv-x="307" 
d="M74 720h124v-720h-124v720zM276 720h107l-37 -166h-80z" />
    <glyph glyph-name="Ldot" unicode="&#x13f;" horiz-adv-x="548" 
d="M84 700h131v-584h289v-116h-420v700zM405 301q-32 0 -52.5 18.5t-20.5 48.5t20.5 49t52.5 19q33 0 54.5 -19t21.5 -49t-21.5 -48.5t-54.5 -18.5z" />
    <glyph glyph-name="ldot" unicode="&#x140;" horiz-adv-x="412" 
d="M72 720h124v-720h-124v720zM337 301q-32 0 -52.5 18.5t-20.5 48.5t20.5 49t52.5 19q33 0 54 -19t21 -49t-21 -48.5t-54 -18.5z" />
    <glyph glyph-name="Lslash" unicode="&#x141;" horiz-adv-x="549" 
d="M20 372l75 27v301h131v-254l156 57v-103l-156 -56v-228h289v-116h-420v297l-75 -28v103z" />
    <glyph glyph-name="lslash" unicode="&#x142;" horiz-adv-x="361" 
d="M32 350l86 44v326h124v-262l87 44v-97l-87 -44v-361h-124v297l-86 -44v97z" />
    <glyph glyph-name="Nacute" unicode="&#x143;" horiz-adv-x="741" 
d="M84 700h147l290 -497h8v497h127v-700h-134l-302 521h-8v-521h-128v700zM421 762h-101l52 147h120z" />
    <glyph glyph-name="nacute" unicode="&#x144;" horiz-adv-x="636" 
d="M75 520h98q5 -16 9.5 -39t6.5 -40q37 45 86.5 67t103.5 22h3q92 0 140 -51.5t48 -146.5v-332h-124v306q0 57 -25 86.5t-80 29.5h-4q-63 0 -100.5 -39t-37.5 -102v-281h-124v520zM269 579l57 155h113l-75 -155h-95z" />
    <glyph glyph-name="uni0145" unicode="&#x145;" horiz-adv-x="741" 
d="M84 700h147l290 -497h8v497h127v-700h-134l-302 521h-8v-521h-128v700zM323 -38h108l-64 -151h-81z" />
    <glyph glyph-name="uni0146" unicode="&#x146;" horiz-adv-x="636" 
d="M75 520h98q5 -16 9.5 -39t6.5 -40q37 45 86.5 67t103.5 22h3q92 0 140 -51.5t48 -146.5v-332h-124v306q0 57 -25 86.5t-80 29.5h-4q-63 0 -100.5 -39t-37.5 -102v-281h-124v520zM272 -38h108l-64 -151h-81z" />
    <glyph glyph-name="Ncaron" unicode="&#x147;" horiz-adv-x="741" 
d="M84 700h147l290 -497h8v497h127v-700h-134l-302 521h-8v-521h-128v700zM174 901h119l69 -57h18l69 57h119l-127 -126h-140z" />
    <glyph glyph-name="ncaron" unicode="&#x148;" horiz-adv-x="636" 
d="M75 520h98q5 -16 9.5 -39t6.5 -40q37 45 86.5 67t103.5 22h3q92 0 140 -51.5t48 -146.5v-332h-124v306q0 57 -25 86.5t-80 29.5h-4q-63 0 -100.5 -39t-37.5 -102v-281h-124v520zM122 720h117l72 -65h18l72 65h117l-128 -134h-140z" />
    <glyph glyph-name="napostrophe" unicode="&#x149;" horiz-adv-x="745" 
d="M183 520h98q5 -16 9.5 -39t6.5 -40q37 45 86.5 67t103.5 22h3q92 0 140 -51.5t48 -146.5v-332h-124v306q0 57 -25 86.5t-80 29.5h-4q-63 0 -100.5 -39t-37.5 -102v-281h-124v520zM85 700h121l-110 -281h-97z" />
    <glyph glyph-name="Eng" unicode="&#x14a;" horiz-adv-x="752" 
d="M469 -197q-57 0 -105 17v124q15 -10 34 -16t42 -6q48 0 71 23t25 64l-315 494h-7v-503h-131v700h148l300 -475h7v475h130v-700q0 -95 -52 -146t-147 -51z" />
    <glyph glyph-name="eng" unicode="&#x14b;" horiz-adv-x="645" 
d="M423 -197q-23 0 -49.5 4t-48.5 14v104q24 -12 53 -12q35 0 51.5 17t16.5 62v314q0 57 -25 86.5t-80 29.5h-4q-63 0 -100.5 -38.5t-37.5 -102.5v-281h-124v520h98q6 -17 10 -40t6 -39q34 42 83 65.5t107 23.5h3q92 0 140 -51.5t48 -146.5v-360q0 -82 -39 -125.5
t-108 -43.5z" />
    <glyph glyph-name="Omacron" unicode="&#x14c;" horiz-adv-x="779" 
d="M41 353q0 77 25.5 143t71.5 114t109.5 75t138.5 27h7q75 0 138.5 -27t109.5 -75t71.5 -113.5t25.5 -142.5v-8q0 -77 -25.5 -142.5t-71.5 -113.5t-109.5 -75t-138.5 -27h-7q-75 0 -138.5 27.5t-109 75.5t-71.5 114t-26 142v6zM177 347q0 -54 15.5 -98.5t43.5 -76t66.5 -49
t84.5 -17.5h7q45 0 83 17.5t66 49t43.5 76t15.5 98.5v6q0 54 -15.5 98.5t-43 76.5t-66 49.5t-84.5 17.5h-7q-45 0 -83.5 -17.5t-66.5 -49.5t-43.5 -76.5t-15.5 -98.5v-6zM243 887h293v-88h-293v88z" />
    <glyph glyph-name="omacron" unicode="&#x14d;" horiz-adv-x="646" 
d="M319 -9q-60 0 -110.5 19.5t-87 54t-57 83t-20.5 105.5v14q0 57 20.5 105.5t57 83t87 54t110.5 19.5h8q60 0 110.5 -19.5t87 -54t57 -83t20.5 -105.5v-14q0 -57 -20.5 -105.5t-57 -83t-87 -54t-110.5 -19.5h-8zM326 89q32 0 59 12.5t46.5 34.5t30.5 52.5t11 66.5v10
q0 36 -11 66.5t-30.5 52.5t-46.5 34.5t-59 12.5h-6q-32 0 -58.5 -12.5t-46 -34.5t-30.5 -52.5t-11 -66.5v-10q0 -36 11 -66.5t30.5 -52.5t46 -34.5t58.5 -12.5h6zM177 717h293v-92h-293v92z" />
    <glyph glyph-name="Obreve" unicode="&#x14e;" horiz-adv-x="779" 
d="M41 353q0 77 25.5 143t71.5 114t109.5 75t138.5 27h7q75 0 138.5 -27t109.5 -75t71.5 -113.5t25.5 -142.5v-8q0 -77 -25.5 -142.5t-71.5 -113.5t-109.5 -75t-138.5 -27h-7q-75 0 -138.5 27.5t-109 75.5t-71.5 114t-26 142v6zM177 347q0 -54 15.5 -98.5t43.5 -76t66.5 -49
t84.5 -17.5h7q45 0 83 17.5t66 49t43.5 76t15.5 98.5v6q0 54 -15.5 98.5t-43 76.5t-66 49.5t-84.5 17.5h-7q-45 0 -83.5 -17.5t-66.5 -49.5t-43.5 -76.5t-15.5 -98.5v-6zM323 899q0 -28 19 -44.5t49 -16.5t48.5 17t18.5 44h103q0 -65 -46.5 -104.5t-124.5 -39.5t-124 39.5
t-46 104.5h103z" />
    <glyph glyph-name="obreve" unicode="&#x14f;" horiz-adv-x="646" 
d="M319 -9q-60 0 -110.5 19.5t-87 54t-57 83t-20.5 105.5v14q0 57 20.5 105.5t57 83t87 54t110.5 19.5h8q60 0 110.5 -19.5t87 -54t57 -83t20.5 -105.5v-14q0 -57 -20.5 -105.5t-57 -83t-87 -54t-110.5 -19.5h-8zM326 89q32 0 59 12.5t46.5 34.5t30.5 52.5t11 66.5v10
q0 36 -11 66.5t-30.5 52.5t-46.5 34.5t-59 12.5h-6q-32 0 -58.5 -12.5t-46 -34.5t-30.5 -52.5t-11 -66.5v-10q0 -36 11 -66.5t30.5 -52.5t46 -34.5t58.5 -12.5h6zM256 720q0 -28 19 -44.5t49 -16.5q29 0 47.5 17t18.5 44h104q0 -32 -12 -58.5t-34.5 -45.5t-54.5 -29.5
t-71 -10.5q-78 0 -124 39.5t-46 104.5h104z" />
    <glyph glyph-name="Ohungarumlaut" unicode="&#x150;" horiz-adv-x="779" 
d="M41 353q0 77 25.5 143t71.5 114t109.5 75t138.5 27h7q75 0 138.5 -27t109.5 -75t71.5 -113.5t25.5 -142.5v-8q0 -77 -25.5 -142.5t-71.5 -113.5t-109.5 -75t-138.5 -27h-7q-75 0 -138.5 27.5t-109 75.5t-71.5 114t-26 142v6zM177 347q0 -54 15.5 -98.5t43.5 -76t66.5 -49
t84.5 -17.5h7q45 0 83 17.5t66 49t43.5 76t15.5 98.5v6q0 54 -15.5 98.5t-43 76.5t-66 49.5t-84.5 17.5h-7q-45 0 -83.5 -17.5t-66.5 -49.5t-43.5 -76.5t-15.5 -98.5v-6zM253 759l52 147h119l-71 -147h-100zM424 759l52 147h119l-71 -147h-100z" />
    <glyph glyph-name="ohungarumlaut" unicode="&#x151;" horiz-adv-x="646" 
d="M319 -9q-60 0 -110.5 19.5t-87 54t-57 83t-20.5 105.5v14q0 57 20.5 105.5t57 83t87 54t110.5 19.5h8q60 0 110.5 -19.5t87 -54t57 -83t20.5 -105.5v-14q0 -57 -20.5 -105.5t-57 -83t-87 -54t-110.5 -19.5h-8zM326 89q32 0 59 12.5t46.5 34.5t30.5 52.5t11 66.5v10
q0 36 -11 66.5t-30.5 52.5t-46.5 34.5t-59 12.5h-6q-32 0 -58.5 -12.5t-46 -34.5t-30.5 -52.5t-11 -66.5v-10q0 -36 11 -66.5t30.5 -52.5t46 -34.5t58.5 -12.5h6zM236 735h114l-66 -154h-94zM405 735h114l-65 -154h-95z" />
    <glyph glyph-name="OE" unicode="&#x152;" horiz-adv-x="963" 
d="M910 112v-112h-418q-43 -12 -94 -12h-6q-76 0 -140.5 27.5t-111.5 75.5t-73 114t-26 142v6q0 77 26 143t72.5 114t111 75t141.5 27h6q51 0 96 -12h406v-112h-281v-179h261v-110h-261v-187h291zM492 573q-41 22 -94 22h-6q-48 0 -87.5 -17.5t-68 -49.5t-44 -76.5
t-15.5 -98.5v-6q0 -54 15.5 -98t44 -76t68.5 -49.5t88 -17.5h7q52 0 92 20v447z" />
    <glyph glyph-name="oe" unicode="&#x153;" horiz-adv-x="996" 
d="M710 -9q-64 0 -115.5 24t-84.5 67q-34 -43 -85 -67t-114 -24h-6q-57 0 -104.5 19.5t-82.5 54t-54.5 83t-19.5 105.5v14q0 57 19.5 105.5t54.5 83t82.5 54t104.5 19.5h6q64 0 115.5 -24.5t84.5 -69.5q33 45 83.5 69.5t111.5 24.5h7q52 0 95.5 -18t75 -49.5t49 -75.5
t17.5 -97v-67h-377q8 -57 48.5 -92t102.5 -35h4q43 0 78.5 19t57.5 48l68 -75q-18 -22 -42 -40t-52.5 -30.5t-59 -19t-61.5 -6.5h-7zM837 305q-4 58 -39 92.5t-89 34.5h-2q-51 0 -86.5 -33.5t-45.5 -93.5h262zM311 89q30 0 55.5 12.5t44 34.5t28.5 52.5t10 66.5v10
q0 36 -10 66.5t-28.5 52.5t-44 34.5t-55.5 12.5h-4q-30 0 -55.5 -12.5t-44 -34.5t-29 -52.5t-10.5 -66.5v-10q0 -36 10.5 -66.5t29 -52.5t44 -34.5t55.5 -12.5h4z" />
    <glyph glyph-name="Racute" unicode="&#x154;" horiz-adv-x="664" 
d="M84 700h268q117 0 182.5 -57.5t65.5 -157.5v-10q0 -68 -33 -117.5t-91 -73.5l172 -284h-155l-144 255h-134v-255h-131v700zM336 358q67 0 100 30t33 82v10q0 51 -33 79.5t-99 28.5h-125v-230h124zM374 761h-101l52 147h120z" />
    <glyph glyph-name="racute" unicode="&#x155;" horiz-adv-x="392" 
d="M75 520h98q5 -15 9.5 -36t5.5 -38q30 35 73.5 54.5t97.5 19.5h12v-120q-15 6 -33 6q-68 0 -103.5 -35t-35.5 -95v-276h-124v520zM173 579l57 155h113l-75 -155h-95z" />
    <glyph glyph-name="uni0156" unicode="&#x156;" horiz-adv-x="664" 
d="M84 700h268q117 0 182.5 -57.5t65.5 -157.5v-10q0 -68 -33 -117.5t-91 -73.5l172 -284h-155l-144 255h-134v-255h-131v700zM336 358q67 0 100 30t33 82v10q0 51 -33 79.5t-99 28.5h-125v-230h124zM303 -38h108l-64 -151h-81z" />
    <glyph glyph-name="uni0157" unicode="&#x157;" horiz-adv-x="392" 
d="M75 520h98q5 -15 9.5 -36t5.5 -38q30 35 73.5 54.5t97.5 19.5h12v-120q-15 6 -33 6q-68 0 -103.5 -35t-35.5 -95v-276h-124v520zM89 -38h108l-64 -151h-81z" />
    <glyph glyph-name="Rcaron" unicode="&#x158;" horiz-adv-x="664" 
d="M84 700h268q117 0 182.5 -57.5t65.5 -157.5v-10q0 -68 -33 -117.5t-91 -73.5l172 -284h-155l-144 255h-134v-255h-131v700zM336 358q67 0 100 30t33 82v10q0 51 -33 79.5t-99 28.5h-125v-230h124zM127 900h119l69 -57h18l69 57h119l-127 -126h-140z" />
    <glyph glyph-name="rcaron" unicode="&#x159;" horiz-adv-x="392" 
d="M75 520h98q5 -15 9.5 -36t5.5 -38q30 35 73.5 54.5t97.5 19.5h12v-120q-15 6 -33 6q-68 0 -103.5 -35t-35.5 -95v-276h-124v520zM27 720h117l72 -65h18l72 65h117l-128 -134h-140z" />
    <glyph glyph-name="Sacute" unicode="&#x15a;" horiz-adv-x="601" 
d="M308 -11q-78 0 -150 24t-127 75l67 104q44 -42 102 -62.5t114 -20.5q57 0 89.5 22t32.5 60q0 24 -12.5 40t-33.5 28t-48.5 21t-57.5 18q-42 12 -84.5 27t-76 39t-55 59.5t-21.5 87.5q0 50 19.5 87.5t52.5 63t76 38t89 12.5q75 0 140 -22.5t115 -64.5l-69 -103
q-37 35 -88 52t-97 17q-51 0 -80.5 -21t-29.5 -57q0 -21 12 -36t32.5 -26.5t48 -20t58.5 -17.5q44 -12 87.5 -27.5t78 -40t56 -60t21.5 -87.5q0 -51 -20.5 -90t-56 -65.5t-83 -40t-101.5 -13.5zM345 761h-101l52 147h120z" />
    <glyph glyph-name="sacute" unicode="&#x15b;" horiz-adv-x="509" 
d="M269 -10q-69 0 -131.5 18.5t-112.5 56.5l62 89q36 -29 85 -46t97 -17q44 0 67 15t23 42q0 18 -11 29.5t-32 19.5t-50.5 15.5t-67.5 19.5q-28 8 -55 18t-48.5 26t-34.5 39.5t-13 57.5q0 73 54 115t145 42q57 0 112.5 -17t97.5 -49l-59 -87q-31 23 -74 37.5t-84 14.5
q-40 0 -59 -13.5t-19 -36.5q0 -26 31 -40t96 -30q33 -8 67 -18.5t61 -27.5t44.5 -44t17.5 -68q0 -37 -15 -67t-42.5 -51t-66 -32t-85.5 -11zM197 579l57 155h113l-75 -155h-95z" />
    <glyph glyph-name="Scircumflex" unicode="&#x15c;" horiz-adv-x="601" 
d="M308 -11q-78 0 -150 24t-127 75l67 104q44 -42 102 -62.5t114 -20.5q57 0 89.5 22t32.5 60q0 24 -12.5 40t-33.5 28t-48.5 21t-57.5 18q-42 12 -84.5 27t-76 39t-55 59.5t-21.5 87.5q0 50 19.5 87.5t52.5 63t76 38t89 12.5q75 0 140 -22.5t115 -64.5l-69 -103
q-37 35 -88 52t-97 17q-51 0 -80.5 -21t-29.5 -57q0 -21 12 -36t32.5 -26.5t48 -20t58.5 -17.5q44 -12 87.5 -27.5t78 -40t56 -60t21.5 -87.5q0 -51 -20.5 -90t-56 -65.5t-83 -40t-101.5 -13.5zM224 900h140l127 -126h-119l-69 57h-18l-69 -57h-119z" />
    <glyph glyph-name="scircumflex" unicode="&#x15d;" horiz-adv-x="509" 
d="M269 -10q-69 0 -131.5 18.5t-112.5 56.5l62 89q36 -29 85 -46t97 -17q44 0 67 15t23 42q0 18 -11 29.5t-32 19.5t-50.5 15.5t-67.5 19.5q-28 8 -55 18t-48.5 26t-34.5 39.5t-13 57.5q0 73 54 115t145 42q57 0 112.5 -17t97.5 -49l-59 -87q-31 23 -74 37.5t-84 14.5
q-40 0 -59 -13.5t-19 -36.5q0 -26 31 -40t96 -30q33 -8 67 -18.5t61 -27.5t44.5 -44t17.5 -68q0 -37 -15 -67t-42.5 -51t-66 -32t-85.5 -11zM330 592l-72 59h-18l-72 -59h-117l128 128h140l128 -128h-117z" />
    <glyph glyph-name="Scedilla" unicode="&#x15e;" horiz-adv-x="601" 
d="M308 -11q-78 0 -150 24t-127 75l67 104q44 -42 102 -62.5t114 -20.5q57 0 89.5 22t32.5 60q0 24 -12.5 40t-33.5 28t-48.5 21t-57.5 18q-42 12 -84.5 27t-76 39t-55 59.5t-21.5 87.5q0 50 19.5 87.5t52.5 63t76 38t89 12.5q75 0 140 -22.5t115 -64.5l-69 -103
q-37 35 -88 52t-97 17q-51 0 -80.5 -21t-29.5 -57q0 -21 12 -36t32.5 -26.5t48 -20t58.5 -17.5q44 -12 87.5 -27.5t78 -40t56 -60t21.5 -87.5q0 -51 -20.5 -90t-56 -65.5t-83 -40t-101.5 -13.5zM259 -179q-24 0 -50 6l8 67q6 -2 12.5 -4t13.5 -2q17 0 24.5 7t7.5 16
q0 12 -10 21t-34 9l24 59h71l-14 -30q50 -19 50 -67q0 -15 -6.5 -29.5t-19.5 -26t-32.5 -19t-44.5 -7.5z" />
    <glyph glyph-name="scedilla" unicode="&#x15f;" horiz-adv-x="509" 
d="M269 -10q-69 0 -131.5 18.5t-112.5 56.5l62 89q36 -29 85 -46t97 -17q44 0 67 15t23 42q0 18 -11 29.5t-32 19.5t-50.5 15.5t-67.5 19.5q-28 8 -55 18t-48.5 26t-34.5 39.5t-13 57.5q0 73 54 115t145 42q57 0 112.5 -17t97.5 -49l-59 -87q-31 23 -74 37.5t-84 14.5
q-40 0 -59 -13.5t-19 -36.5q0 -26 31 -40t96 -30q33 -8 67 -18.5t61 -27.5t44.5 -44t17.5 -68q0 -37 -15 -67t-42.5 -51t-66 -32t-85.5 -11zM224 -179q-24 0 -50 6l8 67q6 -2 12.5 -4t13.5 -2q17 0 24.5 7t7.5 16q0 12 -10 21t-34 9l24 59h71l-14 -30q50 -19 50 -67
q0 -15 -6.5 -29.5t-19.5 -26t-32.5 -19t-44.5 -7.5z" />
    <glyph glyph-name="Scaron" unicode="&#x160;" horiz-adv-x="601" 
d="M308 -11q-78 0 -150 24t-127 75l67 104q44 -42 102 -62.5t114 -20.5q57 0 89.5 22t32.5 60q0 24 -12.5 40t-33.5 28t-48.5 21t-57.5 18q-42 12 -84.5 27t-76 39t-55 59.5t-21.5 87.5q0 50 19.5 87.5t52.5 63t76 38t89 12.5q75 0 140 -22.5t115 -64.5l-69 -103
q-37 35 -88 52t-97 17q-51 0 -80.5 -21t-29.5 -57q0 -21 12 -36t32.5 -26.5t48 -20t58.5 -17.5q44 -12 87.5 -27.5t78 -40t56 -60t21.5 -87.5q0 -51 -20.5 -90t-56 -65.5t-83 -40t-101.5 -13.5zM98 900h119l69 -57h18l69 57h119l-127 -126h-140z" />
    <glyph glyph-name="scaron" unicode="&#x161;" horiz-adv-x="509" 
d="M269 -10q-69 0 -131.5 18.5t-112.5 56.5l62 89q36 -29 85 -46t97 -17q44 0 67 15t23 42q0 18 -11 29.5t-32 19.5t-50.5 15.5t-67.5 19.5q-28 8 -55 18t-48.5 26t-34.5 39.5t-13 57.5q0 73 54 115t145 42q57 0 112.5 -17t97.5 -49l-59 -87q-31 23 -74 37.5t-84 14.5
q-40 0 -59 -13.5t-19 -36.5q0 -26 31 -40t96 -30q33 -8 67 -18.5t61 -27.5t44.5 -44t17.5 -68q0 -37 -15 -67t-42.5 -51t-66 -32t-85.5 -11zM51 720h117l72 -65h18l72 65h117l-128 -134h-140z" />
    <glyph glyph-name="uni0162" unicode="&#x162;" horiz-adv-x="555" 
d="M212 584h-196v116h524v-116h-197v-584h-131v584zM236 -179q-24 0 -50 6l8 67q6 -2 12.5 -4t13.5 -2q17 0 24.5 7t7.5 16q0 12 -10 21t-34 9l24 59h71l-14 -30q50 -19 50 -67q0 -15 -6.5 -29.5t-19.5 -26t-32.5 -19t-44.5 -7.5z" />
    <glyph glyph-name="uni0163" unicode="&#x163;" horiz-adv-x="405" 
d="M252 -5q-36 0 -65.5 9t-51.5 28.5t-34 49.5t-12 73v265h-69v84q14 5 32.5 9t36.5 6v121l123 15v-135h163v-100h-164v-242q0 -43 19.5 -59.5t55.5 -16.5q10 0 23 1t26 2.5t25 3.5t20 4v-98q-24 -11 -61 -15.5t-67 -4.5zM207 -179q-24 0 -50 6l8 67q6 -2 12.5 -4t13.5 -2
q17 0 24.5 7t7.5 16q0 12 -10 21t-34 9l24 59h71l-14 -30q50 -19 50 -67q0 -15 -6.5 -29.5t-19.5 -26t-32.5 -19t-44.5 -7.5z" />
    <glyph glyph-name="Tcaron" unicode="&#x164;" horiz-adv-x="555" 
d="M212 584h-196v116h524v-116h-197v-584h-131v584zM81 900h119l69 -57h18l69 57h119l-127 -126h-140z" />
    <glyph glyph-name="tcaron" unicode="&#x165;" horiz-adv-x="413" 
d="M252 -5q-36 0 -65.5 9t-51.5 28.5t-34 49.5t-12 73v265h-69v84q14 5 32.5 9t36.5 6v121l123 15v-135h163v-100h-164v-242q0 -43 19.5 -59.5t55.5 -16.5q10 0 23 1t26 2.5t25 3.5t20 4v-98q-24 -11 -61 -15.5t-67 -4.5zM311 722h107l-37 -166h-80z" />
    <glyph glyph-name="Tbar" unicode="&#x166;" horiz-adv-x="547" 
d="M97 398h111v186h-196v116h524v-116h-197v-186h112v-92h-112v-306h-131v306h-111v92z" />
    <glyph glyph-name="tbar" unicode="&#x167;" horiz-adv-x="398" 
d="M28 329h59v91h-69v84q14 5 32.5 9t36.5 6v121l123 15v-135h163v-100h-164v-91h140v-87h-140v-64q0 -43 19.5 -59.5t55.5 -16.5q10 0 23 1t26 2.5t25 3.5t20 4v-98q-24 -11 -61 -15.5t-67 -4.5q-36 0 -65.5 9t-51.5 28.5t-34 49.5t-12 73v87h-59v87z" />
    <glyph glyph-name="Utilde" unicode="&#x168;" horiz-adv-x="719" 
d="M360 -12q-66 0 -119 18.5t-90 54t-57 87t-20 116.5v436h132v-428q0 -79 42 -121t112 -42t111.5 42t41.5 121v428h132v-436q0 -67 -20.5 -118.5t-57.5 -86.5t-89.5 -53t-117.5 -18zM156 839q20 33 53 51.5t71 18.5q23 0 45 -7t48 -18q20 -9 39 -15.5t39 -6.5q49 0 71 36
l41 -58q-19 -33 -50.5 -51.5t-69.5 -18.5q-23 0 -44.5 7t-50.5 20q-21 9 -39.5 15t-37.5 6q-23 0 -43.5 -10t-31.5 -27z" />
    <glyph glyph-name="utilde" unicode="&#x169;" horiz-adv-x="628" 
d="M250 -10q-90 0 -137 51t-47 146v333h124v-307q0 -56 24.5 -85.5t76.5 -29.5h2q62 0 99 38.5t37 104.5v279h124v-520h-98q-5 15 -9.5 38t-5.5 40q-34 -41 -82 -64.5t-106 -23.5h-2zM103 661q20 34 53 52t71 18q23 0 45 -7t48 -18q20 -9 38.5 -15.5t39.5 -6.5
q23 0 41.5 9.5t29.5 26.5l41 -57q-20 -34 -51.5 -52t-68.5 -18q-23 0 -44.5 7t-50.5 19q-21 9 -40 15t-38 6q-23 0 -43 -10t-31 -27z" />
    <glyph glyph-name="Umacron" unicode="&#x16a;" horiz-adv-x="719" 
d="M360 -12q-66 0 -119 18.5t-90 54t-57 87t-20 116.5v436h132v-428q0 -79 42 -121t112 -42t111.5 42t41.5 121v428h132v-436q0 -67 -20.5 -118.5t-57.5 -86.5t-89.5 -53t-117.5 -18zM213 887h293v-88h-293v88z" />
    <glyph glyph-name="umacron" unicode="&#x16b;" horiz-adv-x="628" 
d="M250 -10q-90 0 -137 51t-47 146v333h124v-307q0 -56 24.5 -85.5t76.5 -29.5h2q62 0 99 38.5t37 104.5v279h124v-520h-98q-5 15 -9.5 38t-5.5 40q-34 -41 -82 -64.5t-106 -23.5h-2zM160 717h293v-92h-293v92z" />
    <glyph glyph-name="Ubreve" unicode="&#x16c;" horiz-adv-x="719" 
d="M360 -12q-66 0 -119 18.5t-90 54t-57 87t-20 116.5v436h132v-428q0 -79 42 -121t112 -42t111.5 42t41.5 121v428h132v-436q0 -67 -20.5 -118.5t-57.5 -86.5t-89.5 -53t-117.5 -18zM293 899q0 -28 19 -44.5t49 -16.5t48.5 17t18.5 44h103q0 -65 -46.5 -104.5t-124.5 -39.5
t-124 39.5t-46 104.5h103z" />
    <glyph glyph-name="ubreve" unicode="&#x16d;" horiz-adv-x="628" 
d="M250 -10q-90 0 -137 51t-47 146v333h124v-307q0 -56 24.5 -85.5t76.5 -29.5h2q62 0 99 38.5t37 104.5v279h124v-520h-98q-5 15 -9.5 38t-5.5 40q-34 -41 -82 -64.5t-106 -23.5h-2zM239 720q0 -28 19 -44.5t49 -16.5q29 0 47.5 17t18.5 44h104q0 -32 -12 -58.5
t-34.5 -45.5t-54.5 -29.5t-71 -10.5q-78 0 -124 39.5t-46 104.5h104z" />
    <glyph glyph-name="Uring" unicode="&#x16e;" horiz-adv-x="719" 
d="M360 -12q-66 0 -119 18.5t-90 54t-57 87t-20 116.5v436h132v-428q0 -79 42 -121t112 -42t111.5 42t41.5 121v428h132v-436q0 -67 -20.5 -118.5t-57.5 -86.5t-89.5 -53t-117.5 -18zM359 741q-47 0 -77 26t-30 68q0 45 30 71.5t77 26.5q48 0 78 -27t30 -71q0 -42 -30 -68
t-78 -26zM359 798q19 0 31 10.5t12 27.5q0 18 -12 29.5t-31 11.5t-30.5 -11.5t-11.5 -29.5q0 -17 11.5 -27.5t30.5 -10.5z" />
    <glyph glyph-name="uring" unicode="&#x16f;" horiz-adv-x="628" 
d="M250 -10q-90 0 -137 51t-47 146v333h124v-307q0 -56 24.5 -85.5t76.5 -29.5h2q62 0 99 38.5t37 104.5v279h124v-520h-98q-5 15 -9.5 38t-5.5 40q-34 -41 -82 -64.5t-106 -23.5h-2zM308 575q-46 0 -75.5 25.5t-29.5 66.5q0 43 29.5 69.5t75.5 26.5q45 0 74.5 -26.5
t29.5 -69.5q0 -41 -29 -66.5t-75 -25.5zM308 631q18 0 29 10.5t11 26.5q0 17 -11 28t-29 11q-19 0 -30 -11t-11 -28q0 -16 11 -26.5t30 -10.5z" />
    <glyph glyph-name="Uhungarumlaut" unicode="&#x170;" horiz-adv-x="719" 
d="M360 -12q-66 0 -119 18.5t-90 54t-57 87t-20 116.5v436h132v-428q0 -79 42 -121t112 -42t111.5 42t41.5 121v428h132v-436q0 -67 -20.5 -118.5t-57.5 -86.5t-89.5 -53t-117.5 -18zM224 759l52 147h119l-71 -147h-100zM395 759l52 147h119l-71 -147h-100z" />
    <glyph glyph-name="uhungarumlaut" unicode="&#x171;" horiz-adv-x="628" 
d="M250 -10q-90 0 -137 51t-47 146v333h124v-307q0 -56 24.5 -85.5t76.5 -29.5h2q62 0 99 38.5t37 104.5v279h124v-520h-98q-5 15 -9.5 38t-5.5 40q-34 -41 -82 -64.5t-106 -23.5h-2zM220 735h114l-66 -154h-94zM389 735h114l-65 -154h-95z" />
    <glyph glyph-name="Uogonek" unicode="&#x172;" horiz-adv-x="719" 
d="M430 -173q-21 -6 -42 -6q-42 0 -66.5 21t-24.5 57q0 23 10 45.5t28 44.5q-122 7 -191.5 78.5t-69.5 196.5v436h132v-428q0 -79 42 -121t112 -42t111.5 42t41.5 121v428h132v-436q0 -109 -52.5 -176.5t-143.5 -89.5q-29 -11 -48.5 -31t-19.5 -47q0 -32 27 -32q5 0 11 2
t11 4v-67z" />
    <glyph glyph-name="uogonek" unicode="&#x173;" horiz-adv-x="628" 
d="M250 -10q-90 0 -137 51t-47 146v333h124v-307q0 -56 24.5 -85.5t76.5 -29.5h2q62 0 99 38.5t37 104.5v279h124v-520h-98q-5 15 -9.5 38t-5.5 40q-34 -41 -82 -64.5t-106 -23.5h-2zM511 -179q-42 0 -67 21.5t-24 58.5q0 37 23 72.5t63 62.5l47 -36q-21 -19 -35.5 -41.5
t-14.5 -42.5q0 -28 27 -28q6 0 11.5 2t10.5 4v-67q-19 -6 -41 -6z" />
    <glyph glyph-name="Wcircumflex" unicode="&#x174;" horiz-adv-x="935" 
d="M16 700h134l109 -550h6l144 550h111l146 -550h5l114 550h134l-160 -700h-168l-122 476h-7l-123 -476h-168zM395 900h140l127 -126h-119l-69 57h-18l-69 -57h-119z" />
    <glyph glyph-name="wcircumflex" unicode="&#x175;" horiz-adv-x="825" 
d="M28 520h125l80 -386h10l110 386h119l110 -387h10l81 387h124l-124 -520h-148l-110 362h-4l-111 -362h-148zM493 592l-72 59h-18l-72 -59h-117l128 128h140l128 -128h-117z" />
    <glyph glyph-name="Ycircumflex" unicode="&#x176;" horiz-adv-x="624" 
d="M247 273l-248 427h152l158 -298h6l158 298h151l-246 -427v-273h-131v273zM242 900h140l127 -126h-119l-69 57h-18l-69 -57h-119z" />
    <glyph glyph-name="ycircumflex" unicode="&#x177;" horiz-adv-x="558" 
d="M156 -201q-21 0 -47.5 4t-48.5 15v106q18 -9 35.5 -14.5t36.5 -5.5q32 0 57 19t45 54l-225 543h132l153 -399h7l127 399h126l-191 -549q-11 -32 -27 -62.5t-40 -55t-58.5 -39.5t-81.5 -15zM366 590l-72 59h-18l-72 -59h-117l128 128h140l128 -128h-117z" />
    <glyph glyph-name="Ydieresis" unicode="&#x178;" horiz-adv-x="624" 
d="M247 273l-248 427h152l158 -298h6l158 298h151l-246 -427v-273h-131v273zM220 763q-26 0 -43 16.5t-17 44.5t17 46t43 18t44.5 -18t18.5 -46t-18.5 -44.5t-44.5 -16.5zM402 763q-27 0 -44 16.5t-17 44.5t17 46t44 18q26 0 44 -18t18 -46t-18 -44.5t-44 -16.5z" />
    <glyph glyph-name="Zacute" unicode="&#x179;" horiz-adv-x="593" 
d="M36 100l349 479v5h-327v116h491v-100l-346 -476v-8h355v-116h-522v100zM348 758h-101l52 147h120z" />
    <glyph glyph-name="zacute" unicode="&#x17a;" horiz-adv-x="506" 
d="M28 100l287 314v6h-269v100h420v-98l-286 -317v-5h298v-100h-450v100zM202 579l57 155h113l-75 -155h-95z" />
    <glyph glyph-name="Zdotaccent" unicode="&#x17b;" horiz-adv-x="593" 
d="M36 100l349 479v5h-327v116h491v-100l-346 -476v-8h355v-116h-522v100zM296 773q-32 0 -52 18.5t-20 47.5t20 48t52 19q33 0 54 -19t21 -48t-21 -47.5t-54 -18.5z" />
    <glyph glyph-name="zdotaccent" unicode="&#x17c;" horiz-adv-x="506" 
d="M28 100l287 314v6h-269v100h420v-98l-286 -317v-5h298v-100h-450v100zM254 604q-32 0 -52.5 18.5t-20.5 47.5t20.5 48.5t52.5 19.5q33 0 54.5 -19.5t21.5 -48.5t-21.5 -47.5t-54.5 -18.5z" />
    <glyph glyph-name="Zcaron" unicode="&#x17d;" horiz-adv-x="593" 
d="M36 100l349 479v5h-327v116h491v-100l-346 -476v-8h355v-116h-522v100zM101 897h119l69 -57h18l69 57h119l-127 -126h-140z" />
    <glyph glyph-name="zcaron" unicode="&#x17e;" horiz-adv-x="506" 
d="M28 100l287 314v6h-269v100h420v-98l-286 -317v-5h298v-100h-450v100zM56 720h117l72 -65h18l72 65h117l-128 -134h-140z" />
    <glyph glyph-name="longs" unicode="&#x17f;" horiz-adv-x="308" 
d="M75 547q0 81 42 126t117 45q26 0 58 -5t55 -14v-99q-39 17 -76 17t-54.5 -17.5t-17.5 -61.5v-538h-124v547z" />
    <glyph glyph-name="uni018F" unicode="&#x18f;" horiz-adv-x="749" 
d="M573 403q-6 43 -22 78.5t-41.5 60.5t-59.5 39t-76 14h-2q-71 0 -120.5 -27.5t-81.5 -79.5l-100 72q47 69 125 110t184 41q69 0 129 -26.5t104.5 -74t70 -113.5t25.5 -145v-4q0 -78 -24.5 -143.5t-69.5 -113.5t-107 -75t-137 -27h-1q-75 0 -137 27t-106.5 74.5t-69.5 113
t-25 142.5v57h542zM166 301q6 -44 23 -80.5t43 -62.5t61 -40t76 -14h2q88 0 140 54t63 143h-408z" />
    <glyph glyph-name="florin" unicode="&#x192;" horiz-adv-x="380" 
d="M64 -199q-23 0 -49.5 4.5t-49.5 13.5v104q25 -12 54 -12q35 0 51.5 17t16.5 62v428h-63v80q13 5 30 9t33 6v34q0 81 42 126t117 45q26 0 58 -5t55 -14v-99q-40 17 -80 17q-38 0 -56 -17.5t-18 -61.5v-23h152v-97h-146v-448q0 -82 -39 -125.5t-108 -43.5z" />
    <glyph glyph-name="uni01CD" unicode="&#x1cd;" horiz-adv-x="662" 
d="M245 700h172l246 -700h-140l-54 165h-276l-54 -165h-141zM435 273l-100 296h-8l-101 -296h209zM134 900h119l69 -57h18l69 57h119l-127 -126h-140z" />
    <glyph glyph-name="uni01CE" unicode="&#x1ce;" horiz-adv-x="586" 
d="M220 -10q-40 0 -73.5 11.5t-57.5 31.5t-37.5 49t-13.5 63v7q0 169 314 169h42v23q0 38 -28 61t-80 23h-3q-41 0 -85.5 -14t-83.5 -39l-51 90q48 30 106 48t121 18h6q47 0 86 -12t68 -36t45 -59t16 -82v-235q0 -27 5 -54t13 -53h-118q-5 12 -8.5 28.5t-5.5 33.5
q-33 -33 -78 -52.5t-99 -19.5zM245 90q44 0 83 17.5t66 46.5v87h-35q-103 0 -152 -20.5t-49 -62.5v-4q0 -28 24 -46t63 -18zM91 720h117l72 -65h18l72 65h117l-128 -134h-140z" />
    <glyph glyph-name="uni01DD" unicode="&#x1dd;" 
d="M297 529q59 0 108.5 -19t85 -53t55.5 -82t20 -105v-14q0 -57 -20 -106t-56 -84t-84.5 -55t-105.5 -20h-6q-54 0 -99.5 18t-78.5 49.5t-51.5 76t-18.5 96.5v67h397v1q-8 57 -49 91.5t-105 34.5h-4q-49 0 -89.5 -19t-63.5 -48l-68 75q37 45 98.5 70.5t126.5 25.5h8z
M164 215q4 -56 40.5 -91.5t93.5 -35.5h2q54 0 91.5 34.5t47.5 92.5h-275z" />
    <glyph glyph-name="uni01F4" unicode="&#x1f4;" horiz-adv-x="753" 
d="M346 756l56 146h121l-78 -156zM370 -10q-73 0 -133.5 26.5t-104 73.5t-67.5 113t-24 144v4q0 78 26 144t72 114t109 75t138 27h2q96 0 168 -42t119 -114l-105 -67q-29 50 -71.5 76.5t-102.5 26.5h-3q-48 0 -88 -17.5t-68.5 -49t-44 -75.5t-15.5 -97v-5q0 -53 15.5 -97
t44 -75t68.5 -48t89 -17h2q41 0 74 11t56 29.5t35.5 44t12.5 53.5v14h-156v110h277v-372h-95q-6 11 -10.5 33.5t-5.5 43.5q-33 -39 -89 -63t-118 -24h-7z" />
    <glyph glyph-name="uni01F5" unicode="&#x1f5;" horiz-adv-x="570" 
d="M235 580l56 155h114l-76 -155h-94zM41 343q0 42 17.5 76.5t48.5 58.5t73.5 37.5t93.5 13.5h15q65 0 114 -21q14 39 32 64h113l-64 -122q37 -45 37 -107v-8q0 -40 -17.5 -74t-48.5 -58.5t-73.5 -38.5t-92.5 -14h-15h-13t-12 1v-52h26h32q51 0 95 -10.5t76 -30t50 -47
t18 -61.5v-10q0 -34 -18.5 -61.5t-50.5 -47t-76.5 -30t-96.5 -10.5h-25q-52 0 -97 10.5t-77 30t-50.5 47t-18.5 61.5v12q0 44 30.5 78t80.5 53v94q-49 24 -77.5 65t-28.5 93v8zM164 331q0 -21 9 -38t25 -29t36.5 -19t44.5 -7h9q24 0 44.5 7t36 19.5t24.5 29.5t9 37v11
q0 20 -9 37t-24.5 29t-36 19t-44.5 7h-9q-24 0 -44.5 -7t-36.5 -19t-25 -29t-9 -37v-11zM160 -54q0 -28 33 -45.5t87 -17.5h23q54 0 87.5 18t33.5 45v8q0 27 -33.5 45t-87.5 18h-23q-54 0 -87 -18t-33 -45v-8z" />
    <glyph glyph-name="AEacute" unicode="&#x1fc;" horiz-adv-x="853" 
d="M245 700h545v-116h-279v-175h259v-110h-259v-183h289v-116h-415v165h-190l-56 -165h-141zM385 273v311h-53l-104 -311h157zM499 741h-101l52 147h120z" />
    <glyph glyph-name="aeacute" unicode="&#x1fd;" horiz-adv-x="897" 
d="M217 -9q-39 0 -72 11t-57 31t-37 48.5t-13 63.5q0 164 293 164h41q0 9 -2 22t-4 18q-5 42 -28.5 59.5t-63.5 17.5q-39 0 -81 -14.5t-79 -37.5l-51 89q50 32 104.5 49t108.5 17q57 0 98 -18.5t66 -52.5q32 34 76 52.5t96 18.5h5q51 0 94 -18t74 -49.5t48.5 -75.5t17.5 -96
v-68h-367q7 -57 44 -92t94 -35h3q42 0 79 18.5t60 48.5l69 -75q-36 -43 -93.5 -69.5t-119.5 -26.5h-8q-61 0 -110 23t-83 64q-18 -19 -40.5 -35t-49 -27.5t-55 -18t-57.5 -6.5zM741 305q-5 56 -38.5 91.5t-87.5 35.5h-1q-51 0 -86 -34.5t-45 -92.5h258zM378 156
q-7 18 -10 38q-2 8 -2 16.5t-1 18.5h-24q-94 0 -138.5 -19t-44.5 -58q0 -27 23 -44t61 -17t75 17.5t61 47.5zM396 559l57 155h113l-75 -155h-95z" />
    <glyph glyph-name="Oslashacute" unicode="&#x1fe;" horiz-adv-x="779" 
d="M172 61q-62 48 -96.5 121.5t-34.5 164.5v6q0 77 25.5 143t71 114t109 75t138.5 27h8q76 0 139 -27l29 50h103l-56 -95q61 -49 95.5 -122t34.5 -164v-8q0 -77 -26 -142.5t-71.5 -113.5t-109 -75t-138.5 -27h-8q-73 0 -138 28l-29 -52h-102zM173 346q0 -57 16.5 -103
t46.5 -79l244 419q-39 18 -88 18h-6q-48 0 -87 -18t-67 -50.5t-43.5 -78t-15.5 -100.5v-8zM300 117q39 -18 87 -18h6q48 0 87 18t66.5 50.5t43 78t15.5 100.5v8q0 56 -16 102t-45 79zM442 758h-101l52 147h120z" />
    <glyph glyph-name="oslashacute" unicode="&#x1ff;" horiz-adv-x="646" 
d="M142 47q-46 35 -72 88t-26 118v14q0 57 20.5 105.5t57 83t87 54t110.5 19.5h8q54 0 99 -15l27 46h101l-51 -86q46 -35 72.5 -88t26.5 -119v-14q0 -57 -20.5 -105.5t-57 -83t-87 -54t-110.5 -19.5h-8q-54 0 -99 15l-30 -48h-100zM383 425q-27 9 -57 9h-6q-34 0 -63 -12
t-49 -34.5t-31.5 -53.5t-11.5 -69v-10q0 -37 10.5 -67.5t30.5 -52.5zM326 86q35 0 63.5 12t48.5 34.5t31.5 53.5t11.5 69v10q0 75 -42 122l-176 -291q24 -10 57 -10h6zM271 577l57 155h113l-75 -155h-95z" />
    <glyph glyph-name="uni0218" unicode="&#x218;" horiz-adv-x="601" 
d="M308 -11q-78 0 -150 24t-127 75l67 104q44 -42 102 -62.5t114 -20.5q57 0 89.5 22t32.5 60q0 24 -12.5 40t-33.5 28t-48.5 21t-57.5 18q-42 12 -84.5 27t-76 39t-55 59.5t-21.5 87.5q0 50 19.5 87.5t52.5 63t76 38t89 12.5q75 0 140 -22.5t115 -64.5l-69 -103
q-37 35 -88 52t-97 17q-51 0 -80.5 -21t-29.5 -57q0 -21 12 -36t32.5 -26.5t48 -20t58.5 -17.5q44 -12 87.5 -27.5t78 -40t56 -60t21.5 -87.5q0 -51 -20.5 -90t-56 -65.5t-83 -40t-101.5 -13.5zM253 -38h108l-64 -151h-81z" />
    <glyph glyph-name="uni0219" unicode="&#x219;" horiz-adv-x="509" 
d="M269 -10q-69 0 -131.5 18.5t-112.5 56.5l62 89q36 -29 85 -46t97 -17q44 0 67 15t23 42q0 18 -11 29.5t-32 19.5t-50.5 15.5t-67.5 19.5q-28 8 -55 18t-48.5 26t-34.5 39.5t-13 57.5q0 73 54 115t145 42q57 0 112.5 -17t97.5 -49l-59 -87q-31 23 -74 37.5t-84 14.5
q-40 0 -59 -13.5t-19 -36.5q0 -26 31 -40t96 -30q33 -8 67 -18.5t61 -27.5t44.5 -44t17.5 -68q0 -37 -15 -67t-42.5 -51t-66 -32t-85.5 -11zM219 -38h108l-64 -151h-81z" />
    <glyph glyph-name="uni021A" unicode="&#x21a;" horiz-adv-x="555" 
d="M212 584h-196v116h524v-116h-197v-584h-131v584zM230 -38h108l-64 -151h-81z" />
    <glyph glyph-name="uni021B" unicode="&#x21b;" horiz-adv-x="405" 
d="M252 -5q-36 0 -65.5 9t-51.5 28.5t-34 49.5t-12 73v265h-69v84q14 5 32.5 9t36.5 6v121l123 15v-135h163v-100h-164v-242q0 -43 19.5 -59.5t55.5 -16.5q10 0 23 1t26 2.5t25 3.5t20 4v-98q-24 -11 -61 -15.5t-67 -4.5zM202 -38h108l-64 -151h-81z" />
    <glyph glyph-name="uni0237" unicode="&#x237;" horiz-adv-x="284" 
d="M62 -197q-23 0 -49.5 4t-49.5 14v104q26 -12 55 -12q35 0 51 17t16 62v528h124v-548q0 -82 -39 -125.5t-108 -43.5z" />
    <glyph glyph-name="circumflex" unicode="&#x2c6;" horiz-adv-x="412" 
d="M287 592l-72 59h-18l-72 -59h-117l128 128h140l128 -128h-117z" />
    <glyph glyph-name="caron" unicode="&#x2c7;" horiz-adv-x="412" 
d="M8 720h117l72 -65h18l72 65h117l-128 -134h-140z" />
    <glyph glyph-name="breve" unicode="&#x2d8;" horiz-adv-x="366" 
d="M116 720q0 -28 19 -44.5t49 -16.5q29 0 47.5 17t18.5 44h104q0 -32 -12 -58.5t-34.5 -45.5t-54.5 -29.5t-71 -10.5q-78 0 -124 39.5t-46 104.5h104z" />
    <glyph glyph-name="dotaccent" unicode="&#x2d9;" horiz-adv-x="269" 
d="M133 601q-32 0 -52.5 18.5t-20.5 47.5t20.5 48.5t52.5 19.5q33 0 54.5 -19.5t21.5 -48.5t-21.5 -47.5t-54.5 -18.5z" />
    <glyph glyph-name="ring" unicode="&#x2da;" horiz-adv-x="235" 
d="M118 572q-46 0 -75.5 25.5t-29.5 66.5q0 43 29.5 69.5t75.5 26.5q45 0 74.5 -26.5t29.5 -69.5q0 -41 -29 -66.5t-75 -25.5zM118 628q18 0 29 10.5t11 26.5q0 17 -11 28t-29 11q-19 0 -30 -11t-11 -28q0 -16 11 -26.5t30 -10.5z" />
    <glyph glyph-name="ogonek" unicode="&#x2db;" horiz-adv-x="212" 
d="M127 -179q-42 0 -67 21.5t-24 58.5q0 37 23 72.5t63 62.5l47 -36q-21 -19 -35.5 -41.5t-14.5 -42.5q0 -28 27 -28q6 0 11.5 2t10.5 4v-67q-19 -6 -41 -6z" />
    <glyph glyph-name="tilde" unicode="&#x2dc;" horiz-adv-x="453" 
d="M23 659q20 34 53 52t71 18q23 0 45 -7t48 -18q20 -9 38.5 -15.5t39.5 -6.5q23 0 41.5 9.5t29.5 26.5l41 -57q-20 -34 -51.5 -52t-68.5 -18q-23 0 -44.5 7t-50.5 19q-21 9 -40 15t-38 6q-23 0 -43 -10t-31 -27z" />
    <glyph glyph-name="hungarumlaut" unicode="&#x2dd;" horiz-adv-x="407" 
d="M87 732h114l-66 -154h-94zM256 732h114l-65 -154h-95z" />
    <glyph glyph-name="uni0326" unicode="&#x326;" horiz-adv-x="173" 
d="M37 -38h108l-64 -151h-81z" />
    <glyph glyph-name="uni0394" unicode="&#x394;" horiz-adv-x="662" 
d="M245 700h172l246 -700h-665zM487 108l-152 461h-8l-153 -461h313z" />
    <glyph glyph-name="uni03A9" unicode="&#x3a9;" horiz-adv-x="788" 
d="M187 343q0 -45 12.5 -82.5t33.5 -66.5t49.5 -49t61.5 -29v-116h-264v112h73q-48 45 -75 105.5t-27 135.5v20q0 77 24.5 139.5t69 107t106.5 68.5t137 24h12q74 0 136 -24.5t106.5 -69.5t69.5 -108t25 -140v-20q0 -73 -27.5 -133t-74.5 -105h72v-112h-264v112h1l-1 4
q33 9 62 29t50 49.5t33.5 67t12.5 82.5v20q0 53 -15 95.5t-42 72.5t-64 46.5t-81 16.5h-10q-44 0 -81 -16.5t-64 -46.5t-42 -73t-15 -96v-20z" />
    <glyph glyph-name="uni03BC" unicode="&#x3bc;" horiz-adv-x="636" 
d="M277 -10q-47 0 -85 19l9 -209h-126v720h124v-307q0 -56 24 -85.5t76 -29.5h3q61 0 98.5 38.5t37.5 104.5v279h124v-520h-98q-6 15 -10.5 38t-5.5 40q-30 -41 -73.5 -64.5t-95.5 -23.5h-2z" />
    <glyph glyph-name="pi" unicode="&#x3c0;" 
d="M523 -7q-30 0 -55 8.5t-43 27t-28 47.5t-10 71v273h-174v-420h-124v420h-65v100h553v-100h-66v-251q0 -45 11 -59.5t34 -14.5q13 0 29 6v-100q-16 -5 -30.5 -6.5t-31.5 -1.5z" />
    <glyph glyph-name="uni0401" unicode="&#x401;" horiz-adv-x="580" 
d="M189 765q-28 0 -46 16.5t-18 43.5t18 45t46 18q29 0 48 -18t19 -45t-19 -43.5t-48 -16.5zM419 765q-29 0 -46.5 16.5t-17.5 43.5t17.5 45t46.5 18t48 -18t19 -45t-19 -43.5t-48 -16.5zM84 700h432v-116h-301v-175h281v-110h-281v-183h311v-116h-442v700z" />
    <glyph glyph-name="uni0402" unicode="&#x402;" horiz-adv-x="732" 
d="M184 584h-168v116h524v-116h-225v-151q81 26 145 26q106 0 166.5 -59.5t60.5 -167.5v-25q0 -50 -14.5 -90t-40 -68t-61 -43t-77.5 -15q-20 0 -41.5 3.5t-42.5 11.5v101q27 -8 50 -8q46 0 73 30t27 89v12q0 61 -31 89.5t-89 28.5q-29 0 -60 -7t-65 -19v-322h-131v584z" />
    <glyph glyph-name="uni0403" unicode="&#x403;" horiz-adv-x="504" 
d="M84 700h404v-116h-273v-584h-131v700zM337 741h-101l52 147h120z" />
    <glyph glyph-name="uni0404" unicode="&#x404;" horiz-adv-x="692" 
d="M387 -11q-76 0 -140 27t-109.5 75t-71 113.5t-25.5 143.5v4q0 78 25.5 143.5t71 113.5t108.5 75t139 27q93 0 166 -41t118 -110l-100 -72q-30 52 -75.5 79.5t-105.5 27.5h-2q-42 0 -77.5 -13.5t-62.5 -38t-44.5 -59.5t-24.5 -77h301v-106h-303q6 -44 24 -80t45 -61.5
t63.5 -39.5t80.5 -14h1q61 0 108.5 27.5t76.5 77.5l97 -71q-21 -34 -50.5 -62t-66 -47.5t-78.5 -30.5t-88 -11h-1z" />
    <glyph glyph-name="uni0405" unicode="&#x405;" horiz-adv-x="595" 
d="M307 -11q-78 0 -149.5 24t-127.5 75l68 104q43 -42 101.5 -62.5t116.5 -20.5q56 0 88 21t32 59q0 23 -12.5 39.5t-33.5 28.5t-48.5 21.5t-57.5 18.5q-40 12 -82 27.5t-76.5 39.5t-56.5 59t-22 87q0 48 19 85.5t51 63.5t75.5 39.5t92.5 13.5q70 0 135 -21.5t116 -63.5
l-67 -105q-37 35 -88.5 52t-98.5 17q-50 0 -78.5 -20.5t-28.5 -55.5q0 -22 12 -37t32 -26.5t46.5 -20t56.5 -17.5q46 -12 90 -28t78.5 -41t56 -60.5t21.5 -86.5q0 -49 -20.5 -88t-56 -66t-83 -41t-101.5 -14z" />
    <glyph glyph-name="uni0406" unicode="&#x406;" horiz-adv-x="297" 
d="M83 700h131v-700h-131v700z" />
    <glyph glyph-name="uni0407" unicode="&#x407;" horiz-adv-x="297" 
d="M56 763q-26 0 -43 16.5t-17 44.5t17 46t43 18q27 0 45 -18t18 -46t-18 -44.5t-45 -16.5zM238 763q-26 0 -43 16.5t-17 44.5t17 46t43 18q27 0 45 -18t18 -46t-18 -44.5t-45 -16.5zM83 700h131v-700h-131v700z" />
    <glyph glyph-name="uni0408" unicode="&#x408;" horiz-adv-x="418" 
d="M141 -10q-59 0 -107 18v123q16 -9 35.5 -15.5t43.5 -6.5q51 0 75 26.5t24 71.5v493h131v-506q0 -98 -52.5 -151t-149.5 -53z" />
    <glyph glyph-name="uni0409" unicode="&#x409;" horiz-adv-x="1022" 
d="M80 -11q-38 0 -68 12v112q24 -9 49 -9q29 0 46 16.5t26.5 59t13.5 116t6 187.5l5 217h455v-261h131q54 0 99 -15t77 -43t49.5 -68t17.5 -89v-5q0 -49 -17.5 -89.5t-49 -69t-76 -44.5t-98.5 -16h-264v584h-200l-3 -132q-2 -112 -8.5 -198t-26.5 -145t-58.5 -89.5
t-105.5 -30.5zM728 112q60 0 93.5 28t33.5 80v4q0 51 -33 78t-94 27h-115v-217h115z" />
    <glyph glyph-name="uni040A" unicode="&#x40a;" horiz-adv-x="1030" 
d="M84 700h131v-261h274v261h131v-261h131q54 0 99 -15t77 -43t49.5 -68t17.5 -89v-5q0 -49 -17.5 -89.5t-49 -69t-76 -44.5t-98.5 -16h-264v323h-274v-323h-131v700zM736 111q60 0 93.5 28t33.5 79v4q0 51 -33 78t-95 27h-115v-216h116z" />
    <glyph glyph-name="uni040B" unicode="&#x40b;" horiz-adv-x="745" 
d="M184 584h-168v116h524v-116h-225v-151q42 14 77.5 20t70.5 6q109 0 162 -53.5t53 -165.5v-240h-131v217q0 71 -26 99.5t-90 28.5q-28 0 -55.5 -5.5t-60.5 -17.5v-322h-131v584z" />
    <glyph glyph-name="uni040C" unicode="&#x40c;" horiz-adv-x="661" 
d="M84 700h132v-298h6l260 298h152l-292 -322l316 -378h-161l-275 337h-6v-337h-132v700zM403 741h-101l52 147h120z" />
    <glyph glyph-name="uni040E" unicode="&#x40e;" horiz-adv-x="614" 
d="M215 -12q-23 0 -51 5.5t-51 15.5v111q15 -8 36.5 -14.5t43.5 -6.5q23 0 43 9t31 29l-258 563h142l178 -424h10l138 424h132l-209 -569q-26 -74 -69.5 -108.5t-115.5 -34.5zM254 898q0 -28 19 -44.5t49 -16.5t48.5 17t18.5 44h103q0 -65 -46.5 -104.5t-124.5 -39.5
t-124 39.5t-46 104.5h103z" />
    <glyph glyph-name="uni040F" unicode="&#x40f;" horiz-adv-x="708" 
d="M623 0h-207v-135h-124v135h-208v700h131v-584h277v584h131v-700z" />
    <glyph glyph-name="uni0410" unicode="&#x410;" horiz-adv-x="662" 
d="M245 700h172l246 -700h-140l-54 165h-276l-54 -165h-141zM435 273l-100 296h-8l-101 -296h209z" />
    <glyph glyph-name="uni0411" unicode="&#x411;" horiz-adv-x="658" 
d="M84 700h484v-116h-353v-152h160q54 0 98.5 -15t76 -42.5t48.5 -66.5t17 -87v-7q0 -48 -17.5 -87.5t-49.5 -67.5t-77 -43.5t-100 -15.5h-287v700zM365 113q54 0 86 27.5t32 76.5v6q0 48 -32 75.5t-86 27.5h-152v-213h152z" />
    <glyph glyph-name="uni0412" unicode="&#x412;" horiz-adv-x="664" 
d="M84 700h267q52 0 95 -12.5t73.5 -36t47.5 -55.5t17 -71v-7q0 -45 -20 -81t-64 -64q58 -24 88.5 -69t30.5 -103v-6q0 -44 -17 -80t-48 -61.5t-75.5 -39.5t-98.5 -14h-296v700zM348 406q51 0 79 24.5t28 65.5v6q0 39 -27 62t-78 23h-140v-181h138zM373 113q54 0 84.5 25
t30.5 68v5q0 45 -31.5 70.5t-85.5 25.5h-161v-194h163z" />
    <glyph glyph-name="uni0413" unicode="&#x413;" horiz-adv-x="504" 
d="M84 700h404v-116h-273v-584h-131v700z" />
    <glyph glyph-name="uni0414" unicode="&#x414;" horiz-adv-x="714" 
d="M20 112h53q33 42 47 168.5t14 346.5v73h476v-588h79v-247h-125v135h-419v-135h-125v247zM260 578q-2 -174 -17.5 -288.5t-44.5 -177.5h283v477h-221v-11z" />
    <glyph glyph-name="uni0415" unicode="&#x415;" horiz-adv-x="580" 
d="M84 700h432v-116h-301v-175h281v-110h-281v-183h311v-116h-442v700z" />
    <glyph glyph-name="uni0416" unicode="&#x416;" horiz-adv-x="892" 
d="M382 337h-9l-214 -337h-154l255 378l-224 322h142l195 -298h9v298h128v-298h9l195 298h142l-224 -322l255 -378h-154l-214 337h-9v-337h-128v337z" />
    <glyph glyph-name="uni0417" unicode="&#x417;" horiz-adv-x="622" 
d="M312 -11q-94 0 -167 39.5t-123 116.5l108 66q37 -56 78.5 -81t98.5 -25q64 0 100 27.5t36 73.5v3q0 45 -33.5 71.5t-95.5 26.5h-90v101h68q57 0 89 25t32 70v2q0 41 -31.5 65.5t-81.5 24.5q-51 0 -88 -24.5t-63 -70.5l-109 65q46 69 113.5 108t155.5 39q50 0 92.5 -13.5
t74 -37.5t49.5 -57t18 -72v-8q0 -97 -94 -152q62 -23 95 -70t33 -107v-7q0 -43 -20 -79.5t-55.5 -63t-84 -41.5t-105.5 -15z" />
    <glyph glyph-name="uni0418" unicode="&#x418;" horiz-adv-x="741" 
d="M84 700h129v-497h8l289 497h146v-700h-130v521h-8l-300 -521h-134v700z" />
    <glyph glyph-name="uni0419" unicode="&#x419;" horiz-adv-x="741" 
d="M84 700h129v-497h8l289 497h146v-700h-130v521h-8l-300 -521h-134v700zM303 900q0 -28 19 -44.5t49 -16.5t48.5 17t18.5 44h103q0 -65 -46.5 -104.5t-124.5 -39.5t-124 39.5t-46 104.5h103z" />
    <glyph glyph-name="uni041A" unicode="&#x41a;" horiz-adv-x="661" 
d="M84 700h132v-298h6l260 298h152l-292 -322l316 -378h-161l-275 337h-6v-337h-132v700z" />
    <glyph glyph-name="uni041B" unicode="&#x41b;" horiz-adv-x="706" 
d="M79 -11q-37 0 -67 12v112q23 -9 45 -9q30 0 47.5 17.5t27 57.5t13 104.5t5.5 158.5l7 258h465v-700h-131v584h-210l-3 -144q-3 -120 -10.5 -205.5t-28.5 -140t-59 -80t-101 -25.5z" />
    <glyph glyph-name="uni041C" unicode="&#x41c;" horiz-adv-x="890" 
d="M85 700h187l169 -435h9l169 435h187v-700h-128v540h-7l-175 -445h-101l-175 445h-7v-540h-128v700z" />
    <glyph glyph-name="uni041D" unicode="&#x41d;" horiz-adv-x="724" 
d="M84 700h131v-285h294v285h131v-700h-131v299h-294v-299h-131v700z" />
    <glyph glyph-name="uni041E" unicode="&#x41e;" horiz-adv-x="779" 
d="M41 353q0 77 25.5 143t71.5 114t109.5 75t138.5 27h7q75 0 138.5 -27t109.5 -75t71.5 -113.5t25.5 -142.5v-8q0 -77 -25.5 -142.5t-71.5 -113.5t-109.5 -75t-138.5 -27h-7q-75 0 -138.5 27.5t-109 75.5t-71.5 114t-26 142v6zM177 347q0 -54 15.5 -98.5t43.5 -76t66.5 -49
t84.5 -17.5h7q45 0 83 17.5t66 49t43.5 76t15.5 98.5v6q0 54 -15.5 98.5t-43 76.5t-66 49.5t-84.5 17.5h-7q-45 0 -83.5 -17.5t-66.5 -49.5t-43.5 -76.5t-15.5 -98.5v-6z" />
    <glyph glyph-name="uni041F" unicode="&#x41f;" horiz-adv-x="721" 
d="M84 700h552v-700h-131v584h-290v-584h-131v700z" />
    <glyph glyph-name="uni0420" unicode="&#x420;" horiz-adv-x="627" 
d="M84 700h252q57 0 104 -16.5t80.5 -46.5t52 -72.5t18.5 -94.5v-6q0 -53 -18.5 -96t-51.5 -73.5t-80 -47t-104 -16.5h-122v-231h-131v700zM327 339q63 0 97 33.5t34 89.5v6q0 54 -33 85.5t-95 31.5h-118v-246h115z" />
    <glyph glyph-name="uni0421" unicode="&#x421;" horiz-adv-x="687" 
d="M386 -11q-76 0 -139.5 27t-109 75t-71 113.5t-25.5 143.5v4q0 78 25.5 143.5t71.5 113.5t109 75t139 27q91 0 162.5 -41t116.5 -110l-100 -72q-30 51 -72.5 77t-100.5 26h-1q-49 0 -88.5 -17.5t-67.5 -49t-43 -75.5t-15 -97v-5q0 -52 15 -96t43 -75.5t67.5 -49
t87.5 -17.5h1q60 0 105 27t73 75l97 -71q-42 -69 -114.5 -110t-164.5 -41h-1z" />
    <glyph glyph-name="uni0422" unicode="&#x422;" horiz-adv-x="555" 
d="M212 584h-196v116h524v-116h-197v-584h-131v584z" />
    <glyph glyph-name="uni0423" unicode="&#x423;" horiz-adv-x="614" 
d="M215 -12q-23 0 -51 5.5t-51 15.5v111q15 -8 36.5 -14.5t43.5 -6.5q23 0 43 9t31 29l-258 563h142l178 -424h10l138 424h132l-209 -569q-26 -74 -69.5 -108.5t-115.5 -34.5z" />
    <glyph glyph-name="uni0424" unicode="&#x424;" horiz-adv-x="798" 
d="M462 70v-70h-126v70h-15q-61 0 -113 21t-90 59.5t-60 91t-22 115.5v8q0 63 22 115.5t60 90.5t90 59t113 21h15v54h126v-54h15q61 0 113 -21t90.5 -59t60 -90.5t21.5 -115.5v-8q0 -63 -21.5 -115.5t-60 -91t-90.5 -59.5t-113 -21h-15zM340 177v367h-17q-34 0 -63 -13
t-50 -37t-32.5 -57t-11.5 -72v-8q0 -40 11.5 -73t32.5 -57t50 -37t63 -13h17zM475 177q34 0 63 13t50 37t32.5 57t11.5 73v8q0 40 -11.5 73t-32.5 56.5t-49.5 36.5t-63.5 13h-17v-367h17z" />
    <glyph glyph-name="uni0425" unicode="&#x425;" horiz-adv-x="642" 
d="M231 360v5l-207 335h151l142 -244h8l143 244h150l-207 -334v-5l221 -361h-151l-156 273h-8l-155 -273h-151z" />
    <glyph glyph-name="uni0426" unicode="&#x426;" horiz-adv-x="729" 
d="M579 0h-495v700h131v-584h277v584h131v-584h81v-251h-125v135z" />
    <glyph glyph-name="uni0427" unicode="&#x427;" horiz-adv-x="671" 
d="M456 276q-45 -14 -85 -20.5t-78 -6.5q-229 0 -229 220v231h132v-208q0 -71 29 -100t98 -29q36 0 65.5 6t67.5 19v312h130v-700h-130v276z" />
    <glyph glyph-name="uni0428" unicode="&#x428;" horiz-adv-x="1018" 
d="M84 700h131v-584h229v584h130v-584h229v584h131v-700h-850v700z" />
    <glyph glyph-name="uni0429" unicode="&#x429;" horiz-adv-x="1033" 
d="M890 0h-806v700h131v-584h230v584h131v-584h229v584h131v-584h79v-251h-125v135z" />
    <glyph glyph-name="uni042A" unicode="&#x42a;" horiz-adv-x="679" 
d="M140 588h-147v112h278v-243h127q56 0 101 -16t77 -45t49.5 -70.5t17.5 -92.5v-6q0 -51 -17.5 -93t-49 -72t-76.5 -46t-101 -16h-259v588zM380 113q63 0 97.5 30t34.5 87v5q0 55 -34.5 84.5t-97.5 29.5h-113v-236h113z" />
    <glyph glyph-name="uni042B" unicode="&#x42b;" horiz-adv-x="878" 
d="M84 700h131v-243h123q56 0 101.5 -15.5t78 -44.5t50.5 -70.5t18 -93.5v-6q0 -51 -17.5 -93t-50 -72t-78.5 -46t-102 -16h-254v700zM663 700h131v-700h-131v700zM319 113q66 0 101 30.5t35 86.5v5q0 55 -34.5 84.5t-101.5 29.5h-107v-236h107z" />
    <glyph glyph-name="uni042C" unicode="&#x42c;" horiz-adv-x="630" 
d="M84 700h131v-243h133q56 0 101 -16t77.5 -45t50 -70.5t17.5 -92.5v-6q0 -51 -17.5 -93t-49.5 -71.5t-77 -46t-101 -16.5h-265v700zM331 113q63 0 97.5 30t34.5 87v5q0 55 -34.5 84.5t-98.5 29.5h-118v-236h119z" />
    <glyph glyph-name="uni042D" unicode="&#x42d;" horiz-adv-x="693" 
d="M305 -11q-46 0 -88 11t-79 30.5t-66.5 47.5t-49.5 62l97 71q29 -50 77 -77.5t109 -27.5h1q44 0 80 14t63 39.5t44.5 61.5t23.5 80h-302v106h301q-14 85 -68.5 136.5t-139.5 51.5h-2q-60 0 -105.5 -27.5t-77.5 -79.5l-100 72q45 69 118.5 110t165.5 41q76 0 139.5 -27
t109 -75t71 -113.5t25.5 -143.5v-4q0 -78 -25.5 -143.5t-71 -113.5t-109 -75t-140.5 -27h-1z" />
    <glyph glyph-name="uni042E" unicode="&#x42e;" horiz-adv-x="1029" 
d="M645 -12q-68 0 -126 23.5t-102 65t-71.5 99t-34.5 125.5h-96v-301h-131v700h131v-287h97q9 65 37.5 120t72 94.5t100.5 62t123 22.5h6q73 0 135 -27t107 -74.5t70 -112t25 -139.5v-17q0 -75 -25.5 -140t-70.5 -112.5t-106.5 -74.5t-133.5 -27h-7zM444 342q0 -52 15 -95.5
t41.5 -75t63.5 -49t81 -17.5h6q44 0 81 17.5t63.5 49t41.5 75t15 95.5v16q0 52 -15 95.5t-41.5 75t-63.5 49t-81 17.5h-5q-44 0 -81 -17.5t-64 -49t-42 -75t-15 -95.5v-16z" />
    <glyph glyph-name="uni042F" unicode="&#x42f;" horiz-adv-x="657" 
d="M178 275q-64 27 -102 78t-38 119v15q0 50 19.5 89.5t55 67t85.5 42t112 14.5h262v-700h-131v246h-140l-137 -246h-148zM445 588h-123q-70 0 -109.5 -28t-39.5 -80v-12q0 -53 39 -86t111 -33h122v239z" />
    <glyph glyph-name="uni0430" unicode="&#x430;" horiz-adv-x="586" 
d="M220 -10q-40 0 -73.5 11.5t-57.5 31.5t-37.5 49t-13.5 63v7q0 169 314 169h42v23q0 38 -28 61t-80 23h-3q-41 0 -85.5 -14t-83.5 -39l-51 90q48 30 106 48t121 18h6q47 0 86 -12t68 -36t45 -59t16 -82v-235q0 -27 5 -54t13 -53h-118q-5 12 -8.5 28.5t-5.5 33.5
q-33 -33 -78 -52.5t-99 -19.5zM245 90q44 0 83 17.5t66 46.5v87h-35q-103 0 -152 -20.5t-49 -62.5v-4q0 -28 24 -46t63 -18z" />
    <glyph glyph-name="uni0431" unicode="&#x431;" horiz-adv-x="628" 
d="M318 -9q-132 0 -203 90t-71 258q0 165 67.5 262t200.5 122q54 11 114.5 14.5t110.5 3.5v-116q-64 0 -116.5 -4.5t-97.5 -12.5q-78 -16 -121 -64.5t-51 -140.5q30 50 78.5 80.5t111.5 30.5h8q51 0 94 -19t74 -52.5t48.5 -80t17.5 -100.5v-17q0 -54 -19.5 -100.5t-54 -80.5
t-81.5 -53.5t-101 -19.5h-9zM322 90q29 0 54 11.5t43.5 31.5t29 48.5t10.5 61.5v20q0 33 -10 61t-28 48.5t-43.5 32t-55.5 11.5h-4q-30 0 -56 -12t-44.5 -33t-29.5 -49.5t-11 -61.5v-18q0 -33 10.5 -61t29 -48t44 -31.5t54.5 -11.5h7z" />
    <glyph glyph-name="uni0432" unicode="&#x432;" horiz-adv-x="565" 
d="M75 520h267q36 0 66.5 -10t52.5 -27.5t34.5 -41.5t12.5 -53v-17q0 -61 -62 -100q42 -17 64.5 -46.5t22.5 -67.5v-17q0 -31 -13 -56.5t-37 -44t-56.5 -29t-71.5 -10.5h-280v520zM308 305q37 0 58.5 16t21.5 42v9q0 26 -21.5 42t-57.5 16h-115v-125h114zM326 90q38 0 62 17
t24 44v11q0 29 -23.5 46t-61.5 17h-133v-135h132z" />
    <glyph glyph-name="uni0433" unicode="&#x433;" horiz-adv-x="434" 
d="M75 520h341v-100h-217v-420h-124v520z" />
    <glyph glyph-name="uni0434" unicode="&#x434;" horiz-adv-x="615" 
d="M14 98h47q27 30 39 133t12 289h410v-422h70v-226h-118v128h-342v-128h-118v226zM399 98v325h-171q-2 -140 -14 -220.5t-32 -104.5h217z" />
    <glyph glyph-name="uni0435" unicode="&#x435;" 
d="M312 -9q-59 0 -108.5 19t-85 53t-55 82t-19.5 105v14q0 57 20 106t55.5 84t84.5 55t106 20h6q54 0 99.5 -18t78.5 -49.5t51.5 -75.5t18.5 -97v-67h-397v-1q7 -57 48.5 -91.5t104.5 -34.5h5q48 0 88.5 19t63.5 48l69 -75q-37 -45 -98.5 -70.5t-126.5 -25.5h-9zM446 305
q-4 56 -41 91.5t-94 35.5h-1q-54 0 -91.5 -34.5t-48.5 -92.5h276z" />
    <glyph glyph-name="uni0436" unicode="&#x436;" horiz-adv-x="747" 
d="M314 246h-11l-158 -246h-139l196 279l-183 241h131l155 -219h9v219h119v-219h9l155 219h131l-183 -241l196 -279h-139l-158 246h-11v-246h-119v246z" />
    <glyph glyph-name="uni0437" unicode="&#x437;" horiz-adv-x="513" 
d="M259 -9q-76 0 -136 30.5t-99 93.5l93 57q23 -42 59.5 -62t81.5 -20h6q42 0 67 19t25 45v5q0 30 -23 47t-68 17h-75v84h71q35 0 55.5 17t20.5 44v4q0 25 -22 42t-60 17h-4q-44 0 -76.5 -20.5t-50.5 -55.5l-86 69q35 47 92 76t134 29h8q38 0 72 -10.5t60 -28.5t41 -43
t15 -55v-11q0 -32 -19.5 -59t-54.5 -47q45 -19 70 -52.5t25 -72.5v-8q0 -31 -16.5 -59t-45.5 -48t-67.5 -32t-83.5 -12h-9z" />
    <glyph glyph-name="uni0438" unicode="&#x438;" horiz-adv-x="641" 
d="M75 520h121v-331h6l235 331h129v-520h-122v359h-5l-251 -359h-113v520z" />
    <glyph glyph-name="uni0439" unicode="&#x439;" horiz-adv-x="641" 
d="M75 520h121v-331h6l235 331h129v-520h-122v359h-5l-251 -359h-113v520zM254 720q0 -28 19 -44.5t49 -16.5q29 0 47.5 17t18.5 44h104q0 -32 -12 -58.5t-34.5 -45.5t-54.5 -29.5t-71 -10.5q-78 0 -124 39.5t-46 104.5h104z" />
    <glyph glyph-name="uni043A" unicode="&#x43a;" horiz-adv-x="569" 
d="M75 520h124v-219h8l210 219h140l-240 -241l246 -279h-149l-207 246h-8v-246h-124v520z" />
    <glyph glyph-name="uni043B" unicode="&#x43b;" horiz-adv-x="588" 
d="M73 -9q-33 0 -59 10v100q9 -5 19 -6.5t18 -1.5q20 0 32 10t19 36t9.5 71.5t3.5 116.5l1 193h398v-520h-124v420h-158l-2 -119q-1 -91 -10.5 -151t-29 -95t-48.5 -49.5t-69 -14.5z" />
    <glyph glyph-name="uni043C" unicode="&#x43c;" horiz-adv-x="724" 
d="M75 520h131l152 -305h9l152 305h131v-520h-119v327h-9l-127 -242h-66l-127 245h-8v-330h-119v520z" />
    <glyph glyph-name="uni043D" unicode="&#x43d;" horiz-adv-x="634" 
d="M75 520h121v-198h239v198h124v-520h-124v222h-239v-222h-121v520z" />
    <glyph glyph-name="uni043E" unicode="&#x43e;" horiz-adv-x="646" 
d="M319 -9q-60 0 -110.5 19.5t-87 54t-57 83t-20.5 105.5v14q0 57 20.5 105.5t57 83t87 54t110.5 19.5h8q60 0 110.5 -19.5t87 -54t57 -83t20.5 -105.5v-14q0 -57 -20.5 -105.5t-57 -83t-87 -54t-110.5 -19.5h-8zM326 89q32 0 59 12.5t46.5 34.5t30.5 52.5t11 66.5v10
q0 36 -11 66.5t-30.5 52.5t-46.5 34.5t-59 12.5h-6q-32 0 -58.5 -12.5t-46 -34.5t-30.5 -52.5t-11 -66.5v-10q0 -36 11 -66.5t30.5 -52.5t46 -34.5t58.5 -12.5h6z" />
    <glyph glyph-name="uni043F" unicode="&#x43f;" horiz-adv-x="633" 
d="M75 520h483v-520h-124v420h-235v-420h-124v520z" />
    <glyph glyph-name="uni0440" unicode="&#x440;" horiz-adv-x="671" 
d="M74 520h98q5 -13 9.5 -33t6.5 -37q33 38 79.5 58.5t103.5 20.5h5q54 0 100 -19.5t79.5 -54t52 -82.5t18.5 -106v-14q0 -58 -18.5 -106t-52 -82.5t-79.5 -54t-100 -19.5h-5q-52 0 -96.5 18t-76.5 51v-260h-124v720zM351 90q65 0 105.5 45t40.5 120v10q0 75 -40 120
t-106 45h-7q-65 0 -105.5 -45t-40.5 -120v-10q0 -75 40.5 -120t105.5 -45h7z" />
    <glyph glyph-name="uni0441" unicode="&#x441;" horiz-adv-x="565" 
d="M309 -8q-59 0 -107.5 19.5t-83.5 54t-54.5 82.5t-19.5 105v16q0 57 20 104.5t55 82t83 53.5t105 19h6q76 0 132.5 -32t91.5 -87l-92 -61q-43 81 -130 81h-3q-65 0 -102 -43t-37 -121v-10q0 -75 40 -118.5t104 -43.5h5q45 0 77 22t52 59l90 -67q-36 -54 -92.5 -84.5
t-132.5 -30.5h-7z" />
    <glyph glyph-name="uni0442" unicode="&#x442;" horiz-adv-x="473" 
d="M175 418h-157v102h438v-102h-157v-418h-124v418z" />
    <glyph glyph-name="uni0443" unicode="&#x443;" horiz-adv-x="558" 
d="M156 -201q-21 0 -47.5 4t-48.5 15v106q18 -9 35.5 -14.5t36.5 -5.5q32 0 57 19t45 54l-225 543h132l153 -399h7l127 399h126l-191 -549q-11 -32 -27 -62.5t-40 -55t-58.5 -39.5t-81.5 -15z" />
    <glyph glyph-name="uni0444" unicode="&#x444;" horiz-adv-x="767" 
d="M445 720v-192q4 1 8 1h7q58 0 106 -19.5t82.5 -54.5t54 -83t19.5 -105v-14q0 -57 -19.5 -105t-54 -83t-82.5 -54.5t-106 -19.5q-11 0 -15 1v-182h-123v182q-5 -1 -15 -1q-57 0 -105.5 19.5t-83.5 54.5t-54.5 83t-19.5 105v14q0 57 19.5 105t54.5 83t83.5 54.5t105.5 19.5
q10 0 15 -1v192h123zM170 255q0 -77 39.5 -123.5t105.5 -46.5q5 0 8 1v348q-3 1 -8 1q-66 0 -105.5 -46t-39.5 -123v-11zM597 266q0 37 -9.5 68t-28.5 53.5t-48 35t-67 12.5v-349q2 -1 8 -1q66 0 105.5 46.5t39.5 123.5v11z" />
    <glyph glyph-name="uni0445" unicode="&#x445;" horiz-adv-x="550" 
d="M197 266v4l-178 250h142l113 -177h5l113 177h138l-176 -250v-4l183 -266h-141l-122 191h-4l-119 -191h-139z" />
    <glyph glyph-name="uni0446" unicode="&#x446;" horiz-adv-x="648" 
d="M508 0h-433v520h124v-422h230v422h124v-422h73v-226h-118v128z" />
    <glyph glyph-name="uni0447" unicode="&#x447;" horiz-adv-x="579" 
d="M380 194q-34 -11 -68 -17.5t-69 -6.5q-94 0 -140.5 44t-46.5 124v182h122v-167q0 -42 21 -62t66 -20q30 0 59.5 4.5t55.5 15.5v229h124v-520h-124v194z" />
    <glyph glyph-name="uni0448" unicode="&#x448;" horiz-adv-x="852" 
d="M75 520h122v-422h168v422h122v-422h168v422h123v-520h-703v520z" />
    <glyph glyph-name="uni0449" unicode="&#x449;" horiz-adv-x="862" 
d="M722 0h-647v520h122v-422h165v422h122v-422h164v422h123v-422h69v-226h-118v128z" />
    <glyph glyph-name="uni044A" unicode="&#x44a;" horiz-adv-x="574" 
d="M116 424h-102v96h226v-167h128q39 0 71.5 -12.5t56 -35t36.5 -53.5t13 -67v-17q0 -36 -13.5 -66.5t-37.5 -53t-57 -35.5t-73 -13h-248v424zM346 94q32 0 53.5 22t21.5 55v14q0 32 -21.5 54t-53.5 22h-110v-167h110z" />
    <glyph glyph-name="uni044B" unicode="&#x44b;" horiz-adv-x="773" 
d="M75 520h124v-167h112q39 0 72 -12.5t57 -35t37 -53.5t13 -67v-17q0 -36 -13.5 -66.5t-37.5 -53t-57.5 -35.5t-73.5 -13h-233v520zM574 520h124v-520h-124v520zM291 95q32 0 54 22t22 55v10q0 34 -22 55.5t-54 21.5h-96v-164h96z" />
    <glyph glyph-name="uni044C" unicode="&#x44c;" horiz-adv-x="541" 
d="M75 520h124v-167h129q40 0 74 -12.5t58.5 -35t38 -53.5t13.5 -67v-17q0 -36 -14 -66.5t-38.5 -53t-59 -35.5t-75.5 -13h-250v520zM309 96q33 0 56 22t23 54v11q0 32 -23 54t-56 22h-113v-163h113z" />
    <glyph glyph-name="uni044D" unicode="&#x44d;" horiz-adv-x="571" 
d="M254 -8q-77 0 -135 30.5t-95 84.5l90 67q21 -37 54.5 -59.5t81.5 -22.5h5q58 0 97 33.5t49 92.5h-218v84h218q-9 61 -46 94.5t-96 33.5h-3q-47 0 -80.5 -21t-55.5 -61l-92 61q35 55 92 87t134 32h7q57 0 105.5 -19t84.5 -53.5t56 -82t20 -104.5v-16q0 -57 -19 -105
t-54 -82.5t-84 -54t-108 -19.5h-8z" />
    <glyph glyph-name="uni044E" unicode="&#x44e;" horiz-adv-x="835" 
d="M528 -9q-52 0 -96 17t-77.5 47.5t-54 72.5t-25.5 92h-78v-220h-122v520h122v-200h82q8 47 29 85t53.5 66t75 43t91.5 15h7q56 0 102.5 -19t80.5 -53.5t53 -81t19 -102.5v-26q0 -55 -19 -102t-53 -81.5t-80.5 -53.5t-102.5 -19h-7zM534 90q28 0 51.5 11.5t40 32.5t26 50.5
t9.5 65.5v24q0 71 -35 113.5t-92 42.5h-4q-57 0 -92 -42.5t-35 -113.5v-24q0 -36 9.5 -65.5t26 -50.5t40 -32.5t51.5 -11.5h4z" />
    <glyph glyph-name="uni044F" unicode="&#x44f;" horiz-adv-x="567" 
d="M147 201q-45 21 -72 56t-27 82v18q0 36 14 65.5t39 51.5t59.5 34t75.5 12h256v-520h-117v177h-116l-99 -177h-131zM376 268v157h-120q-38 0 -63 -19.5t-25 -51.5v-11q0 -32 25 -53.5t63 -21.5h120z" />
    <glyph glyph-name="uni0451" unicode="&#x451;" 
d="M312 -9q-59 0 -108.5 19t-85 53t-55 82t-19.5 105v14q0 57 20 106t55.5 84t84.5 55t106 20h6q54 0 99.5 -18t78.5 -49.5t51.5 -75.5t18.5 -97v-67h-397v-1q7 -57 48.5 -91.5t104.5 -34.5h5q48 0 88.5 19t63.5 48l69 -75q-37 -45 -98.5 -70.5t-126.5 -25.5h-9zM446 305
q-4 56 -41 91.5t-94 35.5h-1q-54 0 -91.5 -34.5t-48.5 -92.5h276zM422 609q-29 0 -46.5 17t-17.5 44t17.5 44.5t46.5 17.5t48 -17.5t19 -44.5t-19 -44t-48 -17zM213 609q-29 0 -47 17t-18 44t18 44.5t47 17.5q28 0 47 -17.5t19 -44.5t-19 -44t-47 -17z" />
    <glyph glyph-name="uni0452" unicode="&#x452;" horiz-adv-x="628" 
d="M72 583h-64v85h64v52h124v-52h147v-85h-147v-134q33 33 77.5 52t98.5 19h2q92 0 139.5 -51.5t47.5 -146.5v-303q0 -50 -14 -90t-39.5 -68t-61 -43t-78.5 -15q-19 0 -41 3.5t-43 11.5v100q27 -8 52 -8q45 0 73 30t28 88v268q0 59 -25 87.5t-80 28.5h-4q-60 0 -96 -33
t-36 -98v-281h-124v583z" />
    <glyph glyph-name="uni0453" unicode="&#x453;" horiz-adv-x="434" 
d="M75 520h341v-100h-217v-420h-124v520zM194 559l57 155h113l-75 -155h-95z" />
    <glyph glyph-name="uni0454" unicode="&#x454;" horiz-adv-x="573" 
d="M314 -8q-60 0 -109.5 19.5t-85 54t-55.5 82.5t-20 105v16q0 57 20 104.5t56 82t85 53.5t107 19h7q76 0 133.5 -32t92.5 -87l-92 -61q-44 81 -135 81h-3q-59 0 -95.5 -33t-45.5 -94h216v-84h-216q11 -59 50 -92t97 -33h4q48 0 81 22t53 59l90 -67q-35 -54 -92 -84.5
t-135 -30.5h-8z" />
    <glyph glyph-name="uni0455" unicode="&#x455;" horiz-adv-x="509" 
d="M269 -10q-69 0 -131.5 18.5t-112.5 56.5l62 89q36 -29 85 -46t97 -17q44 0 67 15t23 42q0 18 -11 29.5t-32 19.5t-50.5 15.5t-67.5 19.5q-28 8 -55 18t-48.5 26t-34.5 39.5t-13 57.5q0 73 54 115t145 42q57 0 112.5 -17t97.5 -49l-59 -87q-31 23 -74 37.5t-84 14.5
q-40 0 -59 -13.5t-19 -36.5q0 -26 31 -40t96 -30q33 -8 67 -18.5t61 -27.5t44.5 -44t17.5 -68q0 -37 -15 -67t-42.5 -51t-66 -32t-85.5 -11z" />
    <glyph glyph-name="uni0456" unicode="&#x456;" horiz-adv-x="274" 
d="M136 601q-32 0 -52.5 18.5t-20.5 47.5t20.5 48.5t52.5 19.5q33 0 54 -19.5t21 -48.5t-21 -47.5t-54 -18.5zM75 520h124v-520h-124v520z" />
    <glyph glyph-name="uni0457" unicode="&#x457;" horiz-adv-x="274" 
d="M214 606q-26 0 -42.5 17t-16.5 44q0 28 16.5 45t42.5 17t43.5 -17t17.5 -45q0 -27 -17.5 -44t-43.5 -17zM59 606q-26 0 -43 17t-17 44q0 28 17 45t43 17q25 0 42 -17t17 -45q0 -27 -17 -44t-42 -17zM75 520h124v-520h-124v520z" />
    <glyph glyph-name="uni0458" unicode="&#x458;" horiz-adv-x="287" 
d="M150 601q-32 0 -52.5 18.5t-20.5 47.5t20.5 48.5t52.5 19.5q33 0 54.5 -19.5t21.5 -48.5t-21.5 -47.5t-54.5 -18.5zM64 -204q-21 0 -47.5 4t-49.5 14v103q13 -5 26 -8t28 -3q35 0 51.5 17t16.5 62v535h124v-556q0 -81 -39 -124.5t-110 -43.5z" />
    <glyph glyph-name="uni0459" unicode="&#x459;" horiz-adv-x="836" 
d="M73 -9q-33 0 -59 10v100q9 -5 19 -6.5t18 -1.5q20 0 32 10t19 36t9.5 71.5t3.5 116.5l1 193h385v-181h124q40 0 73.5 -12t57.5 -34t37.5 -51.5t13.5 -64.5v-15q0 -35 -14 -64.5t-38.5 -51.5t-58.5 -34t-74 -12h-243v420h-147l-2 -119q-1 -91 -10.5 -151t-29 -95
t-48.5 -49.5t-69 -14.5zM607 93q33 0 54.5 20.5t21.5 50.5v10q0 31 -21.5 51t-54.5 20h-106v-152h106z" />
    <glyph glyph-name="uni045A" unicode="&#x45a;" horiz-adv-x="872" 
d="M75 520h121v-181h219v181h124v-181h122q40 0 73.5 -12t57.5 -34t37.5 -51.5t13.5 -64.5v-15q0 -35 -13.5 -64.5t-38.5 -51.5t-58.5 -34t-74.5 -12h-243v239h-219v-239h-121v520zM643 93q34 0 55 20.5t21 50.5v10q0 31 -21 51t-55 20h-104v-152h104z" />
    <glyph glyph-name="uni045B" unicode="&#x45b;" horiz-adv-x="628" 
d="M72 583h-64v85h64v52h124v-52h147v-85h-147v-134q33 33 77.5 52t98.5 19h2q92 0 139.5 -51.5t47.5 -146.5v-322h-124v296q0 59 -24.5 87.5t-77.5 28.5h-3q-63 0 -99.5 -33t-36.5 -98v-281h-124v583z" />
    <glyph glyph-name="uni045C" unicode="&#x45c;" horiz-adv-x="569" 
d="M75 520h124v-219h8l210 219h140l-240 -241l246 -279h-149l-207 246h-8v-246h-124v520zM254 559l57 155h113l-75 -155h-95z" />
    <glyph glyph-name="uni045E" unicode="&#x45e;" horiz-adv-x="558" 
d="M156 -201q-21 0 -47.5 4t-48.5 15v106q18 -9 35.5 -14.5t36.5 -5.5q32 0 57 19t45 54l-225 543h132l153 -399h7l127 399h126l-191 -549q-11 -32 -27 -62.5t-40 -55t-58.5 -39.5t-81.5 -15zM218 718q0 -28 19 -44.5t49 -16.5q29 0 47.5 17t18.5 44h104q0 -32 -12 -58.5
t-34.5 -45.5t-54.5 -29.5t-71 -10.5q-78 0 -124 39.5t-46 104.5h104z" />
    <glyph glyph-name="uni045F" unicode="&#x45f;" horiz-adv-x="628" 
d="M199 520v-422h230v422h124v-520h-180v-128h-118v128h-180v520h124z" />
    <glyph glyph-name="uni0490" unicode="&#x490;" horiz-adv-x="490" 
d="M84 700h267v125h123v-241h-259v-584h-131v700z" />
    <glyph glyph-name="uni0491" unicode="&#x491;" horiz-adv-x="426" 
d="M75 520h217v109h117v-209h-210v-420h-124v520z" />
    <glyph glyph-name="uni0492" unicode="&#x492;" horiz-adv-x="519" 
d="M99 285h-69v103h69v312h404v-116h-273v-196h143v-103h-143v-285h-131v285z" />
    <glyph glyph-name="uni0493" unicode="&#x493;" horiz-adv-x="444" 
d="M85 197h-65v99h65v224h341v-100h-217v-124h127v-99h-127v-197h-124v197z" />
    <glyph glyph-name="uni049A" unicode="&#x49a;" horiz-adv-x="661" 
d="M84 700h132v-298h6l260 298h152l-292 -322l219 -262h97v-251h-125v135h-36l-275 337h-6v-337h-132v700z" />
    <glyph glyph-name="uni049B" unicode="&#x49b;" horiz-adv-x="559" 
d="M75 520h124v-219h8l210 219h140l-240 -241l160 -181h87v-226h-118v128h-32l-207 246h-8v-246h-124v520z" />
    <glyph glyph-name="uni04A2" unicode="&#x4a2;" horiz-adv-x="746" 
d="M596 0h-87v299h-294v-299h-131v700h131v-285h294v285h131v-584h81v-251h-125v135z" />
    <glyph glyph-name="uni04A3" unicode="&#x4a3;" horiz-adv-x="653" 
d="M514 0h-79v222h-239v-222h-121v520h121v-198h239v198h124v-422h73v-226h-118v128z" />
    <glyph glyph-name="uni04AE" unicode="&#x4ae;" horiz-adv-x="624" 
d="M247 273l-248 427h152l158 -298h6l158 298h151l-246 -427v-273h-131v273z" />
    <glyph glyph-name="uni04AF" unicode="&#x4af;" horiz-adv-x="562" 
d="M14 520h131l132 -406h10l131 406h131l-195 -520h-11v-200h-124v200h-11z" />
    <glyph glyph-name="uni04B0" unicode="&#x4b0;" horiz-adv-x="624" 
d="M134 324h88l-223 376h152l158 -298h6l158 298h151l-222 -376h88v-103h-112v-221h-131v221h-113v103z" />
    <glyph glyph-name="uni04B1" unicode="&#x4b1;" horiz-adv-x="562" 
d="M118 0h90l-194 520h131l132 -406h10l131 406h131l-195 -520h88v-99h-99v-101h-124v101h-101v99z" />
    <glyph glyph-name="uni04BA" unicode="&#x4ba;" horiz-adv-x="671" 
d="M215.027 424.017q44.998 13.999 84.9951 20.499q39.998 6.5 77.9951 6.5q228.986 0 228.986 -219.987v-230.985h-131.992v207.987q0 70.9951 -28.998 99.9932q-28.998 28.999 -97.9941 28.999q-35.998 0 -65.4961 -6t-67.4961 -18.999v-311.98h-129.991v699.957h129.991
v-275.983z" />
    <glyph glyph-name="uni04BB" unicode="&#x4bb;" horiz-adv-x="636" 
d="M75 720h124v-267q35 36 82.5 56.5t104.5 20.5q88 0 136 -51.5t48 -146.5v-332h-124v306q0 116 -107 116q-65 0 -102.5 -36t-37.5 -98v-288h-124v720z" />
    <glyph glyph-name="uni04D4" unicode="&#x4d4;" horiz-adv-x="853" 
d="M245 700h545v-116h-279v-175h259v-110h-259v-183h289v-116h-415v165h-190l-56 -165h-141zM385 273v311h-53l-104 -311h157z" />
    <glyph glyph-name="uni04D5" unicode="&#x4d5;" horiz-adv-x="897" 
d="M217 -9q-39 0 -72 11t-57 31t-37 48.5t-13 63.5q0 164 293 164h41q0 9 -2 22t-4 18q-5 42 -28.5 59.5t-63.5 17.5q-39 0 -81 -14.5t-79 -37.5l-51 89q50 32 104.5 49t108.5 17q57 0 98 -18.5t66 -52.5q32 34 76 52.5t96 18.5h5q51 0 94 -18t74 -49.5t48.5 -75.5t17.5 -96
v-68h-367q7 -57 44 -92t94 -35h3q42 0 79 18.5t60 48.5l69 -75q-36 -43 -93.5 -69.5t-119.5 -26.5h-8q-61 0 -110 23t-83 64q-18 -19 -40.5 -35t-49 -27.5t-55 -18t-57.5 -6.5zM741 305q-5 56 -38.5 91.5t-87.5 35.5h-1q-51 0 -86 -34.5t-45 -92.5h258zM378 156
q-7 18 -10 38q-2 8 -2 16.5t-1 18.5h-24q-94 0 -138.5 -19t-44.5 -58q0 -27 23 -44t61 -17t75 17.5t61 47.5z" />
    <glyph glyph-name="uni04D8" unicode="&#x4d8;" horiz-adv-x="749" 
d="M573 403q-6 43 -22 78.5t-41.5 60.5t-59.5 39t-76 14h-2q-71 0 -120.5 -27.5t-81.5 -79.5l-100 72q47 69 125 110t184 41q69 0 129 -26.5t104.5 -74t70 -113.5t25.5 -145v-4q0 -78 -24.5 -143.5t-69.5 -113.5t-107 -75t-137 -27h-1q-75 0 -137 27t-106.5 74.5t-69.5 113
t-25 142.5v57h542zM166 301q6 -44 23 -80.5t43 -62.5t61 -40t76 -14h2q88 0 140 54t63 143h-408z" />
    <glyph glyph-name="uni04D9" unicode="&#x4d9;" 
d="M297 529q59 0 108.5 -19t85 -53t55.5 -82t20 -105v-14q0 -57 -20 -106t-56 -84t-84.5 -55t-105.5 -20h-6q-54 0 -99.5 18t-78.5 49.5t-51.5 76t-18.5 96.5v67h397v1q-8 57 -49 91.5t-105 34.5h-4q-49 0 -89.5 -19t-63.5 -48l-68 75q37 45 98.5 70.5t126.5 25.5h8z
M164 215q4 -56 40.5 -91.5t93.5 -35.5h2q54 0 91.5 34.5t47.5 92.5h-275z" />
    <glyph glyph-name="uni04E8" unicode="&#x4e8;" horiz-adv-x="779" 
d="M41 353q0 77 25.5 143t71.5 114t109.5 75t138.5 27h7q75 0 138.5 -27t109.5 -75t71.5 -113.5t25.5 -142.5v-8q0 -77 -25.5 -142.5t-71.5 -113.5t-109.5 -75t-138.5 -27h-7q-75 0 -138.5 27.5t-109 75.5t-71.5 114t-26 142v6zM599 401q-7 44 -24.5 79.5t-44.5 61
t-61.5 39.5t-75.5 14h-7q-40 0 -74.5 -14t-61.5 -39.5t-45 -61t-24 -79.5h418zM181 301q6 -44 24 -80t45 -61.5t62 -39.5t75 -14h7q40 0 74.5 14t61.5 39.5t45 61.5t24 80h-418z" />
    <glyph glyph-name="uni04E9" unicode="&#x4e9;" horiz-adv-x="646" 
d="M319 -9q-60 0 -110.5 19.5t-87 54t-57 83t-20.5 105.5v14q0 57 20.5 105.5t57 83t87 54t110.5 19.5h8q60 0 110.5 -19.5t87 -54t57 -83t20.5 -105.5v-14q0 -57 -20.5 -105.5t-57 -83t-87 -54t-110.5 -19.5h-8zM470 303q-10 60 -48.5 96t-95.5 36h-6q-56 0 -95 -36
t-49 -96h294zM176 220q9 -60 49 -97.5t101 -37.5q57 0 96.5 37t47.5 98h-294z" />
    <glyph glyph-name="uni058F" unicode="&#x58f;" horiz-adv-x="653" 
d="M305 712q63 0 114 -17.5t87 -52t55 -84.5t19 -116v-96h82v-95h-82v-42h82v-95h-82v-114h-132v114h-130v95h130v42h-130v95h130v89q0 80 -38.5 118t-104.5 38t-105 -38t-39 -118v-31h-132v38q0 129 72.5 199.5t203.5 70.5z" />
    <glyph glyph-name="Wgrave" unicode="&#x1e80;" horiz-adv-x="935" 
d="M16 700h134l109 -550h6l144 550h111l146 -550h5l114 550h134l-160 -700h-168l-122 476h-7l-123 -476h-168zM338 906h121l56 -147h-104z" />
    <glyph glyph-name="wgrave" unicode="&#x1e81;" horiz-adv-x="825" 
d="M28 520h125l80 -386h10l110 386h119l110 -387h10l81 387h124l-124 -520h-148l-110 362h-4l-111 -362h-148zM292 735h114l56 -154h-94z" />
    <glyph glyph-name="Wacute" unicode="&#x1e82;" horiz-adv-x="935" 
d="M16 700h134l109 -550h6l144 550h111l146 -550h5l114 550h134l-160 -700h-168l-122 476h-7l-123 -476h-168zM516 761h-101l52 147h120z" />
    <glyph glyph-name="wacute" unicode="&#x1e83;" horiz-adv-x="825" 
d="M28 520h125l80 -386h10l110 386h119l110 -387h10l81 387h124l-124 -520h-148l-110 362h-4l-111 -362h-148zM360 579l57 155h113l-75 -155h-95z" />
    <glyph glyph-name="Wdieresis" unicode="&#x1e84;" horiz-adv-x="935" 
d="M350 765q-28 0 -46 16.5t-18 43.5t18 45t46 18q29 0 48 -18t19 -45t-19 -43.5t-48 -16.5zM580 765q-29 0 -47 16.5t-18 43.5t18 45t47 18t47.5 -18t18.5 -45t-18.5 -43.5t-47.5 -16.5zM16 700h134l109 -550h6l144 550h111l146 -550h5l114 550h134l-160 -700h-168
l-122 476h-7l-123 -476h-168z" />
    <glyph glyph-name="wdieresis" unicode="&#x1e85;" horiz-adv-x="825" 
d="M28 520h125l80 -386h10l110 386h119l110 -387h10l81 387h124l-124 -520h-148l-110 362h-4l-111 -362h-148zM515 606q-29 0 -46.5 17t-17.5 44t17.5 44.5t46.5 17.5t48 -17.5t19 -44.5t-19 -44t-48 -17zM306 606q-29 0 -47 17t-18 44t18 44.5t47 17.5q28 0 47 -17.5
t19 -44.5t-19 -44t-47 -17z" />
    <glyph glyph-name="Germandbls" unicode="&#x1e9e;" horiz-adv-x="715" 
d="M425 -11q-93 0 -158 45l71 103q19 -13 40 -20t46 -7q57 0 90.5 31t33.5 82t-32 81.5t-85 30.5q-22 0 -46 -5.5t-41 -15.5l-44 75l171 195h-121q-65 0 -105 -43.5t-40 -115.5v-425h-131v427q0 62 18.5 112t52 86t80.5 55.5t104 19.5h283v-100l-152 -169q5 0 9.5 0.5
t9.5 0.5q45 -2 82 -18t63.5 -44t40.5 -66t14 -84q0 -52 -18 -95t-51 -73t-80 -46.5t-105 -16.5z" />
    <glyph glyph-name="uni1EBC" unicode="&#x1ebc;" horiz-adv-x="580" 
d="M84 700h432v-116h-301v-175h281v-110h-281v-183h311v-116h-442v700zM100 839q20 33 53 51.5t71 18.5q23 0 45 -7t48 -18q20 -9 39 -15.5t39 -6.5q49 0 71 36l41 -58q-19 -33 -50.5 -51.5t-69.5 -18.5q-23 0 -44.5 7t-50.5 20q-21 9 -39.5 15t-37.5 6q-23 0 -43.5 -10
t-31.5 -27z" />
    <glyph glyph-name="uni1EBD" unicode="&#x1ebd;" 
d="M312 -9q-59 0 -108.5 19t-85 53t-55 82t-19.5 105v14q0 57 20 106t55.5 84t84.5 55t106 20h6q54 0 99.5 -18t78.5 -49.5t51.5 -75.5t18.5 -97v-67h-397v-1q7 -57 48.5 -91.5t104.5 -34.5h5q48 0 88.5 19t63.5 48l69 -75q-37 -45 -98.5 -70.5t-126.5 -25.5h-9zM446 305
q-4 56 -41 91.5t-94 35.5h-1q-54 0 -91.5 -34.5t-48.5 -92.5h276zM114 661q20 34 53 52t71 18q23 0 45 -7t48 -18q20 -9 38.5 -15.5t39.5 -6.5q23 0 41.5 9.5t29.5 26.5l41 -57q-20 -34 -51.5 -52t-68.5 -18q-23 0 -44.5 7t-50.5 19q-21 9 -40 15t-38 6q-23 0 -43 -10
t-31 -27z" />
    <glyph glyph-name="uni2010" unicode="&#x2010;" horiz-adv-x="453" 
d="M67 328h320v-103h-320v103z" />
    <glyph glyph-name="endash" unicode="&#x2013;" horiz-adv-x="643" 
d="M67 356h510v-92h-510v92z" />
    <glyph glyph-name="emdash" unicode="&#x2014;" horiz-adv-x="1133" 
d="M67 356h1000v-92h-1000v92z" />
    <glyph glyph-name="quoteleft" unicode="&#x2018;" horiz-adv-x="252" 
d="M157.007 419.043h-120.992l109.993 280.982h96.9941z" />
    <glyph glyph-name="quoteright" unicode="&#x2019;" horiz-adv-x="252" 
d="M115 700h121l-110 -281h-97z" />
    <glyph glyph-name="quotesinglbase" unicode="&#x201a;" horiz-adv-x="252" 
d="M97 157h119l-110 -282h-96z" />
    <glyph glyph-name="quotedblleft" unicode="&#x201c;" horiz-adv-x="437" 
d="M342.006 418.01h-118.993l109.993 281.982h95.9941zM156.018 418.01h-118.993l109.993 281.982h95.9941z" />
    <glyph glyph-name="quotedblright" unicode="&#x201d;" horiz-adv-x="437" 
d="M115 700h119l-110 -282h-96zM301 700h119l-110 -282h-96z" />
    <glyph glyph-name="quotedblbase" unicode="&#x201e;" horiz-adv-x="437" 
d="M95 157h119l-110 -282h-96zM281 157h119l-110 -282h-96z" />
    <glyph glyph-name="dagger" unicode="&#x2020;" horiz-adv-x="408" 
d="M152 417h-135v103h135v200h105v-200h135v-103h-135v-545h-105v545z" />
    <glyph glyph-name="daggerdbl" unicode="&#x2021;" horiz-adv-x="408" 
d="M151 150h-134v103h134v164h-134v103h134v200h107v-200h134v-103h-134v-164h134v-103h-134v-278h-107v278z" />
    <glyph glyph-name="bullet" unicode="&#x2022;" horiz-adv-x="258" 
d="M129 212q-37 0 -62 24t-25 58v5q0 34 25 57.5t62 23.5q36 0 62 -23.5t26 -57.5v-5q0 -34 -26 -58t-62 -24z" />
    <glyph glyph-name="ellipsis" unicode="&#x2026;" horiz-adv-x="700" 
d="M579 -12q-33 0 -56 21.5t-23 52.5v5q0 30 23 51.5t56 21.5q32 0 56 -21.5t24 -51.5v-5q0 -15 -6.5 -28.5t-17.5 -23.5t-25.5 -16t-30.5 -6zM121 -12q-33 0 -56 21.5t-23 52.5v5q0 30 23 51.5t56 21.5q32 0 56 -21.5t24 -51.5v-5q0 -15 -6.5 -28.5t-17.5 -23.5t-25.5 -16
t-30.5 -6zM350 -12q-33 0 -56 21.5t-23 52.5v5q0 30 23 51.5t56 21.5q32 0 56 -21.5t24 -51.5v-5q0 -15 -6.5 -28.5t-17.5 -23.5t-25.5 -16t-30.5 -6z" />
    <glyph glyph-name="perthousand" unicode="&#x2030;" horiz-adv-x="1213" 
d="M200 335q-36 0 -66 13.5t-51 37.5t-33 57t-12 71v14q0 39 12 71.5t33 56.5t51 37.5t66 13.5h13q36 0 66 -13.5t51.5 -37.5t33.5 -56.5t12 -71.5v-14q0 -38 -12 -71t-33.5 -57t-51.5 -37.5t-66 -13.5h-13zM623 702h138l-548 -703h-138zM208 431q30 0 49 25t19 62v6
q0 38 -19 62.5t-49 24.5h-3q-30 0 -49 -24.5t-19 -62.5v-6q0 -37 19 -62t49 -25h3zM622 -9q-36 0 -66 13.5t-51.5 37.5t-33.5 56.5t-12 71.5v14q0 38 12 71t33.5 57t51.5 37.5t66 13.5h12q36 0 66 -13.5t51.5 -37.5t33.5 -57t12 -71v-14q0 -39 -12 -71.5t-33.5 -56.5
t-51.5 -37.5t-66 -13.5h-12zM630 87q30 0 48.5 24.5t18.5 62.5v6q0 37 -18.5 62t-48.5 25h-4q-30 0 -48.5 -25t-18.5 -62v-6q0 -38 18.5 -62.5t48.5 -24.5h4zM1000 -8q-36 0 -66 13.5t-51.5 37.5t-33.5 56.5t-12 71.5v14q0 38 12 71t33.5 57t51.5 37.5t66 13.5h12
q36 0 66 -13.5t51.5 -37.5t33.5 -57t12 -71v-14q0 -39 -12 -71.5t-33.5 -56.5t-51.5 -37.5t-66 -13.5h-12zM1008 88q30 0 48.5 24.5t18.5 62.5v6q0 37 -18.5 62t-48.5 25h-4q-30 0 -48.5 -25t-18.5 -62v-6q0 -38 18.5 -62.5t48.5 -24.5h4z" />
    <glyph glyph-name="minute" unicode="&#x2032;" horiz-adv-x="263" 
d="M112 700h119l-97 -270h-87z" />
    <glyph glyph-name="second" unicode="&#x2033;" horiz-adv-x="452" 
d="M112 700h119l-97 -270h-87zM301 700h119l-97 -270h-87z" />
    <glyph glyph-name="guilsinglleft" unicode="&#x2039;" horiz-adv-x="383" 
d="M49 270v8l155 200h130l-154 -199v-10l154 -199h-130z" />
    <glyph glyph-name="guilsinglright" unicode="&#x203a;" horiz-adv-x="383" 
d="M334.003 270v8l-154.99 200h-129.992l153.99 -199v-10l-153.99 -199h129.992z" />
    <glyph glyph-name="fraction" unicode="&#x2044;" horiz-adv-x="325" 
d="M184 720h120l-163 -831h-120z" />
    <glyph glyph-name="Euro" unicode="&#x20ac;" horiz-adv-x="640" 
d="M379 -11q-109 0 -182 63t-99 175h-79v93h67v20v20v18h-67v93h79q13 55 39 99.5t62.5 75.5t82.5 48t100 17q70 0 126 -27t94 -78l-91 -79q-23 32 -57.5 49.5t-73.5 17.5q-55 0 -94 -32.5t-56 -90.5h227v-93h-241q-1 -5 -1 -9v-9v-20v-10t1 -10h241v-93h-226
q17 -57 55.5 -89t91.5 -32q42 0 79.5 18.5t62.5 50.5l96 -73q-41 -54 -102 -83.5t-135 -29.5z" />
    <glyph glyph-name="uni20B4" unicode="&#x20b4;" horiz-adv-x="613" 
d="M19 471h374q13 16 13 36q-2 40 -29.5 63.5t-74.5 23.5q-37 0 -77 -15t-72 -41l-56 96q43 37 97 57t114 20q50 0 91 -13t70 -37t45 -57.5t16 -74.5q0 -31 -11 -58h75v-94h-575v94zM317 -11q-54 0 -99 13.5t-76.5 38.5t-49 59.5t-17.5 76.5q0 26 8 50h-64v94h575v-94h-388
q-6 -13 -6 -32q0 -41 32 -65t88 -24q47 0 91.5 17t76.5 47l63 -99q-42 -38 -104 -60t-130 -22z" />
    <glyph glyph-name="uni20B8" unicode="&#x20b8;" horiz-adv-x="555" 
d="M16 700h524v-92h-524v92zM212 460h-196v108h524v-108h-197v-460h-131v460z" />
    <glyph glyph-name="uni20BD" unicode="&#x20bd;" horiz-adv-x="626" 
d="M9 364h72v336h258q57 0 103.5 -15t79 -42.5t50.5 -66t18 -86.5v-6q0 -48 -17.5 -87.5t-50.5 -67.5t-79 -43t-103 -15h-128v-68h236v-93h-236v-110h-131v110h-72v93h72v68h-72v93zM330 364q63 0 95.5 30.5t32.5 79.5v6q0 48 -31.5 76.5t-93.5 28.5h-121v-221h118z" />
    <glyph glyph-name="uni2116" unicode="&#x2116;" horiz-adv-x="1002" 
d="M830 438q-57 0 -93 35.5t-36 95.5v6q0 59 36 94.5t93 35.5h13q57 0 92.5 -35.5t35.5 -94.5v-6q0 -60 -35.5 -95.5t-92.5 -35.5h-13zM84 700h149l269 -497h5v497h125v-700h-134l-282 517h-7v-517h-125v700zM840 511q23 0 37.5 15.5t14.5 42.5v6q0 27 -14.5 42t-37.5 15h-5
q-24 0 -39.5 -15t-15.5 -42v-6q0 -27 15.5 -42.5t39.5 -15.5h5zM718 390h236v-78h-236v78z" />
    <glyph glyph-name="trademark" unicode="&#x2122;" horiz-adv-x="621" 
d="M269 700h119l34 -121h6l33 121h119v-245h-74v170h-7l-39 -128h-71l-39 128h-7v-170h-74v245zM85 630h-73v70h221v-70h-74v-175h-74v175z" />
    <glyph glyph-name="estimated" unicode="&#x212e;" horiz-adv-x="806" 
d="M235 109q36 -25 78.5 -39t90.5 -14q41 0 78.5 11t70.5 30.5t60 47t46 60.5h76q-21 -48 -54.5 -88t-76.5 -68.5t-94 -44.5t-106 -16q-75 0 -141.5 28.5t-115.5 78t-77.5 115.5t-28.5 141t28.5 140.5t77.5 114.5t115.5 77.5t141.5 28.5t140.5 -28.5t114.5 -77t77.5 -114.5
t28.5 -141h-530v-242zM571 591q-36 26 -78 39.5t-89 13.5q-48 0 -90.5 -14t-78.5 -39v-172h336v172z" />
    <glyph glyph-name="partialdiff" unicode="&#x2202;" horiz-adv-x="603" 
d="M199 743q58 13 112 13q75 0 124.5 -23t79 -63.5t42 -97t12.5 -124.5q0 -42 -3.5 -86.5t-11.5 -88.5q-10 -61 -34.5 -113t-61.5 -89.5t-86.5 -58.5t-111.5 -21q-51 0 -92.5 16t-71 44.5t-45 69t-15.5 89.5q0 59 19.5 114t55 97t85.5 67.5t111 25.5q49 0 87.5 -22t61.5 -60
q0 52 -8 94.5t-29.5 72.5t-59 46.5t-96.5 16.5q-17 0 -36 -2.5t-39 -6.5zM273 89q38 0 66 18t47 46t28.5 62.5t9.5 67.5q0 61 -28 98t-79 37q-38 0 -66.5 -18t-47 -46.5t-28 -64t-9.5 -70.5q0 -60 28.5 -95t78.5 -35z" />
    <glyph glyph-name="uni2206" unicode="&#x2206;" horiz-adv-x="662" 
d="M245 700h172l246 -700h-665zM487 108l-152 461h-8l-153 -461h313z" />
    <glyph glyph-name="product" unicode="&#x220f;" horiz-adv-x="748" 
d="M32 700h664v-116h-66v-584h-132v584h-270v-584h-130v584h-66v116z" />
    <glyph glyph-name="summation" unicode="&#x2211;" horiz-adv-x="572" 
d="M209 120v-4h327v-116h-491v100l218 251l-218 249v100h491v-116h-327v-4l194 -229z" />
    <glyph glyph-name="minus" unicode="&#x2212;" horiz-adv-x="592" 
d="M46 377h500v-104h-500v104z" />
    <glyph glyph-name="radical" unicode="&#x221a;" horiz-adv-x="684" 
d="M144 415h-128v105h226l120 -383h9l168 563h135l-223 -700h-170z" />
    <glyph glyph-name="proportional" unicode="&#x221d;" horiz-adv-x="739" 
d="M679 168q-61 0 -119.5 28t-108.5 73q-50 -45 -108.5 -73t-119.5 -28q-34 0 -63.5 11.5t-51.5 32t-35 49.5t-13 64v10q0 35 13 64t35 49.5t51.5 32t63.5 11.5q61 0 119.5 -28t108.5 -73q50 45 108.5 73t119.5 28v-97q-18 0 -39 -4t-43.5 -12.5t-44 -20.5t-40.5 -28
q40 -32 86 -48.5t81 -16.5v-97zM170 328q0 -29 20 -46t55 -17q36 0 71.5 18t73.5 47q-38 29 -73.5 47t-71.5 18q-35 0 -55 -17t-20 -46v-4z" />
    <glyph glyph-name="infinity" unicode="&#x221e;" horiz-adv-x="902" 
d="M223 492q61 0 119.5 -28t108.5 -73q50 45 108.5 73t119.5 28q34 0 63.5 -11.5t51.5 -32t35 -49.5t13 -64v-10q0 -35 -13 -64t-35 -49.5t-51.5 -32t-63.5 -11.5q-61 0 -119.5 28t-108.5 73q-50 -45 -108.5 -73t-119.5 -28q-34 0 -63.5 11.5t-51.5 32t-35 49.5t-13 64v10
q0 35 13 64t35 49.5t51.5 32t63.5 11.5zM732 328v4q0 29 -20 46t-55 17q-36 0 -71.5 -18t-73.5 -47q38 -29 73.5 -47t71.5 -18q35 0 55 17t20 46zM170 328q0 -29 20 -46t55 -17q36 0 71.5 18t73.5 47q-38 29 -73.5 47t-71.5 18q-35 0 -55 -17t-20 -46v-4z" />
    <glyph glyph-name="integral" unicode="&#x222b;" horiz-adv-x="370" 
d="M67 -197q-23 0 -48.5 4t-47.5 14v104q22 -12 51 -12q33 0 46.5 17t18.5 62l54 553q8 82 45.5 127.5t110.5 45.5q26 0 53.5 -5t48.5 -15v-104q-30 15 -66 15q-35 0 -49.5 -17.5t-18.5 -59.5l-54 -562q-8 -81 -43 -124t-101 -43z" />
    <glyph glyph-name="approxequal" unicode="&#x2248;" horiz-adv-x="604" 
d="M56 353v104q30 26 60 36t59 10q33 0 66 -9t66 -20.5t65 -20.5t64 -9q29 0 56.5 10.5t55.5 36.5v-104q-29 -26 -57 -36t-57 -10q-33 0 -65.5 9.5t-65.5 21t-65.5 21t-64.5 9.5q-29 0 -58.5 -10.5t-58.5 -38.5zM56 170v104q30 26 60 36t59 10q33 0 66 -9t66 -20.5t65 -20.5
t64 -9q29 0 56.5 10.5t55.5 36.5v-104q-29 -26 -57 -36t-57 -10q-33 0 -65.5 9.5t-65.5 21t-65.5 21t-64.5 9.5q-29 0 -58.5 -10.5t-58.5 -38.5z" />
    <glyph glyph-name="notequal" unicode="&#x2260;" horiz-adv-x="592" 
d="M56 470h276l87 151h87l-87 -151h117v-103h-177l-47 -83h224v-104h-284l-86 -150h-87l86 150h-109v104h169l48 83h-217v103z" />
    <glyph glyph-name="lessequal" unicode="&#x2264;" horiz-adv-x="561" 
d="M53 323v93l455 206v-118l-313 -134v-2l313 -136v-116zM53 103h455v-103h-455v103z" />
    <glyph glyph-name="greaterequal" unicode="&#x2265;" horiz-adv-x="561" 
d="M508.003 323v93l-454.972 206v-118l312.98 -134v-2l-312.98 -136v-116zM508.003 103h-454.972v-103h454.972v103z" />
    <glyph glyph-name="A.ss01" horiz-adv-x="676" 
d="M14 0q0 85 25 176t66.5 181.5t95.5 177.5t112 165h148l189 -700h-139l-42 165h-294q-11 -42 -18 -83.5t-7 -81.5h-136zM441 275l-72 290h-14q-18 -28 -37 -62.5t-38.5 -72t-37.5 -77t-34 -78.5h233z" />
    <glyph glyph-name="Aacute.ss01" horiz-adv-x="661" 
d="M324 759l52 147h119l-71 -147h-100zM2 0q0 85 25 176t66.5 181.5t95.5 177.5t112 165h148l189 -700h-139l-42 165h-294q-11 -42 -18 -83.5t-7 -81.5h-136zM429 275l-72 290h-14q-18 -28 -37 -62.5t-38.5 -72t-37.5 -77t-34 -78.5h233z" />
    <glyph glyph-name="Abreve.ss01" horiz-adv-x="661" 
d="M373 759q-37 0 -68.5 10t-53.5 29t-34.5 45t-12.5 57h102q0 -27 18.5 -43t47.5 -16q28 0 45 16t16 43h102q1 -63 -43 -102t-119 -39zM2 0q0 85 25 176t66.5 181.5t95.5 177.5t112 165h148l189 -700h-139l-42 165h-294q-11 -42 -18 -83.5t-7 -81.5h-136zM429 275l-72 290
h-14q-18 -28 -37 -62.5t-38.5 -72t-37.5 -77t-34 -78.5h233z" />
    <glyph glyph-name="Acircumflex.ss01" horiz-adv-x="661" 
d="M302 900h140l127 -126h-119l-69 57h-18l-69 -57h-119zM2 0q0 85 25 176t66.5 181.5t95.5 177.5t112 165h148l189 -700h-139l-42 165h-294q-11 -42 -18 -83.5t-7 -81.5h-136zM429 275l-72 290h-14q-18 -28 -37 -62.5t-38.5 -72t-37.5 -77t-34 -78.5h233z" />
    <glyph glyph-name="Adieresis.ss01" horiz-adv-x="661" 
d="M252 765q-28 0 -46 16.5t-18 43.5t18 45t46 18q29 0 48 -18t19 -45t-19 -43.5t-48 -16.5zM482 765q-29 0 -46.5 16.5t-17.5 43.5t17.5 45t46.5 18t48 -18t19 -45t-19 -43.5t-48 -16.5zM2 0q0 85 25 176t66.5 181.5t95.5 177.5t112 165h148l189 -700h-139l-42 165h-294
q-11 -42 -18 -83.5t-7 -81.5h-136zM429 275l-72 290h-14q-18 -28 -37 -62.5t-38.5 -72t-37.5 -77t-34 -78.5h233z" />
    <glyph glyph-name="Agrave.ss01" horiz-adv-x="661" 
d="M245 906h121l57 -147h-105zM2 0q0 85 25 176t66.5 181.5t95.5 177.5t112 165h148l189 -700h-139l-42 165h-294q-11 -42 -18 -83.5t-7 -81.5h-136zM429 275l-72 290h-14q-18 -28 -37 -62.5t-38.5 -72t-37.5 -77t-34 -78.5h233z" />
    <glyph glyph-name="Amacron.ss01" horiz-adv-x="676" 
d="M14 0q0 85 25 176t66.5 181.5t95.5 177.5t112 165h148l189 -700h-139l-42 165h-294q-11 -42 -18 -83.5t-7 -81.5h-136zM441 275l-72 290h-14q-18 -28 -37 -62.5t-38.5 -72t-37.5 -77t-34 -78.5h233zM238 887h293v-88h-293v88z" />
    <glyph glyph-name="Aogonek.ss01" horiz-adv-x="676" 
d="M14 0q0 85 25 176t66.5 181.5t95.5 177.5t112 165h148l189 -700h-139l-42 165h-294q-11 -42 -18 -83.5t-7 -81.5h-136zM441 275l-72 290h-14q-18 -28 -37 -62.5t-38.5 -72t-37.5 -77t-34 -78.5h233zM608 -179q-42 0 -67 21.5t-24 58.5q0 37 23 72.5t63 62.5l47 -36
q-21 -19 -35.5 -41.5t-14.5 -42.5q0 -28 27 -28q6 0 11.5 2t10.5 4v-67q-19 -6 -41 -6z" />
    <glyph glyph-name="Aring.ss01" horiz-adv-x="676" 
d="M14 0q0 85 25 176t66.5 181.5t95.5 177.5t112 165h148l189 -700h-139l-42 165h-294q-11 -42 -18 -83.5t-7 -81.5h-136zM441 275l-72 290h-14q-18 -28 -37 -62.5t-38.5 -72t-37.5 -77t-34 -78.5h233zM384 741q-47 0 -77 26t-30 68q0 45 30 71.5t77 26.5q48 0 78 -27
t30 -71q0 -42 -30 -68t-78 -26zM384 798q19 0 31 10.5t12 27.5q0 18 -12 29.5t-31 11.5t-30.5 -11.5t-11.5 -29.5q0 -17 11.5 -27.5t30.5 -10.5z" />
    <glyph glyph-name="Atilde.ss01" horiz-adv-x="676" 
d="M14 0q0 85 25 176t66.5 181.5t95.5 177.5t112 165h148l189 -700h-139l-42 165h-294q-11 -42 -18 -83.5t-7 -81.5h-136zM441 275l-72 290h-14q-18 -28 -37 -62.5t-38.5 -72t-37.5 -77t-34 -78.5h233zM180 839q20 33 53 51.5t71 18.5q23 0 45 -7t48 -18q20 -9 39 -15.5
t39 -6.5q49 0 71 36l41 -58q-19 -33 -50.5 -51.5t-69.5 -18.5q-23 0 -44.5 7t-50.5 20q-21 9 -39.5 15t-37.5 6q-23 0 -43.5 -10t-31.5 -27z" />
    <glyph glyph-name="AE.ss01" horiz-adv-x="857" 
d="M14 0q0 87 25 179t66 182.5t94 177t109 161.5h486v-116h-275v-175h255v-110h-255v-183h285v-116h-416v173h-213q-11 -43 -18 -86.5t-7 -86.5h-136zM388 283v304h-23q-41 -66 -83 -144t-74 -160h180z" />
    <glyph glyph-name="G.ss01" horiz-adv-x="759" 
d="M570 490q-28 51 -71 78t-103 27h-2q-49 0 -88.5 -18t-68 -50t-44 -76.5t-15.5 -98.5v-6q0 -54 15.5 -98t44 -75.5t69 -49t90.5 -17.5h2q40 0 72.5 9.5t56 25t36 36.5t12.5 45q0 51 -61 51q-9 0 -19.5 -1t-18.5 -3v105q17 4 36 5t34 1q74 0 115.5 -42.5t41.5 -125.5v-212
h-116v72q-31 -37 -83.5 -59.5t-115.5 -22.5h-10q-75 0 -137 26.5t-107 74t-69.5 113.5t-24.5 144v5q0 78 26.5 143.5t73.5 113t111.5 74.5t141.5 27h5q91 0 160.5 -41.5t116.5 -112.5z" />
    <glyph glyph-name="uni01F4.ss01" horiz-adv-x="759" 
d="M570 490q-28 51 -71 78t-103 27h-2q-49 0 -88.5 -18t-68 -50t-44 -76.5t-15.5 -98.5v-6q0 -54 15.5 -98t44 -75.5t69 -49t90.5 -17.5h2q40 0 72.5 9.5t56 25t36 36.5t12.5 45q0 51 -61 51q-9 0 -19.5 -1t-18.5 -3v105q17 4 36 5t34 1q74 0 115.5 -42.5t41.5 -125.5v-212
h-116v72q-31 -37 -83.5 -59.5t-115.5 -22.5h-10q-75 0 -137 26.5t-107 74t-69.5 113.5t-24.5 144v5q0 78 26.5 143.5t73.5 113t111.5 74.5t141.5 27h5q91 0 160.5 -41.5t116.5 -112.5zM448 761h-101l52 147h120z" />
    <glyph glyph-name="Gbreve.ss01" horiz-adv-x="759" 
d="M570 490q-28 51 -71 78t-103 27h-2q-49 0 -88.5 -18t-68 -50t-44 -76.5t-15.5 -98.5v-6q0 -54 15.5 -98t44 -75.5t69 -49t90.5 -17.5h2q40 0 72.5 9.5t56 25t36 36.5t12.5 45q0 51 -61 51q-9 0 -19.5 -1t-18.5 -3v105q17 4 36 5t34 1q74 0 115.5 -42.5t41.5 -125.5v-212
h-116v72q-31 -37 -83.5 -59.5t-115.5 -22.5h-10q-75 0 -137 26.5t-107 74t-69.5 113.5t-24.5 144v5q0 78 26.5 143.5t73.5 113t111.5 74.5t141.5 27h5q91 0 160.5 -41.5t116.5 -112.5zM331 899q0 -28 19 -44.5t49 -16.5t48.5 17t18.5 44h103q0 -65 -46.5 -104.5
t-124.5 -39.5t-124 39.5t-46 104.5h103z" />
    <glyph glyph-name="Gcircumflex.ss01" horiz-adv-x="759" 
d="M570 490q-28 51 -71 78t-103 27h-2q-49 0 -88.5 -18t-68 -50t-44 -76.5t-15.5 -98.5v-6q0 -54 15.5 -98t44 -75.5t69 -49t90.5 -17.5h2q40 0 72.5 9.5t56 25t36 36.5t12.5 45q0 51 -61 51q-9 0 -19.5 -1t-18.5 -3v105q17 4 36 5t34 1q74 0 115.5 -42.5t41.5 -125.5v-212
h-116v72q-31 -37 -83.5 -59.5t-115.5 -22.5h-10q-75 0 -137 26.5t-107 74t-69.5 113.5t-24.5 144v5q0 78 26.5 143.5t73.5 113t111.5 74.5t141.5 27h5q91 0 160.5 -41.5t116.5 -112.5zM328 900h140l127 -126h-119l-69 57h-18l-69 -57h-119z" />
    <glyph glyph-name="uni0122.ss01" horiz-adv-x="759" 
d="M570 490q-28 51 -71 78t-103 27h-2q-49 0 -88.5 -18t-68 -50t-44 -76.5t-15.5 -98.5v-6q0 -54 15.5 -98t44 -75.5t69 -49t90.5 -17.5h2q40 0 72.5 9.5t56 25t36 36.5t12.5 45q0 51 -61 51q-9 0 -19.5 -1t-18.5 -3v105q17 4 36 5t34 1q74 0 115.5 -42.5t41.5 -125.5v-212
h-116v72q-31 -37 -83.5 -59.5t-115.5 -22.5h-10q-75 0 -137 26.5t-107 74t-69.5 113.5t-24.5 144v5q0 78 26.5 143.5t73.5 113t111.5 74.5t141.5 27h5q91 0 160.5 -41.5t116.5 -112.5zM328 -44h108l-64 -151h-81z" />
    <glyph glyph-name="Gdotaccent.ss01" horiz-adv-x="759" 
d="M570 490q-28 51 -71 78t-103 27h-2q-49 0 -88.5 -18t-68 -50t-44 -76.5t-15.5 -98.5v-6q0 -54 15.5 -98t44 -75.5t69 -49t90.5 -17.5h2q40 0 72.5 9.5t56 25t36 36.5t12.5 45q0 51 -61 51q-9 0 -19.5 -1t-18.5 -3v105q17 4 36 5t34 1q74 0 115.5 -42.5t41.5 -125.5v-212
h-116v72q-31 -37 -83.5 -59.5t-115.5 -22.5h-10q-75 0 -137 26.5t-107 74t-69.5 113.5t-24.5 144v5q0 78 26.5 143.5t73.5 113t111.5 74.5t141.5 27h5q91 0 160.5 -41.5t116.5 -112.5zM397 776q-32 0 -52 18.5t-20 47.5t20 48t52 19q33 0 54 -19t21 -48t-21 -47.5t-54 -18.5
z" />
    <glyph glyph-name="J.ss01" horiz-adv-x="350" 
d="M90 -150q-29 0 -54 5t-48 14v122q17 -10 33.5 -15.5t36.5 -5.5q42 0 60 23.5t18 68.5v638h131v-651q0 -98 -46 -148.5t-131 -50.5z" />
    <glyph glyph-name="Jcircumflex.ss01" horiz-adv-x="350" 
d="M90 -150q-29 0 -54 5t-48 14v122q17 -10 33.5 -15.5t36.5 -5.5q42 0 60 23.5t18 68.5v638h131v-651q0 -98 -46 -148.5t-131 -50.5zM132 897h140l127 -126h-119l-69 57h-18l-69 -57h-119z" />
    <glyph glyph-name="K.ss01" horiz-adv-x="669" 
d="M84 700h132v-298h6q44 24 84.5 55t75 68.5t61 81.5t42.5 93h140q-23 -61 -54 -111t-66.5 -90.5t-75 -72t-80.5 -55.5l315 -371h-162l-280 337h-6v-337h-132v700z" />
    <glyph glyph-name="uni0136.ss01" horiz-adv-x="669" 
d="M84 700h132v-298h6q44 24 84.5 55t75 68.5t61 81.5t42.5 93h140q-23 -61 -54 -111t-66.5 -90.5t-75 -72t-80.5 -55.5l315 -371h-162l-280 337h-6v-337h-132v700zM299 -38h108l-64 -151h-81z" />
    <glyph glyph-name="M.ss01" horiz-adv-x="899" 
d="M59 0q0 96 10 194t28 189.5t43 172.5t54 144h134l113 -433h7l190 433h177v-700h-131v535h-6l-197 -440h-101l-119 440h-6q-13 -33 -25 -89t-20.5 -127t-13 -153t-3.5 -166h-134z" />
    <glyph glyph-name="N.ss01" horiz-adv-x="733" 
d="M76 0q-1 96 0 194t5 189.5t10.5 172.5t14.5 144h131l276 -497h8v497h127v-700h-133l-294 526h-8q-5 -61 -7.5 -127.5t-2.5 -134t2 -134.5t5 -130h-134z" />
    <glyph glyph-name="Nacute.ss01" horiz-adv-x="733" 
d="M76 0q-1 96 0 194t5 189.5t10.5 172.5t14.5 144h131l276 -497h8v497h127v-700h-133l-294 526h-8q-5 -61 -7.5 -127.5t-2.5 -134t2 -134.5t5 -130h-134zM412 761h-101l52 147h120z" />
    <glyph glyph-name="Ncaron.ss01" horiz-adv-x="733" 
d="M76 0q-1 96 0 194t5 189.5t10.5 172.5t14.5 144h131l276 -497h8v497h127v-700h-133l-294 526h-8q-5 -61 -7.5 -127.5t-2.5 -134t2 -134.5t5 -130h-134zM165 900h119l69 -57h18l69 57h119l-127 -126h-140z" />
    <glyph glyph-name="uni0145.ss01" horiz-adv-x="733" 
d="M76 0q-1 96 0 194t5 189.5t10.5 172.5t14.5 144h131l276 -497h8v497h127v-700h-133l-294 526h-8q-5 -61 -7.5 -127.5t-2.5 -134t2 -134.5t5 -130h-134zM315 -38h108l-64 -151h-81z" />
    <glyph glyph-name="Eng.ss01" horiz-adv-x="751" 
d="M468 -197q-57 0 -105 17v124q15 -10 34 -16t42 -6q48 0 72 23.5t24 63.5v5l-313 500h-9q-9 -125 -9.5 -256.5t6.5 -257.5h-134q-1 96 0.5 194t5.5 189.5t10.5 172.5t14.5 144h138l283 -455h9v455h130v-700q0 -95 -52 -146t-147 -51z" />
    <glyph glyph-name="Ntilde.ss01" horiz-adv-x="733" 
d="M76 0q-1 96 0 194t5 189.5t10.5 172.5t14.5 144h131l276 -497h8v497h127v-700h-133l-294 526h-8q-5 -61 -7.5 -127.5t-2.5 -134t2 -134.5t5 -130h-134zM157 839q20 33 53 51.5t71 18.5q23 0 45 -7t48 -18q20 -9 39 -15.5t39 -6.5q49 0 71 36l41 -58q-19 -33 -50.5 -51.5
t-69.5 -18.5q-23 0 -44.5 7t-50.5 20q-21 9 -39.5 15t-37.5 6q-23 0 -43.5 -10t-31.5 -27z" />
    <glyph glyph-name="Q.ss01" horiz-adv-x="793" 
d="M587 -116q-48 0 -87.5 16t-72 35.5t-59.5 35.5t-51 16q-21 0 -33 -13.5t-12 -39.5l-112 24q0 31 10 57.5t29 45.5t45 30t57 11q15 0 29.5 -2.5t28.5 -5.5q54 0 99 19t76.5 53.5t49 82t17.5 103.5v3q0 53 -15.5 97t-43 76t-66 49.5t-84.5 17.5h-5q-46 0 -85 -17.5t-67 -49
t-43.5 -74.5t-15.5 -94v-2q0 -63 25 -116t68 -83l-95 -84q-63 50 -98 123.5t-35 159.5v3q0 76 25.5 140.5t71.5 111t109.5 73t138.5 26.5h6q75 0 138.5 -26.5t109.5 -73.5t72 -111t26 -139v-3q0 -61 -17.5 -115.5t-48 -98.5t-73.5 -76t-94 -47q19 -11 37 -17.5t36 -6.5
q30 0 42 16.5t12 34.5l112 -24q0 -30 -10.5 -55.5t-31 -44.5t-49.5 -30t-66 -11z" />
    <glyph glyph-name="V.ss01" horiz-adv-x="658" 
d="M7 700h140l148 -570h14q28 52 58.5 120.5t56.5 144.5t43.5 154.5t20.5 150.5h137q-7 -93 -32 -187.5t-60 -185t-77 -174t-83 -153.5h-173z" />
    <glyph glyph-name="W.ss01" horiz-adv-x="982" 
d="M19 700h140l110 -569h10q24 53 49.5 123t47 146t36 153.5t17.5 146.5h131l129 -569h10q21 52 44.5 121t43.5 145.5t33.5 154.5t16.5 148h137q-7 -90 -28.5 -184.5t-50.5 -185.5t-63.5 -175.5t-69.5 -154.5h-157l-105 458h-7q-23 -109 -66.5 -227t-92.5 -231h-160z" />
    <glyph glyph-name="Wacute.ss01" horiz-adv-x="982" 
d="M19 700h140l110 -569h10q24 53 49.5 123t47 146t36 153.5t17.5 146.5h131l129 -569h10q21 52 44.5 121t43.5 145.5t33.5 154.5t16.5 148h137q-7 -90 -28.5 -184.5t-50.5 -185.5t-63.5 -175.5t-69.5 -154.5h-157l-105 458h-7q-23 -109 -66.5 -227t-92.5 -231h-160z
M548 761h-101l52 147h120z" />
    <glyph glyph-name="Wcircumflex.ss01" horiz-adv-x="982" 
d="M19 700h140l110 -569h10q24 53 49.5 123t47 146t36 153.5t17.5 146.5h131l129 -569h10q21 52 44.5 121t43.5 145.5t33.5 154.5t16.5 148h137q-7 -90 -28.5 -184.5t-50.5 -185.5t-63.5 -175.5t-69.5 -154.5h-157l-105 458h-7q-23 -109 -66.5 -227t-92.5 -231h-160z
M427 900h140l127 -126h-119l-69 57h-18l-69 -57h-119z" />
    <glyph glyph-name="Wdieresis.ss01" horiz-adv-x="982" 
d="M19 700h140l110 -569h10q24 53 49.5 123t47 146t36 153.5t17.5 146.5h131l129 -569h10q21 52 44.5 121t43.5 145.5t33.5 154.5t16.5 148h137q-7 -90 -28.5 -184.5t-50.5 -185.5t-63.5 -175.5t-69.5 -154.5h-157l-105 458h-7q-23 -109 -66.5 -227t-92.5 -231h-160z
M405 763q-26 0 -43 16.5t-17 44.5t17 46t43 18t44.5 -18t18.5 -46t-18.5 -44.5t-44.5 -16.5zM587 763q-27 0 -44 16.5t-17 44.5t17 46t44 18q26 0 44 -18t18 -46t-18 -44.5t-44 -16.5z" />
    <glyph glyph-name="Wgrave.ss01" horiz-adv-x="982" 
d="M19 700h140l110 -569h10q24 53 49.5 123t47 146t36 153.5t17.5 146.5h131l129 -569h10q21 52 44.5 121t43.5 145.5t33.5 154.5t16.5 148h137q-7 -90 -28.5 -184.5t-50.5 -185.5t-63.5 -175.5t-69.5 -154.5h-157l-105 458h-7q-23 -109 -66.5 -227t-92.5 -231h-160z
M370 906h121l56 -147h-104z" />
    <glyph glyph-name="X.ss01" horiz-adv-x="636" 
d="M10 0q18 56 40.5 105t50 92.5t59 83.5t66.5 79v5l-207 335h151l151 -256q24 29 47 60.5t41.5 64.5t32 66t19.5 65h147q-29 -96 -83 -178t-120 -157v-4l221 -361h-151l-162 284q-24 -29 -48 -62.5t-44 -70t-35.5 -74.5t-23.5 -77h-152z" />
    <glyph glyph-name="Y.ss01" horiz-adv-x="634" 
d="M248 272l-245 428h150l164 -310h8q24 30 47.5 66.5t43.5 77t34 83t20 83.5h150q-18 -64 -42.5 -120t-54.5 -108t-66 -101t-78 -98v-273h-131v272z" />
    <glyph glyph-name="Yacute.ss01" horiz-adv-x="634" 
d="M248 272l-245 428h150l164 -310h8q24 30 47.5 66.5t43.5 77t34 83t20 83.5h150q-18 -64 -42.5 -120t-54.5 -108t-66 -101t-78 -98v-273h-131v272zM367 758h-101l52 147h120z" />
    <glyph glyph-name="Ycircumflex.ss01" horiz-adv-x="634" 
d="M248 272l-245 428h150l164 -310h8q24 30 47.5 66.5t43.5 77t34 83t20 83.5h150q-18 -64 -42.5 -120t-54.5 -108t-66 -101t-78 -98v-273h-131v272zM247 897h140l127 -126h-119l-69 57h-18l-69 -57h-119z" />
    <glyph glyph-name="Ydieresis.ss01" horiz-adv-x="634" 
d="M231 763q-26 0 -43.5 16.5t-17.5 44.5t17.5 46t43.5 18t44 -18t18 -46t-18 -44.5t-44 -16.5zM412 763q-26 0 -43 16.5t-17 44.5t17 46t43 18q27 0 45 -18t18 -46t-18 -44.5t-45 -16.5zM248 272l-245 428h150l164 -310h8q24 30 47.5 66.5t43.5 77t34 83t20 83.5h150
q-18 -64 -42.5 -120t-54.5 -108t-66 -101t-78 -98v-273h-131v272z" />
    <glyph glyph-name="Z.ss01" horiz-adv-x="601" 
d="M446 -43q-47 0 -85.5 13t-71 28.5t-60 28.5t-51.5 13q-23 0 -35 -11t-12 -38l-112 29q3 59 38 92l332 472h-330v116h491v-102l-321 -456q32 -6 60.5 -17.5t54.5 -23t49.5 -19.5t45.5 -8q32 0 45 16t13 34l113 -24q0 -30 -11 -56t-32 -45.5t-51.5 -30.5t-69.5 -11z" />
    <glyph glyph-name="Zacute.ss01" horiz-adv-x="601" 
d="M446 -43q-47 0 -85.5 13t-71 28.5t-60 28.5t-51.5 13q-23 0 -35 -11t-12 -38l-112 29q3 59 38 92l332 472h-330v116h491v-102l-321 -456q32 -6 60.5 -17.5t54.5 -23t49.5 -19.5t45.5 -8q32 0 45 16t13 34l113 -24q0 -30 -11 -56t-32 -45.5t-51.5 -30.5t-69.5 -11z
M343 759h-101l52 147h120z" />
    <glyph glyph-name="Zcaron.ss01" horiz-adv-x="601" 
d="M446 -43q-47 0 -85.5 13t-71 28.5t-60 28.5t-51.5 13q-23 0 -35 -11t-12 -38l-112 29q3 59 38 92l332 472h-330v116h491v-102l-321 -456q32 -6 60.5 -17.5t54.5 -23t49.5 -19.5t45.5 -8q32 0 45 16t13 34l113 -24q0 -30 -11 -56t-32 -45.5t-51.5 -30.5t-69.5 -11zM96 898
h119l69 -57h18l69 57h119l-127 -126h-140z" />
    <glyph glyph-name="Zdotaccent.ss01" horiz-adv-x="601" 
d="M446 -43q-47 0 -85.5 13t-71 28.5t-60 28.5t-51.5 13q-23 0 -35 -11t-12 -38l-112 29q3 59 38 92l332 472h-330v116h491v-102l-321 -456q32 -6 60.5 -17.5t54.5 -23t49.5 -19.5t45.5 -8q32 0 45 16t13 34l113 -24q0 -30 -11 -56t-32 -45.5t-51.5 -30.5t-69.5 -11z
M291 774q-32 0 -52 18.5t-20 47.5t20 48t52 19q33 0 54 -19t21 -48t-21 -47.5t-54 -18.5z" />
    <glyph glyph-name="a.ss01" horiz-adv-x="638" 
d="M264 -8q-53 0 -94 19.5t-69 53.5t-42.5 79t-14.5 96v12q0 56 18 106t53.5 88t88 60.5t121.5 22.5h7q63 0 124 -21.5t111 -62.5v-445h-98q-5 16 -10 40.5t-6 42.5v10q-28 -45 -73.5 -73t-108.5 -28h-7zM300 96q32 0 59 12.5t46 34.5t29.5 51.5t10.5 63.5v140
q-22 17 -49.5 25t-55.5 8h-4q-41 0 -71.5 -14t-51 -38t-31 -56t-10.5 -67v-6q0 -38 10 -67t26.5 -48.5t39 -29t47.5 -9.5h5z" />
    <glyph glyph-name="aacute.ss01" horiz-adv-x="638" 
d="M264 -8q-53 0 -94 19.5t-69 53.5t-42.5 79t-14.5 96v12q0 56 18 106t53.5 88t88 60.5t121.5 22.5h7q63 0 124 -21.5t111 -62.5v-445h-98q-5 16 -10 40.5t-6 42.5v10q-28 -45 -73.5 -73t-108.5 -28h-7zM300 96q32 0 59 12.5t46 34.5t29.5 51.5t10.5 63.5v140
q-22 17 -49.5 25t-55.5 8h-4q-41 0 -71.5 -14t-51 -38t-31 -56t-10.5 -67v-6q0 -38 10 -67t26.5 -48.5t39 -29t47.5 -9.5h5zM278 579l57 155h113l-75 -155h-95z" />
    <glyph glyph-name="abreve.ss01" horiz-adv-x="638" 
d="M264 -8q-53 0 -94 19.5t-69 53.5t-42.5 79t-14.5 96v12q0 56 18 106t53.5 88t88 60.5t121.5 22.5h7q63 0 124 -21.5t111 -62.5v-445h-98q-5 16 -10 40.5t-6 42.5v10q-28 -45 -73.5 -73t-108.5 -28h-7zM300 96q32 0 59 12.5t46 34.5t29.5 51.5t10.5 63.5v140
q-22 17 -49.5 25t-55.5 8h-4q-41 0 -71.5 -14t-51 -38t-31 -56t-10.5 -67v-6q0 -38 10 -67t26.5 -48.5t39 -29t47.5 -9.5h5zM262 720q0 -28 19 -44.5t49 -16.5q29 0 47.5 17t18.5 44h104q0 -32 -12 -58.5t-34.5 -45.5t-54.5 -29.5t-71 -10.5q-78 0 -124 39.5t-46 104.5h104z
" />
    <glyph glyph-name="acircumflex.ss01" horiz-adv-x="638" 
d="M264 -8q-53 0 -94 19.5t-69 53.5t-42.5 79t-14.5 96v12q0 56 18 106t53.5 88t88 60.5t121.5 22.5h7q63 0 124 -21.5t111 -62.5v-445h-98q-5 16 -10 40.5t-6 42.5v10q-28 -45 -73.5 -73t-108.5 -28h-7zM300 96q32 0 59 12.5t46 34.5t29.5 51.5t10.5 63.5v140
q-22 17 -49.5 25t-55.5 8h-4q-41 0 -71.5 -14t-51 -38t-31 -56t-10.5 -67v-6q0 -38 10 -67t26.5 -48.5t39 -29t47.5 -9.5h5zM411 592l-72 59h-18l-72 -59h-117l128 128h140l128 -128h-117z" />
    <glyph glyph-name="adieresis.ss01" horiz-adv-x="638" 
d="M264 -8q-53 0 -94 19.5t-69 53.5t-42.5 79t-14.5 96v12q0 56 18 106t53.5 88t88 60.5t121.5 22.5h7q63 0 124 -21.5t111 -62.5v-445h-98q-5 16 -10 40.5t-6 42.5v10q-28 -45 -73.5 -73t-108.5 -28h-7zM300 96q32 0 59 12.5t46 34.5t29.5 51.5t10.5 63.5v140
q-22 17 -49.5 25t-55.5 8h-4q-41 0 -71.5 -14t-51 -38t-31 -56t-10.5 -67v-6q0 -38 10 -67t26.5 -48.5t39 -29t47.5 -9.5h5zM433 609q-29 0 -46.5 17t-17.5 44t17.5 44.5t46.5 17.5t48 -17.5t19 -44.5t-19 -44t-48 -17zM224 609q-29 0 -47 17t-18 44t18 44.5t47 17.5
q28 0 47 -17.5t19 -44.5t-19 -44t-47 -17z" />
    <glyph glyph-name="agrave.ss01" horiz-adv-x="638" 
d="M264 -8q-53 0 -94 19.5t-69 53.5t-42.5 79t-14.5 96v12q0 56 18 106t53.5 88t88 60.5t121.5 22.5h7q63 0 124 -21.5t111 -62.5v-445h-98q-5 16 -10 40.5t-6 42.5v10q-28 -45 -73.5 -73t-108.5 -28h-7zM300 96q32 0 59 12.5t46 34.5t29.5 51.5t10.5 63.5v140
q-22 17 -49.5 25t-55.5 8h-4q-41 0 -71.5 -14t-51 -38t-31 -56t-10.5 -67v-6q0 -38 10 -67t26.5 -48.5t39 -29t47.5 -9.5h5zM209 735h114l56 -154h-94z" />
    <glyph glyph-name="amacron.ss01" horiz-adv-x="638" 
d="M264 -8q-53 0 -94 19.5t-69 53.5t-42.5 79t-14.5 96v12q0 56 18 106t53.5 88t88 60.5t121.5 22.5h7q63 0 124 -21.5t111 -62.5v-445h-98q-5 16 -10 40.5t-6 42.5v10q-28 -45 -73.5 -73t-108.5 -28h-7zM300 96q32 0 59 12.5t46 34.5t29.5 51.5t10.5 63.5v140
q-22 17 -49.5 25t-55.5 8h-4q-41 0 -71.5 -14t-51 -38t-31 -56t-10.5 -67v-6q0 -38 10 -67t26.5 -48.5t39 -29t47.5 -9.5h5zM183 717h293v-92h-293v92z" />
    <glyph glyph-name="aogonek.ss01" horiz-adv-x="638" 
d="M264 -8q-53 0 -94 19.5t-69 53.5t-42.5 79t-14.5 96v12q0 56 18 106t53.5 88t88 60.5t121.5 22.5h7q63 0 124 -21.5t111 -62.5v-445h-98q-5 16 -10 40.5t-6 42.5v10q-28 -45 -73.5 -73t-108.5 -28h-7zM300 96q32 0 59 12.5t46 34.5t29.5 51.5t10.5 63.5v140
q-22 17 -49.5 25t-55.5 8h-4q-41 0 -71.5 -14t-51 -38t-31 -56t-10.5 -67v-6q0 -38 10 -67t26.5 -48.5t39 -29t47.5 -9.5h5zM526 -179q-42 0 -67 21.5t-24 58.5q0 37 23 72.5t63 62.5l47 -36q-21 -19 -35.5 -41.5t-14.5 -42.5q0 -28 27 -28q6 0 11.5 2t10.5 4v-67
q-19 -6 -41 -6z" />
    <glyph glyph-name="aring.ss01" horiz-adv-x="638" 
d="M264 -8q-53 0 -94 19.5t-69 53.5t-42.5 79t-14.5 96v12q0 56 18 106t53.5 88t88 60.5t121.5 22.5h7q63 0 124 -21.5t111 -62.5v-445h-98q-5 16 -10 40.5t-6 42.5v10q-28 -45 -73.5 -73t-108.5 -28h-7zM300 96q32 0 59 12.5t46 34.5t29.5 51.5t10.5 63.5v140
q-22 17 -49.5 25t-55.5 8h-4q-41 0 -71.5 -14t-51 -38t-31 -56t-10.5 -67v-6q0 -38 10 -67t26.5 -48.5t39 -29t47.5 -9.5h5zM331 575q-46 0 -75.5 25.5t-29.5 66.5q0 43 29.5 69.5t75.5 26.5q45 0 74.5 -26.5t29.5 -69.5q0 -41 -29 -66.5t-75 -25.5zM331 631q18 0 29 10.5
t11 26.5q0 17 -11 28t-29 11q-19 0 -30 -11t-11 -28q0 -16 11 -26.5t30 -10.5z" />
    <glyph glyph-name="atilde.ss01" horiz-adv-x="638" 
d="M264 -8q-53 0 -94 19.5t-69 53.5t-42.5 79t-14.5 96v12q0 56 18 106t53.5 88t88 60.5t121.5 22.5h7q63 0 124 -21.5t111 -62.5v-445h-98q-5 16 -10 40.5t-6 42.5v10q-28 -45 -73.5 -73t-108.5 -28h-7zM300 96q32 0 59 12.5t46 34.5t29.5 51.5t10.5 63.5v140
q-22 17 -49.5 25t-55.5 8h-4q-41 0 -71.5 -14t-51 -38t-31 -56t-10.5 -67v-6q0 -38 10 -67t26.5 -48.5t39 -29t47.5 -9.5h5zM126 661q20 34 53 52t71 18q23 0 45 -7t48 -18q20 -9 38.5 -15.5t39.5 -6.5q23 0 41.5 9.5t29.5 26.5l41 -57q-20 -34 -51.5 -52t-68.5 -18
q-23 0 -44.5 7t-50.5 19q-21 9 -40 15t-38 6q-23 0 -43 -10t-31 -27z" />
    <glyph glyph-name="ae.ss01" horiz-adv-x="899" 
d="M620 -10q-60 0 -111 25t-85 69q-40 -45 -94 -69t-113 -24q-40 0 -73 11.5t-56.5 31.5t-36.5 48.5t-13 62.5q0 82 73 124t217 42h41v37q-1 35 -24 56t-69 21q-38 0 -82.5 -14t-81.5 -38l-48 91q49 32 105 48.5t109 16.5q56 0 97 -18.5t66 -53.5q33 34 78.5 52.5t99.5 18.5
h12q46 0 87 -13.5t71.5 -36.5t48 -55t17.5 -70q0 -65 -47.5 -98t-147.5 -33h-178q5 -29 18 -52t32.5 -39t44 -24.5t51.5 -8.5h11q44 0 79 17t61 47l73 -71q-34 -46 -92.5 -73.5t-126.5 -27.5h-13zM656 306q45 0 61.5 14.5t16.5 40.5q0 28 -29.5 49.5t-76.5 21.5h-4
q-54 0 -92.5 -35t-48.5 -91h173zM337 230q-179 0 -179 -76q0 -29 23 -46t62 -17q41 0 78.5 20t59.5 55q-10 32 -11 64h-33z" />
    <glyph glyph-name="b.ss01" horiz-adv-x="640" 
d="M194 720v-275q30 41 73 63t100 22h7q53 0 94 -19.5t69 -53.5t42 -79.5t14 -96.5v-11q0 -56 -18 -106.5t-53.5 -89t-88 -61t-121.5 -22.5h-7q-63 0 -123.5 22t-111.5 64v643h124zM193 123q22 -17 50 -25.5t55 -8.5h4q41 0 71.5 14.5t51 38.5t30.5 56t10 67v6q0 38 -10 67
t-26.5 48.5t-39 29.5t-47.5 10h-5q-32 0 -58.5 -13t-45.5 -35t-29.5 -51.5t-10.5 -63.5v-140z" />
    <glyph glyph-name="d.ss01" horiz-adv-x="649" 
d="M269 -8q-53 0 -93.5 19.5t-68.5 53t-42 79t-14 96.5v11q0 56 18 106.5t53 88.5t87 60.5t121 22.5h7q55 0 113 -21v212h124v-720h-98q-6 16 -10.5 41t-5.5 43v10q-29 -46 -75 -74t-109 -28h-7zM307 96q32 0 59 12.5t46 34.5t29.5 51.5t10.5 63.5v140q-23 17 -50.5 25
t-54.5 8h-4q-41 0 -71.5 -14t-51 -38t-31 -56t-10.5 -67v-6q0 -38 10 -67t26.5 -48.5t39 -29t47.5 -9.5h5z" />
    <glyph glyph-name="dcaron.ss01" horiz-adv-x="676" 
d="M269 -8q-53 0 -93.5 19.5t-68.5 53t-42 79t-14 96.5v11q0 56 18 106.5t53 88.5t87 60.5t121 22.5h7q55 0 113 -21v212h124v-720h-98q-6 16 -10.5 41t-5.5 43v10q-29 -46 -75 -74t-109 -28h-7zM307 96q32 0 59 12.5t46 34.5t29.5 51.5t10.5 63.5v140q-23 17 -50.5 25
t-54.5 8h-4q-41 0 -71.5 -14t-51 -38t-31 -56t-10.5 -67v-6q0 -38 10 -67t26.5 -48.5t39 -29t47.5 -9.5h5zM649 720h107l-37 -166h-80z" />
    <glyph glyph-name="dcroat.ss01" horiz-adv-x="644" 
d="M269 -8q-53 0 -93.5 19.5t-68.5 53t-42 79t-14 96.5v11q0 56 18 106.5t53 88.5t87 60.5t121 22.5h7q55 0 113 -21v78h-146v82h146v52h124v-52h58v-85h-58v-583h-98q-6 16 -10.5 41t-5.5 43v10q-29 -46 -75 -74t-109 -28h-7zM307 96q32 0 59 12.5t46 34.5t29.5 51.5
t10.5 63.5v140q-23 17 -50.5 25t-54.5 8h-4q-41 0 -71.5 -14t-51 -38t-31 -56t-10.5 -67v-6q0 -38 10 -67t26.5 -48.5t39 -29t47.5 -9.5h5z" />
    <glyph glyph-name="e.ss01" horiz-adv-x="606" 
d="M315 -10q-58 0 -107 19t-84.5 53.5t-55.5 82t-20 103.5v15q0 57 20 105.5t56 84.5t85.5 56t107.5 20h12q48 0 90.5 -13.5t74 -37t50 -56t18.5 -70.5q0 -66 -50 -99.5t-155 -33.5h-183q9 -59 50.5 -91.5t98.5 -32.5h13q47 0 85.5 18t67.5 49l73 -71q-37 -45 -99 -73
t-134 -28h-14zM355 303q48 0 66 15t18 42q0 29 -31 50.5t-82 21.5h-4q-61 0 -100 -36t-48 -93h181z" />
    <glyph glyph-name="eacute.ss01" horiz-adv-x="606" 
d="M315 -10q-58 0 -107 19t-84.5 53.5t-55.5 82t-20 103.5v15q0 57 20 105.5t56 84.5t85.5 56t107.5 20h12q48 0 90.5 -13.5t74 -37t50 -56t18.5 -70.5q0 -66 -50 -99.5t-155 -33.5h-183q9 -59 50.5 -91.5t98.5 -32.5h13q47 0 85.5 18t67.5 49l73 -71q-37 -45 -99 -73
t-134 -28h-14zM355 303q48 0 66 15t18 42q0 29 -31 50.5t-82 21.5h-4q-61 0 -100 -36t-48 -93h181zM280 579l57 155h113l-75 -155h-95z" />
    <glyph glyph-name="ebreve.ss01" horiz-adv-x="606" 
d="M315 -10q-58 0 -107 19t-84.5 53.5t-55.5 82t-20 103.5v15q0 57 20 105.5t56 84.5t85.5 56t107.5 20h12q48 0 90.5 -13.5t74 -37t50 -56t18.5 -70.5q0 -66 -50 -99.5t-155 -33.5h-183q9 -59 50.5 -91.5t98.5 -32.5h13q47 0 85.5 18t67.5 49l73 -71q-37 -45 -99 -73
t-134 -28h-14zM355 303q48 0 66 15t18 42q0 29 -31 50.5t-82 21.5h-4q-61 0 -100 -36t-48 -93h181zM264 720q0 -28 19 -44.5t49 -16.5q29 0 47.5 17t18.5 44h104q0 -32 -12 -58.5t-34.5 -45.5t-54.5 -29.5t-71 -10.5q-78 0 -124 39.5t-46 104.5h104z" />
    <glyph glyph-name="ecaron.ss01" horiz-adv-x="606" 
d="M315 -10q-58 0 -107 19t-84.5 53.5t-55.5 82t-20 103.5v15q0 57 20 105.5t56 84.5t85.5 56t107.5 20h12q48 0 90.5 -13.5t74 -37t50 -56t18.5 -70.5q0 -66 -50 -99.5t-155 -33.5h-183q9 -59 50.5 -91.5t98.5 -32.5h13q47 0 85.5 18t67.5 49l73 -71q-37 -45 -99 -73
t-134 -28h-14zM355 303q48 0 66 15t18 42q0 29 -31 50.5t-82 21.5h-4q-61 0 -100 -36t-48 -93h181zM134 720h117l72 -65h18l72 65h117l-128 -134h-140z" />
    <glyph glyph-name="ecircumflex.ss01" horiz-adv-x="606" 
d="M315 -10q-58 0 -107 19t-84.5 53.5t-55.5 82t-20 103.5v15q0 57 20 105.5t56 84.5t85.5 56t107.5 20h12q48 0 90.5 -13.5t74 -37t50 -56t18.5 -70.5q0 -66 -50 -99.5t-155 -33.5h-183q9 -59 50.5 -91.5t98.5 -32.5h13q47 0 85.5 18t67.5 49l73 -71q-37 -45 -99 -73
t-134 -28h-14zM355 303q48 0 66 15t18 42q0 29 -31 50.5t-82 21.5h-4q-61 0 -100 -36t-48 -93h181zM413 592l-72 59h-18l-72 -59h-117l128 128h140l128 -128h-117z" />
    <glyph glyph-name="edieresis.ss01" horiz-adv-x="604" 
d="M311 -10q-58 0 -107 19t-84.5 53.5t-55.5 82t-20 103.5v15q0 57 20 105.5t56 84.5t85.5 56t107.5 20h12q48 0 90.5 -13.5t74 -37t50 -56t18.5 -70.5q0 -66 -50 -99.5t-155 -33.5h-183q9 -59 50.5 -91.5t98.5 -32.5h13q47 0 85.5 18t67.5 49l73 -71q-37 -45 -99 -73
t-134 -28h-14zM351 303q48 0 66 15t18 42q0 29 -31 50.5t-82 21.5h-4q-61 0 -100 -36t-48 -93h181zM431 609q-29 0 -46.5 17t-17.5 44t17.5 44.5t46.5 17.5t48 -17.5t19 -44.5t-19 -44t-48 -17zM222 609q-29 0 -47 17t-18 44t18 44.5t47 17.5q28 0 47 -17.5t19 -44.5
t-19 -44t-47 -17z" />
    <glyph glyph-name="edotaccent.ss01" horiz-adv-x="606" 
d="M315 -10q-58 0 -107 19t-84.5 53.5t-55.5 82t-20 103.5v15q0 57 20 105.5t56 84.5t85.5 56t107.5 20h12q48 0 90.5 -13.5t74 -37t50 -56t18.5 -70.5q0 -66 -50 -99.5t-155 -33.5h-183q9 -59 50.5 -91.5t98.5 -32.5h13q47 0 85.5 18t67.5 49l73 -71q-37 -45 -99 -73
t-134 -28h-14zM355 303q48 0 66 15t18 42q0 29 -31 50.5t-82 21.5h-4q-61 0 -100 -36t-48 -93h181zM332 604q-32 0 -52.5 18.5t-20.5 47.5t20.5 48.5t52.5 19.5q33 0 54.5 -19.5t21.5 -48.5t-21.5 -47.5t-54.5 -18.5z" />
    <glyph glyph-name="egrave.ss01" horiz-adv-x="606" 
d="M315 -10q-58 0 -107 19t-84.5 53.5t-55.5 82t-20 103.5v15q0 57 20 105.5t56 84.5t85.5 56t107.5 20h12q48 0 90.5 -13.5t74 -37t50 -56t18.5 -70.5q0 -66 -50 -99.5t-155 -33.5h-183q9 -59 50.5 -91.5t98.5 -32.5h13q47 0 85.5 18t67.5 49l73 -71q-37 -45 -99 -73
t-134 -28h-14zM355 303q48 0 66 15t18 42q0 29 -31 50.5t-82 21.5h-4q-61 0 -100 -36t-48 -93h181zM211 735h114l56 -154h-94z" />
    <glyph glyph-name="emacron.ss01" horiz-adv-x="606" 
d="M315 -10q-58 0 -107 19t-84.5 53.5t-55.5 82t-20 103.5v15q0 57 20 105.5t56 84.5t85.5 56t107.5 20h12q48 0 90.5 -13.5t74 -37t50 -56t18.5 -70.5q0 -66 -50 -99.5t-155 -33.5h-183q9 -59 50.5 -91.5t98.5 -32.5h13q47 0 85.5 18t67.5 49l73 -71q-37 -45 -99 -73
t-134 -28h-14zM355 303q48 0 66 15t18 42q0 29 -31 50.5t-82 21.5h-4q-61 0 -100 -36t-48 -93h181zM185 717h293v-92h-293v92z" />
    <glyph glyph-name="eogonek.ss01" horiz-adv-x="606" 
d="M406 -173q-21 -6 -42 -6q-42 0 -66.5 21t-24.5 59q0 45 36 89q-57 1 -104.5 20.5t-82.5 54t-54.5 81.5t-19.5 102v15q0 57 20 105.5t56 84.5t85.5 56t107.5 20h12q48 0 90.5 -13.5t74 -37t50 -56t18.5 -70.5q0 -66 -50 -99.5t-155 -33.5h-183q9 -59 50.5 -91.5
t98.5 -32.5h13q47 0 85.5 18t67.5 49l73 -71q-22 -26 -52 -46.5t-66 -33.5h1q-15 -4 -31 -12.5t-28.5 -19.5t-20.5 -25.5t-8 -32.5q0 -33 27 -33q5 0 11 2t11 4v-67zM355 303q48 0 66 15t18 42q0 29 -31 50.5t-82 21.5h-4q-61 0 -100 -36t-48 -93h181z" />
    <glyph glyph-name="f.ss01" horiz-adv-x="378" 
d="M92 422h-68v81q11 5 26 8.5t29 5.5q-2 15 -3.5 27t-1.5 23q0 33 12 60.5t33.5 48t53 31.5t70.5 11q29 0 60.5 -5.5t53.5 -15.5v-99q-42 17 -82 17q-81 0 -81 -66q0 -14 3 -29h160v-98h-141v-612h-124v612z" />
    <glyph glyph-name="g.ss01" horiz-adv-x="572" 
d="M269 -205q-49 0 -90.5 13.5t-72 38t-48 59t-17.5 75.5v7q0 51 25.5 91.5t70.5 64.5q-36 26 -61 67.5t-25 93.5v19q0 45 16 83t44.5 65t68 42t87.5 15h22q35 0 68 -9h191v-100h-68q24 -40 24 -96v-18q0 -45 -15.5 -81.5t-44 -63t-68 -41.5t-87.5 -16q-62 -2 -95 -29
t-33 -72v-5q0 -48 33.5 -73t84.5 -25h9q58 0 96.5 34t44.5 86l108 -21q-5 -45 -24.5 -82.5t-52 -64.5t-76.5 -42t-98 -15h-17zM283 200q46 0 75 30t29 78v17q0 48 -29 78t-75 30h-10q-47 0 -76 -29.5t-29 -78.5v-17q0 -49 29 -78.5t76 -29.5h10z" />
    <glyph glyph-name="uni01F5.ss01" horiz-adv-x="572" 
d="M269 -205q-49 0 -90.5 13.5t-72 38t-48 59t-17.5 75.5v7q0 51 25.5 91.5t70.5 64.5q-36 26 -61 67.5t-25 93.5v19q0 45 16 83t44.5 65t68 42t87.5 15h22q35 0 68 -9h191v-100h-68q24 -40 24 -96v-18q0 -45 -15.5 -81.5t-44 -63t-68 -41.5t-87.5 -16q-62 -2 -95 -29
t-33 -72v-5q0 -48 33.5 -73t84.5 -25h9q58 0 96.5 34t44.5 86l108 -21q-5 -45 -24.5 -82.5t-52 -64.5t-76.5 -42t-98 -15h-17zM283 200q46 0 75 30t29 78v17q0 48 -29 78t-75 30h-10q-47 0 -76 -29.5t-29 -78.5v-17q0 -49 29 -78.5t76 -29.5h10zM227 579l57 155h113
l-75 -155h-95z" />
    <glyph glyph-name="gbreve.ss01" horiz-adv-x="572" 
d="M269 -205q-49 0 -90.5 13.5t-72 38t-48 59t-17.5 75.5v7q0 51 25.5 91.5t70.5 64.5q-36 26 -61 67.5t-25 93.5v19q0 45 16 83t44.5 65t68 42t87.5 15h22q35 0 68 -9h191v-100h-68q24 -40 24 -96v-18q0 -45 -15.5 -81.5t-44 -63t-68 -41.5t-87.5 -16q-62 -2 -95 -29
t-33 -72v-5q0 -48 33.5 -73t84.5 -25h9q58 0 96.5 34t44.5 86l108 -21q-5 -45 -24.5 -82.5t-52 -64.5t-76.5 -42t-98 -15h-17zM283 200q46 0 75 30t29 78v17q0 48 -29 78t-75 30h-10q-47 0 -76 -29.5t-29 -78.5v-17q0 -49 29 -78.5t76 -29.5h10zM211 720q0 -28 19 -44.5
t49 -16.5q29 0 47.5 17t18.5 44h104q0 -32 -12 -58.5t-34.5 -45.5t-54.5 -29.5t-71 -10.5q-78 0 -124 39.5t-46 104.5h104z" />
    <glyph glyph-name="gcircumflex.ss01" horiz-adv-x="572" 
d="M269 -205q-49 0 -90.5 13.5t-72 38t-48 59t-17.5 75.5v7q0 51 25.5 91.5t70.5 64.5q-36 26 -61 67.5t-25 93.5v19q0 45 16 83t44.5 65t68 42t87.5 15h22q35 0 68 -9h191v-100h-68q24 -40 24 -96v-18q0 -45 -15.5 -81.5t-44 -63t-68 -41.5t-87.5 -16q-62 -2 -95 -29
t-33 -72v-5q0 -48 33.5 -73t84.5 -25h9q58 0 96.5 34t44.5 86l108 -21q-5 -45 -24.5 -82.5t-52 -64.5t-76.5 -42t-98 -15h-17zM283 200q46 0 75 30t29 78v17q0 48 -29 78t-75 30h-10q-47 0 -76 -29.5t-29 -78.5v-17q0 -49 29 -78.5t76 -29.5h10zM360 592l-72 59h-18l-72 -59
h-117l128 128h140l128 -128h-117z" />
    <glyph glyph-name="uni0123.ss01" horiz-adv-x="572" 
d="M269 -205q-49 0 -90.5 13.5t-72 38t-48 59t-17.5 75.5v7q0 51 25.5 91.5t70.5 64.5q-36 26 -61 67.5t-25 93.5v19q0 45 16 83t44.5 65t68 42t87.5 15h22q35 0 68 -9h191v-100h-68q24 -40 24 -96v-18q0 -45 -15.5 -81.5t-44 -63t-68 -41.5t-87.5 -16q-62 -2 -95 -29
t-33 -72v-5q0 -48 33.5 -73t84.5 -25h9q58 0 96.5 34t44.5 86l108 -21q-5 -45 -24.5 -82.5t-52 -64.5t-76.5 -42t-98 -15h-17zM283 200q46 0 75 30t29 78v17q0 48 -29 78t-75 30h-10q-47 0 -76 -29.5t-29 -78.5v-17q0 -49 29 -78.5t76 -29.5h10zM328 710q-16 -8 -24.5 -20.5
t-9.5 -26.5q20 -2 31.5 -16t11.5 -33q0 -22 -14.5 -38t-41.5 -16q-29 0 -46 19.5t-17 48.5q0 31 18.5 63.5t54.5 53.5z" />
    <glyph glyph-name="gdotaccent.ss01" horiz-adv-x="572" 
d="M269 -205q-49 0 -90.5 13.5t-72 38t-48 59t-17.5 75.5v7q0 51 25.5 91.5t70.5 64.5q-36 26 -61 67.5t-25 93.5v19q0 45 16 83t44.5 65t68 42t87.5 15h22q35 0 68 -9h191v-100h-68q24 -40 24 -96v-18q0 -45 -15.5 -81.5t-44 -63t-68 -41.5t-87.5 -16q-62 -2 -95 -29
t-33 -72v-5q0 -48 33.5 -73t84.5 -25h9q58 0 96.5 34t44.5 86l108 -21q-5 -45 -24.5 -82.5t-52 -64.5t-76.5 -42t-98 -15h-17zM283 200q46 0 75 30t29 78v17q0 48 -29 78t-75 30h-10q-47 0 -76 -29.5t-29 -78.5v-17q0 -49 29 -78.5t76 -29.5h10zM279 604q-32 0 -52.5 18.5
t-20.5 47.5t20.5 48.5t52.5 19.5q33 0 54.5 -19.5t21.5 -48.5t-21.5 -47.5t-54.5 -18.5z" />
    <glyph glyph-name="l.ss01" horiz-adv-x="306" 
d="M188 -5q-63 0 -93 36.5t-30 111.5v577h124v-554q0 -38 11 -51.5t35 -13.5q12 0 26 1.5t25 5.5v-97q-20 -8 -46.5 -12t-51.5 -4z" />
    <glyph glyph-name="lacute.ss01" horiz-adv-x="306" 
d="M188 -5q-63 0 -93 36.5t-30 111.5v577h124v-554q0 -38 11 -51.5t35 -13.5q12 0 26 1.5t25 5.5v-97q-20 -8 -46.5 -12t-51.5 -4zM176 759h-101l52 147h120z" />
    <glyph glyph-name="lcaron.ss01" horiz-adv-x="306" 
d="M188 -5q-63 0 -93 36.5t-30 111.5v577h124v-554q0 -38 11 -51.5t35 -13.5q12 0 26 1.5t25 5.5v-97q-20 -8 -46.5 -12t-51.5 -4zM263 720h107l-37 -166h-80z" />
    <glyph glyph-name="uni013C.ss01" horiz-adv-x="306" 
d="M188 -5q-63 0 -93 36.5t-30 111.5v577h124v-554q0 -38 11 -51.5t35 -13.5q12 0 26 1.5t25 5.5v-97q-20 -8 -46.5 -12t-51.5 -4zM139 -38h108l-64 -151h-81z" />
    <glyph glyph-name="ldot.ss01" horiz-adv-x="406" 
d="M188 -5q-63 0 -93 36.5t-30 111.5v577h124v-554q0 -38 11 -51.5t35 -13.5q12 0 26 1.5t25 5.5v-97q-20 -8 -46.5 -12t-51.5 -4zM337 301q-32 0 -52.5 18.5t-20.5 48.5t20.5 49t52.5 19q33 0 54 -19t21 -49t-21 -48.5t-54 -18.5z" />
    <glyph glyph-name="lslash.ss01" horiz-adv-x="356" 
d="M25 350l83 42v328h124v-265l91 47v-97l-91 -47v-192q0 -38 11 -51.5t35 -13.5q12 0 26 1.5t25 5.5v-97q-20 -8 -46.5 -12t-51.5 -4q-63 0 -93 36.5t-30 111.5v152l-83 -42v97z" />
    <glyph glyph-name="oe.ss01" horiz-adv-x="1003" 
d="M308 -9q-57 0 -105.5 19.5t-84 54t-55 83t-19.5 105.5v14q0 57 19.5 105.5t55 83t84 54t105.5 19.5h8q64 0 116.5 -24t87.5 -66q35 42 86 66t114 24h13q47 0 87.5 -13.5t71.5 -37t48.5 -56t17.5 -70.5q0 -66 -48 -99.5t-150 -33.5h-178q8 -59 48 -91.5t95 -32.5h12
q45 0 82 18t66 49l73 -71q-37 -45 -97.5 -73t-129.5 -28h-14q-62 0 -113 23t-86 65q-35 -41 -87 -64t-115 -23h-8zM753 303q48 0 65.5 15t17.5 42q0 29 -30.5 50.5t-78.5 21.5h-3q-59 0 -96.5 -36t-45.5 -93h171zM318 89q31 0 57 12.5t44.5 34.5t29 52.5t10.5 66.5v10
q0 36 -10.5 66.5t-29 52.5t-44.5 34.5t-57 12.5h-4q-31 0 -56.5 -12.5t-44 -34.5t-29 -52.5t-10.5 -66.5v-10q0 -36 10.5 -66.5t29 -52.5t44 -34.5t56.5 -12.5h4z" />
    <glyph glyph-name="p.ss01" horiz-adv-x="647" 
d="M76 520h98q6 -16 10.5 -41.5t5.5 -43.5v-8q29 45 75.5 73t109.5 28h6q53 0 93.5 -19.5t68.5 -53.5t42 -79t14 -96v-12q0 -56 -18.5 -106t-54 -88t-87.5 -60.5t-120 -22.5h-7q-55 0 -112 22v-203h-124v710zM307 88q41 0 71.5 14.5t51 38.5t31 56t10.5 67v6q0 38 -10 67
t-26.5 48.5t-39 29t-47.5 9.5h-5q-32 0 -59 -12.5t-46 -34.5t-29.5 -51.5t-10.5 -63.5v-140q23 -17 50.5 -25.5t54.5 -8.5h4z" />
    <glyph glyph-name="q.ss01" horiz-adv-x="642" 
d="M449 79q-30 -39 -73 -63t-102 -24h-6q-53 0 -94 19.5t-69 53.5t-42.5 79t-14.5 96v11q0 56 18.5 106.5t54 88.5t88.5 60.5t122 22.5h7q63 0 123.5 -21.5t111.5 -62.5v-635h-124v269zM305 96q32 0 58.5 12.5t45.5 34.5t29.5 51.5t10.5 63.5v140q-22 17 -49.5 25t-55.5 8
h-3q-41 0 -72 -14t-51.5 -38t-30.5 -56t-10 -67v-6q0 -38 10 -67t26.5 -48.5t39 -29t47.5 -9.5h5z" />
    <glyph glyph-name="germandbls.ss01" horiz-adv-x="626" 
d="M92 422h-68v81q14 5 32.5 9.5t35.5 6.5v2q3 44 21 80t49 62t73.5 40.5t94.5 14.5q51 0 93 -13.5t71.5 -38.5t46 -59t16.5 -76q0 -46 -19 -83t-52 -62q51 -26 79.5 -74t28.5 -114q0 -46 -15 -84.5t-42 -66t-65 -42.5t-85 -15q-29 0 -60.5 6t-50.5 15v97q12 -5 33.5 -8
t38.5 -3q54 0 87.5 32.5t33.5 86.5q0 53 -32 84.5t-86 31.5h-57v86h48q42 2 67.5 29.5t25.5 69.5q0 45 -29 72.5t-77 27.5q-51 0 -82 -31t-31 -83v-693h-124v612z" />
    <glyph glyph-name="t.ss01" horiz-adv-x="401" 
d="M247 -5q-78 0 -121.5 41t-43.5 125q0 63 6.5 130t17.5 129h-88v84q15 5 35 9t38 6v121l124 15v-135h156v-100h-155q-3 -49 -6.5 -106.5t-3.5 -126.5q0 -48 19.5 -66.5t55.5 -18.5q10 0 23 1t26.5 2.5t26 3.5t20.5 4v-98q-12 -5 -28.5 -9t-34.5 -6.5t-35.5 -3.5t-31.5 -1z
" />
    <glyph glyph-name="tbar.ss01" horiz-adv-x="398" 
d="M29 329h64q3 23 6.5 46t7.5 45h-88v84q15 5 35 9t38 6v121l124 15v-135h156v-100h-155q-1 -21 -2.5 -43.5t-2.5 -47.5h133v-87h-137q0 -14 -0.5 -27.5t-0.5 -27.5q0 -48 19.5 -66.5t55.5 -18.5q10 0 23 1t26.5 2.5t26 3.5t20.5 4v-98q-12 -5 -28.5 -9t-34.5 -6.5
t-35.5 -3.5t-31.5 -1q-78 0 -121.5 41t-43.5 125q0 39 3 81h-57v87z" />
    <glyph glyph-name="tcaron.ss01" horiz-adv-x="412" 
d="M247 -5q-78 0 -121.5 41t-43.5 125q0 63 6.5 130t17.5 129h-88v84q15 5 35 9t38 6v121l124 15v-135h156v-100h-155q-3 -49 -6.5 -106.5t-3.5 -126.5q0 -48 19.5 -66.5t55.5 -18.5q10 0 23 1t26.5 2.5t26 3.5t20.5 4v-98q-12 -5 -28.5 -9t-34.5 -6.5t-35.5 -3.5t-31.5 -1z
M309 720h107l-37 -166h-80z" />
    <glyph glyph-name="uni0163.ss01" horiz-adv-x="401" 
d="M247 -5q-78 0 -121.5 41t-43.5 125q0 63 6.5 130t17.5 129h-88v84q15 5 35 9t38 6v121l124 15v-135h156v-100h-155q-3 -49 -6.5 -106.5t-3.5 -126.5q0 -48 19.5 -66.5t55.5 -18.5q10 0 23 1t26.5 2.5t26 3.5t20.5 4v-98q-12 -5 -28.5 -9t-34.5 -6.5t-35.5 -3.5t-31.5 -1z
M203 -179q-24 0 -50 6l8 67q6 -2 12.5 -4t13.5 -2q17 0 24.5 7t7.5 16q0 12 -10 21t-34 9l24 59h71l-14 -30q50 -19 50 -67q0 -15 -6.5 -29.5t-19.5 -26t-32.5 -19t-44.5 -7.5z" />
    <glyph glyph-name="uni021B.ss01" horiz-adv-x="401" 
d="M247 -5q-78 0 -121.5 41t-43.5 125q0 63 6.5 130t17.5 129h-88v84q15 5 35 9t38 6v121l124 15v-135h156v-100h-155q-3 -49 -6.5 -106.5t-3.5 -126.5q0 -48 19.5 -66.5t55.5 -18.5q10 0 23 1t26.5 2.5t26 3.5t20.5 4v-98q-12 -5 -28.5 -9t-34.5 -6.5t-35.5 -3.5t-31.5 -1z
M198 -38h108l-64 -151h-81z" />
    <glyph glyph-name="f_f.ss01" horiz-adv-x="696" 
d="M92 422h-68v81q11 5 26 8.5t29 5.5q-2 15 -3.5 27t-1.5 23q0 33 12 60.5t33.5 48t53 31.5t70.5 11q29 0 60.5 -5.5t53.5 -15.5v-99q-42 17 -82 17q-81 0 -81 -65q0 -6 0.5 -14t2.5 -16h200q-2 14 -3.5 25.5t-1.5 21.5q0 33 12 60.5t34 48t53.5 31.5t70.5 11q29 0 60 -5.5
t53 -15.5v-99q-40 17 -81 17q-82 0 -82 -65q0 -6 0.5 -14t2.5 -16h160v-98h-141v-612h-124v612h-194v-612h-124v612z" />
    <glyph glyph-name="f_f_i.ss01" horiz-adv-x="922" 
d="M785 601q-32 0 -52.5 18.5t-20.5 47.5t20.5 48.5t52.5 19.5q33 0 54 -19.5t21 -48.5t-21 -47.5t-54 -18.5zM724 422h-190v-612h-124v612h-194v-612h-124v612h-68v81q11 5 26 8.5t29 5.5q-2 15 -3.5 27t-1.5 23q0 33 12 60.5t33.5 48t53 31.5t70.5 11q29 0 60.5 -5.5
t53.5 -15.5v-99q-42 17 -82 17q-42 0 -61.5 -17t-19.5 -48q0 -15 3 -30h200q-2 14 -3.5 25.5t-1.5 21.5q0 33 12 60.5t34 48t53.5 31.5t70.5 11q29 0 60 -5.5t53 -15.5v-99q-40 17 -81 17q-42 0 -62 -17t-20 -48q0 -15 3 -30h333v-520h-124v422z" />
    <glyph glyph-name="f_f_l.ss01" horiz-adv-x="953" 
d="M835 -5q-63 0 -93 36.5t-30 111.5v443q-20 11 -53 21t-64 10q-83 0 -83 -67q0 -15 3 -30h143v-98h-124v-612h-124v612h-194v-612h-124v612h-68v81q11 5 26 8.5t29 5.5q-2 15 -3.5 27t-1.5 23q0 33 12 60.5t33.5 48t53 31.5t70.5 11q29 0 60.5 -5.5t53.5 -15.5v-99
q-42 17 -82 17q-81 0 -81 -64q0 -16 3 -31h200q-2 14 -3.5 25.5t-1.5 22.5q0 68 48 109t131 41q36 0 72.5 -6.5t71 -17t65.5 -22.5t56 -24v-482q0 -38 11 -51.5t35 -13.5q12 0 26 2t25 5v-97q-20 -8 -46.5 -12t-51.5 -4z" />
    <glyph glyph-name="fi.ss01" horiz-adv-x="604" 
d="M466 601q-32 0 -52.5 18.5t-20.5 47.5t20.5 48.5t52.5 19.5q33 0 54 -19.5t21 -48.5t-21 -47.5t-54 -18.5zM405 422h-189v-612h-124v612h-68v81q11 5 26 8.5t29 5.5q-2 15 -3.5 27t-1.5 23q0 33 12 60.5t33.5 48t53 31.5t70.5 11q29 0 60.5 -5.5t53.5 -15.5v-99
q-42 17 -82 17q-81 0 -81 -64q0 -16 3 -31h332v-520h-124v422z" />
    <glyph glyph-name="fl.ss01" horiz-adv-x="634" 
d="M516 -5q-63 0 -93 36.5t-30 111.5v443q-20 11 -53 21t-64 10q-83 0 -83 -66q0 -16 3 -31h143v-98h-124v-612h-124v612h-68v81q12 5 27 8.5t29 5.5q-6 32 -6 51q0 68 48 109t131 41q36 0 72.5 -6.5t71 -17t65.5 -22.5t56 -24v-482q0 -38 11 -51.5t35 -13.5q12 0 26 2t25 5
v-97q-20 -8 -46.5 -12t-51.5 -4z" />
    </font>
</defs>
</svg>
