<svg width="1280" height="424" viewBox="0 0 1280 424" fill="none" xmlns="http://www.w3.org/2000/svg">
<g clip-path="url(#clip0_93_5564)">
<rect width="1280" height="424" rx="32" fill="#F35E2F"/>
<path d="M238.154 500.376C203.5 504.436 169.034 491.408 145.731 465.441L113.317 429.324C91.6034 405.129 93.615 367.912 117.81 346.198C142.006 324.484 179.222 326.496 200.936 350.691L209.261 359.967C215.917 367.384 224.158 373.206 233.372 377.003L298.54 403.855C343.343 422.315 334.864 488.163 286.846 494.671L238.154 500.376Z" fill="#1E1C2C"/>
<path d="M1065.33 445.027C1082.94 467.21 1109.89 479.917 1138.21 479.394L1235.43 477.599C1274.73 476.873 1305.99 444.429 1305.27 405.132C1304.54 365.835 1272.1 334.567 1232.8 335.292L1208.57 335.74C1196.84 335.956 1185.17 334.007 1174.14 329.991L1138.75 317.095C1112.96 307.695 1084.08 313.352 1063.74 331.789C1034.85 357.971 1031.24 402.079 1055.48 432.614L1065.33 445.027Z" fill="#FFB33F"/>
<path d="M-168.273 389.927C-155.658 357.716 -128.749 333.227 -95.4968 323.692L18.6625 290.957C64.8053 277.726 112.937 304.406 126.169 350.549C139.4 396.691 112.72 444.823 66.577 458.055L38.1216 466.214C24.3475 470.164 11.42 476.62 -0.0120329 485.26L-36.7133 512.996C-63.4642 533.212 -99.2097 536.953 -129.567 522.714C-172.677 502.493 -192.698 452.288 -175.332 407.95L-168.273 389.927Z" fill="#FFB33F"/>
<path d="M-187.236 -39.4167C-172.705 -76.5155 -141.713 -104.722 -103.414 -115.704L28.0711 -153.407C81.2169 -168.646 136.654 -137.917 151.893 -84.7709C167.132 -31.6251 136.403 23.8119 83.2575 39.0512L50.4835 48.449C34.6189 52.9981 19.7294 60.4345 6.56235 70.385L-35.7091 102.33C-66.5198 125.614 -107.69 129.923 -142.655 113.523C-192.308 90.2337 -215.367 32.4091 -195.366 -18.6575L-187.236 -39.4167Z" fill="#1E1C2C"/>
<path d="M1131.76 -89.4167C1146.29 -126.515 1177.29 -154.722 1215.59 -165.704L1347.07 -203.407C1400.22 -218.646 1455.65 -187.917 1470.89 -134.771C1486.13 -81.6251 1455.4 -26.1881 1402.26 -10.9488L1369.48 -1.55104C1353.62 2.99808 1338.73 10.4345 1325.56 20.385L1283.29 52.3303C1252.48 75.6145 1211.31 79.9235 1176.35 63.5235C1126.69 40.2337 1103.63 -17.5909 1123.63 -68.6575L1131.76 -89.4167Z" fill="#1E1C2C"/>
</g>
<defs>
<clipPath id="clip0_93_5564">
<rect width="1280" height="424" rx="32" fill="white"/>
</clipPath>
</defs>
</svg>
