<svg width="101" height="26" viewBox="0 0 101 26" fill="none" xmlns="http://www.w3.org/2000/svg">
<path d="M0.0125241 26.0003C-0.0125241 23.6888 1.00364e-07 21.3036 0.0500965 18.8446C0.100193 16.3856 0.175337 14.0003 0.27553 11.6888C0.400771 9.37737 0.538536 7.22573 0.688825 5.23393C0.864162 3.24213 1.06455 1.55771 1.28998 0.180664H7.00096L16.4316 17.2585H16.6946V0.180664H22.368V26.0003H16.5443L6.28709 7.52082H5.94894C5.84875 8.99622 5.7736 10.5577 5.7235 12.2052C5.69846 13.8282 5.68593 15.4511 5.68593 17.0741C5.71098 18.697 5.74855 20.2708 5.79865 21.7954C5.87379 23.32 5.96146 24.7216 6.06165 26.0003H0.0125241Z" fill="#1E1C2C"/>
<path d="M55.7739 0.180664H62.0109L67.271 20.1355H67.797C68.4733 18.8323 69.1621 17.3815 69.8635 15.7831C70.5648 14.1601 71.191 12.4757 71.7421 10.7298C72.3182 8.95934 72.8066 7.17655 73.2074 5.38148C73.6082 3.56181 73.8461 1.8282 73.9213 0.180664H80.008C79.7325 2.54132 79.2941 4.87738 78.693 7.18885C78.0918 9.50032 77.3779 11.7503 76.5513 13.9388C75.7248 16.1028 74.8105 18.2052 73.8086 20.2462C72.8317 22.2626 71.8172 24.1806 70.7652 26.0003H63.1005L55.7739 0.180664Z" fill="#1E1C2C"/>
<path d="M83.9798 0.180664H100.624V5.19705H89.841V10.6561H99.8728V15.4142H89.841V20.9839H101V26.0003H83.9798V0.180664Z" fill="#1E1C2C"/>
<path d="M53.0587 12.9095C53.0587 20.0392 47.1713 25.819 39.9087 25.819C32.6462 25.819 26.7588 20.0392 26.7588 12.9095C26.7588 5.77977 32.6462 0 39.9087 0C47.1713 0 53.0587 5.77977 53.0587 12.9095Z" fill="white"/>
<path fill-rule="evenodd" clip-rule="evenodd" d="M39.9087 19.3642C43.54 19.3642 46.4837 16.4743 46.4837 12.9095C46.4837 9.34463 43.54 6.45474 39.9087 6.45474C36.2775 6.45474 33.3338 9.34463 33.3338 12.9095C33.3338 16.4743 36.2775 19.3642 39.9087 19.3642ZM39.9087 25.819C47.1713 25.819 53.0587 20.0392 53.0587 12.9095C53.0587 5.77977 47.1713 0 39.9087 0C32.6462 0 26.7588 5.77977 26.7588 12.9095C26.7588 20.0392 32.6462 25.819 39.9087 25.819Z" fill="#F35E2F"/>
</svg>
